<svg width="98" height="77" viewBox="0 0 98 77" fill="none" xmlns="http://www.w3.org/2000/svg">
<g filter="url(#filter0_d_162_9709)">
<path d="M72.5533 13.993C68.1439 12.1476 63.4176 10.7835 58.4751 10.0079C58.4311 10 58.3855 10.0051 58.3447 10.0224C58.3039 10.0396 58.2699 10.0682 58.2474 10.1042C57.6422 11.0911 56.9679 12.3776 56.4952 13.3939C51.2533 12.6671 45.9241 12.6671 40.6822 13.3939C40.1557 12.2676 39.5621 11.1693 38.904 10.1042C38.8817 10.0678 38.848 10.0385 38.8073 10.0204C38.7666 10.0022 38.7209 9.99598 38.6763 10.0025C33.7367 10.7782 29.0104 12.1422 24.5982 13.9904C24.5602 14.0051 24.528 14.0303 24.506 14.0626C15.5374 26.2989 13.0792 38.2329 14.2867 50.0172C14.2901 50.0461 14.2997 50.074 14.3151 50.0993C14.3304 50.1246 14.3512 50.1467 14.376 50.1643C19.6107 53.7013 25.4493 56.3957 31.6474 58.1346C31.6906 58.147 31.7368 58.147 31.78 58.1345C31.8231 58.1221 31.8613 58.0979 31.8894 58.0651C33.2232 56.4097 34.4051 54.6535 35.4227 52.8149C35.4368 52.7897 35.4449 52.7621 35.4465 52.7338C35.4481 52.7054 35.4432 52.6771 35.432 52.6508C35.4208 52.6244 35.4036 52.6006 35.3816 52.5809C35.3596 52.5612 35.3333 52.5461 35.3045 52.5367C33.4428 51.886 31.639 51.1009 29.9096 50.1884C29.8785 50.1719 29.8523 50.1486 29.8334 50.1204C29.8144 50.0922 29.8033 50.0601 29.801 50.027C29.7987 49.9939 29.8053 49.9607 29.8203 49.9305C29.8352 49.9004 29.8579 49.8741 29.8865 49.8541C30.2496 49.6053 30.6127 49.3459 30.9586 49.0865C30.9897 49.0631 31.0272 49.0483 31.0669 49.0436C31.1066 49.0388 31.1469 49.0444 31.1834 49.0597C42.5006 53.7777 54.7574 53.7777 65.9421 49.0597C65.9787 49.0435 66.0194 49.0372 66.0597 49.0415C66.1 49.0457 66.1381 49.0604 66.1698 49.0838C66.5156 49.3459 66.8759 49.6053 67.2419 49.8541C67.2707 49.8737 67.2939 49.8996 67.3093 49.9295C67.3247 49.9594 67.3318 49.9924 67.3301 50.0256C67.3284 50.0587 67.3179 50.0909 67.2994 50.1193C67.281 50.1477 67.2553 50.1715 67.2246 50.1884C65.5012 51.1085 63.7087 51.8868 61.8268 52.534C61.7979 52.5438 61.7715 52.5591 61.7495 52.579C61.7275 52.599 61.7104 52.623 61.6992 52.6496C61.688 52.6762 61.6831 52.7047 61.6847 52.7332C61.6863 52.7617 61.6945 52.7895 61.7086 52.8149C62.7461 54.6523 63.9334 56.4015 65.239 58.0624C65.2661 58.0965 65.3039 58.122 65.3472 58.1354C65.3906 58.1488 65.4373 58.1495 65.481 58.1373C71.6897 56.4032 77.5378 53.7076 82.7783 50.1643C82.8039 50.1477 82.8253 50.1263 82.8412 50.1014C82.8571 50.0765 82.8671 50.0487 82.8705 50.0199C84.3115 36.3955 80.4555 24.5577 72.6426 14.0679C72.6234 14.0338 72.5917 14.0073 72.5533 13.993ZM37.1143 42.8413C33.7079 42.8413 30.8981 39.9821 30.8981 36.4757C30.8981 32.9667 33.6532 30.1102 37.1143 30.1102C40.6015 30.1102 43.3854 32.9907 43.3306 36.4757C43.3306 39.9848 40.5755 42.8413 37.1143 42.8413ZM60.0976 42.8413C56.6883 42.8413 53.8813 39.9821 53.8813 36.4757C53.8813 32.9667 56.6336 30.1102 60.0976 30.1102C63.5847 30.1102 66.3687 32.9907 66.3139 36.4757C66.3139 39.9848 63.5876 42.8413 60.0976 42.8413Z" fill="white"/>
</g>
<defs>
<filter id="filter0_d_162_9709" x="0" y="0" width="97.168" height="76.146" filterUnits="userSpaceOnUse" color-interpolation-filters="sRGB">
<feFlood flood-opacity="0" result="BackgroundImageFix"/>
<feColorMatrix in="SourceAlpha" type="matrix" values="0 0 0 0 0 0 0 0 0 0 0 0 0 0 0 0 0 0 127 0" result="hardAlpha"/>
<feOffset dy="4"/>
<feGaussianBlur stdDeviation="7"/>
<feComposite in2="hardAlpha" operator="out"/>
<feColorMatrix type="matrix" values="0 0 0 0 0.960784 0 0 0 0 0.0823529 0 0 0 0 0.635294 0 0 0 1 0"/>
<feBlend mode="normal" in2="BackgroundImageFix" result="effect1_dropShadow_162_9709"/>
<feBlend mode="normal" in="SourceGraphic" in2="effect1_dropShadow_162_9709" result="shape"/>
</filter>
</defs>
</svg>
