<svg width="267" height="197" viewBox="0 0 267 197" fill="none" xmlns="http://www.w3.org/2000/svg">
<path d="M156.149 138.051C156.149 138.051 166.054 137.691 168.439 140.441C168.439 140.441 166.054 143.921 158.167 146.301L159.818 148.871L157.433 154.561C157.433 154.561 158.167 146.671 155.966 146.491C155.966 146.491 150.28 148.691 134.689 147.771C119.098 146.851 114.88 146.851 113.779 147.771C113.779 147.771 124.418 144.291 132.855 143.921C141.109 143.741 148.996 138.791 156.149 138.051Z" fill="#456DB2"/>
<path d="M147.896 131.631C147.896 131.631 152.481 134.941 154.315 140.441L155.599 139.521C155.783 139.341 154.315 134.751 147.896 131.631Z" fill="#456DB2"/>
<path d="M258.865 172.711C258.865 172.711 264.734 170.871 266.568 172.161C266.568 172.161 265.651 174.541 261.249 177.481L262.716 178.761L262.166 182.611C262.166 182.611 261.433 177.661 259.965 178.031C259.965 178.031 256.847 180.231 247.309 182.241C237.771 184.261 235.203 184.811 234.653 185.541C234.653 185.541 240.523 181.691 245.658 180.231C250.794 178.581 254.829 174.361 258.865 172.711Z" fill="#456DB2"/>
<path d="M252.995 170.141C252.995 170.141 256.297 171.421 258.314 174.361L259.048 173.441C258.864 173.631 257.397 171.061 252.995 170.141Z" fill="#456DB2"/>
<path d="M187.331 165.191C187.331 165.191 182.378 159.871 169.355 158.411C156.333 156.941 137.624 153.641 132.304 147.951C126.985 142.271 124.234 140.071 122.4 134.201C122.4 134.201 120.932 134.941 121.85 137.691C122.767 140.441 133.038 157.861 153.581 166.471C173.941 175.281 186.964 166.111 187.331 165.191Z" fill="#456DB2"/>
<path d="M173.024 132.921C173.024 132.921 170.273 127.781 160.735 124.121C151.197 120.451 137.624 114.031 134.689 108.711C131.754 103.211 130.104 101.011 129.92 96.251C129.92 96.251 128.636 96.611 128.82 98.811C129.003 101.011 133.405 116.421 147.162 127.051C160.918 137.871 172.657 133.651 173.024 132.921Z" fill="#456DB2"/>
<path d="M76.9113 72.7713C76.9113 72.7713 76.5445 67.0912 69.5745 59.5712C62.6045 52.0512 52.8832 40.5012 52.6998 34.4512C52.333 28.2212 51.9661 25.6513 53.8003 21.0713C53.8003 21.0713 52.5164 20.7013 51.7827 22.9013C51.049 25.1013 48.2977 40.6913 56.1848 56.2713C63.8884 72.0413 76.361 73.1413 76.9113 72.7713Z" fill="#456DB2"/>
<path d="M182.378 190.131C182.378 190.131 179.627 188.841 174.308 190.311C168.989 191.781 161.285 193.431 158.167 192.141C155.232 190.681 153.765 190.311 152.114 188.291C152.114 188.291 151.564 188.841 152.481 189.761C153.398 190.681 160.001 195.811 169.355 196.001C178.893 196.181 182.378 190.681 182.378 190.131Z" fill="#456DB2"/>
<path d="M214.66 157.311C214.66 157.311 211.175 151.251 202.371 149.421C193.75 147.591 178.526 146.671 166.971 148.141H162.385C162.385 148.141 163.303 149.421 165.687 150.151C167.888 150.891 181.645 156.021 189.165 158.411C196.869 160.421 211.726 162.621 214.66 157.311Z" fill="#456DB2"/>
<path d="M141.843 174.361C141.843 174.361 141.109 166.661 133.222 160.971C125.335 155.111 110.661 147.401 98.5547 143.551L93.9697 141.351C93.9697 141.351 94.3367 143.191 96.3537 144.841C98.3717 146.671 109.561 157.861 116.164 163.721C122.584 169.591 136.34 178.391 141.843 174.361Z" fill="#456DB2"/>
<path d="M30.6898 80.2913C30.6898 80.2913 33.0743 72.9612 28.3054 64.5212C23.5365 56.0912 12.8981 43.0712 3.54368 34.6312L0.0586813 30.9712C0.0586813 30.9712 -0.308118 32.8013 0.792382 35.1813C1.89288 37.5713 7.57888 52.4213 11.2473 60.3113C14.9157 68.1913 24.0867 81.7613 30.6898 80.2913Z" fill="#456DB2"/>
<path d="M118.365 139.701C118.365 139.701 116.714 132.181 108.093 127.231C99.472 122.281 83.6984 116.421 71.0424 113.851L66.2734 112.201C66.2734 112.201 66.8237 114.031 69.0247 115.501C71.2258 116.971 83.8818 127.051 91.219 132.001C98.555 137.141 113.412 144.471 118.365 139.701Z" fill="#456DB2"/>
<path d="M92.686 165.371C92.686 165.371 94.153 160.611 90.668 155.111C87.367 149.601 80.2133 141.351 73.6102 136.041L71.5926 133.831C71.5926 133.831 71.4092 134.941 72.1428 136.591C72.8765 138.051 77.0952 147.771 79.6631 152.901C82.231 157.861 88.467 166.471 92.686 165.371Z" fill="#456DB2"/>
<path d="M246.576 172.521C246.576 172.521 241.623 167.391 232.819 167.761C224.015 168.121 208.974 171.061 198.153 175.091L193.751 176.191C193.751 176.191 195.034 177.291 197.419 177.481C199.803 177.661 214.294 179.311 222.181 179.681C230.068 179.861 244.925 178.391 246.576 172.521Z" fill="#456DB2"/>
<path d="M86.449 110.731C86.449 110.731 84.615 103.581 73.7932 95.8813C62.9714 88.1813 47.931 76.0813 46.0968 68.3713C44.2626 60.6713 42.7952 57.3713 44.0791 51.3213C44.0791 51.3213 42.4284 51.3213 41.8781 54.2513C41.5113 57.1913 42.0615 77.5413 55.818 95.3313C69.758 113.111 85.7155 111.461 86.449 110.731Z" fill="#456DB2"/>
<path d="M48.8481 48.2013C46.8305 49.6713 45.3631 51.5013 43.1621 52.2413C41.6947 52.7913 40.961 52.6013 39.8605 51.8713C39.3102 51.5013 37.1092 50.5914 36.9258 50.0414C37.476 50.4014 38.5766 50.4013 39.3103 50.2213C40.4108 50.2213 41.6947 49.8514 42.7952 49.6714C43.8958 49.4914 44.6294 49.4914 45.5465 49.3014C46.2802 49.3014 48.1144 48.3913 48.4813 47.8413" fill="#456DB2"/>
<path fill-rule="evenodd" clip-rule="evenodd" d="M12.1399 78.2814C11.8712 77.8114 11.6968 77.3114 11.7972 76.8114C11.9432 76.2214 12.4381 75.5213 12.8189 74.9913C12.9164 74.8513 13.0064 74.7213 13.0811 74.6113C13.205 74.3613 13.3916 74.0714 13.5916 73.7614C13.9837 73.1514 14.427 72.4713 14.5485 71.8613C14.7319 71.3113 14.6402 70.9013 14.5485 70.4813C14.4568 70.0713 14.3651 69.6613 14.5485 69.1113C13.2645 69.8413 12.7143 70.7614 12.164 72.0414C11.6137 73.1414 10.5132 74.4214 9.59607 75.1614C9.22927 75.5314 8.49557 76.0814 7.94527 76.2614C7.39507 76.6314 6.66137 76.6313 6.11107 76.6313C5.62017 76.7113 5.09267 76.9013 4.57757 77.0913C3.93807 77.3213 3.31757 77.5414 2.80957 77.5414C2.80957 77.7314 2.80957 77.9114 2.99297 77.9114C4.27687 77.1814 7.02817 76.8113 8.49557 77.3613C8.95377 77.5613 9.36527 78.0813 9.77167 78.6013C10.2126 79.1613 10.6476 79.7113 11.1299 79.8313L11.0636 80.2914C14.5486 90.9314 32.3404 112.011 32.3404 112.011C29.5891 113.301 24.0865 112.931 24.0865 112.931C28.3051 115.131 35.0917 114.581 35.0917 114.581C35.0917 114.581 39.6772 117.521 43.3456 120.631C47.014 123.751 52.5166 122.101 52.5166 122.101C56.7352 113.851 44.8129 103.761 44.4461 103.761C47.7477 99.5514 47.1974 93.3114 47.1974 93.3114C47.3808 98.0814 43.1622 102.301 43.1622 102.301C39.5458 96.5114 32.1861 92.1513 27.2335 89.2213C27.1622 89.1813 27.0914 89.1413 27.0212 89.0913C22.8384 86.6213 14.5996 80.2114 12.1399 78.2814Z" fill="#456DB2"/>
<path d="M117.998 110.361C117.998 110.361 129.737 125.581 126.435 126.321C123.134 127.051 111.762 120.631 111.762 120.631C111.762 120.631 108.827 124.671 104.241 127.231C104.241 127.231 109.194 121.731 109.01 119.171C109.01 119.171 96.7212 108.901 91.4022 100.281C86.0832 91.6613 77.4621 85.9812 75.6279 79.7412C75.6279 79.7412 87.1832 90.5613 92.3192 94.0413C97.4552 97.5313 102.591 102.301 107.176 104.501C111.578 106.701 115.613 108.351 115.613 108.351C115.613 108.351 117.998 104.131 115.43 94.9612C115.063 94.9612 120.749 100.651 117.998 110.361Z" fill="#456DB2"/>
<path d="M68.8411 116.601C68.8411 116.601 71.2256 123.201 69.9416 123.201C68.6577 123.021 65.3561 119.531 65.3561 119.531C65.3561 119.531 63.8888 120.631 62.0546 121.001C62.0546 121.001 64.439 119.721 64.6225 118.621C64.6225 118.621 61.5043 113.671 60.5872 110.001C59.6701 106.331 57.2856 103.401 57.2856 101.011C57.2856 101.011 60.2204 106.151 61.5043 107.981C62.9717 109.811 64.2556 112.011 65.5396 113.301C66.8235 114.581 68.1074 115.501 68.1074 115.501C68.1074 115.501 69.3914 114.221 69.5748 110.731C69.5748 110.911 71.0422 113.481 68.8411 116.601Z" fill="#456DB2"/>
<path d="M30.8731 56.8212C30.8731 56.8212 32.7073 51.3213 29.0389 41.7913C25.3705 32.2513 20.785 17.9513 22.8026 12.0813C24.8203 6.21126 25.3705 3.65121 28.6721 0.161213C28.6721 0.161213 27.5716 -0.569743 26.1042 1.08126C24.6368 2.73126 16.1995 16.3012 17.4835 33.7212C18.9508 51.1412 30.1395 56.8212 30.8731 56.8212Z" fill="#456DB2"/>
<path d="M18.4006 32.071L13.4482 28.5811C13.4482 28.5811 15.6493 33.9011 17.8503 37.0211C20.2348 39.9511 18.4006 32.071 18.4006 32.071Z" fill="#456DB2"/>
</svg>
