<svg width="375" height="1748" viewBox="0 0 375 1748" fill="none" xmlns="http://www.w3.org/2000/svg">
<g clip-path="url(#clip0_453_3919)">
<path d="M-125.439 49C-125.008 84.8315 -125.439 121.394 -125.87 157.226C-126.732 242.051 -129.318 326.877 -127.163 411.703C-125.008 495.797 -121.56 579.891 -117.681 663.986C-110.354 810.237 -100.872 955.757 -90.0973 1101.28C-81.4774 1207.31 -72.4265 1314.07 -62.9446 1420.1C-53.4627 1529.06 -43.1189 1638.02 -33.637 1746.98H1477C1472.69 1575.86 1467.09 1404.75 1461.48 1233.63C1447.69 838.756 1432.18 443.878 1434.33 49H-125.439Z" fill="#23140A"/>
<path opacity="0.3" d="M-55.939 157.226C-56.7634 239.127 -59.2365 321.027 -57.1756 402.928C-50.1683 402.928 -43.1611 404.39 -36.1538 406.584C-28.7344 409.509 -19.254 414.628 -15.9565 428.522C-13.0711 440.953 -16.3686 455.578 -22.1393 462.891C-31.2075 474.591 -43.5732 477.516 -55.1146 477.516C-53.0536 539.673 -50.5805 601.829 -47.6952 663.986C-40.6879 810.237 -31.6197 955.757 -21.3149 1101.28C-13.0711 1207.31 -48.5195 1312.7 -39.4513 1418.74C-30.3831 1527.69 -89.0682 1638.02 -80 1746.98H1477.41C1473.29 1575.86 1467.93 1404.75 1462.57 1233.63C1451.03 892.138 1438.67 550.641 1436.61 208.414C1430.42 225.233 1413.11 228.158 1403.22 228.889C1386.73 229.62 1368.59 226.695 1353.34 214.995C1345.51 209.145 1333.97 199.639 1330.67 184.282C1327.38 168.926 1333.15 153.57 1340.98 146.988C1350.46 138.945 1362 141.87 1371.89 145.526C1377.66 147.72 1383.43 150.645 1388.79 153.57C1389.2 152.839 1389.62 152.838 1390.03 152.838C1399.51 152.838 1409.4 155.764 1418.47 160.882C1424.24 164.539 1432.48 169.657 1436.19 179.895C1436.19 157.226 1436.19 133.826 1436.19 111.157C1418.06 107.501 1399.51 103.844 1381.78 98.7256C1355.4 90.6818 1329.02 81.1755 1302.23 76.0567C1249.47 66.5503 1197.95 87.7568 1146.01 101.651C1110.97 111.157 1075.94 119.932 1040.49 122.857C1003.39 125.782 967.944 118.469 931.259 110.426C850.469 92.1443 769.268 84.1005 687.654 83.3692C606.452 82.638 525.251 89.2193 444.461 97.9943C403.654 102.382 363.26 107.501 322.453 112.619C283.294 117.738 245.373 130.901 206.627 144.063C170.766 156.495 135.318 163.807 98.6327 157.957C59.0624 151.376 19.9042 137.482 -19.6662 127.245C-31.6197 124.32 -43.5732 121.395 -55.5268 118.469C-55.5268 130.901 -55.5268 144.063 -55.939 157.226ZM1322.84 342.234C1330.67 331.996 1340.15 326.146 1349.63 321.759C1357.46 318.102 1366.53 313.715 1374.36 316.64C1397.86 325.415 1376.84 385.378 1366.53 400.734C1360.35 410.24 1352.52 410.972 1345.92 406.584C1342.21 405.853 1338.5 404.39 1335.21 402.197C1327.38 398.54 1316.25 391.228 1313.36 375.871C1310.89 362.709 1316.66 349.546 1322.84 342.234ZM1268.43 176.239C1272.14 165.27 1280.39 165.27 1286.98 167.464C1287.39 167.464 1287.8 167.464 1288.22 167.464C1290.69 166.732 1293.58 166.732 1296.46 166.732C1297.7 166.732 1298.52 168.195 1298.52 169.657C1303.47 172.582 1307.59 177.701 1308.83 187.939C1310.89 207.683 1293.16 209.145 1286.57 206.22C1280.39 203.295 1262.66 193.789 1268.43 176.239ZM1188.88 121.395C1192.59 116.276 1197.53 113.351 1202.07 111.888C1218.97 97.9943 1254.83 85.563 1245.76 127.976C1241.64 146.988 1228.04 149.913 1218.14 148.451C1208.25 146.988 1195.06 143.332 1187.64 130.901C1185.99 127.976 1187.23 123.588 1188.88 121.395ZM1170.74 221.577C1171.57 221.577 1171.98 221.577 1172.39 221.577C1183.52 215.726 1195.89 214.995 1207.84 217.189C1214.43 215.726 1220.62 215.726 1227.21 217.189C1236.69 219.383 1247.82 227.427 1247 247.902C1246.59 260.333 1243.29 272.033 1239.58 282.271C1233.81 298.358 1226.8 313.715 1218.14 325.415C1199.18 351.009 1174.45 364.903 1150.96 361.978C1139 360.515 1127.46 354.665 1116.75 343.696C1108.91 335.652 1100.67 323.221 1097.78 307.133C1093.25 279.346 1110.15 259.602 1122.1 250.095C1137.35 236.933 1154.25 229.62 1170.74 221.577ZM1049.97 154.301C1054.09 153.57 1058.63 154.301 1062.75 155.032C1063.16 155.032 1063.57 155.032 1063.98 155.032C1076.76 157.226 1089.54 147.72 1101.49 159.42C1107.26 165.27 1109.33 176.239 1106.03 186.476C1099.85 205.489 1082.95 223.77 1070.17 221.577C1058.63 220.114 1037.19 206.951 1037.6 180.626C1037.6 167.464 1042.55 155.764 1049.97 154.301ZM871.079 184.282C874.377 169.657 881.384 160.151 890.04 156.495C902.406 151.376 915.184 155.764 927.549 157.957C938.266 153.57 951.044 149.182 961.761 155.032C972.478 160.882 977.425 177.701 977.012 196.714C976.188 239.858 959.7 279.346 935.793 288.121C912.298 296.165 889.628 273.496 876.85 238.395C870.667 223.039 866.957 202.564 871.079 184.282ZM582.133 164.539C589.965 136.02 611.811 141.87 626.65 146.257C640.664 146.257 660.449 149.182 658.388 175.507C657.152 188.67 649.32 195.251 643.137 198.908C634.893 203.295 626.65 205.489 617.994 206.22C608.925 206.951 598.208 208.414 589.552 203.295C580.484 196.714 577.599 179.895 582.133 164.539ZM429.622 166.001C441.988 146.988 456.827 138.945 472.49 134.557C481.146 127.245 490.627 122.126 500.107 119.932C509.175 117.738 519.068 116.276 525.663 129.438C533.082 142.601 538.853 160.882 541.326 179.164C542.975 190.133 543.799 204.026 538.029 212.07C533.495 218.651 527.312 220.845 521.541 221.577C503.404 224.502 484.444 217.92 467.132 209.876C458.476 205.489 450.232 201.101 442.4 194.52C437.042 190.133 431.683 185.014 428.386 176.239C427.149 171.851 428.386 168.195 429.622 166.001ZM305.141 177.701C305.553 177.701 305.553 177.701 305.141 177.701C314.621 156.495 331.933 143.332 345.123 157.957C361.611 176.239 353.779 222.308 343.062 243.514C331.933 264.721 313.384 267.646 301.431 246.439C289.065 225.233 291.95 195.251 305.141 177.701ZM206.627 174.776C212.81 170.389 218.58 166.732 224.351 161.614C225.176 160.882 225.588 160.882 226 160.882C232.183 153.57 239.602 148.451 246.609 150.645C249.083 151.376 249.495 155.764 248.258 158.689C248.258 158.689 248.258 158.689 248.258 159.42C249.495 160.882 249.907 163.076 249.907 166.001C249.907 172.582 246.197 179.164 244.136 182.82C240.839 188.67 236.717 191.595 232.183 193.789C223.527 197.445 211.573 197.445 204.566 185.745C202.917 182.82 204.566 176.239 206.627 174.776ZM195.086 329.802C207.039 327.609 221.054 332.727 223.527 356.859C226 379.528 220.641 403.659 214.871 423.403C208.276 445.341 200.032 464.353 188.078 476.785C169.53 496.529 146.859 506.766 125.425 506.766C115.945 506.766 105.228 504.572 96.5718 496.529C90.8011 490.679 83.3816 481.172 82.5573 468.01C80.4963 438.759 98.2205 413.897 109.762 399.272C114.708 392.69 120.479 386.109 126.25 379.528C126.662 378.796 127.074 378.065 127.486 377.334C137.379 364.903 148.508 354.665 159.637 346.621C171.178 339.309 183.132 331.265 195.086 329.802ZM51.2307 242.052C76.3744 214.995 104.403 193.058 134.493 200.37C141.501 201.833 148.92 205.489 153.454 214.995C158.4 225.233 157.164 239.858 154.279 251.558C145.21 290.315 121.303 305.671 99.4571 308.596C88.3279 310.058 76.7866 307.865 65.6574 304.208C55.3526 300.552 42.9869 293.971 38.865 274.227C35.5675 257.408 42.1625 247.902 51.2307 242.052ZM-13.4833 168.926C-6.88819 170.389 0.119068 171.851 6.71412 175.507C17.0189 175.507 47.9332 176.97 35.5675 209.145C31.0334 220.845 22.3773 226.695 14.9579 229.62C6.30194 233.277 -2.76628 235.47 -11.8345 235.47C-26.2612 235.47 -55.1146 209.145 -39.4513 179.164C-33.2685 166.732 -22.1393 167.464 -13.4833 168.926Z" fill="#513826"/>
<path opacity="0.3" d="M-93.8309 1101.5C-85.1905 1207.5 -76.118 1314.22 -66.6136 1420.22C-57.1091 1529.14 -46.7406 1638.06 -37.2361 1746.98H1477C1472.68 1575.92 1467.06 1404.87 1461.45 1233.81C1456.69 1099.31 1451.94 964.073 1447.62 829.568C1430.34 821.527 1412.63 812.755 1395.35 804.714C1361.65 789.363 1327.95 782.053 1292.96 783.515C1257.1 785.708 1221.68 793.749 1186.25 799.597C1151.26 805.445 1116.69 805.445 1081.27 803.983C1059.67 803.252 1038.07 801.79 1016.9 802.521C998.32 805.445 979.743 812.024 960.734 811.293C937.837 810.562 914.508 802.521 892.475 793.749C858.777 780.591 825.079 764.509 790.95 753.544C757.252 743.31 724.85 741.117 691.153 752.813C628.509 774.012 570.186 817.872 506.247 825.913C438.42 834.685 369.728 831.761 303.197 806.907C270.795 795.211 238.826 779.129 208.152 757.199C177.047 734.538 145.941 708.222 112.243 699.45C44.848 681.175 -15.635 756.468 -81.3023 771.088C-92.5349 773.281 -103.767 775.474 -115 776.205C-109.384 884.393 -102.039 993.313 -93.8309 1101.5Z" fill="#59371F"/>
<path opacity="0.3" d="M-66.1362 1420.22C-56.6347 1529.14 -46.2694 1638.06 -36.7678 1746.98H1477C1475.27 1676.07 1473.11 1605.16 1470.95 1534.26C1451.09 1538.64 1430.79 1536.45 1411.78 1529.14C1336.64 1500.63 1282.22 1401.22 1218.3 1335.43C1179.43 1295.22 1135.81 1263.06 1090.03 1287.18C1049.43 1308.38 1012.72 1344.93 968.668 1336.89C925.047 1328.85 886.177 1295.95 845.58 1272.56C822.69 1259.4 798.504 1247.71 773.886 1248.44C747.541 1249.17 721.196 1260.86 696.146 1274.02C642.16 1302.53 591.197 1345.66 541.962 1391.71C498.341 1432.65 453.425 1464.81 402.894 1469.93C351.931 1475.05 300.969 1458.96 253.029 1429.72C203.362 1399.75 154.99 1359.55 102.3 1347.12C75.0912 1340.54 47.4503 1340.54 20.6733 1352.24C-6.96756 1363.93 -32.449 1385.13 -58.7941 1402.68C-61.3855 1404.14 -63.9768 1406.33 -67 1407.79C-67 1412.18 -66.5681 1415.84 -66.1362 1420.22Z" fill="#54331C"/>
<path opacity="0.3" d="M123.364 1460.32C115.12 1476.41 101.106 1478.6 92.0377 1462.52C82.5573 1446.43 84.6182 1423.76 94.923 1410.6C94.923 1410.6 94.923 1410.6 95.3352 1410.6C101.93 1395.24 115.12 1385 125.013 1395.97C137.379 1409.87 131.196 1444.97 123.364 1460.32Z" fill="#4E2F1B"/>
<path opacity="0.3" d="M238.778 1535.64C235.48 1540.76 230.534 1542.22 226.412 1542.96C212.81 1545.15 198.383 1540.03 185.605 1534.18C179.422 1531.26 172.827 1527.6 166.644 1522.48C162.935 1518.82 158.4 1515.17 155.927 1508.59C155.103 1506.39 155.927 1503.47 157.164 1502C166.232 1487.38 177.773 1481.53 189.315 1477.87C195.91 1472.75 202.917 1468.37 209.924 1466.9C216.932 1464.71 223.939 1464.71 229.297 1474.22C234.656 1484.45 239.19 1497.62 241.251 1511.51C242.487 1519.56 243.312 1529.79 238.778 1535.64Z" fill="#4E2F1B"/>
<path opacity="0.3" d="M145.21 1680.43C144.386 1690.67 138.615 1695.06 133.669 1697.98C127.486 1701.64 121.303 1703.1 114.708 1703.83C108.113 1704.56 99.8691 1706.03 93.2741 1701.64C86.2668 1697.25 84.2059 1684.09 87.5034 1672.39C93.2741 1650.45 110.174 1654.84 120.891 1658.49C131.608 1658.49 146.859 1660.69 145.21 1680.43Z" fill="#4E2F1B"/>
<path opacity="0.3" d="M347.184 1624.86C329.46 1631.44 312.148 1613.89 302.667 1587.56C298.133 1575.13 295.248 1560.51 298.545 1546.61C301.018 1535.64 306.377 1528.33 312.56 1526.14C322.04 1522.48 331.521 1525.41 340.589 1527.6C348.833 1524.67 358.313 1521.02 366.557 1525.41C374.801 1529.79 378.51 1542.22 378.098 1556.85C377.686 1589.02 365.32 1619.01 347.184 1624.86Z" fill="#4E2F1B"/>
<path opacity="0.3" d="M169.117 993.051C168.705 991.589 167.881 990.857 167.056 990.126C164.171 988.664 160.461 991.589 157.988 993.782C153.042 998.901 144.798 1009.87 146.447 1021.57C147.271 1028.15 152.218 1029.61 155.103 1030.35C159.637 1031.08 164.171 1030.35 168.293 1028.15C172.003 1025.96 173.652 1020.11 173.652 1013.53C173.652 1006.94 172.827 996.707 169.117 993.051Z" fill="#563520"/>
<path opacity="0.3" d="M218.992 1229.25C218.58 1228.51 218.168 1227.78 217.344 1227.05C215.283 1225.59 212.81 1227.78 210.749 1229.98C207.039 1233.63 201.268 1241.68 202.505 1249.72C202.917 1254.11 206.627 1255.57 208.688 1255.57C211.573 1256.3 215.283 1255.57 218.168 1254.11C221.053 1252.65 221.878 1248.26 221.878 1243.87C222.29 1239.48 221.466 1232.17 218.992 1229.25Z" fill="#563520"/>
<path opacity="0.3" d="M74.3135 1126.14C73.9013 1125.41 73.4891 1124.68 73.0769 1124.68C71.4282 1123.95 69.3672 1125.41 68.1306 1126.87C65.2453 1129.8 60.7112 1135.65 61.5356 1142.23C61.9478 1145.88 64.8331 1146.61 66.4819 1147.35C68.955 1148.08 71.4282 1147.35 73.9013 1145.88C75.9623 1144.42 76.7867 1141.5 76.7867 1137.84C76.7867 1133.45 76.3745 1128.33 74.3135 1126.14Z" fill="#563520"/>
<path opacity="0.3" d="M308.85 1167.09C309.262 1166.36 309.675 1165.63 310.087 1164.16C310.911 1160.51 309.675 1155.39 308.438 1152.46C306.377 1145.88 301.843 1135.65 297.309 1137.84C294.836 1138.57 294.011 1145.15 294.011 1148.81C293.599 1154.66 294.011 1160.51 294.836 1165.63C295.66 1170.75 297.721 1172.21 300.606 1172.94C303.492 1172.94 307.614 1172.21 308.85 1167.09Z" fill="#563520"/>
<path opacity="0.3" d="M366.557 907.494C366.969 906.763 367.381 906.032 367.381 905.3C367.793 902.375 366.969 898.719 366.145 896.525C364.496 891.407 361.198 883.363 357.489 884.825C355.428 885.557 355.016 890.675 354.603 893.6C354.191 897.988 354.603 902.375 355.428 906.763C356.252 910.419 357.901 911.882 359.962 911.882C362.435 911.882 365.32 911.15 366.557 907.494Z" fill="#563520"/>
<path opacity="0.3" d="M150.569 382.452C151.393 381.721 151.805 380.259 152.218 378.796C153.042 373.677 151.393 367.096 150.157 361.977C147.271 353.202 141.088 338.577 134.493 341.502C131.196 342.965 129.959 351.74 129.547 356.858C129.135 364.902 129.547 372.946 130.784 380.259C132.02 386.84 134.906 389.765 139.027 389.765C143.149 390.496 148.92 389.034 150.569 382.452Z" fill="#42372F"/>
<path opacity="0.3" d="M19.0797 471.665C19.4919 470.934 19.9041 470.203 20.3163 468.74C21.1407 465.084 19.9041 460.697 18.6675 457.04C16.6066 450.459 12.0725 440.222 7.53833 442.415C5.06519 443.878 4.24081 449.728 4.24081 453.384C3.82862 459.234 4.24081 465.084 5.06519 470.203C5.88957 475.322 7.95053 476.784 10.8359 477.516C13.7212 477.516 17.8431 476.784 19.0797 471.665Z" fill="#42372F"/>
<path opacity="0.3" d="M76.7867 212.069C77.1988 211.338 77.611 210.607 77.611 209.876C78.0232 206.951 77.1988 203.294 76.3744 201.101C74.7257 195.982 71.4282 187.938 67.7184 189.4C65.6575 190.132 65.2453 195.251 64.8331 198.176C64.4209 202.563 64.8331 206.951 65.6575 211.338C66.4819 214.994 68.1306 216.457 70.1916 216.457C72.6647 216.457 75.5501 215.726 76.7867 212.069Z" fill="#42372F"/>
<path opacity="0.3" d="M263.097 595.247C263.509 594.516 263.921 593.785 264.334 592.323C265.158 588.666 263.921 583.547 262.685 580.622C260.624 574.041 256.09 563.804 251.556 565.997C249.083 566.729 248.258 573.31 248.258 576.966C247.846 582.816 248.258 588.666 249.083 593.785C249.907 598.904 251.968 600.366 254.853 601.098C257.739 601.098 261.86 600.366 263.097 595.247Z" fill="#42372F"/>
<path opacity="0.3" d="M320.804 335.651C321.216 334.92 321.628 334.189 321.628 333.458C322.04 330.533 321.216 326.876 320.392 324.683C318.743 319.564 315.445 311.52 311.736 312.983C309.675 313.714 309.262 318.833 308.85 321.758C308.438 326.145 308.85 330.533 309.675 334.92C310.499 338.576 312.148 340.039 314.209 340.039C316.682 340.039 319.567 339.308 320.804 335.651Z" fill="#42372F"/>
<path opacity="0.3" d="M5.88959 232.545C5.47739 233.276 5.0652 234.007 5.0652 234.738C4.65301 238.395 5.4774 242.051 6.30178 244.976C7.95054 250.095 11.6603 259.601 15.7822 257.407C17.8431 256.676 18.6675 250.826 18.6675 247.901C19.0797 243.513 18.6675 238.395 17.8431 233.276C17.0187 228.888 15.37 227.426 12.8968 227.426C10.4237 227.426 6.71397 228.157 5.88959 232.545Z" fill="#42372F"/>
<path d="M-132.885 23.7105C-111.682 23.2815 -90.5168 22.8915 -69.3134 22.4625C-68.9279 19.2257 -68.5424 15.989 -68.1954 12.7522C-68.1569 15.872 -68.1183 18.9918 -68.0798 22.1506C-66.8461 19.0308 -65.651 15.911 -64.4174 12.7522C-64.0318 16.262 -63.6849 19.7717 -63.2994 23.2815C-62.2585 18.9918 -61.179 14.741 -60.1381 10.4513C-59.5213 13.5711 -58.8659 16.6519 -58.2491 19.7717C-58.7503 13.1812 -59.29 6.59057 -59.7912 0C-57.3239 7.01955 -54.8566 14.0781 -52.3893 21.0976C-51.0014 17.5099 -49.6521 13.9611 -48.2642 10.3733C-48.5726 13.4931 -48.8811 16.6519 -49.228 19.7717C-47.0306 17.4319 -44.7946 15.053 -42.5972 12.7132C-42.5972 15.053 -42.5972 17.3929 -42.5972 19.7327C-37.971 15.053 -33.3448 10.3733 -28.7186 5.69362C-32.1882 11.9332 -35.6579 18.1728 -39.1275 24.4124C-35.2724 22.0726 -31.4172 19.7327 -27.562 17.3929C-29.1041 18.9528 -30.6462 20.5127 -32.1882 22.0726C-28.3331 20.5127 -24.5164 18.9528 -20.6613 17.3929C-21.4323 18.9528 -22.2034 20.5127 -22.9744 22.0726C-20.2758 20.9026 -17.5386 19.7327 -14.84 18.5628C-15.9965 19.7327 -17.1531 20.9026 -18.3096 22.0726C-7.12968 22.0726 4.05029 22.0726 15.2303 22.0726L31.0749 23.2035C34.5446 24.8024 38.5925 25.0754 42.2549 23.9835C40.2502 21.7606 38.207 19.4987 36.2023 17.2759C38.4769 18.8748 40.7514 20.4737 43.0259 22.0726C43.103 20.5127 43.1416 18.9918 43.2187 17.4319C42.8717 19.1868 44.144 21.0976 45.8788 21.4486C47.6136 21.7996 49.5026 20.4737 49.811 18.6798C49.5026 20.0447 50.4664 21.5656 51.8157 21.8386C53.165 22.1116 54.6685 21.1366 54.8998 19.7327C57.7141 22.2286 60.5284 24.7244 63.3041 27.2202C63.8824 24.7244 64.4221 22.1896 65.0004 19.6937C66.1569 22.4236 67.3135 25.1534 68.47 27.8832C74.6383 27.8832 80.8065 27.8832 86.9748 27.8832L161.495 27.4152C163.77 29.8721 167.818 30.379 170.632 28.5852C173.446 26.7913 174.718 22.8525 173.485 19.7327C173.947 22.1116 174.41 24.5294 174.873 26.9083C175.374 24.4514 175.875 21.9946 176.376 19.5377C178.843 20.3177 180.578 23.0865 180.154 25.6603C180.887 24.8414 181.58 23.9835 182.313 23.1645C181.619 25.6214 182.352 28.4292 184.163 30.223C185.706 24.7634 187.209 19.3427 188.751 13.8831C189.908 17.7828 191.064 21.6826 192.221 25.5823C194.534 22.0726 196.847 18.5628 199.16 15.053C199.121 18.5628 199.121 22.0336 199.083 25.5434C200.201 24.3344 201.319 23.1255 202.437 21.9166C202.244 23.4375 202.051 24.9584 201.897 26.4793C203.555 22.2286 205.251 18.0168 206.909 13.7661C206.138 16.8859 205.405 19.9667 204.634 23.0865C206.6 19.6157 208.567 16.106 210.533 12.6352C209.068 16.5739 207.564 20.5127 206.099 24.4514C209.569 20.9417 213.039 17.4319 216.508 13.9221C215.352 17.4319 214.195 20.9417 213.039 24.4514C221.558 24.4514 230.04 24.4514 238.56 24.4514C238.907 22.1506 239.254 19.8497 239.601 17.5489C240.603 20.7077 241.567 23.8275 242.569 26.9863C242.878 24.6854 243.225 22.3845 243.533 20.1227C242.646 21.2536 243.417 23.2425 244.844 23.4765C246.27 23.6715 247.581 21.9946 247.041 20.6297C247.504 21.8776 247.966 23.0865 248.429 24.3344C247.35 19.4208 246.27 14.5461 245.152 9.63238C247.851 14.6631 250.511 19.6547 253.209 24.6854C253.364 22.2676 253.479 19.8887 253.633 17.4709C254.019 19.0308 254.443 20.5907 254.829 22.1116C255.561 19.7717 256.294 17.4709 257.026 15.131C257.026 16.6909 257.026 18.2508 257.026 19.8107C259.339 15.911 261.652 12.0112 263.965 8.11147C262.423 12.0112 260.881 15.911 259.339 19.8107C262.385 18.6408 265.43 17.4709 268.476 16.3009C268.283 18.0558 269.825 19.7717 271.56 19.7717C273.295 19.7717 274.837 18.0558 274.644 16.3009C275.261 17.4319 275.878 18.6018 276.456 19.7327C277.69 15.443 278.885 11.1923 280.118 6.90256C279.771 12.0112 279.386 17.0809 279.039 22.1896C281.044 21.8386 283.087 21.4876 285.092 21.1366C285.438 18.3678 285.747 15.56 286.094 12.7912C286.094 15.131 286.055 17.4709 286.055 19.8107C286.749 17.8608 287.443 15.95 288.137 14.0001C288.484 16.7299 288.87 19.4597 289.217 22.1506C290.065 20.5907 290.913 18.9918 291.761 17.4319C291.761 19.3818 291.761 21.3316 291.761 23.2815C295.616 22.5016 299.471 21.7216 303.326 20.9417H325.301C325.301 18.6018 325.301 16.262 325.301 13.9221C325.301 16.262 325.339 18.6408 325.339 20.9806C326.342 19.8497 327.383 18.7188 328.385 17.5489C329.619 19.4597 330.891 21.3706 332.124 23.3205C332.086 18.2508 332.047 13.1811 332.009 8.11147C333.859 13.2201 335.748 18.2898 337.599 23.3985C337.676 19.0698 337.792 14.7411 337.869 10.4123C338.139 14.6631 338.37 18.9528 338.64 23.2035C339.449 21.6046 340.259 20.0057 341.068 18.4068C341.184 20.0447 341.3 21.6436 341.454 23.2815C342.611 20.9417 343.767 18.6018 344.924 16.262C344.924 18.2118 344.924 20.1617 344.924 22.1116C345.695 20.5517 346.466 18.9918 347.237 17.4319C347.198 18.5238 347.16 19.6547 347.121 20.7467C348.046 20.0837 348.972 19.4597 349.897 18.7968C349.473 19.9277 349.087 21.0976 348.663 22.2286C349.743 21.4096 350.783 20.5517 351.863 19.7327C351.901 21.3316 351.94 22.9695 351.979 24.5684C353.559 23.0475 355.14 21.5266 356.72 20.0447C356.643 21.1366 356.566 22.2286 356.489 23.3205C357.993 19.8107 359.458 16.262 360.961 12.7522C360.113 15.833 359.265 18.9138 358.417 21.9946C359.689 20.0837 360.961 18.1728 362.195 16.262C362.233 18.2118 362.233 20.2007 362.272 22.1506C363.428 20.9806 364.585 19.8107 365.741 18.6408C365.741 19.8497 365.741 21.0976 365.741 22.3066C370.753 22.7745 375.765 23.2035 380.777 23.6715L410.731 23.8275C416.167 26.1283 421.564 28.4292 427 30.73C406.645 38.9195 395.705 46.4192 374 49.5C208.19 72.8985 28.0679 67.3876 -137.318 41.0643C-141.482 33.4988 -141.366 23.8665 -132.885 23.7105Z" fill="#01231F"/>
</g>
<defs>
<clipPath id="clip0_453_3919">
<rect width="375" height="1748" fill="white"/>
</clipPath>
</defs>
</svg>
