<svg width="1440" height="1238" viewBox="0 0 1440 1238" fill="none" xmlns="http://www.w3.org/2000/svg">
<path d="M-46 249.836C-46 249.836 158.848 230.354 337.264 238.131C404.445 241.097 641.232 203.095 713.92 220.653C786.608 238.131 974.936 212.155 1103.79 220.653C1166.68 224.822 1245.86 220.653 1325.16 222.577C1404.46 224.501 1556.44 220.653 1556.44 220.653L1606 409.299L-39.5021 419L-46 249.836Z" fill="#004C45"/>
<g clip-path="url(#clip0_436_3917)">
<path d="M-115.439 153C-115.008 178.112 -115.439 203.736 -115.87 228.848C-116.732 288.297 -119.318 347.746 -117.163 407.195C-115.008 466.131 -111.56 525.067 -107.681 584.003C-100.354 686.501 -90.8723 788.487 -80.0974 890.472C-71.4775 964.783 -62.4266 1039.61 -52.9447 1113.92C-43.4628 1190.28 -33.119 1266.64 -23.6371 1343H1487C1482.69 1223.08 1477.09 1103.16 1471.48 983.233C1457.69 706.488 1442.18 429.744 1444.33 153H-115.439Z" fill="#23140A"/>
<path opacity="0.3" d="M-45.939 228.848C-46.7634 286.247 -49.2366 343.646 -47.1756 401.045C-40.1684 401.045 -33.1611 402.07 -26.1539 403.607C-18.7344 405.657 -9.25403 409.244 -5.9565 418.982C-3.07117 427.694 -6.36869 437.944 -12.1394 443.069C-21.2076 451.269 -33.5733 453.319 -45.1147 453.319C-43.0537 496.88 -40.5806 540.442 -37.6952 584.003C-30.688 686.501 -21.6198 788.486 -11.315 890.472C-3.07116 964.783 -38.5196 1038.65 -29.4514 1112.96C-20.3832 1189.32 -79.0682 1266.64 -70 1343H1487.41C1483.29 1223.08 1477.93 1103.15 1472.57 983.232C1461.03 743.9 1448.67 504.567 1446.61 264.722C1440.42 276.51 1423.11 278.56 1413.22 279.072C1396.73 279.585 1378.59 277.535 1363.34 269.335C1355.51 265.235 1343.97 258.573 1340.67 247.81C1337.38 237.048 1343.15 226.286 1350.98 221.673C1360.46 216.036 1372 218.086 1381.89 220.648C1387.66 222.186 1393.43 224.236 1398.79 226.286C1399.2 225.773 1399.62 225.773 1400.03 225.773C1409.51 225.773 1419.4 227.823 1428.47 231.411C1434.24 233.973 1442.48 237.561 1446.19 244.735C1446.19 228.848 1446.19 212.449 1446.19 196.561C1428.06 193.999 1409.51 191.437 1391.78 187.849C1365.4 182.212 1339.02 175.549 1312.23 171.962C1259.47 165.3 1207.95 180.162 1156.01 189.899C1120.97 196.561 1085.94 202.711 1050.49 204.761C1013.39 206.811 977.944 201.686 941.259 196.049C860.469 183.237 779.268 177.599 697.654 177.087C616.452 176.574 535.251 181.187 454.461 187.337C413.654 190.412 373.26 193.999 332.453 197.586C293.294 201.174 255.373 210.399 216.627 219.623C180.766 228.336 145.318 233.461 108.633 229.361C69.0623 224.748 29.9041 215.011 -9.66622 207.836C-21.6198 205.786 -33.5733 203.736 -45.5269 201.686C-45.5269 210.399 -45.5269 219.623 -45.939 228.848ZM1332.84 358.508C1340.67 351.333 1350.15 347.233 1359.63 344.158C1367.46 341.596 1376.53 338.521 1384.36 340.571C1407.86 346.721 1386.84 388.745 1376.53 399.507C1370.35 406.17 1362.52 406.682 1355.92 403.607C1352.21 403.095 1348.5 402.07 1345.21 400.532C1337.37 397.97 1326.25 392.845 1323.36 382.083C1320.89 372.858 1326.66 363.633 1332.84 358.508ZM1278.43 242.173C1282.14 234.486 1290.39 234.486 1296.98 236.023C1297.39 236.023 1297.8 236.023 1298.22 236.023C1300.69 235.511 1303.58 235.511 1306.46 235.511C1307.7 235.511 1308.52 236.536 1308.52 237.561C1313.47 239.611 1317.59 243.198 1318.83 250.373C1320.89 264.21 1303.16 265.235 1296.57 263.185C1290.39 261.135 1272.66 254.473 1278.43 242.173ZM1198.88 203.736C1202.59 200.149 1207.53 198.099 1212.07 197.074C1228.97 187.337 1264.83 178.624 1255.76 208.349C1251.64 221.673 1238.04 223.723 1228.14 222.698C1218.25 221.673 1205.06 219.111 1197.64 210.399C1195.99 208.349 1197.23 205.274 1198.88 203.736ZM1180.74 273.947C1181.57 273.947 1181.98 273.947 1182.39 273.947C1193.52 269.847 1205.89 269.335 1217.84 270.872C1224.43 269.847 1230.62 269.847 1237.21 270.872C1246.69 272.41 1257.82 278.047 1257 292.397C1256.59 301.109 1253.29 309.309 1249.58 316.484C1243.81 327.759 1236.8 338.521 1228.14 346.721C1209.18 364.658 1184.45 374.395 1160.96 372.345C1149 371.32 1137.46 367.22 1126.75 359.533C1118.91 353.896 1110.67 345.183 1107.78 333.909C1103.25 314.434 1120.15 300.597 1132.1 293.934C1147.35 284.71 1164.25 279.585 1180.74 273.947ZM1059.97 226.798C1064.09 226.286 1068.63 226.798 1072.75 227.311C1073.16 227.311 1073.57 227.311 1073.98 227.311C1086.76 228.848 1099.54 222.186 1111.49 230.386C1117.26 234.486 1119.33 242.173 1116.03 249.348C1109.85 262.673 1092.95 275.485 1080.17 273.947C1068.63 272.922 1047.19 263.698 1047.6 245.248C1047.6 236.023 1052.55 227.823 1059.97 226.798ZM881.079 247.81C884.377 237.561 891.384 230.898 900.04 228.336C912.406 224.748 925.184 227.823 937.549 229.361C948.266 226.286 961.044 223.211 971.761 227.311C982.478 231.411 987.425 243.198 987.013 256.523C986.188 286.76 969.7 314.434 945.793 320.584C922.298 326.221 899.628 310.334 886.85 285.735C880.667 274.972 876.957 260.623 881.079 247.81ZM592.133 233.973C599.965 213.986 621.811 218.086 636.65 221.161C650.664 221.161 670.449 223.211 668.388 241.66C667.152 250.885 659.32 255.498 653.137 258.06C644.894 261.135 636.65 262.673 627.994 263.185C618.925 263.698 608.208 264.723 599.552 261.135C590.484 256.523 587.599 244.735 592.133 233.973ZM439.622 234.998C451.988 221.673 466.827 216.036 482.49 212.961C491.146 207.836 500.626 204.249 510.107 202.711C519.175 201.174 529.068 200.149 535.663 209.374C543.082 218.598 548.853 231.411 551.326 244.223C552.975 251.91 553.799 261.648 548.029 267.285C543.494 271.897 537.312 273.435 531.541 273.947C513.404 275.997 494.444 271.385 477.132 265.747C468.476 262.673 460.232 259.598 452.4 254.985C447.042 251.91 441.683 248.323 438.386 242.173C437.149 239.098 438.386 236.536 439.622 234.998ZM315.141 243.198C315.553 243.198 315.553 243.198 315.141 243.198C324.621 228.336 341.933 219.111 355.123 229.361C371.611 242.173 363.779 274.46 353.062 289.322C341.933 304.184 323.384 306.234 311.431 291.372C299.065 276.51 301.95 255.498 315.141 243.198ZM216.627 241.148C222.81 238.073 228.58 235.511 234.351 231.923C235.175 231.411 235.588 231.411 236 231.411C242.183 226.286 249.602 222.698 256.609 224.236C259.083 224.748 259.495 227.823 258.258 229.873C258.258 229.873 258.258 229.873 258.258 230.386C259.495 231.411 259.907 232.948 259.907 234.998C259.907 239.611 256.197 244.223 254.136 246.785C250.839 250.885 246.717 252.935 242.183 254.473C233.527 257.035 221.573 257.035 214.566 248.835C212.917 246.785 214.566 242.173 216.627 241.148ZM205.085 349.796C217.039 348.258 231.054 351.846 233.527 368.758C236 384.645 230.641 401.557 224.871 415.394C218.276 430.769 210.032 444.094 198.078 452.806C179.53 466.643 156.859 473.818 135.425 473.818C125.945 473.818 115.228 472.281 106.572 466.643C100.801 462.543 93.3816 455.881 92.5572 446.656C90.4962 426.157 108.22 408.732 119.762 398.482C124.708 393.87 130.479 389.257 136.249 384.645C136.662 384.132 137.074 383.62 137.486 383.108C147.379 374.395 158.508 367.22 169.637 361.583C181.178 356.458 193.132 350.821 205.085 349.796ZM61.2307 288.297C86.3743 269.335 114.403 253.96 144.493 259.085C151.501 260.11 158.92 262.673 163.454 269.335C168.4 276.51 167.164 286.76 164.278 294.959C155.21 322.121 131.303 332.884 109.457 334.934C98.3279 335.959 86.7865 334.421 75.6574 331.859C65.3526 329.296 52.9868 324.684 48.8649 310.847C45.5674 299.059 52.1625 292.397 61.2307 288.297ZM-3.48335 237.048C3.11171 238.073 10.119 239.098 16.714 241.66C27.0188 241.66 57.9332 242.685 45.5674 265.235C41.0333 273.435 32.3773 277.535 24.9578 279.585C16.3018 282.147 7.23362 283.685 -1.83459 283.685C-16.2613 283.685 -45.1147 265.235 -29.4514 244.223C-23.2685 235.511 -12.1394 236.023 -3.48335 237.048Z" fill="#513826"/>
<path opacity="0.3" d="M-83.8309 890.629C-75.1905 964.914 -66.118 1039.71 -56.6136 1114C-47.1091 1190.33 -36.7406 1266.67 -27.2361 1343H1487C1482.68 1223.12 1477.06 1103.24 1471.45 983.357C1466.69 889.092 1461.94 794.314 1457.62 700.049C1440.34 694.414 1422.63 688.266 1405.35 682.63C1371.65 671.872 1337.95 666.749 1302.96 667.773C1267.1 669.31 1231.68 674.946 1196.25 679.044C1161.26 683.143 1126.69 683.143 1091.27 682.118C1069.67 681.606 1048.07 680.581 1026.9 681.094C1008.32 683.143 989.743 687.754 970.734 687.241C947.837 686.729 924.508 681.094 902.475 674.946C868.777 665.724 835.079 654.453 800.95 646.769C767.252 639.596 734.85 638.059 701.153 646.256C638.509 661.113 580.186 691.852 516.247 697.487C448.42 703.635 379.728 701.586 313.197 684.167C280.795 675.97 248.826 664.7 218.152 649.33C187.047 633.449 155.941 615.005 122.243 608.858C54.848 596.05 -5.63501 648.818 -71.3023 659.064C-82.5349 660.601 -93.7674 662.138 -105 662.65C-99.3837 738.472 -92.0394 814.807 -83.8309 890.629Z" fill="#59371F"/>
<path opacity="0.3" d="M-56.1362 1114C-46.6347 1190.33 -36.2694 1266.67 -26.7678 1343H1487C1485.27 1293.31 1483.11 1243.61 1480.95 1193.92C1461.09 1196.99 1440.79 1195.46 1421.78 1190.33C1346.64 1170.35 1292.22 1100.68 1228.3 1054.57C1189.43 1026.4 1145.81 1003.85 1100.03 1020.76C1059.43 1035.62 1022.72 1061.23 978.668 1055.6C935.047 1049.96 896.177 1026.91 855.58 1010.51C832.69 1001.29 808.504 993.096 783.886 993.608C757.541 994.121 731.196 1002.32 706.146 1011.54C652.16 1031.52 601.197 1061.74 551.962 1094.02C508.342 1122.71 463.425 1145.25 412.894 1148.84C361.931 1152.42 310.969 1141.15 263.029 1120.66C213.362 1099.66 164.99 1071.48 112.3 1062.77C85.0912 1058.16 57.4503 1058.16 30.6733 1066.36C3.03244 1074.55 -22.449 1089.41 -48.7941 1101.7C-51.3855 1102.73 -53.9768 1104.27 -57 1105.29C-57 1108.36 -56.5681 1110.93 -56.1362 1114Z" fill="#54331C"/>
<path opacity="0.3" d="M1056.26 1153.89C1052.14 1152.87 1051.73 1149.28 1051.31 1144.67C1050.9 1138 1050.08 1130.83 1050.08 1123.65C1050.08 1117.5 1052.55 1112.38 1057.91 1111.35C1063.68 1110.33 1068.63 1113.4 1073.57 1116.48C1081.4 1119.55 1090.47 1123.65 1083.88 1134.93C1080.58 1140.57 1075.63 1145.18 1071.1 1148.77C1066.56 1151.84 1061.21 1154.92 1056.26 1153.89Z" fill="#4E2F1B"/>
<path opacity="0.3" d="M1091.71 1212.32C1085.53 1210.27 1078.11 1206.17 1074.4 1198.99C1071.1 1192.33 1071.92 1184.64 1076.05 1178.49C1080.99 1170.8 1088.41 1165.68 1095.01 1161.07C1098.72 1159.02 1102.84 1156.45 1106.96 1154.92C1111.91 1151.33 1116.85 1148.25 1122.21 1146.2C1129.22 1143.64 1141.17 1141.08 1144.88 1151.33C1147.77 1158.5 1145.71 1167.22 1142.82 1173.88C1138.7 1183.1 1133.34 1191.3 1127.57 1198.48C1122.62 1204.12 1117.26 1210.27 1110.67 1212.83C1104.9 1215.39 1097.89 1214.37 1091.71 1212.32Z" fill="#4E2F1B"/>
<path opacity="0.3" d="M1217.43 1115.45C1207.53 1127.75 1185.69 1125.19 1181.57 1106.74C1181.15 1104.69 1182.8 1102.64 1184.04 1102.13H1184.45C1187.75 1098.54 1195.17 1100.08 1198.88 1101.1C1203.41 1102.13 1209.18 1103.67 1213.31 1106.74C1213.72 1107.25 1214.54 1107.25 1214.95 1107.77C1215.37 1108.28 1215.78 1108.79 1216.19 1109.3C1216.6 1109.82 1217.43 1110.33 1217.84 1111.35C1218.66 1112.38 1218.25 1114.43 1217.43 1115.45Z" fill="#4E2F1B"/>
<path opacity="0.3" d="M1276.78 1206.16C1255.76 1204.11 1231.85 1194.38 1219.49 1171.32C1218.66 1170.29 1219.49 1168.24 1219.9 1167.22C1229.38 1150.3 1243.81 1140.57 1260.29 1144.15C1268.95 1146.2 1277.19 1149.79 1285.03 1153.89C1292.86 1154.92 1300.28 1155.94 1307.7 1157.48C1318.41 1160.04 1329.96 1164.14 1337.37 1174.39C1338.2 1175.93 1338.2 1177.47 1336.96 1179C1323.36 1201.04 1298.22 1208.21 1276.78 1206.16Z" fill="#4E2F1B"/>
<path opacity="0.3" d="M1483.29 1237.94C1478.34 1236.4 1472.99 1235.38 1468.04 1234.35C1461.44 1233.33 1453.2 1233.33 1448.25 1239.99C1436.71 1255.88 1458.15 1269.71 1469.28 1269.71C1474.22 1269.71 1479.58 1269.2 1484.53 1267.66C1484.11 1257.93 1483.7 1247.68 1483.29 1237.94Z" fill="#4E2F1B"/>
<path opacity="0.3" d="M133.364 1142.1C125.12 1153.38 111.106 1154.92 102.038 1143.64C92.5572 1132.37 94.6181 1116.48 104.923 1107.25C104.923 1107.25 104.923 1107.25 105.335 1107.25C111.93 1096.49 125.12 1089.32 135.013 1097C147.379 1106.74 141.196 1131.34 133.364 1142.1Z" fill="#4E2F1B"/>
<path opacity="0.3" d="M248.778 1194.89C245.48 1198.48 240.534 1199.5 236.412 1200.02C222.81 1201.55 208.383 1197.97 195.605 1193.87C189.422 1191.82 182.827 1189.25 176.644 1185.67C172.934 1183.1 168.4 1180.54 165.927 1175.93C165.103 1174.39 165.927 1172.34 167.164 1171.32C176.232 1161.07 187.773 1156.97 199.315 1154.4C205.91 1150.82 212.917 1147.74 219.924 1146.72C226.932 1145.18 233.939 1145.18 239.297 1151.84C244.656 1159.02 249.19 1168.24 251.251 1177.98C252.487 1183.62 253.312 1190.79 248.778 1194.89Z" fill="#4E2F1B"/>
<path opacity="0.3" d="M357.184 1257.41C339.46 1262.03 322.148 1249.73 312.667 1231.28C308.133 1222.57 305.248 1212.32 308.545 1202.58C311.019 1194.89 316.377 1189.77 322.56 1188.23C332.04 1185.67 341.521 1187.72 350.589 1189.25C358.833 1187.2 368.313 1184.64 376.557 1187.72C384.801 1190.79 388.51 1199.5 388.098 1209.75C387.686 1232.3 375.32 1253.31 357.184 1257.41Z" fill="#4E2F1B"/>
<path opacity="0.3" d="M458.583 1222.56C449.927 1221.54 433.852 1214.88 433.852 1201.04C433.852 1194.38 437.561 1187.72 442.92 1186.69C446.217 1186.18 449.515 1186.69 452.4 1187.2C452.812 1187.2 452.812 1187.2 453.224 1187.2C463.117 1188.23 472.597 1183.1 481.666 1189.77C485.788 1192.84 487.436 1198.48 484.963 1204.12C480.841 1213.85 468.063 1223.59 458.583 1222.56Z" fill="#4E2F1B"/>
<path opacity="0.3" d="M591.309 1236.4C590.896 1243.06 588.423 1249.21 585.538 1254.85C581.004 1263.56 576.057 1271.76 569.462 1277.91C555.448 1291.75 536.487 1298.93 518.763 1296.88C509.695 1295.85 501.039 1292.78 493.207 1287.14C487.436 1283.04 480.841 1276.38 479.193 1267.66C475.895 1252.8 488.261 1242.55 497.329 1237.43C509.282 1230.77 522.06 1226.67 534.426 1222.57C534.838 1222.57 535.251 1222.57 535.663 1222.57C543.907 1219.49 553.387 1219.49 562.043 1220.52C566.989 1220 571.936 1220 576.47 1220.52C583.889 1221.54 591.721 1225.64 591.309 1236.4Z" fill="#4E2F1B"/>
<path opacity="0.3" d="M590.896 1172.85C588.011 1183.1 577.294 1184.64 569.875 1183.62C562.455 1183.1 552.563 1181.05 546.792 1174.39C545.555 1172.85 546.38 1170.29 547.616 1169.27C550.502 1166.7 553.799 1165.17 557.509 1164.14C570.287 1157.48 597.491 1150.82 590.896 1172.85Z" fill="#4E2F1B"/>
<path opacity="0.3" d="M621.398 1213.85C616.452 1212.32 603.262 1207.7 607.796 1197.97C610.682 1192.33 616.452 1191.82 621.811 1193.35C622.223 1193.35 622.223 1193.35 622.635 1193.35C624.696 1192.84 626.757 1192.84 628.818 1192.84C629.642 1192.84 630.055 1193.35 630.467 1194.38C634.176 1195.92 637.474 1198.48 638.298 1204.12C639.947 1214.88 626.345 1215.39 621.398 1213.85Z" fill="#4E2F1B"/>
<path opacity="0.3" d="M709.195 1226.15C696.829 1226.66 683.227 1224.61 671.686 1218.98C665.915 1215.9 657.259 1210.78 654.786 1202.58C652.313 1194.38 656.435 1186.69 662.618 1183.1C669.625 1178.49 678.281 1180.54 685.7 1182.59C689.822 1183.62 694.356 1185.15 698.478 1186.69C698.89 1186.69 699.303 1186.18 699.715 1186.18C706.722 1186.18 714.554 1187.72 721.149 1190.28C726.919 1192.33 735.575 1196.94 736.4 1205.65C737.636 1223.08 718.676 1225.64 709.195 1226.15Z" fill="#4E2F1B"/>
<path opacity="0.3" d="M767.314 1192.33C766.902 1190.79 768.139 1188.74 769.375 1188.23C778.856 1182.08 789.985 1183.1 800.289 1184.64C800.702 1184.64 800.702 1184.64 801.114 1184.64C809.358 1184.64 822.96 1181.05 825.433 1194.89C827.494 1205.14 813.892 1210.78 808.121 1211.8C794.519 1213.85 772.673 1211.8 767.314 1192.33Z" fill="#4E2F1B"/>
<path opacity="0.3" d="M914.054 1279.45C905.81 1297.9 890.147 1310.2 873.247 1311.23C860.469 1311.74 849.34 1305.08 838.211 1297.9C825.845 1290.21 812.655 1280.99 803.999 1267.15C797.404 1256.9 795.343 1241.01 805.648 1232.81C810.594 1228.71 817.189 1227.18 822.96 1226.15C830.792 1224.61 838.623 1224.61 846.455 1224.61C849.752 1224.61 853.462 1224.61 856.76 1224.61C857.172 1223.59 857.996 1222.56 858.821 1222.05C861.706 1221.54 864.179 1221.03 867.064 1220C880.255 1216.93 897.979 1211.8 909.932 1222.56C923.122 1235.38 921.061 1263.05 914.054 1279.45Z" fill="#4E2F1B"/>
<path opacity="0.3" d="M948.678 1196.94C944.144 1206.68 932.603 1204.63 925.596 1202.58C921.474 1201.55 917.352 1200.01 913.642 1197.96C912.818 1197.45 910.757 1196.43 910.345 1195.4V1194.89C909.108 1193.87 907.871 1192.84 907.047 1191.82C905.81 1190.28 906.635 1187.2 908.284 1186.18C908.696 1185.67 909.108 1185.15 909.52 1184.64C917.352 1180.03 928.481 1178.49 937.137 1179.52C940.847 1180.03 945.381 1181.05 947.854 1184.64C949.915 1187.72 950.327 1193.35 948.678 1196.94Z" fill="#4E2F1B"/>
<path opacity="0.3" d="M-3.89555 958.633C-2.24678 957.608 -1.0102 956.583 -0.185822 954.533C0.63856 954.021 1.05075 952.996 1.46294 951.971C2.28732 948.383 0.638559 943.771 -0.598015 940.183C-1.83459 937.108 -4.30774 933.009 -6.78088 929.934C-5.9565 939.671 -4.71993 949.408 -3.89555 958.633Z" fill="#633E25"/>
<path opacity="0.3" d="M179.117 814.624C178.705 813.599 177.881 813.086 177.056 812.574C174.171 811.549 170.461 813.599 167.988 815.136C163.042 818.724 154.798 826.411 156.447 834.611C157.271 839.223 162.218 840.248 165.103 840.761C169.637 841.273 174.171 840.761 178.293 839.223C182.003 837.686 183.652 833.586 183.652 828.973C183.652 824.361 182.827 817.186 179.117 814.624Z" fill="#563520"/>
<path opacity="0.3" d="M228.993 980.157C228.58 979.645 228.168 979.132 227.344 978.62C225.283 977.595 222.81 979.132 220.749 980.67C217.039 983.232 211.268 988.87 212.505 994.507C212.917 997.582 216.627 998.607 218.688 998.607C221.573 999.119 225.283 998.607 228.168 997.582C231.053 996.557 231.878 993.482 231.878 990.407C232.29 987.332 231.466 982.207 228.993 980.157Z" fill="#563520"/>
<path opacity="0.3" d="M84.3134 907.897C83.9012 907.385 83.489 906.872 83.0768 906.872C81.4281 906.36 79.3671 907.385 78.1305 908.41C75.2452 910.46 70.7111 914.559 71.5355 919.172C71.9477 921.734 74.833 922.247 76.4818 922.759C78.9549 923.272 81.4281 922.759 83.9012 921.734C85.9622 920.709 86.7866 918.659 86.7866 916.097C86.7866 913.022 86.3744 909.435 84.3134 907.897Z" fill="#563520"/>
<path opacity="0.3" d="M450.751 873.56C451.576 873.048 451.988 872.023 452.4 870.998C453.225 867.41 451.576 862.798 450.339 859.211C447.454 853.061 441.271 842.811 434.676 844.861C431.378 845.886 430.142 852.036 429.73 855.623C429.317 861.261 429.73 866.898 430.966 872.023C432.203 876.635 435.5 878.685 439.21 878.685C442.92 879.71 448.69 878.685 450.751 873.56Z" fill="#563520"/>
<path opacity="0.3" d="M318.85 936.596C319.262 936.084 319.675 935.571 320.087 934.546C320.911 931.984 319.675 928.397 318.438 926.347C316.377 921.734 311.843 914.559 307.309 916.097C304.836 916.609 304.011 921.222 304.011 923.784C303.599 927.884 304.011 931.984 304.836 935.571C305.66 939.159 307.721 940.184 310.606 940.696C313.492 940.696 317.614 940.184 318.85 936.596Z" fill="#563520"/>
<path opacity="0.3" d="M376.557 754.663C376.969 754.15 377.381 753.638 377.381 753.125C377.793 751.075 376.969 748.513 376.145 746.975C374.496 743.388 371.198 737.75 367.489 738.775C365.428 739.288 365.016 742.875 364.603 744.925C364.191 748 364.603 751.075 365.428 754.15C366.252 756.713 367.901 757.737 369.962 757.737C372.435 757.737 375.32 757.225 376.557 754.663Z" fill="#563520"/>
<path opacity="0.3" d="M477.132 931.471C476.719 930.959 476.307 930.446 475.483 930.446C473.422 929.421 470.949 930.959 469.3 931.984C466.002 934.034 460.644 939.671 461.468 945.309C461.88 948.384 465.178 948.896 467.239 949.408C470.124 949.921 473.422 949.409 475.895 948.384C478.368 947.359 479.605 944.796 479.605 941.209C480.429 937.621 479.605 933.009 477.132 931.471Z" fill="#563520"/>
<path opacity="0.3" d="M510.519 1042.68C510.107 1042.17 510.107 1042.17 509.282 1041.66C507.634 1041.14 505.985 1042.17 504.748 1042.68C502.275 1044.22 498.566 1048.32 499.39 1051.91C499.802 1053.96 502.275 1054.47 503.512 1054.98C505.573 1055.49 507.634 1054.98 509.695 1053.96C511.343 1052.93 512.168 1051.39 512.168 1048.83C512.992 1047.29 512.58 1043.71 510.519 1042.68Z" fill="#563520"/>
<path opacity="0.3" d="M413.654 993.995C413.654 993.483 413.242 993.483 412.83 993.483C411.593 992.97 410.357 993.995 409.532 994.508C407.471 995.533 404.586 998.608 405.41 1001.68C405.823 1003.22 407.471 1003.73 408.708 1003.73C410.357 1004.25 412.005 1003.73 413.654 1003.22C414.891 1002.71 415.715 1001.17 415.715 999.12C415.303 997.583 414.891 995.02 413.654 993.995Z" fill="#563520"/>
<path opacity="0.3" d="M863.355 868.435C864.179 867.922 864.591 866.897 865.004 865.872C865.828 862.285 864.179 857.672 862.943 854.085C860.057 847.935 853.874 837.685 847.279 839.735C843.57 840.76 842.745 846.91 842.333 850.498C841.921 856.135 842.333 861.772 843.57 866.897C844.806 871.51 848.104 873.56 851.813 873.56C855.935 874.072 861.706 873.047 863.355 868.435Z" fill="#563520"/>
<path opacity="0.3" d="M731.866 930.958C732.278 930.446 732.69 929.933 733.102 928.908C733.927 926.346 732.69 922.758 731.454 920.708C729.393 916.096 724.859 908.921 720.324 910.459C717.851 910.971 717.027 915.583 717.027 918.146C716.615 922.246 717.027 926.346 717.851 929.933C718.676 933.521 720.737 934.546 723.622 935.058C726.507 935.058 730.629 934.546 731.866 930.958Z" fill="#563520"/>
<path opacity="0.3" d="M789.573 749.024C789.985 748.512 790.397 747.999 790.397 747.487C790.809 745.437 789.985 742.875 789.16 741.337C787.512 737.75 784.214 732.112 780.504 733.137C778.443 733.65 778.031 737.237 777.619 739.287C777.207 742.362 777.619 745.437 778.443 748.512C779.268 751.074 780.917 752.099 782.978 752.099C785.451 752.099 788.336 751.587 789.573 749.024Z" fill="#563520"/>
<path opacity="0.3" d="M1078.52 801.299C1078.11 800.274 1077.28 799.762 1076.46 799.249C1073.57 798.224 1069.86 800.274 1067.39 801.811C1062.44 805.399 1054.2 813.086 1055.85 821.286C1056.67 825.898 1061.62 826.924 1064.5 827.436C1068.63 827.948 1073.57 827.436 1077.69 825.899C1081.4 824.361 1083.05 820.261 1083.05 815.649C1083.05 810.524 1082.64 803.349 1078.52 801.299Z" fill="#563520"/>
<path opacity="0.3" d="M1128.39 966.833C1127.98 966.321 1127.57 965.808 1126.75 965.296C1124.68 964.271 1122.21 965.808 1120.15 967.346C1116.44 969.908 1110.67 975.546 1111.91 981.183C1112.32 984.258 1116.03 985.283 1118.09 985.795C1120.97 986.308 1124.68 985.795 1127.57 984.77C1130.45 983.745 1131.28 980.67 1131.28 977.595C1131.69 973.496 1131.28 968.371 1128.39 966.833Z" fill="#563520"/>
<path opacity="0.3" d="M983.715 894.059C983.302 893.547 982.89 893.034 982.478 893.034C980.829 892.522 978.768 893.547 977.532 894.572C974.646 896.622 970.112 900.722 970.937 905.334C971.349 907.897 974.234 908.409 975.883 908.921C978.356 909.434 980.829 908.922 983.302 907.897C985.363 906.872 986.188 904.822 986.188 902.259C986.188 899.184 985.776 895.597 983.715 894.059Z" fill="#563520"/>
<path opacity="0.3" d="M1350.15 860.236C1350.98 859.723 1351.39 858.698 1351.8 857.673C1352.63 854.086 1350.98 849.473 1349.74 845.886C1346.86 839.736 1340.67 829.486 1334.08 831.536C1330.78 832.561 1329.54 838.711 1329.13 842.298C1328.72 847.936 1329.13 853.573 1330.37 858.698C1331.6 863.31 1334.9 865.36 1338.61 865.36C1342.73 865.873 1348.09 864.848 1350.15 860.236Z" fill="#563520"/>
<path opacity="0.3" d="M1218.66 922.759C1219.08 922.247 1219.49 921.734 1219.9 920.709C1220.72 918.147 1219.49 914.56 1218.25 912.51C1216.19 907.897 1211.66 900.722 1207.12 902.26C1204.65 902.772 1203.82 907.385 1203.82 909.947C1203.41 914.047 1203.82 918.147 1204.65 921.734C1205.47 925.322 1207.53 926.347 1210.42 926.859C1213.3 926.859 1217.01 926.347 1218.66 922.759Z" fill="#563520"/>
<path opacity="0.3" d="M1276.37 740.825C1276.78 740.313 1277.19 739.8 1277.19 739.288C1277.61 737.238 1276.78 734.675 1275.96 733.138C1274.31 729.55 1271.01 723.913 1267.3 724.938C1265.24 725.45 1264.83 729.038 1264.42 731.088C1264 734.163 1264.42 737.238 1265.24 740.313C1266.07 742.875 1267.71 743.9 1269.78 743.9C1272.25 743.9 1275.13 743.388 1276.37 740.825Z" fill="#563520"/>
<path opacity="0.3" d="M160.569 386.695C161.393 386.183 161.805 385.158 162.218 384.133C163.042 380.546 161.393 375.933 160.157 372.346C157.271 366.196 151.088 355.946 144.493 357.996C141.196 359.021 139.959 365.171 139.547 368.758C139.135 374.396 139.547 380.033 140.784 385.158C142.02 389.77 144.906 391.82 149.027 391.82C153.149 392.333 158.92 391.308 160.569 386.695Z" fill="#42372F"/>
<path opacity="0.3" d="M29.0798 449.219C29.492 448.706 29.9042 448.194 30.3164 447.169C31.1408 444.606 29.9042 441.532 28.6676 438.969C26.6067 434.357 22.0726 427.182 17.5385 428.719C15.0653 429.744 14.2409 433.844 14.2409 436.407C13.8287 440.507 14.2409 444.606 15.0653 448.194C15.8897 451.781 17.9506 452.806 20.836 453.319C23.7213 453.319 27.8432 452.806 29.0798 449.219Z" fill="#42372F"/>
<path opacity="0.3" d="M86.7866 267.285C87.1988 266.773 87.611 266.26 87.611 265.748C88.0232 263.698 87.1988 261.135 86.3744 259.598C84.7256 256.01 81.4281 250.373 77.7184 251.398C75.6574 251.91 75.2452 255.498 74.833 257.548C74.4208 260.623 74.833 263.698 75.6574 266.773C76.4818 269.335 78.1306 270.36 80.1915 270.36C82.6647 270.36 85.55 269.848 86.7866 267.285Z" fill="#42372F"/>
<path opacity="0.3" d="M404.586 473.305C405.41 472.793 405.823 471.768 406.235 470.743C407.059 467.156 405.41 462.543 404.174 458.956C401.288 452.806 395.106 442.556 388.511 444.606C385.213 445.631 383.976 451.781 383.564 455.368C383.152 461.006 383.564 466.643 384.801 471.768C386.037 476.38 389.335 478.43 393.045 478.943C397.167 478.943 402.937 477.918 404.586 473.305Z" fill="#42372F"/>
<path opacity="0.3" d="M273.097 535.829C273.509 535.317 273.921 534.804 274.334 533.779C275.158 531.217 273.921 527.629 272.685 525.579C270.624 520.967 266.09 513.792 261.556 515.33C259.082 515.842 258.258 520.455 258.258 523.017C257.846 527.117 258.258 531.217 259.082 534.804C259.907 538.392 261.968 539.417 264.853 539.929C267.739 539.929 271.86 539.417 273.097 535.829Z" fill="#42372F"/>
<path opacity="0.3" d="M330.804 353.895C331.216 353.383 331.628 352.871 331.628 352.358C332.04 350.308 331.216 347.746 330.392 346.208C328.743 342.621 325.445 336.983 321.736 338.008C319.675 338.521 319.262 342.108 318.85 344.158C318.438 347.233 318.85 350.308 319.675 353.383C320.499 355.945 322.148 356.97 324.209 356.97C326.682 356.97 329.567 356.458 330.804 353.895Z" fill="#42372F"/>
<path opacity="0.3" d="M583.889 332.884C583.477 331.859 582.653 331.346 581.828 330.834C578.943 329.809 575.233 331.859 572.76 333.396C567.814 336.984 559.57 344.671 561.219 352.871C562.043 357.483 566.989 358.508 569.875 359.021C573.996 359.533 578.943 359.021 583.065 357.483C586.774 355.946 588.423 351.846 588.423 347.234C588.423 342.621 587.599 335.446 583.889 332.884Z" fill="#42372F"/>
<path opacity="0.3" d="M633.764 498.418C633.352 497.906 632.94 497.393 632.115 496.881C630.055 495.856 627.581 497.393 625.52 498.931C621.811 501.493 616.04 507.13 617.277 512.768C617.689 515.843 621.398 516.868 623.459 517.38C626.345 517.893 630.055 517.38 632.94 516.355C635.825 515.33 636.65 512.255 636.65 509.18C637.062 505.593 636.65 500.468 633.764 498.418Z" fill="#42372F"/>
<path opacity="0.3" d="M489.085 426.157C488.673 425.645 488.261 425.132 487.849 425.132C486.2 424.62 484.139 425.645 482.902 426.67C480.017 428.72 475.483 432.82 476.307 437.432C476.719 439.995 479.605 440.507 481.253 441.02C483.727 441.532 486.2 441.02 488.673 439.995C490.734 438.97 491.558 436.92 491.558 434.357C491.558 431.282 491.146 427.695 489.085 426.157Z" fill="#42372F"/>
<path opacity="0.3" d="M855.523 392.333C856.347 391.821 856.76 390.796 857.172 389.771C857.996 386.183 856.348 381.571 855.111 377.984C852.226 371.834 846.043 361.584 839.448 363.634C836.15 364.659 834.914 370.809 834.501 374.396C834.089 380.033 834.501 385.671 835.738 390.796C836.974 395.408 839.86 397.458 843.982 397.458C847.691 397.971 853.462 396.946 855.523 392.333Z" fill="#42372F"/>
<path opacity="0.3" d="M724.034 454.857C724.446 454.344 724.859 453.832 725.271 452.807C726.095 450.244 724.859 446.657 723.622 444.607C721.561 439.994 717.027 432.82 712.493 434.357C710.02 434.869 709.195 439.482 709.195 442.044C708.783 446.144 709.195 450.244 710.02 453.832C710.844 457.419 712.905 458.444 715.79 458.956C718.263 458.956 722.385 458.444 724.034 454.857Z" fill="#42372F"/>
<path opacity="0.3" d="M781.329 272.923C781.741 272.41 782.153 271.898 782.153 271.385C782.565 269.335 781.741 266.773 780.916 265.235C779.268 261.648 775.97 256.011 772.26 257.036C770.2 257.548 769.787 261.136 769.375 263.186C768.963 266.26 769.375 269.335 770.2 272.41C771.024 274.973 772.673 275.998 774.734 275.998C777.207 275.998 780.504 275.485 781.329 272.923Z" fill="#42372F"/>
<path opacity="0.3" d="M1388.49 473.305C1389.31 472.793 1389.72 471.768 1390.14 470.743C1390.96 467.156 1389.31 462.543 1388.07 458.956C1385.19 452.806 1379.01 442.556 1372.41 444.606C1368.7 445.631 1367.88 451.781 1367.46 455.368C1367.05 461.006 1367.46 466.643 1368.7 471.768C1369.94 476.38 1372.82 478.43 1376.95 478.943C1380.65 478.943 1386.43 477.918 1388.49 473.305Z" fill="#42372F"/>
<path opacity="0.3" d="M1256.59 535.829C1257 535.317 1257.41 534.804 1257.82 533.779C1258.65 531.217 1257.41 527.629 1256.17 525.579C1254.11 520.967 1249.58 513.792 1245.04 515.33C1242.57 515.842 1241.75 520.455 1241.75 523.017C1241.33 527.117 1241.75 531.217 1242.57 534.804C1243.4 538.392 1245.46 539.417 1248.34 539.929C1251.23 539.929 1255.35 539.417 1256.59 535.829Z" fill="#42372F"/>
<path opacity="0.3" d="M1314.29 353.895C1314.7 353.383 1315.12 352.871 1315.12 352.358C1315.53 350.308 1314.7 347.746 1313.88 346.208C1312.23 342.621 1308.93 336.983 1305.22 338.008C1303.16 338.521 1302.75 342.108 1302.34 344.158C1301.93 347.233 1302.34 350.308 1303.16 353.383C1303.99 355.945 1305.64 356.97 1307.7 356.97C1310.17 356.97 1313.47 356.458 1314.29 353.895Z" fill="#42372F"/>
<path opacity="0.3" d="M881.903 449.731C881.491 449.218 881.079 448.706 880.255 448.706C878.194 447.681 875.72 449.218 874.072 450.243C870.774 452.293 865.004 457.93 866.24 463.568C866.652 466.643 869.95 467.155 872.011 467.668C874.896 468.18 878.194 467.668 880.667 466.643C883.14 465.618 884.377 463.055 884.377 459.468C885.201 456.393 884.789 451.268 881.903 449.731Z" fill="#42372F"/>
<path opacity="0.3" d="M915.703 560.941C915.291 560.428 915.291 560.428 914.466 559.916C912.818 559.403 911.169 560.428 909.932 560.941C907.459 562.478 903.749 566.578 904.574 570.165C904.986 572.215 907.459 572.728 908.696 573.24C910.757 573.753 912.818 573.24 914.879 572.215C916.527 571.19 917.352 569.653 917.352 567.09C917.764 565.553 917.352 561.965 915.703 560.941Z" fill="#42372F"/>
<path opacity="0.3" d="M818.426 512.255C818.426 511.742 818.014 511.742 817.602 511.742C816.365 511.23 815.128 512.255 814.304 512.767C812.655 513.792 809.358 516.867 810.182 519.942C810.594 521.48 812.243 521.992 813.48 521.992C815.128 522.504 816.777 521.992 818.426 521.48C819.662 520.967 820.487 519.43 820.487 517.38C820.075 515.842 820.075 513.28 818.426 512.255Z" fill="#42372F"/>
<path opacity="0.3" d="M1268.54 386.695C1269.36 386.183 1269.78 385.158 1270.19 384.133C1271.01 380.546 1269.36 375.933 1268.13 372.346C1265.24 366.196 1259.06 355.946 1252.46 357.996C1249.17 359.021 1247.93 365.171 1247.52 368.758C1247.1 374.396 1247.52 380.033 1248.75 385.158C1249.99 389.77 1252.88 391.82 1257 391.82C1260.71 392.333 1266.48 391.308 1268.54 386.695Z" fill="#42372F"/>
<path opacity="0.3" d="M1137.05 449.219C1137.46 448.706 1137.87 448.194 1138.29 447.169C1139.11 444.606 1137.87 441.532 1136.64 438.969C1134.58 434.357 1130.04 427.182 1125.51 428.719C1123.04 429.744 1122.21 433.844 1122.21 436.407C1121.8 440.507 1122.21 444.606 1123.04 448.194C1123.86 451.781 1125.92 452.806 1128.81 453.319C1131.28 453.319 1135.4 452.806 1137.05 449.219Z" fill="#42372F"/>
<path opacity="0.3" d="M1194.34 267.285C1194.76 266.773 1195.17 266.26 1195.17 265.748C1195.58 263.698 1194.76 261.135 1193.93 259.598C1192.28 256.01 1188.99 250.373 1185.28 251.398C1183.22 251.91 1182.8 255.498 1182.39 257.548C1181.98 260.623 1182.39 263.698 1183.22 266.773C1184.04 269.335 1185.69 270.36 1187.75 270.36C1190.22 270.36 1193.52 269.848 1194.34 267.285Z" fill="#42372F"/>
<path opacity="0.3" d="M15.8896 281.635C15.4775 282.147 15.0653 282.66 15.0653 283.172C14.6531 285.735 15.4775 288.297 16.3018 290.347C17.9506 293.935 21.6603 300.597 25.7822 299.059C27.8432 298.547 28.6676 294.447 28.6676 292.397C29.0798 289.322 28.6676 285.735 27.8432 282.147C27.0188 279.072 25.37 278.047 22.8969 278.047C20.4238 278.047 16.714 278.56 15.8896 281.635Z" fill="#42372F"/>
</g>
<path d="M-143.672 76.8678C-74.1533 75.4771 -4.76107 74.2128 64.7576 72.8221C66.0216 62.3286 67.2856 51.8352 68.4231 41.3418C68.5495 51.4559 68.6759 61.5701 68.8023 71.8107C72.8471 61.6965 76.7654 51.5824 80.8101 41.3418C82.0741 52.7202 83.2117 64.0987 84.4756 75.4771C87.8884 61.5701 91.4275 47.7895 94.8402 33.8825C96.8626 43.9967 99.0114 53.9845 101.034 64.0987C99.3905 42.7325 97.621 21.3662 95.9778 0C104.067 22.7569 112.157 45.6402 120.246 68.3972C124.796 56.7658 129.22 45.261 133.771 33.6296C132.759 43.7438 131.748 53.9845 130.611 64.0987C137.815 56.513 145.146 48.8009 152.351 41.2153C152.351 48.8009 152.351 56.3866 152.351 63.9722C167.519 48.8009 182.687 33.6296 197.854 18.4584C186.478 38.6867 175.103 58.9151 163.727 79.1435C176.367 71.5578 189.006 63.9722 201.646 56.3866C196.59 61.4437 191.534 66.5007 186.478 71.5578C199.118 66.5007 211.632 61.4437 224.271 56.3866C221.743 61.4437 219.215 66.5007 216.687 71.5578C225.535 67.765 234.51 63.9722 243.357 60.1794C239.565 63.9722 235.774 67.765 231.982 71.5578C268.637 71.5578 305.292 71.5578 341.947 71.5578L393.897 75.2243C405.273 80.4078 418.544 81.2928 430.552 77.7528C423.979 70.5464 417.28 63.2136 410.708 56.0073C418.165 61.1908 425.623 66.3743 433.08 71.5578C433.333 66.5007 433.459 61.5701 433.712 56.513C432.575 62.2023 436.746 68.3972 442.434 69.535C448.121 70.6729 454.315 66.3744 455.326 60.5587C454.315 64.9837 457.475 69.9143 461.899 70.7993C466.323 71.6843 471.252 68.5236 472.011 63.9722C481.238 72.0635 490.465 80.1549 499.565 88.2463C501.461 80.1549 503.231 71.9372 505.127 63.8458C508.919 72.6957 512.711 81.5456 516.503 90.3955C536.726 90.3955 556.95 90.3955 577.173 90.3955L821.5 88.8784C828.957 96.8433 842.229 98.4869 851.456 92.6712C860.683 86.8556 864.854 74.0864 860.81 63.9722C862.326 71.6843 863.843 79.5228 865.36 87.2349C867.003 79.2699 868.646 71.305 870.289 63.3401C878.379 65.8686 884.067 74.845 882.676 83.1892C885.078 80.5342 887.353 77.7528 889.755 75.0979C887.479 83.0628 889.881 92.1655 895.822 97.9812C900.878 80.2814 905.807 62.7079 910.863 45.0081C914.655 57.6508 918.447 70.2936 922.239 82.9363C929.823 71.5578 937.406 60.1794 944.99 48.8009C944.864 60.1794 944.864 71.4314 944.737 82.8099C948.403 78.8907 952.069 74.9714 955.734 71.0522C955.102 75.9828 954.47 80.9135 953.965 85.8442C959.4 72.0636 964.961 58.4094 970.396 44.6288C967.868 54.743 965.467 64.7308 962.939 74.845C969.385 63.593 975.831 52.2145 982.278 40.9625C977.474 53.7316 972.545 66.5008 967.742 79.27C979.118 67.8915 990.493 56.513 1001.87 45.1346C998.077 56.513 994.285 67.8915 990.493 79.27C1018.43 79.27 1046.23 79.27 1074.17 79.27C1075.31 71.8107 1076.44 64.3515 1077.58 56.8923C1080.87 67.1329 1084.03 77.2471 1087.31 87.4877C1088.33 80.0285 1089.46 72.5693 1090.47 65.2365C1087.57 68.9029 1090.09 75.3507 1094.77 76.1093C1099.45 76.7414 1103.75 71.305 1101.98 66.8801C1103.49 70.9258 1105.01 74.845 1106.53 78.8907C1102.99 62.9608 1099.45 47.1574 1095.78 31.2276C1104.63 47.5367 1113.35 63.7194 1122.2 80.0285C1122.71 72.19 1123.08 64.4779 1123.59 56.6394C1124.85 61.6965 1126.24 66.7536 1127.51 71.6843C1129.91 64.0987 1132.31 56.6394 1134.71 49.0538C1134.71 54.1109 1134.71 59.168 1134.71 64.2251C1142.3 51.5823 1149.88 38.9396 1157.46 26.2969C1152.41 38.9396 1147.35 51.5823 1142.3 64.2251C1152.28 60.4322 1162.27 56.6394 1172.25 52.8466C1171.62 58.5358 1176.68 64.0987 1182.36 64.0987C1188.05 64.0987 1193.11 58.5358 1192.48 52.8466C1194.5 56.513 1196.52 60.3058 1198.42 63.9722C1202.46 50.0652 1206.38 36.2847 1210.43 22.3777C1209.29 38.9396 1208.02 55.3752 1206.89 71.9372C1213.46 70.7993 1220.16 69.6615 1226.73 68.5236C1227.87 59.5473 1228.88 50.4445 1230.02 41.4681C1230.02 49.0538 1229.89 56.6394 1229.89 64.2251C1232.17 57.9037 1234.44 51.7088 1236.72 45.3874C1237.85 54.2374 1239.12 63.0872 1240.26 71.8107C1243.04 66.7536 1245.82 61.5701 1248.6 56.513C1248.6 62.8344 1248.6 69.1558 1248.6 75.4771C1261.24 72.9486 1273.88 70.42 1286.52 67.8915H1358.56C1358.56 60.3059 1358.56 52.7202 1358.56 45.1346C1358.56 52.7202 1358.69 60.4322 1358.69 68.0179C1361.98 64.3515 1365.39 60.6851 1368.67 56.8923C1372.72 63.0872 1376.89 69.2822 1380.94 75.6035C1380.81 59.168 1380.68 42.7324 1380.56 26.2969C1386.62 42.8588 1392.82 59.2944 1398.88 75.8564C1399.14 61.823 1399.52 47.7895 1399.77 33.7561C1400.65 47.5367 1401.41 61.4437 1402.3 75.2243C1404.95 70.0407 1407.61 64.8572 1410.26 59.6737C1410.64 64.9837 1411.02 70.1672 1411.52 75.4771C1415.32 67.8915 1419.11 60.3059 1422.9 52.7202C1422.9 59.0416 1422.9 65.3629 1422.9 71.6843C1425.43 66.6272 1427.96 61.5701 1430.48 56.513C1430.36 60.053 1430.23 63.7194 1430.1 67.2594C1433.14 65.1101 1436.17 63.0873 1439.2 60.938C1437.81 64.6044 1436.55 68.3972 1435.16 72.0636C1438.7 69.4086 1442.11 66.6272 1445.65 63.9722C1445.78 69.1557 1445.9 74.4657 1446.03 79.6492C1451.21 74.7186 1456.39 69.7879 1461.58 64.9837C1461.32 68.5236 1461.07 72.0636 1460.82 75.6035C1465.75 64.2251 1470.55 52.7202 1475.48 41.3418C1472.7 51.3295 1469.92 61.3173 1467.14 71.305C1471.31 65.1101 1475.48 58.9152 1479.53 52.7202C1479.65 59.0416 1479.65 65.4893 1479.78 71.8107C1483.57 68.0179 1487.36 64.2251 1491.15 60.4322C1491.15 64.3515 1491.15 68.3972 1491.15 72.3164C1507.59 73.8336 1524.02 75.2243 1540.45 76.7414L1638.66 77.2471C1656.48 84.7063 1674.18 92.1655 1692 99.6247C1625.26 126.174 1553.72 137.553 1482.56 147.541C938.923 223.397 384.038 218.466 -158.208 133.128C-171.859 108.601 -171.479 77.3735 -143.672 76.8678Z" fill="#01231F"/>
<defs>
<clipPath id="clip0_436_3917">
<rect width="1535" height="1190" fill="white" transform="translate(-48 153)"/>
</clipPath>
</defs>
</svg>
