<svg width="375" height="191" viewBox="0 0 375 191" fill="none" xmlns="http://www.w3.org/2000/svg">
<path fill-rule="evenodd" clip-rule="evenodd" d="M-186.468 124.523V160.68L186.393 187.36L292.373 190.859H397.04L383.619 133.781L191.499 118.108L-186.468 124.523Z" fill="url(#paint0_linear_272_5493)"/>
<path fill-rule="evenodd" clip-rule="evenodd" d="M128.334 126.71V131.157L139.64 136.697L155.467 138.738L159.917 141.289L157.364 154.484C157.364 154.484 161.521 159.295 161.813 159.295C162.105 159.295 171.295 158.42 171.149 158.128C171.076 157.837 184.205 145.955 184.205 145.955V137.061L128.334 126.71Z" fill="url(#paint1_linear_272_5493)"/>
<path fill-rule="evenodd" clip-rule="evenodd" d="M165.97 144.497L168.086 159.732L213.235 175.551L234.314 182.84H262.03L265.531 152.224L165.97 144.497Z" fill="url(#paint2_linear_272_5493)"/>
<path fill-rule="evenodd" clip-rule="evenodd" d="M-188 117.233L470.707 112.13V190.859H397.04L366.624 177.446C366.624 177.446 311.118 179.56 301.125 177.883C291.133 176.207 273.336 164.252 263.781 160.825C254.226 157.399 234.095 160.096 209.223 155.941C176.911 150.62 166.481 145.298 166.043 144.424C165.606 143.549 183.257 138.446 183.257 138.446C183.257 138.446 138.618 131.594 128.407 126.637L164.293 124.669L206.451 122.7L156.853 123.648L-24.8366 126.783L-186.468 124.45L-188 117.233Z" fill="url(#paint3_linear_272_5493)"/>
<path fill-rule="evenodd" clip-rule="evenodd" d="M397.04 130.282C397.04 130.282 355.319 118.983 338.981 118.181C322.569 117.306 216.954 116.723 213.453 118.181C214.256 119.056 222.498 125.689 222.498 125.689C222.498 125.689 239.128 136.915 253.643 138.811C268.157 140.706 397.04 137.134 397.04 137.134V130.282Z" fill="url(#paint4_linear_272_5493)"/>
<path fill-rule="evenodd" clip-rule="evenodd" d="M469.978 137.936L363.561 135.312L322.715 137.863C322.715 137.863 258.821 135.968 250.506 134.874C238.836 133.416 213.453 118.108 213.453 118.108L222.498 128.605L237.961 134.947C237.961 134.947 256.925 143.549 261.739 144.424C266.553 145.298 329.79 139.248 329.79 139.248L470.416 140.487L469.978 137.936Z" fill="url(#paint5_linear_272_5493)"/>
<path fill-rule="evenodd" clip-rule="evenodd" d="M265.094 161.336L324.32 159.295L350.505 156.014L397.113 154.483L337.303 154.775L310.753 158.784L258.384 159.586C258.384 159.586 263.562 170.01 263.635 169.281C263.708 168.552 265.094 161.336 265.094 161.336Z" fill="url(#paint6_linear_272_5493)"/>
<path fill-rule="evenodd" clip-rule="evenodd" d="M183.257 138.519H190.04L207.254 138.738L189.311 136.77L176.109 137.426L181.215 139.175L183.257 138.519Z" fill="url(#paint7_linear_272_5493)"/>
<path fill-rule="evenodd" clip-rule="evenodd" d="M305.21 177.883L306.085 188.453L312.139 190.859H368.229L366.624 177.446C366.624 177.446 312.65 178.685 305.21 177.883Z" fill="url(#paint8_linear_272_5493)"/>
<path fill-rule="evenodd" clip-rule="evenodd" d="M265.094 161.336L262.468 179.05C262.468 179.05 251.235 181.091 247.005 180.653L242.993 158.711L258.31 159.659L279.754 159.295L265.094 161.336Z" fill="url(#paint9_linear_272_5493)"/>
<path fill-rule="evenodd" clip-rule="evenodd" d="M261.739 144.496L251.673 135.093C251.673 135.093 312.139 138.592 322.642 137.936L329.79 139.321C329.79 139.321 271.658 144.715 261.739 144.496Z" fill="url(#paint10_linear_272_5493)"/>
<path opacity="0.5" fill-rule="evenodd" clip-rule="evenodd" d="M265.094 161.336L325.997 159.076L349.338 156.16L396.967 154.483V190.859L366.551 177.446L305.21 177.883L298.062 177.154C298.135 177.154 266.407 161.846 265.094 161.336Z" fill="url(#paint11_linear_272_5493)"/>
<path opacity="0.4" fill-rule="evenodd" clip-rule="evenodd" d="M336.647 137.717C335.917 137.936 334.823 138.227 333.656 137.863C333.145 137.717 333.437 137.499 334.021 137.353C334.312 137.28 334.531 137.28 334.896 137.28C335.188 137.28 335.625 137.207 335.99 137.207C337.23 137.28 336.938 137.644 336.938 137.79L336.647 137.717Z" fill="#AD8D85"/>
<path opacity="0.4" fill-rule="evenodd" clip-rule="evenodd" d="M355.611 163.231C356.486 163.377 357.507 163.523 358.601 163.596C358.455 163.523 358.674 163.45 358.674 163.45C358.674 163.377 358.601 163.377 358.528 163.304C358.382 163.231 358.382 163.231 358.163 163.158C357.945 163.158 357.653 163.085 357.361 163.085C357.069 163.085 357.069 163.012 356.778 163.012C356.486 163.012 356.267 163.012 356.121 163.085C355.902 163.158 355.392 163.304 355.902 163.304L355.611 163.231Z" fill="#AD8D85"/>
<path opacity="0.4" fill-rule="evenodd" clip-rule="evenodd" d="M337.449 168.261C338.908 168.042 340.366 167.896 341.898 167.751C341.679 167.751 342.044 167.896 342.117 167.896C342.117 167.969 342.19 168.042 342.19 168.042C342.19 168.115 342.19 168.261 342.19 168.334C342.044 168.625 340.658 168.698 339.564 168.771C338.47 168.844 337.084 168.844 336.355 168.625C335.99 168.552 336.209 168.407 336.355 168.334C336.428 168.261 336.501 168.261 336.719 168.188C336.938 168.115 337.011 168.115 337.303 168.042L337.449 168.261Z" fill="#AD8D85"/>
<path opacity="0.4" fill-rule="evenodd" clip-rule="evenodd" d="M341.752 160.898C341.46 161.19 341.096 161.554 340.658 161.846C340.658 161.773 340.075 161.773 339.856 161.773C339.637 161.773 339.345 161.7 339.126 161.7C338.689 161.627 338.324 161.554 337.959 161.482C337.011 161.263 337.741 161.044 338.251 160.825C338.762 160.607 339.71 160.461 340.95 160.461C341.533 160.461 341.825 160.607 342.044 160.68C342.19 160.753 342.336 160.753 342.336 160.825C342.409 160.898 342.482 160.971 342.482 160.971L341.752 160.898Z" fill="#AD8D85"/>
<path opacity="0.4" fill-rule="evenodd" clip-rule="evenodd" d="M351.672 163.158C351.745 163.085 351.964 163.085 352.109 163.012C352.401 163.012 352.766 163.012 353.058 163.085C353.349 163.158 353.495 163.231 353.349 163.304C353.204 163.377 352.62 163.377 352.328 163.377C351.891 163.377 351.526 163.377 351.453 163.231C351.38 163.158 351.599 163.085 351.964 163.012L351.672 163.158Z" fill="#AD8D85"/>
<path opacity="0.4" fill-rule="evenodd" clip-rule="evenodd" d="M345.034 165.272C345.107 165.199 345.326 165.199 345.472 165.126C345.764 165.126 346.129 165.126 346.42 165.199C346.712 165.272 346.858 165.345 346.712 165.418C346.566 165.491 345.983 165.491 345.691 165.491C345.253 165.491 344.889 165.491 344.816 165.345C344.743 165.272 344.962 165.199 345.326 165.126L345.034 165.272Z" fill="#AD8D85"/>
<path opacity="0.4" fill-rule="evenodd" clip-rule="evenodd" d="M315.057 135.53C315.494 135.384 316.078 135.166 317.099 135.166C318.047 135.166 318.704 135.312 319.068 135.457C319.36 135.603 319.36 135.749 319.141 135.895C319.068 135.968 318.995 135.968 318.922 136.04C318.922 136.186 318.631 136.259 318.12 136.332C317.391 136.405 316.443 136.478 315.64 136.405C314.838 136.332 314.4 136.186 314.327 135.968C314.254 135.895 314.619 135.676 315.057 135.53Z" fill="#AD8D85"/>
<path opacity="0.4" fill-rule="evenodd" clip-rule="evenodd" d="M336.063 149.599C336.647 149.308 337.376 149.016 338.178 148.725C338.835 148.506 339.637 148.214 341.169 148.141C342.409 148.069 343.794 148.214 344.597 148.433C345.545 148.652 345.837 148.943 345.91 149.235C346.056 149.308 346.201 149.381 346.347 149.454C346.785 149.745 346.639 150.037 345.545 150.255C345.399 150.255 345.253 150.328 345.107 150.328C345.107 150.328 345.107 150.328 345.034 150.328C344.962 150.328 344.816 150.328 344.67 150.328C344.305 150.401 343.94 150.401 343.576 150.401C343.284 150.401 342.992 150.474 342.627 150.474C342.627 150.474 342.627 150.474 342.555 150.474C342.19 150.474 341.898 150.474 341.533 150.474C340.658 150.474 339.783 150.474 338.981 150.401C338.251 150.401 337.449 150.328 336.792 150.255C335.407 150.11 335.552 149.818 336.063 149.599ZM336.792 150.11C336.938 150.182 337.157 150.182 337.376 150.182C337.303 150.182 337.303 150.182 337.303 150.182C337.084 150.11 336.938 150.037 336.865 149.964C336.792 149.891 336.792 149.818 336.792 149.818C336.501 149.818 336.355 149.964 336.792 150.11Z" fill="#AD8D85"/>
<path opacity="0.4" fill-rule="evenodd" clip-rule="evenodd" d="M319.579 166.366C317.974 166.511 316.37 166.657 314.692 166.73C313.379 166.803 311.629 166.876 310.389 166.73C309.367 166.584 308.857 166.366 309.003 166.074C309.149 165.782 310.17 165.564 311.191 165.345C311.41 165.272 311.629 165.199 311.847 165.126C312.65 164.835 313.817 164.689 315.421 164.689C315.64 164.689 315.786 164.689 316.005 164.689H316.078C316.224 164.689 316.37 164.689 316.442 164.689C316.88 164.689 317.245 164.762 317.609 164.762C317.901 164.762 318.193 164.835 318.485 164.835C318.777 164.908 318.995 164.908 319.287 164.981C319.943 165.126 320.454 165.199 320.892 165.345C321.256 165.491 321.694 165.637 321.84 165.71C322.132 166.074 320.892 166.22 319.579 166.366ZM320.965 165.928C321.038 165.855 320.965 165.855 320.892 165.782C320.746 165.855 320.527 165.928 320.235 166.001C320.089 166.074 319.871 166.074 319.652 166.147C320.235 166.074 320.819 166.001 320.965 165.928Z" fill="#AD8D85"/>
<path opacity="0.4" fill-rule="evenodd" clip-rule="evenodd" d="M372.678 149.745C371.146 149.599 369.688 149.381 368.302 149.162C367.208 149.016 365.749 148.797 365.749 148.506C365.749 148.287 366.551 148.068 367.645 147.923C369.031 147.777 370.636 147.777 372.095 147.85C372.532 147.85 373.043 147.85 373.48 147.85C375.012 147.85 376.544 147.923 377.565 148.141C377.711 148.141 377.784 148.214 377.857 148.214H377.93C378.076 148.214 378.076 148.287 378.076 148.287C378.221 148.36 378.367 148.433 378.44 148.506C378.586 148.579 378.586 148.652 378.586 148.725C378.586 148.797 378.586 148.87 378.513 148.943C378.367 149.089 378.076 149.235 377.784 149.381C377.492 149.526 377.127 149.672 376.617 149.745C375.523 149.964 373.991 149.891 372.678 149.745ZM375.523 149.672C375.742 149.672 375.96 149.599 376.106 149.599C376.106 149.599 376.106 149.599 376.033 149.599C376.033 149.599 375.96 149.599 375.887 149.599H375.815C375.377 149.599 374.866 149.672 374.429 149.599C374.137 149.599 373.845 149.599 373.553 149.599C374.137 149.672 374.866 149.745 375.523 149.672Z" fill="#AD8D85"/>
<path opacity="0.4" fill-rule="evenodd" clip-rule="evenodd" d="M307.69 166.074C307.398 166.074 307.106 166.074 306.815 166.074C306.231 166.074 305.721 166.147 305.137 166.147C304.845 166.147 304.554 166.147 304.335 166.147C304.262 166.147 304.116 166.147 304.043 166.147C303.897 166.147 303.751 166.147 303.678 166.074C303.314 166.001 303.314 165.928 303.532 165.782C303.678 165.71 303.897 165.71 304.189 165.71C304.262 165.637 304.481 165.637 304.699 165.637C304.845 165.637 304.991 165.564 305.21 165.564C305.721 165.491 306.231 165.564 306.742 165.564C307.252 165.637 307.617 165.71 307.982 165.782C308.346 165.855 308.638 165.928 308.346 166.001C308.273 166.001 307.982 166.074 307.69 166.074Z" fill="#AD8D85"/>
<path opacity="0.4" fill-rule="evenodd" clip-rule="evenodd" d="M377.346 167.897C376.69 167.969 375.814 167.969 375.158 167.897C374.939 167.897 374.866 167.824 374.72 167.824C374.502 167.824 374.356 167.751 374.429 167.751C373.772 167.605 373.626 167.386 374.21 167.168C374.939 166.949 376.398 166.876 377.784 166.876C378.44 166.876 379.17 166.949 379.68 167.022C380.118 167.095 380.191 167.24 379.972 167.386C379.753 167.459 379.388 167.605 378.951 167.678C378.513 167.751 378.003 167.824 377.346 167.897Z" fill="#AD8D85"/>
<path opacity="0.4" fill-rule="evenodd" clip-rule="evenodd" d="M358.309 168.844C357.653 168.917 356.777 168.917 356.121 168.844C355.902 168.844 355.829 168.771 355.683 168.771C355.465 168.771 355.319 168.698 355.392 168.698C354.735 168.552 354.589 168.334 355.173 168.115C355.902 167.896 357.361 167.823 358.747 167.823C359.403 167.823 360.133 167.896 360.643 167.969C361.081 168.042 361.154 168.188 360.935 168.334C360.716 168.407 360.351 168.552 359.914 168.625C359.403 168.698 358.893 168.844 358.309 168.844Z" fill="#AD8D85"/>
<path opacity="0.4" fill-rule="evenodd" clip-rule="evenodd" d="M369.979 162.356C369.323 162.429 368.448 162.429 367.791 162.356C367.572 162.356 367.5 162.283 367.354 162.283C367.135 162.283 366.989 162.21 367.062 162.21C366.405 162.065 366.26 161.846 366.843 161.627C367.572 161.409 369.031 161.336 370.417 161.336C371.074 161.336 371.803 161.409 372.313 161.481C372.751 161.554 372.824 161.7 372.605 161.846C372.386 161.919 372.022 162.065 371.584 162.138C371.146 162.21 370.636 162.356 369.979 162.356Z" fill="#AD8D85"/>
<path opacity="0.4" fill-rule="evenodd" clip-rule="evenodd" d="M375.742 168.552H375.669C375.596 168.552 375.596 168.552 375.523 168.552C375.45 168.552 375.377 168.552 375.304 168.552C375.304 168.552 375.304 168.552 375.231 168.552C375.158 168.552 375.158 168.552 375.085 168.552C375.012 168.552 374.939 168.552 374.866 168.552C374.793 168.552 374.72 168.552 374.648 168.552C374.575 168.552 374.429 168.552 374.356 168.552C374.283 168.552 374.21 168.552 374.21 168.48C374.21 168.48 374.283 168.407 374.356 168.407C374.356 168.334 374.575 168.334 374.793 168.334C375.231 168.334 375.669 168.334 376.106 168.334C376.325 168.334 376.471 168.334 376.471 168.407C376.544 168.479 376.471 168.48 376.398 168.552C376.325 168.552 376.252 168.625 376.179 168.625C376.033 168.48 375.888 168.48 375.742 168.552Z" fill="#AD8D85"/>
<path opacity="0.4" fill-rule="evenodd" clip-rule="evenodd" d="M340.366 166.293H340.293C340.22 166.293 340.22 166.293 340.147 166.293C340.074 166.293 340.002 166.293 339.929 166.293C339.929 166.293 339.929 166.293 339.856 166.293C339.783 166.293 339.783 166.293 339.71 166.293C339.637 166.293 339.564 166.293 339.491 166.293C339.418 166.293 339.345 166.293 339.272 166.293C339.199 166.293 339.053 166.293 338.98 166.293C338.907 166.293 338.835 166.293 338.835 166.22C338.835 166.22 338.907 166.147 338.98 166.147C338.98 166.074 339.199 166.074 339.418 166.074C339.856 166.074 340.293 166.074 340.731 166.074C340.95 166.074 341.096 166.074 341.096 166.147C341.169 166.22 341.096 166.22 341.023 166.293C340.95 166.293 340.877 166.366 340.804 166.366C340.658 166.22 340.512 166.22 340.366 166.293Z" fill="#AD8D85"/>
<path opacity="0.4" fill-rule="evenodd" clip-rule="evenodd" d="M228.989 148.141C229.865 148.287 230.886 148.433 231.98 148.506C231.834 148.433 232.053 148.36 232.053 148.36C232.053 148.287 231.98 148.287 231.907 148.214C231.761 148.141 231.761 148.141 231.542 148.068C231.323 148.068 231.032 147.995 230.74 147.995C230.448 147.995 230.448 147.923 230.156 147.923C229.865 147.923 229.646 147.923 229.5 147.995C229.281 148.068 228.771 148.214 229.281 148.214L228.989 148.141Z" fill="#AD8D85"/>
<path opacity="0.4" fill-rule="evenodd" clip-rule="evenodd" d="M221.914 149.016C223.373 148.797 224.832 148.652 226.364 148.506C226.145 148.506 226.509 148.652 226.582 148.652C226.582 148.725 226.655 148.797 226.655 148.797C226.655 148.87 226.655 149.016 226.655 149.089C226.509 149.381 225.124 149.453 224.029 149.526C222.935 149.599 221.55 149.599 220.82 149.381C220.455 149.308 220.674 149.162 220.82 149.089C220.893 149.016 220.966 149.016 221.185 148.943C221.404 148.87 221.477 148.87 221.768 148.797L221.914 149.016Z" fill="#AD8D85"/>
<path opacity="0.4" fill-rule="evenodd" clip-rule="evenodd" d="M227.676 137.498C228.916 137.353 231.323 137.353 232.49 137.571C233.439 137.717 233.074 137.936 232.344 138.082C232.344 138.082 232.272 138.082 232.272 138.155C232.199 138.227 231.98 138.227 231.761 138.227C231.615 138.227 231.469 138.3 231.323 138.3C230.594 138.373 229.865 138.373 229.062 138.3C228.333 138.227 227.312 138.082 226.947 137.936C226.509 137.717 226.947 137.571 227.676 137.498Z" fill="#AD8D85"/>
<path opacity="0.4" fill-rule="evenodd" clip-rule="evenodd" d="M220.455 138.227C220.601 138.155 220.747 138.155 220.893 138.082C221.185 138.009 221.55 137.936 221.914 137.79C222.133 137.79 222.352 137.717 222.571 137.717C222.644 137.717 222.717 137.717 222.862 137.717C223.008 137.717 223.154 137.717 223.3 137.717C223.811 137.717 224.248 137.79 224.394 137.863C224.467 137.936 224.467 138.009 224.394 138.009C224.54 138.082 224.467 138.082 224.248 138.082C224.248 138.155 224.248 138.155 224.175 138.227C223.957 138.3 223.592 138.373 223.081 138.446C222.571 138.519 221.987 138.519 221.477 138.519C221.039 138.519 220.456 138.519 220.237 138.373C220.164 138.3 220.31 138.3 220.455 138.227Z" fill="#AD8D85"/>
<path opacity="0.4" fill-rule="evenodd" clip-rule="evenodd" d="M213.016 138.738C213.235 138.592 213.818 138.446 214.548 138.446C214.766 138.446 214.985 138.446 215.204 138.446C215.423 138.446 215.642 138.446 215.787 138.446C216.809 138.446 217.757 138.592 218.121 138.811C218.559 139.102 217.757 139.321 216.663 139.467C216.079 139.539 215.423 139.612 214.693 139.612C214.037 139.612 213.526 139.539 213.235 139.394C212.943 139.321 212.87 139.175 212.87 139.029C212.724 139.029 212.724 138.883 213.016 138.738Z" fill="#AD8D85"/>
<path opacity="0.4" fill-rule="evenodd" clip-rule="evenodd" d="M202.731 146.756C202.075 146.829 201.2 146.829 200.543 146.756C200.324 146.756 200.252 146.683 200.106 146.683C199.887 146.683 199.741 146.611 199.814 146.611C199.157 146.465 199.012 146.246 199.595 146.027C200.324 145.809 201.783 145.736 203.169 145.736C203.825 145.736 204.555 145.809 205.065 145.882C205.503 145.955 205.576 146.1 205.357 146.246C205.138 146.319 204.774 146.465 204.336 146.538C203.898 146.611 203.388 146.683 202.731 146.756Z" fill="#AD8D85"/>
<path opacity="0.4" fill-rule="evenodd" clip-rule="evenodd" d="M226.145 147.048C225.488 147.121 224.613 147.121 223.957 147.048C223.738 147.048 223.665 146.975 223.519 146.975C223.3 146.975 223.154 146.902 223.227 146.902C222.571 146.756 222.425 146.538 223.008 146.319C223.738 146.1 225.197 146.027 226.582 146.027C227.239 146.027 227.968 146.1 228.479 146.173C228.916 146.246 228.989 146.392 228.771 146.538C228.552 146.611 228.187 146.756 227.749 146.829C227.239 146.902 226.728 147.048 226.145 147.048Z" fill="#AD8D85"/>
<path opacity="0.4" fill-rule="evenodd" clip-rule="evenodd" d="M195.365 141.216C194.708 141.289 193.833 141.289 193.177 141.216C192.958 141.216 192.885 141.143 192.739 141.143C192.52 141.143 192.374 141.07 192.447 141.07C191.791 140.925 191.645 140.706 192.228 140.487C192.958 140.268 194.416 140.196 195.802 140.196C196.459 140.196 197.188 140.268 197.699 140.341C198.136 140.414 198.209 140.56 197.99 140.706C197.772 140.779 197.407 140.925 196.969 140.997C196.532 141.07 196.021 141.143 195.365 141.216Z" fill="#AD8D85"/>
<path opacity="0.4" fill-rule="evenodd" clip-rule="evenodd" d="M201.127 147.34H201.054C200.981 147.34 200.981 147.34 200.908 147.34C200.835 147.34 200.762 147.34 200.689 147.34C200.689 147.34 200.689 147.34 200.616 147.34C200.543 147.34 200.543 147.34 200.47 147.34C200.397 147.34 200.324 147.34 200.252 147.34C200.179 147.34 200.106 147.34 200.033 147.34C199.96 147.34 199.814 147.34 199.741 147.34C199.668 147.34 199.595 147.34 199.595 147.267C199.595 147.267 199.668 147.194 199.741 147.194C199.741 147.121 199.96 147.121 200.179 147.121C200.616 147.121 201.054 147.121 201.491 147.121C201.71 147.121 201.856 147.121 201.856 147.194C201.929 147.267 201.856 147.267 201.783 147.34C201.71 147.34 201.637 147.412 201.564 147.412C201.419 147.34 201.273 147.34 201.127 147.34Z" fill="#AD8D85"/>
<path opacity="0.4" fill-rule="evenodd" clip-rule="evenodd" d="M224.978 139.029C225.415 138.956 225.999 138.956 226.436 139.029C226.582 139.029 226.655 139.102 226.655 139.102H226.728C226.874 139.102 226.874 139.175 226.728 139.248C226.582 139.248 226.436 139.321 226.291 139.321C226.218 139.321 225.999 139.321 225.853 139.321C225.78 139.321 225.707 139.321 225.634 139.321C225.561 139.321 225.561 139.321 225.561 139.321C225.488 139.321 225.415 139.321 225.342 139.321C225.197 139.321 225.051 139.248 224.832 139.248C224.759 139.248 224.686 139.175 224.686 139.175C224.832 139.029 224.905 139.029 224.978 139.029Z" fill="#AD8D85"/>
<path opacity="0.4" fill-rule="evenodd" clip-rule="evenodd" d="M255.028 161.481C254.664 160.169 254.299 158.784 253.424 157.691C252.403 156.379 250.725 155.723 249.12 155.139C233.584 149.672 216.444 151.859 200.106 154.192C198.866 154.338 197.48 154.629 196.75 155.65C196.24 156.379 196.167 157.253 196.167 158.128C196.021 161.919 195.802 165.782 195.656 169.573C195.583 170.448 195.583 171.395 196.021 172.197C196.459 172.999 197.553 173.437 198.282 172.926C198.063 168.552 197.99 164.106 198.063 159.732C198.136 158.347 198.209 156.889 199.012 155.796C200.252 154.192 202.586 153.973 204.628 153.973C216.371 153.9 228.187 154.192 239.93 154.775C244.452 154.994 249.631 155.65 252.111 159.44C253.424 161.409 253.715 163.814 253.934 166.147C254.591 172.562 254.737 179.268 256.05 185.537C265.386 186.266 256.268 166.001 255.028 161.481Z" fill="url(#paint12_linear_272_5493)"/>
<path fill-rule="evenodd" clip-rule="evenodd" d="M188.508 151.276C236.429 140.997 285.808 154.994 334.75 157.035C333.875 157.472 333.073 157.982 332.197 158.42C358.382 164.324 384.786 170.229 411.627 171.833C431.248 172.999 451.452 171.906 469.905 178.612C470.562 181.236 471.145 183.934 471.802 186.558C457.433 176.936 439.125 176.207 421.839 175.04C400.614 173.655 379.461 171.177 358.528 167.605C349.63 166.074 340.731 164.397 331.833 162.721C329.426 162.283 327.019 161.773 324.612 161.336C295.801 155.795 266.917 150.328 237.669 147.996C219.434 146.538 201.054 146.319 182.892 148.214C183.84 154.265 183.986 160.461 183.257 166.511C187.123 167.605 186.32 163.96 186.831 160.825C187.05 159.878 187.852 151.495 188.508 151.276Z" fill="#C49FA4"/>
<path fill-rule="evenodd" clip-rule="evenodd" d="M358.018 155.358C362.686 153.9 367.718 154.775 372.605 155.067C385.078 155.723 397.331 151.859 409.804 151.64C415.566 151.568 421.401 152.224 427.163 152.005C432.561 151.786 437.958 150.693 443.356 150.037C455.172 148.652 467.061 149.381 478.877 150.183C479.679 150.255 476.324 160.097 475.886 160.971C474.063 164.397 473.26 164.689 469.686 164.47C460.642 163.814 451.598 162.065 442.626 161.044C424.683 159.076 406.667 157.545 388.579 156.597C378.294 155.941 368.156 155.577 358.018 155.358Z" fill="#C49FA4"/>
<path fill-rule="evenodd" clip-rule="evenodd" d="M390.038 134.874C335.188 128.386 280.046 124.669 224.905 123.721C226.582 126.637 228.26 129.553 229.938 132.468C205.211 133.343 180.412 133.926 155.686 134.218C155.613 136.478 155.613 138.665 155.54 140.925C154.738 140.779 153.936 140.706 153.133 140.56C153.571 137.936 153.571 135.239 153.133 132.614C178.005 132.541 202.877 132.104 227.749 131.229C225.853 128.386 224.03 125.616 222.133 122.773C282.307 121.971 342.555 126.272 402.072 135.457C402.729 137.061 403.312 138.592 403.969 140.196C403.969 140.196 399.665 140.779 399.301 140.633C397.842 140.123 398.134 139.685 397.113 138.956C394.487 136.988 393.83 135.311 390.038 134.874Z" fill="#C49FA4"/>
<path opacity="0.4" fill-rule="evenodd" clip-rule="evenodd" d="M363.926 134.583C358.455 134.291 352.912 133.999 347.441 133.781C311.191 131.958 274.941 130.136 238.69 131.667C239.93 135.749 244.015 138.738 248.245 138.811C246.422 138.446 246.349 135.457 247.807 134.291C249.266 133.125 251.381 133.125 253.278 133.27C279.755 134.801 306.304 135.093 332.854 135.385C333.291 136.842 333.656 138.373 334.094 139.831C334.24 140.269 378.44 139.54 382.379 139.175C380.556 134.51 368.083 134.801 363.926 134.583Z" fill="url(#paint13_linear_272_5493)"/>
<path fill-rule="evenodd" clip-rule="evenodd" d="M228.26 158.274C232.563 157.982 236.867 157.91 241.17 157.982C242.702 157.982 244.452 158.128 245.473 159.222C245.984 159.805 246.276 160.534 246.495 161.263C248.391 166.803 249.777 172.562 250.725 178.394C252.476 178.394 254.153 178.394 255.904 178.394C254.737 172.562 253.059 166.803 251.017 161.19C250.579 159.951 249.996 158.639 249.047 157.691C248.099 156.816 246.713 156.379 245.473 156.16C241.097 155.285 236.575 155.868 232.126 155.577C229.938 155.431 227.822 155.139 225.634 155.358C223.519 155.65 221.258 156.67 220.237 158.566C219.58 159.732 219.434 161.19 219.289 162.502C218.924 166.22 217.757 171.177 218.559 174.895C219.143 177.519 222.425 181.747 226.291 179.341C228.843 177.737 225.707 158.493 228.26 158.274Z" fill="#C49FA4"/>
<path fill-rule="evenodd" clip-rule="evenodd" d="M281.093 168.519C301.984 170.665 321.701 173.94 342.591 176.086C341.785 180.207 342.738 183.256 342.958 187.435C343.837 188.169 345.596 187.774 346.329 186.87C346.989 185.967 346.916 184.894 346.769 183.878C346.403 180.546 349.335 179.078 348.968 175.803C326.319 170.665 299.345 166.487 275.816 167.051C274.936 172.867 273.983 178.683 273.104 184.499C272.737 186.701 273.25 189.806 276.109 189.976C281.753 190.427 278.821 184.442 278.675 182.41C278.455 178.005 280.287 172.924 281.093 168.519Z" fill="#C49FA4"/>
<path fill-rule="evenodd" clip-rule="evenodd" d="M306.012 178.321L298.135 176.498L289.528 173.655L296.166 177.883L301.053 179.268L306.012 178.321Z" fill="#5A3B66"/>
<path fill-rule="evenodd" clip-rule="evenodd" d="M259.405 159.586L252.111 158.42L243.066 158.711L251.163 159.805L259.405 159.586Z" fill="#774573"/>
<path fill-rule="evenodd" clip-rule="evenodd" d="M216.59 157.035L204.701 153.973L192.01 152.661L191.28 152.588L189.821 150.984H184.278L180.631 150.037L186.393 152.297C186.393 152.297 208.494 156.67 216.59 157.035Z" fill="#774573"/>
<path fill-rule="evenodd" clip-rule="evenodd" d="M179.464 137.207L171.368 136.624L176.109 137.936L179.464 137.207Z" fill="#774573"/>
<path fill-rule="evenodd" clip-rule="evenodd" d="M160.281 138.738L158.458 153.609L137.889 147.485L133.659 142.383L160.281 138.738Z" fill="url(#paint14_linear_272_5493)"/>
<path fill-rule="evenodd" clip-rule="evenodd" d="M-187.198 133.781V190.859H312.139C312.139 190.859 303.314 187.214 293.613 183.934C292.008 183.351 290.331 182.84 288.726 182.33C281.943 180.143 275.378 178.466 271.585 178.466C261.374 178.466 254.664 181.018 247.005 180.726C239.347 180.435 231.688 177.227 231.688 177.227C230.375 173.218 225.488 167.824 225.488 167.824C225.488 167.824 217.611 165.126 208.348 163.085C205.722 162.502 202.95 161.992 200.252 161.627C190.842 160.242 171.951 159.003 163.928 158.493C161.594 158.347 160.208 158.274 160.208 158.274V154.921C155.394 151.13 142.047 147.267 139.931 146.611C135.92 145.444 133.586 142.455 133.586 142.455C133.586 142.455 144.089 142.674 150.945 141.799C157.728 140.925 160.208 138.811 160.208 138.811C153.425 134.583 130.158 130.865 130.158 130.865L128.334 128.386C121.332 127.73 59.4073 128.678 59.4073 128.678L65.3153 106.153L63.5648 104.258L66.6282 102.8L66.9929 93.9062L67.3576 85.2315L67.4305 83.4819L67.5035 82.024L68.087 68.1736C67.6494 65.4035 61.8872 56.2915 61.8872 56.2915L45.6219 49.8765C45.6219 49.8765 44.8196 47.7625 43.7985 45.6485C43.4338 44.9196 43.0691 44.1906 42.6315 43.4616C42.0479 42.4411 41.3915 41.5663 40.808 41.2018C40.2974 40.9102 39.1304 40.1813 37.5258 39.3065C36.9423 39.0149 36.2858 38.6504 35.6294 38.2859C29.9402 35.2243 21.3334 30.9234 17.6865 31.0692C12.5808 31.215 -1.86102 40.6186 -2.88217 41.2018H-2.95508C-3.5386 42.0037 -4.04916 42.8784 -4.55975 43.8261C-5.79971 46.1588 -6.74786 48.7831 -7.40433 51.2616C-7.84195 52.7924 -8.20667 54.3232 -8.42548 55.7083C-9.30075 60.0092 -9.44662 63.2896 -9.44662 63.2896L-5.79971 65.3307L-13.9688 67.0802C-15.4276 69.1213 -16.7404 71.6727 -17.9804 74.3698C-18.2722 75.0988 -18.6369 75.7549 -18.9286 76.4839C-19.1475 77.067 -19.4392 77.5773 -19.658 78.1605C-20.6792 80.5661 -21.5544 82.9717 -22.2109 84.9399C-23.3779 88.2202 -24.0343 90.5529 -24.0343 90.5529L-19.731 96.6034H-27.3895L-37.3091 102.654L-33.3705 87.1997L-32.2764 82.8988L-31.7658 81.0035L-31.0364 78.1605L-28.4836 68.1736C-30.5258 60.9568 -36.1421 57.0933 -36.1421 57.0933L-36.8715 58.041C-43.8006 47.9812 -52.0427 47.3252 -52.0427 47.3252L-58.0966 48.9289C-58.9718 51.5532 -59.92 58.697 -59.92 58.697L-58.0966 60.3008L-60.9412 63.2896L-62.2541 69.996L-62.6188 71.7456L-63.4211 75.8278L-64.2963 80.4203L-67.4327 96.7492L-67.7974 98.8632L-69.402 107.173L-72.1008 121.388L-74.5077 133.927H-187.198V133.781Z" fill="url(#paint15_linear_272_5493)"/>
<path fill-rule="evenodd" clip-rule="evenodd" d="M160.281 154.775C160.281 154.775 155.613 154.702 149.778 156.67C149.778 156.67 137.962 158.566 131.689 158.493C131.689 158.493 104.629 155.431 95.6578 156.67L86.6134 159.295L33.806 160.68L21.5523 162.575L160.281 158.128V154.775Z" fill="url(#paint16_linear_272_5493)"/>
<path fill-rule="evenodd" clip-rule="evenodd" d="M225.488 167.751C225.488 167.751 208.129 172.343 197.261 173.364C186.393 174.384 160.208 175.623 160.208 175.623C160.208 175.623 99.3776 176.28 69.181 177.519C38.9845 178.831 -74.4349 177.519 -74.4349 177.519L-186.541 186.922L-187.271 190.932C-187.271 190.932 -48.6877 184.736 -24.3991 182.986C-0.183533 181.164 21.5521 180.362 21.5521 180.362C21.5521 180.362 80.7053 183.351 120.676 182.986C160.646 182.622 231.688 177.227 231.688 177.227C231.688 177.227 230.156 171.833 225.488 167.751Z" fill="url(#paint17_linear_272_5493)"/>
<path fill-rule="evenodd" clip-rule="evenodd" d="M60.7006 57.5092L56.2672 69.2653L51.1799 67.1708C51.1799 67.1708 -2.1505 65.9631 -6.14773 65.0848C-6.14773 65.0848 -5.05191 66.0051 -4.3308 66.5712C0.459656 70.3319 49.2903 66.0898 52.27 68.387C55.3224 70.6842 56.3399 72.103 56.3399 72.103L57.6481 88.5887C57.6481 88.5887 52.3427 109.804 40.7144 130.006L59.6831 128.96L63.346 113.973L65.2647 106.479L66.4856 101.599L68.4043 67.6438C68.3316 67.7789 65.9333 61.4954 60.7006 57.5092Z" fill="url(#paint18_linear_272_5493)"/>
<path fill-rule="evenodd" clip-rule="evenodd" d="M45.8745 88.5887L41.4411 100.345L37.4439 98.6992C37.4439 98.6992 -15.8864 97.4914 -19.8837 96.6131C-19.8837 96.6131 -19.878 97.0846 -19.1569 97.6507C-14.3664 101.411 34.4641 97.1693 37.4439 99.4665C40.4963 101.764 41.5138 103.183 41.5138 103.183L42.822 119.668C42.822 119.668 37.5166 140.883 25.8883 161.085L44.857 160.039L48.5199 145.052L50.4386 137.559L51.6595 132.679L53.5782 98.7233C53.5055 98.8584 51.1072 92.575 45.8745 88.5887Z" fill="url(#paint19_linear_272_5493)"/>
<path fill-rule="evenodd" clip-rule="evenodd" d="M135.628 182.549L129.866 175.915L57.8027 177.519L59.1156 181.747C59.1156 181.747 114.111 183.642 135.628 182.549Z" fill="url(#paint20_linear_272_5493)"/>
<path fill-rule="evenodd" clip-rule="evenodd" d="M225.488 167.751C225.488 167.751 203.315 172.853 197.261 173.364C191.207 173.801 50.9465 177.956 50.9465 177.956L22.8652 162.575C22.8652 162.575 138.546 158.93 145.256 158.711C151.966 158.42 200.762 157.837 225.488 167.751Z" fill="url(#paint21_linear_272_5493)"/>
<path opacity="0.2" fill-rule="evenodd" clip-rule="evenodd" d="M45.9137 117.087C44.8926 116.65 43.8714 116.14 42.7044 116.067C41.6104 115.994 40.5163 116.213 39.4222 116.431C25.491 119.42 11.1221 120.076 -2.80914 123.211C-8.64421 124.523 -14.3334 126.199 -20.0226 127.876C-24.9825 129.334 -30.0881 130.865 -34.1727 133.999C-27.3165 134.728 -20.6061 132.104 -14.0417 129.844C2.44241 124.231 19.583 121.097 36.7964 118.837C38.547 118.618 40.2975 118.399 42.048 118.472C45.0385 118.691 47.956 119.857 50.7277 120.951C52.9888 121.899 55.3957 122.919 56.6357 124.96C56.1251 124.158 57.8027 123.065 57.3651 122.263C57.0004 121.534 54.4475 120.951 53.7182 120.586C51.0924 119.42 48.4666 118.254 45.9137 117.087Z" fill="url(#paint22_linear_272_5493)"/>
<path opacity="0.4" fill-rule="evenodd" clip-rule="evenodd" d="M15.0607 140.123C14.3313 140.341 13.2372 140.633 12.0702 140.269C11.5596 140.123 11.8514 139.904 12.4349 139.758C12.7267 139.685 12.9455 139.685 13.3102 139.685C13.6019 139.685 14.0396 139.612 14.4043 139.612C15.6442 139.685 15.3524 140.05 15.3524 140.196L15.0607 140.123Z" fill="#AD8D85"/>
<path opacity="0.4" fill-rule="evenodd" clip-rule="evenodd" d="M117.831 148.433C117.977 148.36 117.977 148.287 118.342 148.214C118.633 148.141 118.779 148.068 119.144 147.996C119.727 147.923 120.53 147.777 121.259 147.777C122.572 147.704 123.228 147.923 123.593 148.141C123.666 148.141 123.666 148.141 123.739 148.141C124.396 148.141 124.833 148.287 124.833 148.36C124.833 148.506 124.323 148.652 123.958 148.725C123.739 148.797 123.52 148.87 123.301 148.87C123.156 148.87 123.083 148.943 122.864 148.943C122.718 149.089 122.499 149.308 122.134 149.381C121.697 149.526 121.04 149.672 120.238 149.599C119.363 149.526 118.925 149.235 118.415 149.089C118.05 148.943 117.977 148.87 117.685 148.725C117.539 148.652 117.32 148.652 117.32 148.579C117.466 148.433 117.758 148.433 117.831 148.433Z" fill="#AD8D85"/>
<path opacity="0.4" fill-rule="evenodd" clip-rule="evenodd" d="M116.883 147.631C116.956 147.704 117.466 148.141 116.226 148.141C115.789 148.141 115.278 147.996 115.132 147.923C114.695 147.704 115.716 147.485 116.883 147.631C116.81 147.558 116.81 147.631 116.883 147.631Z" fill="#AD8D85"/>
<path opacity="0.4" fill-rule="evenodd" clip-rule="evenodd" d="M113.382 151.276C112.142 151.422 110.829 151.568 109.516 151.64C109.589 151.64 108.933 151.568 108.787 151.568C108.568 151.568 108.422 151.495 108.276 151.495C107.911 151.422 108.203 151.203 108.422 151.13C109.005 150.912 110.1 150.839 111.194 150.839C111.85 150.839 112.361 150.839 112.871 150.912C113.09 150.912 113.382 150.984 113.528 150.984C113.746 151.057 113.674 151.057 113.674 151.13C113.674 151.203 113.601 151.349 113.09 151.422C112.944 151.422 112.506 151.495 112.288 151.422C112.142 151.422 111.923 151.276 112.434 151.276H113.382Z" fill="#AD8D85"/>
<path opacity="0.4" fill-rule="evenodd" clip-rule="evenodd" d="M107.109 155.431C105.869 155.431 104.702 155.504 103.535 155.577C103.9 155.577 103.9 155.65 104.119 155.723C104.337 155.796 104.41 155.796 104.702 155.796C104.994 155.796 105.067 155.868 105.432 155.796C105.723 155.796 105.942 155.723 106.234 155.723C106.526 155.723 106.599 155.723 106.817 155.65C107.036 155.577 107.109 155.577 107.109 155.504C107.036 155.431 106.817 155.285 106.307 155.285L107.109 155.431Z" fill="#AD8D85"/>
<path opacity="0.4" fill-rule="evenodd" clip-rule="evenodd" d="M82.0911 171.687C82.9664 171.833 83.9875 171.979 85.0816 172.051C84.9357 171.979 85.1545 171.906 85.1545 171.906C85.1545 171.833 85.0816 171.833 85.0087 171.76C84.8628 171.687 84.8628 171.687 84.644 171.614C84.4251 171.614 84.1334 171.541 83.8416 171.541C83.5499 171.541 83.5499 171.468 83.2581 171.468C82.9664 171.468 82.7476 171.468 82.6017 171.541C82.3829 171.614 81.8723 171.76 82.3829 171.76L82.0911 171.687Z" fill="#AD8D85"/>
<path opacity="0.4" fill-rule="evenodd" clip-rule="evenodd" d="M34.0248 165.564C34.9001 165.709 35.9211 165.855 37.0152 165.928C36.8693 165.855 37.0881 165.782 37.0881 165.782C37.0881 165.709 37.0152 165.709 36.9423 165.637C36.7964 165.564 36.7964 165.564 36.5776 165.491C36.3588 165.491 36.067 165.418 35.7753 165.418C35.4835 165.418 35.4835 165.345 35.1918 165.345C34.9 165.345 34.6813 165.345 34.5354 165.418C34.3166 165.491 33.806 165.637 34.3166 165.637L34.0248 165.564Z" fill="#AD8D85"/>
<path opacity="0.4" fill-rule="evenodd" clip-rule="evenodd" d="M124.395 143.986C124.104 144.278 123.739 144.642 123.301 144.934C123.301 144.861 122.718 144.861 122.499 144.861C122.28 144.861 121.989 144.788 121.77 144.788C121.332 144.715 120.967 144.642 120.603 144.569C119.654 144.351 120.384 144.132 120.894 143.913C121.405 143.695 122.353 143.549 123.593 143.549C124.177 143.549 124.468 143.695 124.687 143.768C124.833 143.84 124.979 143.84 124.979 143.913C125.052 143.986 125.125 144.059 125.125 144.059L124.395 143.986Z" fill="#AD8D85"/>
<path opacity="0.4" fill-rule="evenodd" clip-rule="evenodd" d="M15.936 170.666C17.3948 170.448 18.8535 170.302 20.3852 170.156C20.1664 170.156 20.5311 170.302 20.604 170.302C20.604 170.375 20.677 170.448 20.677 170.448C20.677 170.521 20.677 170.666 20.677 170.739C20.5311 171.031 19.1453 171.104 18.0512 171.177C16.9571 171.25 15.5713 171.25 14.8419 171.031C14.4772 170.958 14.696 170.812 14.8419 170.739C14.9149 170.666 14.9878 170.666 15.2066 170.593C15.4254 170.521 15.4984 170.521 15.7901 170.448L15.936 170.666Z" fill="#AD8D85"/>
<path opacity="0.4" fill-rule="evenodd" clip-rule="evenodd" d="M64.6589 155.723C66.3365 155.868 67.9411 155.941 69.4728 156.087C69.254 156.087 69.0352 156.16 68.8164 156.233C68.5975 156.306 68.3787 156.306 68.1599 156.379C67.7223 156.452 67.2846 156.525 66.7741 156.525C65.5341 156.67 64.44 156.452 63.4918 156.379C62.5436 156.233 61.7414 156.014 62.106 155.796C62.2519 155.723 62.9084 155.65 63.4189 155.65C63.7107 155.65 63.9295 155.577 64.2212 155.65C64.5859 155.65 64.8048 155.65 65.1695 155.65L64.6589 155.723Z" fill="#AD8D85"/>
<path opacity="0.4" fill-rule="evenodd" clip-rule="evenodd" d="M75.0162 172.562C76.475 172.343 77.9337 172.197 79.4654 172.052C79.2466 172.052 79.6113 172.197 79.6842 172.197C79.6842 172.27 79.7572 172.343 79.7572 172.343C79.7572 172.416 79.7572 172.562 79.7572 172.635C79.6113 172.926 78.2255 172.999 77.1314 173.072C76.0373 173.145 74.6515 173.145 73.9221 172.926C73.5574 172.853 73.7762 172.708 73.9221 172.635C73.9951 172.562 74.068 172.562 74.2868 172.489C74.5056 172.416 74.5786 172.416 74.8703 172.343L75.0162 172.562Z" fill="#AD8D85"/>
<path opacity="0.4" fill-rule="evenodd" clip-rule="evenodd" d="M20.2394 163.304C19.9476 163.596 19.5829 163.96 19.1453 164.252C19.1453 164.179 18.5618 164.179 18.343 164.179C18.1242 164.179 17.8324 164.106 17.6136 164.106C17.176 164.033 16.8113 163.96 16.4466 163.887C15.4984 163.668 16.2278 163.45 16.7383 163.231C17.2489 163.012 18.1971 162.867 19.4371 162.867C20.0206 162.867 20.3123 163.012 20.5311 163.085C20.677 163.158 20.8229 163.158 20.8229 163.231C20.8958 163.304 20.9688 163.377 20.9688 163.377L20.2394 163.304Z" fill="#AD8D85"/>
<path opacity="0.4" fill-rule="evenodd" clip-rule="evenodd" d="M80.7783 161.044C82.0182 160.898 84.4252 160.898 85.5923 161.117C86.5405 161.263 86.1758 161.481 85.4464 161.627C85.4464 161.627 85.3734 161.627 85.3734 161.7C85.3005 161.773 85.0817 161.773 84.8629 161.773C84.717 161.773 84.5711 161.846 84.4252 161.846C83.6958 161.919 82.9665 161.919 82.1641 161.846C81.4347 161.773 80.4136 161.627 80.0489 161.481C79.6112 161.263 79.9759 161.117 80.7783 161.044Z" fill="#AD8D85"/>
<path opacity="0.4" fill-rule="evenodd" clip-rule="evenodd" d="M140.223 143.622C140.15 143.768 139.786 143.986 138.691 143.986C138.181 143.986 138.327 143.841 138.473 143.768C138.619 143.695 138.546 143.695 138.837 143.695C138.983 143.695 139.202 143.695 139.275 143.622C139.713 143.622 140.077 143.695 140.223 143.768V143.622Z" fill="#AD8D85"/>
<path opacity="0.4" fill-rule="evenodd" clip-rule="evenodd" d="M89.8957 156.816C90.0415 156.889 90.0416 156.889 90.0416 156.962C89.7498 156.962 89.6769 157.035 89.2393 157.035C88.8746 157.035 88.364 156.962 88.2181 156.889C88.0722 156.816 88.5099 156.743 88.7287 156.743C89.0934 156.67 89.3851 156.67 89.8957 156.743C90.3333 156.816 90.4062 156.889 90.4062 156.962L89.8957 156.816Z" fill="#AD8D85"/>
<path opacity="0.4" fill-rule="evenodd" clip-rule="evenodd" d="M30.086 165.564C30.159 165.491 30.3778 165.491 30.5237 165.418C30.8154 165.418 31.1801 165.418 31.4718 165.491C31.7636 165.564 31.9094 165.637 31.7636 165.71C31.6177 165.782 31.0342 165.782 30.7425 165.782C30.3048 165.782 29.9402 165.782 29.8672 165.637C29.7943 165.564 30.0131 165.491 30.3778 165.418L30.086 165.564Z" fill="#AD8D85"/>
<path opacity="0.4" fill-rule="evenodd" clip-rule="evenodd" d="M23.4486 167.605C23.5216 167.532 23.7404 167.532 23.8863 167.459C24.178 167.459 24.5427 167.459 24.8345 167.532C25.1262 167.605 25.2721 167.678 25.1262 167.751C24.9804 167.824 24.3968 167.824 24.1051 167.824C23.6674 167.824 23.3028 167.824 23.2298 167.678C23.1569 167.605 23.3757 167.532 23.7404 167.459L23.4486 167.605Z" fill="#AD8D85"/>
<path opacity="0.4" fill-rule="evenodd" clip-rule="evenodd" d="M70.3481 153.317C70.6399 153.317 70.8587 153.317 71.1504 153.317C71.2963 153.39 71.5151 153.39 71.5151 153.463C71.4422 153.536 71.0775 153.609 70.7128 153.609C70.2752 153.609 70.0564 153.536 69.9105 153.463C69.6917 153.39 69.5458 153.317 69.9835 153.244C70.4211 153.171 70.7858 153.171 71.2963 153.171L70.3481 153.317Z" fill="#AD8D85"/>
<path opacity="0.4" fill-rule="evenodd" clip-rule="evenodd" d="M104.119 152.296C104.264 152.224 104.556 152.151 104.994 152.078C105.14 152.078 105.213 152.005 105.359 152.005C105.359 152.005 105.358 152.005 105.431 152.005C105.723 151.932 106.088 151.859 106.598 151.786C107.109 151.713 107.62 151.713 108.13 151.713C108.714 151.713 109.224 151.713 109.808 151.713C110.829 151.786 111.777 151.859 112.288 152.078C112.434 152.151 112.579 152.224 112.725 152.296C112.944 152.442 112.944 152.588 112.725 152.734C112.652 152.807 112.579 152.88 112.506 152.952C112.288 153.098 111.923 153.171 111.412 153.317C110.902 153.39 110.245 153.463 109.589 153.536C108.86 153.609 108.13 153.609 107.401 153.536C106.671 153.463 106.088 153.463 105.577 153.317C105.431 153.317 105.213 153.244 105.067 153.244C104.629 153.171 104.41 153.098 104.192 153.025C103.9 152.952 103.827 152.807 103.827 152.734C103.681 152.515 103.827 152.442 104.119 152.296Z" fill="#AD8D85"/>
<path opacity="0.4" fill-rule="evenodd" clip-rule="evenodd" d="M58.6051 154.483C58.0945 154.41 57.7298 154.338 57.4381 154.265C57.3651 154.265 57.2922 154.192 57.2193 154.192C57.2193 154.192 57.2193 154.192 57.1463 154.192C56.7816 154.119 56.4899 154.046 56.2711 153.973C56.0522 153.9 55.9793 153.754 56.0523 153.681C56.0523 153.609 56.1252 153.463 56.4169 153.39C56.9275 153.244 57.7298 153.025 58.7509 153.025C59.1156 153.025 59.4803 153.025 59.7721 152.953C60.5015 152.953 61.2309 152.953 61.9602 153.025C62.3249 153.025 62.7625 153.098 63.1272 153.098C63.7837 153.171 64.2943 153.244 64.7319 153.39C65.1695 153.536 65.3883 153.609 65.4613 153.754C65.5342 153.9 65.3883 154.046 65.0966 154.192C64.8048 154.338 64.2943 154.41 63.7108 154.483C63.492 154.483 63.3461 154.556 63.1272 154.556C62.6896 154.629 62.179 154.629 61.6685 154.702C61.1579 154.702 60.5744 154.775 60.0639 154.702C59.5533 154.556 59.0427 154.556 58.6051 154.483Z" fill="#AD8D85"/>
<path opacity="0.4" fill-rule="evenodd" clip-rule="evenodd" d="M101.493 153.244C101.493 153.244 101.566 153.171 101.712 153.171C101.785 153.171 101.93 153.171 102.003 153.171C102.66 153.171 103.17 153.244 103.389 153.39C103.462 153.39 103.535 153.39 103.535 153.39C103.681 153.39 103.681 153.463 103.535 153.536C103.462 153.536 103.535 153.536 103.535 153.536C103.535 153.609 103.316 153.609 103.098 153.609C102.076 153.682 101.201 153.463 101.493 153.244Z" fill="#AD8D85"/>
<path opacity="0.4" fill-rule="evenodd" clip-rule="evenodd" d="M96.4601 147.485C96.4601 147.485 96.5331 147.412 96.6789 147.412C96.7519 147.412 96.8978 147.412 96.9707 147.412C97.6272 147.412 98.1377 147.485 98.3566 147.631C98.4295 147.631 98.5024 147.631 98.5024 147.631C98.6483 147.631 98.6483 147.704 98.5024 147.777C98.4295 147.777 98.5024 147.777 98.5024 147.777C98.5024 147.85 98.2836 147.85 98.0648 147.85C96.9707 147.923 96.1684 147.704 96.4601 147.485Z" fill="#AD8D85"/>
<path opacity="0.4" fill-rule="evenodd" clip-rule="evenodd" d="M33.5871 134.801C33.5871 134.801 33.6601 134.728 33.806 134.728C33.8789 134.728 34.0248 134.728 34.0977 134.728C34.7541 134.728 35.2647 134.801 35.4835 134.947C35.5564 134.947 35.6294 134.947 35.6294 134.947C35.7752 134.947 35.7752 135.02 35.6294 135.093C35.5564 135.093 35.6294 135.093 35.6294 135.093C35.6294 135.166 35.4105 135.166 35.1917 135.166C34.0977 135.166 33.2954 134.947 33.5871 134.801Z" fill="#AD8D85"/>
<path opacity="0.4" fill-rule="evenodd" clip-rule="evenodd" d="M101.493 154.046C101.493 154.046 101.566 153.973 101.712 153.973C101.785 153.973 101.857 153.973 101.93 153.973C102.076 153.973 102.222 153.973 102.441 153.973C102.587 153.973 102.66 153.973 102.806 153.973C102.879 153.973 102.879 153.973 102.952 153.973C103.025 153.973 103.17 153.973 103.243 153.973C103.316 153.973 103.389 153.973 103.462 154.046C103.462 154.046 103.462 154.119 103.389 154.119C103.17 154.192 102.587 154.265 102.076 154.265C101.93 154.265 101.785 154.265 101.712 154.265C101.639 154.265 101.566 154.192 101.566 154.192C101.42 154.119 101.42 154.119 101.493 154.046Z" fill="#AD8D85"/>
<path opacity="0.4" fill-rule="evenodd" clip-rule="evenodd" d="M100.18 150.984C100.618 150.839 101.201 150.62 102.222 150.62C103.17 150.62 103.827 150.766 104.192 150.911C104.483 151.057 104.483 151.203 104.265 151.349C104.192 151.422 104.119 151.422 104.046 151.495C104.046 151.64 103.754 151.713 103.243 151.786C102.514 151.859 101.566 151.932 100.764 151.859C99.9612 151.786 99.5236 151.64 99.4506 151.422C99.3777 151.349 99.7424 151.13 100.18 150.984Z" fill="#AD8D85"/>
<path opacity="0.4" fill-rule="evenodd" clip-rule="evenodd" d="M123.156 147.194C123.301 147.121 123.593 147.048 123.885 146.975C123.812 146.902 123.812 146.902 123.958 146.829C124.177 146.756 124.614 146.683 125.052 146.756C125.562 146.756 125.927 146.829 126.146 146.902C126.511 147.048 126.438 147.267 125.854 147.412C125.271 147.558 124.25 147.558 123.593 147.485C123.156 147.412 123.01 147.34 123.156 147.194ZM69.6186 146.1C69.7645 146.027 70.0563 145.954 70.348 145.882C70.2751 145.809 70.2751 145.809 70.4209 145.736C70.6398 145.663 71.0774 145.59 71.515 145.663C72.0256 145.663 72.3903 145.736 72.6091 145.809C72.9738 145.954 72.9009 146.173 72.3174 146.319C71.7339 146.465 70.7127 146.465 70.0563 146.392C69.6186 146.319 69.4728 146.246 69.6186 146.1ZM125.562 147.121C125.562 147.121 125.562 147.048 125.562 147.121C125.562 147.121 125.562 147.048 125.562 147.121C125.562 147.048 125.562 147.048 125.562 147.121C125.49 147.048 125.49 147.048 125.417 147.048H125.344H125.271H125.198H125.125H125.052H124.979C125.052 147.048 124.979 147.048 124.906 147.048C124.906 147.048 124.906 147.048 124.833 147.048H124.76C124.833 147.048 124.76 147.048 124.687 147.048C124.687 147.048 124.687 147.048 124.76 147.048C124.833 147.048 124.833 147.048 124.833 147.048C124.906 147.048 124.906 147.048 124.979 147.048C125.052 147.048 125.052 147.048 125.125 147.048C125.271 147.048 125.344 147.121 125.417 147.121C125.49 147.121 125.49 147.194 125.49 147.194C125.562 147.194 125.562 147.194 125.562 147.121C125.562 147.194 125.562 147.194 125.562 147.121Z" fill="#AD8D85"/>
<path opacity="0.4" fill-rule="evenodd" clip-rule="evenodd" d="M104.483 154.338C104.556 154.338 104.702 154.265 104.848 154.265C104.994 154.265 105.067 154.265 105.213 154.265C105.286 154.265 105.431 154.265 105.504 154.265C105.723 154.265 105.942 154.265 106.088 154.338C106.234 154.338 106.307 154.41 106.307 154.41H106.38C106.38 154.483 106.307 154.483 106.234 154.483C106.161 154.483 106.088 154.556 105.942 154.556C105.869 154.556 105.796 154.556 105.65 154.556C105.431 154.556 105.213 154.556 105.067 154.556C104.848 154.556 104.702 154.483 104.556 154.483C104.41 154.483 104.41 154.41 104.41 154.41C104.337 154.41 104.41 154.338 104.483 154.338Z" fill="#AD8D85"/>
<path opacity="0.4" fill-rule="evenodd" clip-rule="evenodd" d="M105.067 156.816C105.577 156.816 105.577 156.962 105.067 156.962C104.483 156.962 104.483 156.816 105.067 156.816Z" fill="#AD8D85"/>
<path opacity="0.4" fill-rule="evenodd" clip-rule="evenodd" d="M14.4773 151.932C15.0608 151.64 15.7901 151.349 16.5924 151.057C17.2489 150.839 18.0512 150.547 19.5829 150.474C20.8229 150.401 22.2087 150.547 23.011 150.766C23.9592 150.984 24.251 151.276 24.3239 151.567C24.4698 151.64 24.6156 151.713 24.7615 151.786C25.1991 152.078 25.0533 152.369 23.9592 152.588C23.8133 152.588 23.6674 152.661 23.5216 152.661C23.5216 152.661 23.5216 152.661 23.4486 152.661C23.3757 152.661 23.2298 152.661 23.0839 152.661C22.7193 152.734 22.3546 152.734 21.9899 152.734C21.6981 152.734 21.4064 152.807 21.0417 152.807C21.0417 152.807 21.0417 152.807 20.9687 152.807C20.604 152.807 20.3123 152.807 19.9476 152.807C19.0724 152.807 18.1971 152.807 17.3948 152.734C16.6654 152.734 15.8631 152.661 15.2066 152.588C13.8938 152.515 14.0396 152.224 14.4773 151.932ZM15.2066 152.442C15.3525 152.515 15.5713 152.515 15.7901 152.515C15.7172 152.515 15.7172 152.515 15.7172 152.515C15.4984 152.442 15.3525 152.369 15.2796 152.296C15.2066 152.224 15.2066 152.151 15.2066 152.151C14.9878 152.224 14.842 152.369 15.2066 152.442Z" fill="#AD8D85"/>
<path opacity="0.4" fill-rule="evenodd" clip-rule="evenodd" d="M-2.00688 168.698C-3.61152 168.844 -5.21617 168.99 -6.89374 169.063C-8.20663 169.136 -9.95712 169.209 -11.1971 169.063C-12.2182 168.917 -12.7288 168.698 -12.5829 168.407C-12.437 168.115 -11.4159 167.896 -10.3948 167.678C-10.1759 167.605 -9.95712 167.532 -9.7383 167.459C-8.93598 167.167 -7.769 167.022 -6.16436 167.022C-5.94555 167.022 -5.79963 167.022 -5.58082 167.022H-5.5079C-5.36202 167.022 -5.21615 167.022 -5.14321 167.022C-4.70558 167.022 -4.34091 167.095 -3.97622 167.095C-3.68447 167.095 -3.3927 167.167 -3.10095 167.167C-2.8092 167.24 -2.59036 167.24 -2.29861 167.313C-1.64216 167.459 -1.13163 167.532 -0.694003 167.678C-0.329313 167.823 0.108352 167.969 0.254228 168.042C0.54598 168.407 -0.621056 168.625 -2.00688 168.698ZM-0.548118 168.261C-0.47518 168.188 -0.5481 168.188 -0.621038 168.115C-0.766914 168.188 -0.985747 168.261 -1.2775 168.334C-1.42338 168.407 -1.64218 168.407 -1.86099 168.48C-1.35043 168.48 -0.693994 168.407 -0.548118 168.261Z" fill="#AD8D85"/>
<path opacity="0.4" fill-rule="evenodd" clip-rule="evenodd" d="M51.1653 152.078C49.6336 151.932 48.1748 151.713 46.789 151.495C45.6949 151.349 44.2361 151.13 44.2361 150.839C44.2361 150.62 45.0384 150.401 46.1325 150.255C47.5183 150.11 49.123 150.11 50.5818 150.183C51.0194 150.183 51.5299 150.183 51.9676 150.183C53.4993 150.183 55.031 150.255 56.0521 150.474C56.198 150.474 56.2709 150.547 56.3439 150.547H56.4168C56.5627 150.547 56.5627 150.62 56.5627 150.62C56.7085 150.693 56.8544 150.766 56.9274 150.839C57.0732 150.912 57.0732 150.984 57.0732 151.057C57.0732 151.13 57.0733 151.203 57.0003 151.276C56.8544 151.422 56.5627 151.568 56.2709 151.713C55.9792 151.859 55.6145 152.005 55.1039 152.078C54.0098 152.297 52.4781 152.224 51.1653 152.078ZM53.9369 152.078C54.1557 152.078 54.3745 152.005 54.5204 152.005C54.5204 152.005 54.5204 152.005 54.4475 152.005C54.4475 152.005 54.3745 152.005 54.3016 152.005H54.2287C53.791 152.005 53.2805 152.078 52.8428 152.005C52.5511 152.005 52.2593 152.005 51.9676 152.005C52.624 152.078 53.3534 152.078 53.9369 152.078Z" fill="#AD8D85"/>
<path opacity="0.4" fill-rule="evenodd" clip-rule="evenodd" d="M73.4844 161.773C73.6303 161.7 73.7762 161.7 73.9221 161.627C74.2138 161.554 74.5785 161.482 74.9432 161.336C75.162 161.336 75.3808 161.263 75.5997 161.263C75.6726 161.263 75.7455 161.263 75.8914 161.263C76.0373 161.263 76.1832 161.263 76.329 161.263C76.8396 161.263 77.2773 161.336 77.4231 161.409C77.4961 161.482 77.4961 161.554 77.4231 161.554C77.569 161.627 77.4961 161.627 77.2772 161.627C77.2772 161.7 77.2773 161.7 77.2043 161.773C76.9855 161.846 76.6208 161.919 76.1102 161.992C75.5997 162.065 75.0161 162.065 74.5056 162.065C74.0679 162.065 73.4844 162.065 73.2656 161.919C73.2656 161.919 73.3385 161.846 73.4844 161.773Z" fill="#AD8D85"/>
<path opacity="0.4" fill-rule="evenodd" clip-rule="evenodd" d="M30.5966 134.437C30.7425 134.364 30.8883 134.364 31.0342 134.291C31.3259 134.218 31.6906 134.145 32.0553 133.999C32.2741 133.999 32.493 133.927 32.7118 133.927C32.7847 133.927 32.8576 133.927 33.0035 133.927C33.1494 133.927 33.2953 133.927 33.4411 133.927C33.9517 133.927 34.3893 133.999 34.5352 134.072C34.6081 134.145 34.6081 134.218 34.5352 134.218C34.6811 134.291 34.6081 134.291 34.3893 134.291C34.3893 134.364 34.3893 134.364 34.3163 134.437C34.0975 134.51 33.7329 134.583 33.2223 134.655C32.7117 134.728 32.1283 134.728 31.6177 134.728C31.1801 134.728 30.5966 134.728 30.3778 134.583C30.3049 134.51 30.4507 134.51 30.5966 134.437Z" fill="#AD8D85"/>
<path opacity="0.4" fill-rule="evenodd" clip-rule="evenodd" d="M66.0447 162.356C66.2635 162.21 66.8471 162.065 67.5765 162.065C67.7953 162.065 68.0141 162.065 68.2329 162.065C68.4517 162.065 68.6706 162.065 68.8164 162.065C69.8376 162.065 70.7857 162.21 71.1504 162.429C71.5881 162.721 70.7857 162.939 69.6917 163.085C69.1081 163.158 68.4517 163.231 67.7224 163.231C67.0659 163.231 66.5553 163.158 66.2636 163.012C65.9718 162.939 65.8989 162.794 65.8989 162.648C65.826 162.575 65.8259 162.429 66.0447 162.356Z" fill="#AD8D85"/>
<path opacity="0.4" fill-rule="evenodd" clip-rule="evenodd" d="M55.8333 170.302C55.1769 170.375 54.3017 170.375 53.6452 170.302C53.4264 170.302 53.3535 170.229 53.2076 170.229C52.9888 170.229 52.8429 170.156 52.9158 170.156C52.2594 170.01 52.1135 169.792 52.697 169.573C53.4264 169.354 54.8852 169.281 56.271 169.281C56.9274 169.281 57.6568 169.354 58.1674 169.427C58.605 169.5 58.6779 169.646 58.4591 169.792C58.2403 169.865 57.8756 170.01 57.438 170.083C57.0004 170.156 56.4168 170.229 55.8333 170.302Z" fill="#AD8D85"/>
<path opacity="0.4" fill-rule="evenodd" clip-rule="evenodd" d="M36.7235 171.25C36.067 171.323 35.1918 171.323 34.5353 171.25C34.3165 171.25 34.2435 171.177 34.0976 171.177C33.8788 171.177 33.733 171.104 33.8059 171.104C33.1495 170.958 33.0035 170.739 33.5871 170.521C34.3165 170.302 35.7753 170.229 37.1611 170.229C37.8175 170.229 38.5469 170.302 39.0575 170.375C39.4951 170.448 39.5681 170.594 39.3493 170.739C39.1305 170.812 38.7657 170.958 38.3281 171.031C37.8905 171.104 37.3799 171.177 36.7235 171.25Z" fill="#AD8D85"/>
<path opacity="0.4" fill-rule="evenodd" clip-rule="evenodd" d="M79.1736 170.667C78.5172 170.739 77.6419 170.739 76.9855 170.667C76.7667 170.667 76.6937 170.594 76.5479 170.594C76.329 170.594 76.1831 170.521 76.2561 170.521C75.5996 170.375 75.4538 170.156 76.0373 169.938C76.7667 169.719 78.2255 169.646 79.6113 169.646C80.2677 169.646 80.9971 169.719 81.5077 169.792C81.9453 169.865 82.0183 170.011 81.7995 170.156C81.5806 170.229 81.2159 170.375 80.7783 170.448C80.3407 170.521 79.8301 170.594 79.1736 170.667Z" fill="#AD8D85"/>
<path opacity="0.4" fill-rule="evenodd" clip-rule="evenodd" d="M48.4666 164.762C47.8101 164.835 46.9349 164.835 46.2784 164.762C46.0596 164.762 45.9867 164.689 45.8408 164.689C45.622 164.689 45.4761 164.616 45.5491 164.616C44.8926 164.47 44.7468 164.251 45.3303 164.033C46.0596 163.814 47.5184 163.741 48.9042 163.741C49.5606 163.741 50.29 163.814 50.8006 163.887C51.2382 163.96 51.3111 164.106 51.0923 164.251C50.8735 164.324 50.5088 164.47 50.0712 164.543C49.5606 164.616 49.0501 164.689 48.4666 164.762Z" fill="#AD8D85"/>
<path opacity="0.4" fill-rule="evenodd" clip-rule="evenodd" d="M138.983 142.383C139.129 142.237 139.421 142.091 139.931 141.945C140.004 141.945 140.004 141.945 140.077 141.945H140.15C140.223 141.945 140.296 141.945 140.442 141.872C140.807 141.799 141.244 141.727 141.755 141.727C141.755 141.727 141.901 141.654 142.047 141.654C143.505 141.581 144.964 141.799 145.475 142.018C145.985 142.31 145.329 142.601 144.089 142.747C143.432 142.82 142.703 142.893 141.901 142.893C141.244 142.893 140.588 142.893 140.004 142.82C139.931 142.82 139.858 142.82 139.786 142.82C139.567 142.82 139.421 142.82 139.348 142.747C139.348 142.747 139.348 142.747 139.348 142.674C138.91 142.674 138.91 142.528 138.983 142.383ZM140.734 142.018C140.588 142.091 140.515 142.091 140.442 142.164C140.442 142.164 140.515 142.164 140.515 142.237C140.588 142.237 140.734 142.164 140.807 142.164C140.88 142.164 140.953 142.164 141.098 142.164C141.171 142.091 141.317 142.018 141.463 141.945C141.244 141.945 140.953 142.018 140.734 142.018ZM107.474 137.717C107.328 137.79 107.255 137.79 107.182 137.863C107.182 137.863 107.255 137.863 107.255 137.936C107.328 137.936 107.474 137.863 107.547 137.863C107.62 137.863 107.693 137.863 107.838 137.863C107.911 137.79 108.057 137.717 108.203 137.644C107.984 137.644 107.693 137.644 107.474 137.717Z" fill="#AD8D85"/>
<path opacity="0.4" fill-rule="evenodd" clip-rule="evenodd" d="M92.8862 153.9C92.8862 153.9 92.9591 153.9 92.8862 153.9C92.9591 153.9 93.032 153.9 93.105 153.9C93.1779 153.9 93.2508 153.9 93.3967 153.9H93.4697C93.5426 153.9 93.6155 153.9 93.6885 153.9C93.7614 153.9 93.8343 153.9 93.9073 153.9C93.9802 153.9 94.0531 153.9 94.1261 153.9C94.199 153.9 94.272 153.9 94.4178 153.9C94.4908 153.9 94.6367 153.9 94.7096 153.9C94.7825 153.9 94.8554 153.9 94.8554 153.973C95.0013 153.973 95.0013 154.046 94.8554 154.046C94.5637 154.119 94.2719 154.192 93.9073 154.192C93.7614 154.192 93.5426 154.192 93.3967 154.192C93.1779 154.192 92.9591 154.119 92.8862 154.046C92.8132 154.046 92.8132 153.973 92.8132 153.973C92.7403 153.973 92.8132 153.9 92.8862 153.9Z" fill="#AD8D85"/>
<path opacity="0.4" fill-rule="evenodd" clip-rule="evenodd" d="M202.731 159.586C202.877 159.513 202.877 159.44 203.242 159.367C203.534 159.295 203.68 159.222 204.044 159.149C204.628 159.076 205.43 158.93 206.16 158.93C207.472 158.857 208.129 159.076 208.494 159.295C208.566 159.295 208.567 159.295 208.639 159.295C209.296 159.295 209.734 159.44 209.734 159.513C209.734 159.659 209.223 159.805 208.858 159.878C208.639 159.951 208.421 160.024 208.202 160.024C208.056 160.024 207.983 160.096 207.764 160.096C207.618 160.242 207.399 160.461 207.035 160.534C206.597 160.68 205.941 160.825 205.138 160.752C204.263 160.68 203.825 160.388 203.315 160.242C202.95 160.096 202.877 160.024 202.586 159.878C202.44 159.805 202.221 159.805 202.221 159.732C202.44 159.659 202.658 159.659 202.731 159.586Z" fill="#AD8D85"/>
<path opacity="0.4" fill-rule="evenodd" clip-rule="evenodd" d="M201.783 158.784C201.856 158.857 202.367 159.295 201.127 159.295C200.689 159.295 200.179 159.149 200.033 159.076C199.595 158.93 200.616 158.711 201.783 158.784C201.71 158.784 201.783 158.784 201.783 158.784Z" fill="#AD8D85"/>
<path opacity="0.4" fill-rule="evenodd" clip-rule="evenodd" d="M198.282 162.502C197.042 162.648 195.729 162.794 194.416 162.866C194.489 162.866 193.833 162.794 193.687 162.794C193.468 162.794 193.322 162.721 193.176 162.721C192.812 162.648 193.104 162.429 193.322 162.356C193.906 162.137 195 162.065 196.094 162.065C196.75 162.065 197.261 162.065 197.772 162.137C197.99 162.137 198.282 162.21 198.428 162.21C198.647 162.283 198.574 162.283 198.574 162.356C198.574 162.429 198.501 162.575 197.99 162.648C197.845 162.648 197.407 162.721 197.188 162.648C197.042 162.648 196.823 162.502 197.334 162.502H198.282Z" fill="#AD8D85"/>
<path opacity="0.4" fill-rule="evenodd" clip-rule="evenodd" d="M192.01 166.584C190.77 166.584 189.603 166.657 188.436 166.73C188.8 166.73 188.8 166.803 189.019 166.876C189.238 166.949 189.311 166.949 189.603 166.949C189.894 166.949 189.967 167.022 190.332 166.949C190.624 166.949 190.842 166.876 191.134 166.876C191.426 166.876 191.499 166.876 191.718 166.803C191.937 166.73 192.01 166.73 192.01 166.657C191.937 166.584 191.718 166.438 191.207 166.438L192.01 166.584Z" fill="#AD8D85"/>
<path opacity="0.4" fill-rule="evenodd" clip-rule="evenodd" d="M218.34 166.584C217.1 166.584 215.933 166.657 214.766 166.73C215.131 166.73 215.131 166.803 215.35 166.876C215.569 166.949 215.642 166.949 215.933 166.949C216.225 166.949 216.298 167.022 216.663 166.949C216.955 166.949 217.173 166.876 217.465 166.876C217.757 166.876 217.83 166.876 218.049 166.803C218.267 166.73 218.34 166.73 218.34 166.657C218.267 166.584 218.049 166.438 217.538 166.438L218.34 166.584Z" fill="#AD8D85"/>
<path opacity="0.4" fill-rule="evenodd" clip-rule="evenodd" d="M189.019 163.523C189.165 163.45 189.457 163.377 189.894 163.304C190.04 163.304 190.113 163.231 190.259 163.231C190.259 163.231 190.259 163.231 190.332 163.231C190.624 163.158 190.988 163.085 191.499 163.012C192.009 162.939 192.52 162.939 193.031 162.939C193.614 162.939 194.125 162.939 194.708 162.939C195.729 163.012 196.677 163.085 197.188 163.304C197.334 163.377 197.48 163.45 197.626 163.523C197.844 163.668 197.844 163.814 197.626 163.96C197.553 164.033 197.48 164.106 197.407 164.179C197.188 164.324 196.823 164.397 196.313 164.543C195.802 164.616 195.146 164.689 194.489 164.762C193.76 164.835 193.031 164.835 192.301 164.762C191.572 164.689 190.988 164.689 190.478 164.543C190.332 164.543 190.113 164.47 189.967 164.47C189.53 164.397 189.311 164.325 189.092 164.252C188.8 164.179 188.727 164.033 188.727 163.96C188.654 163.668 188.727 163.596 189.019 163.523Z" fill="#AD8D85"/>
<path opacity="0.4" fill-rule="evenodd" clip-rule="evenodd" d="M186.466 164.47C186.466 164.47 186.539 164.397 186.685 164.397C186.758 164.397 186.904 164.397 186.977 164.397C187.633 164.397 188.144 164.47 188.363 164.616C188.436 164.616 188.509 164.616 188.509 164.616C188.654 164.616 188.654 164.689 188.509 164.762C188.436 164.762 188.509 164.762 188.509 164.762C188.509 164.835 188.29 164.835 188.071 164.835C186.977 164.835 186.102 164.616 186.466 164.47Z" fill="#AD8D85"/>
<path opacity="0.4" fill-rule="evenodd" clip-rule="evenodd" d="M186.393 165.199C186.393 165.199 186.466 165.126 186.612 165.126C186.685 165.126 186.758 165.126 186.831 165.126C186.977 165.126 187.123 165.126 187.341 165.126C187.487 165.126 187.56 165.126 187.706 165.126C187.779 165.126 187.779 165.126 187.852 165.126C187.925 165.126 188.071 165.126 188.144 165.126C188.217 165.126 188.29 165.126 188.363 165.199C188.363 165.199 188.363 165.272 188.29 165.272C188.071 165.345 187.487 165.418 186.977 165.418C186.831 165.418 186.685 165.418 186.612 165.418C186.539 165.418 186.466 165.345 186.466 165.345C186.393 165.272 186.393 165.272 186.393 165.199Z" fill="#AD8D85"/>
<path opacity="0.4" fill-rule="evenodd" clip-rule="evenodd" d="M185.08 162.137C185.518 161.992 186.101 161.773 187.123 161.773C188.071 161.773 188.727 161.919 189.092 162.065C189.384 162.21 189.384 162.356 189.165 162.502C189.092 162.575 189.019 162.575 188.946 162.648C188.946 162.793 188.654 162.866 188.144 162.939C187.414 163.012 186.466 163.085 185.664 163.012C184.861 162.939 184.424 162.793 184.351 162.575C184.278 162.502 184.643 162.283 185.08 162.137Z" fill="#AD8D85"/>
<path opacity="0.4" fill-rule="evenodd" clip-rule="evenodd" d="M189.384 165.491C189.457 165.491 189.603 165.418 189.748 165.418C189.894 165.418 189.967 165.418 190.113 165.418C190.186 165.418 190.332 165.418 190.405 165.418C190.624 165.418 190.843 165.418 190.988 165.491C191.134 165.491 191.207 165.564 191.207 165.564H191.28C191.28 165.637 191.207 165.637 191.134 165.637C191.061 165.637 190.988 165.71 190.843 165.71C190.77 165.71 190.697 165.71 190.551 165.71C190.332 165.71 190.113 165.71 189.967 165.71C189.748 165.71 189.603 165.637 189.457 165.637C189.311 165.637 189.311 165.564 189.311 165.564C189.311 165.564 189.311 165.491 189.384 165.491Z" fill="#AD8D85"/>
<path opacity="0.4" fill-rule="evenodd" clip-rule="evenodd" d="M179.537 170.01C179.61 170.01 179.61 170.01 179.537 170.01C179.61 170.01 179.683 170.01 179.756 170.01C179.829 170.01 179.902 170.01 180.048 170.01H180.12C180.193 170.01 180.266 170.01 180.339 170.01C180.412 170.01 180.485 170.01 180.558 170.01C180.631 170.01 180.704 170.01 180.777 170.01C180.85 170.01 180.923 170.01 181.069 170.01C181.142 170.01 181.287 170.01 181.36 170.01C181.433 170.01 181.506 170.01 181.506 170.083C181.652 170.083 181.652 170.156 181.506 170.156C181.215 170.229 180.923 170.302 180.558 170.302C180.412 170.302 180.193 170.302 180.048 170.302C179.829 170.302 179.61 170.229 179.537 170.156C179.464 170.156 179.464 170.083 179.464 170.083C179.464 170.083 179.464 170.083 179.537 170.01Z" fill="#AD8D85"/>
<path opacity="0.4" fill-rule="evenodd" clip-rule="evenodd" d="M173.921 173.728C172.681 173.728 171.514 173.801 170.347 173.874C170.711 173.874 170.711 173.947 170.93 174.02C171.149 174.093 171.222 174.093 171.514 174.093C171.806 174.093 171.878 174.166 172.243 174.093C172.535 174.093 172.754 174.02 173.045 174.02C173.337 174.02 173.41 174.02 173.629 173.947C173.848 173.874 173.921 173.874 173.921 173.801C173.848 173.728 173.629 173.582 173.118 173.582L173.921 173.728Z" fill="#AD8D85"/>
<path opacity="0.4" fill-rule="evenodd" clip-rule="evenodd" d="M168.305 171.614C168.305 171.614 168.377 171.541 168.523 171.541C168.596 171.541 168.742 171.541 168.815 171.541C169.472 171.541 169.982 171.614 170.201 171.76C170.274 171.76 170.347 171.76 170.347 171.76C170.493 171.76 170.493 171.833 170.347 171.906C170.274 171.906 170.347 171.906 170.347 171.906C170.347 171.979 170.128 171.979 169.909 171.979C168.888 172.052 168.013 171.833 168.305 171.614Z" fill="#AD8D85"/>
<path opacity="0.4" fill-rule="evenodd" clip-rule="evenodd" d="M168.304 172.416C168.304 172.416 168.377 172.343 168.523 172.343C168.596 172.343 168.669 172.343 168.742 172.343C168.888 172.343 169.034 172.343 169.253 172.343C169.399 172.343 169.471 172.343 169.617 172.343C169.69 172.343 169.69 172.343 169.763 172.343C169.836 172.343 169.982 172.343 170.055 172.343C170.128 172.343 170.201 172.343 170.274 172.416C170.274 172.416 170.274 172.489 170.201 172.489C169.982 172.562 169.399 172.635 168.888 172.635C168.742 172.635 168.596 172.635 168.523 172.635C168.45 172.635 168.377 172.562 168.377 172.562C168.232 172.489 168.232 172.416 168.304 172.416Z" fill="#AD8D85"/>
<path opacity="0.4" fill-rule="evenodd" clip-rule="evenodd" d="M171.295 172.635C171.368 172.635 171.514 172.562 171.66 172.562C171.806 172.562 171.879 172.562 172.024 172.562C172.097 172.562 172.243 172.562 172.316 172.562C172.535 172.562 172.754 172.562 172.9 172.635C173.046 172.635 173.118 172.708 173.118 172.708H173.191C173.191 172.78 173.118 172.78 173.046 172.78C172.973 172.78 172.9 172.853 172.754 172.853C172.681 172.853 172.608 172.853 172.462 172.853C172.243 172.853 172.024 172.853 171.879 172.853C171.66 172.853 171.514 172.78 171.368 172.78C171.222 172.78 171.222 172.708 171.222 172.708C171.149 172.708 171.222 172.708 171.295 172.635Z" fill="#AD8D85"/>
<path opacity="0.4" fill-rule="evenodd" clip-rule="evenodd" d="M159.698 172.197C159.771 172.197 159.844 172.197 159.917 172.197C159.99 172.197 160.063 172.197 160.208 172.197H160.281C160.354 172.197 160.427 172.197 160.5 172.197C160.573 172.197 160.646 172.197 160.719 172.197C160.792 172.197 160.865 172.197 160.938 172.197C161.011 172.197 161.084 172.197 161.23 172.197C161.302 172.197 161.448 172.197 161.521 172.197C161.594 172.197 161.667 172.197 161.667 172.27C161.813 172.27 161.813 172.343 161.667 172.343C161.375 172.416 161.084 172.489 160.719 172.489C160.573 172.489 160.354 172.489 160.208 172.489C159.99 172.489 159.771 172.416 159.698 172.343C159.625 172.343 159.625 172.27 159.625 172.27C159.552 172.27 159.625 172.27 159.698 172.197Z" fill="#AD8D85"/>
<path opacity="0.4" fill-rule="evenodd" clip-rule="evenodd" d="M54.2287 170.885H54.1557C54.0828 170.885 54.0828 170.885 54.0098 170.885C53.9369 170.885 53.864 170.885 53.791 170.885C53.791 170.885 53.791 170.885 53.7181 170.885C53.6452 170.885 53.6451 170.885 53.5722 170.885C53.4993 170.885 53.4263 170.885 53.3534 170.885C53.2805 170.885 53.2075 170.885 53.1346 170.885C53.0617 170.885 52.9158 170.885 52.8428 170.885C52.7699 170.885 52.6969 170.885 52.6969 170.812C52.6969 170.812 52.7699 170.739 52.8428 170.739C52.8428 170.667 53.0616 170.667 53.2804 170.667C53.7181 170.667 54.1557 170.667 54.5934 170.667C54.8122 170.667 54.9581 170.667 54.9581 170.739C55.031 170.812 54.958 170.812 54.8851 170.885C54.8122 170.885 54.7392 170.958 54.6663 170.958C54.4475 170.885 54.3746 170.885 54.2287 170.885Z" fill="#AD8D85"/>
<path opacity="0.4" fill-rule="evenodd" clip-rule="evenodd" d="M18.7807 168.625H18.7078C18.6348 168.625 18.6348 168.625 18.5619 168.625C18.4889 168.625 18.416 168.625 18.3431 168.625C18.3431 168.625 18.343 168.625 18.2701 168.625C18.1971 168.625 18.1972 168.625 18.1242 168.625C18.0513 168.625 17.9783 168.625 17.9054 168.625C17.8325 168.625 17.7595 168.625 17.6866 168.625C17.6136 168.625 17.4678 168.625 17.3949 168.625C17.3219 168.625 17.249 168.625 17.249 168.552C17.249 168.552 17.3219 168.48 17.3949 168.48C17.3949 168.407 17.6137 168.407 17.8325 168.407C18.2701 168.407 18.7077 168.407 19.1454 168.407C19.3642 168.407 19.5101 168.407 19.5101 168.48C19.583 168.552 19.5101 168.552 19.4371 168.625C19.3642 168.625 19.2913 168.698 19.2183 168.698C19.0725 168.625 18.9266 168.625 18.7807 168.625Z" fill="#AD8D85"/>
<path opacity="0.4" fill-rule="evenodd" clip-rule="evenodd" d="M78.0795 162.575C78.5171 162.502 79.1006 162.502 79.5383 162.575C79.6842 162.575 79.7571 162.648 79.7571 162.648H79.83C79.9759 162.648 79.9759 162.721 79.83 162.794C79.6842 162.794 79.5383 162.867 79.3924 162.867C79.3195 162.867 79.1007 162.867 78.9548 162.867C78.8818 162.867 78.8089 162.867 78.736 162.867C78.663 162.867 78.663 162.867 78.663 162.867C78.5901 162.867 78.5171 162.867 78.4442 162.867C78.2983 162.867 78.1525 162.794 77.9337 162.794C77.8607 162.794 77.7878 162.721 77.7878 162.721C77.8607 162.648 77.9336 162.575 78.0795 162.575Z" fill="#AD8D85"/>
<path opacity="0.4" fill-rule="evenodd" clip-rule="evenodd" d="M217.1 170.521C218.34 170.375 220.747 170.375 221.914 170.594C222.862 170.739 222.498 170.958 221.768 171.104C221.768 171.104 221.695 171.104 221.695 171.177C221.623 171.25 221.404 171.25 221.185 171.25C221.039 171.25 220.893 171.323 220.747 171.323C220.018 171.395 219.289 171.395 218.486 171.323C217.757 171.25 216.736 171.104 216.371 170.958C216.006 170.812 216.371 170.666 217.1 170.521Z" fill="#AD8D85"/>
<path opacity="0.4" fill-rule="evenodd" clip-rule="evenodd" d="M209.879 171.25C210.025 171.177 210.171 171.177 210.317 171.104C210.609 171.031 210.974 170.958 211.338 170.812C211.557 170.812 211.776 170.739 211.995 170.739C212.068 170.739 212.141 170.739 212.286 170.739C212.432 170.739 212.578 170.739 212.724 170.739C213.235 170.739 213.672 170.812 213.818 170.885C213.891 170.958 213.891 171.031 213.818 171.031C213.964 171.104 213.891 171.104 213.672 171.104C213.672 171.177 213.672 171.177 213.599 171.25C213.381 171.322 213.016 171.395 212.505 171.468C211.995 171.541 211.411 171.541 210.901 171.541C210.463 171.541 209.879 171.541 209.661 171.395C209.661 171.395 209.734 171.322 209.879 171.25Z" fill="#AD8D85"/>
<path opacity="0.4" fill-rule="evenodd" clip-rule="evenodd" d="M202.44 171.833C202.659 171.687 203.242 171.541 203.971 171.541C204.19 171.541 204.409 171.541 204.628 171.541C204.847 171.541 205.065 171.541 205.211 171.541C206.232 171.541 207.181 171.687 207.545 171.906C207.983 172.197 207.181 172.416 206.087 172.562C205.503 172.635 204.847 172.708 204.117 172.708C203.461 172.708 202.95 172.635 202.659 172.489C202.367 172.416 202.294 172.27 202.294 172.124C202.148 172.052 202.221 171.979 202.44 171.833Z" fill="#AD8D85"/>
<path opacity="0.4" fill-rule="evenodd" clip-rule="evenodd" d="M214.475 172.051C214.912 171.979 215.496 171.979 215.933 172.051C216.079 172.051 216.152 172.124 216.152 172.124H216.225C216.371 172.124 216.371 172.197 216.225 172.27C216.079 172.27 215.933 172.343 215.787 172.343C215.715 172.343 215.496 172.343 215.35 172.343C215.277 172.343 215.204 172.343 215.131 172.343C215.058 172.343 215.058 172.343 215.058 172.343C214.985 172.343 214.912 172.343 214.839 172.343C214.693 172.343 214.548 172.27 214.329 172.27C214.256 172.27 214.183 172.197 214.183 172.197C214.256 172.124 214.329 172.124 214.475 172.051Z" fill="#AD8D85"/>
<path fill-rule="evenodd" clip-rule="evenodd" d="M33.8059 160.68L32.9306 163.523C32.9306 163.523 -19.2933 167.605 -47.5205 167.313C-75.6748 167.022 -92.5965 165.345 -92.5965 165.345C-92.5965 165.345 -79.7593 161.044 -64.2234 160.315C-48.6146 159.513 33.8059 160.68 33.8059 160.68Z" fill="url(#paint23_linear_272_5493)"/>
<path fill-rule="evenodd" clip-rule="evenodd" d="M-41.3206 160.68V162.575L4.41175 162.429L16.3008 162.356H19.1453H21.7711H28.9191L33.733 160.68L25.1263 148.214L14.1126 143.768L-2.80913 145.809L-6.23725 143.768C-6.23725 143.768 -11.1971 145.59 -18.7827 149.016C-19.2933 149.235 -19.8768 149.526 -20.3873 149.745C-21.1167 150.11 -21.919 150.474 -22.6484 150.839C-23.9613 151.495 -25.3471 152.151 -26.7329 152.807C-27.6082 153.244 -28.4835 153.682 -29.3588 154.119C-30.1611 154.556 -30.9634 154.921 -31.7657 155.358C-34.8291 156.962 -38.0384 158.784 -41.3206 160.68Z" fill="url(#paint24_linear_272_5493)"/>
<path fill-rule="evenodd" clip-rule="evenodd" d="M25.1992 148.214C25.1992 148.214 10.7574 156.087 0.400135 158.711C-9.88419 161.336 -41.3206 160.68 -41.3206 160.68V162.575H30.8155L33.733 160.68L25.1992 148.214Z" fill="url(#paint25_linear_272_5493)"/>
<path fill-rule="evenodd" clip-rule="evenodd" d="M-6.23724 143.768L2.51538 145.153L-6.23724 146.538V143.768Z" fill="url(#paint26_linear_272_5493)"/>
<path fill-rule="evenodd" clip-rule="evenodd" d="M-26.8058 152.807C-26.587 153.098 -26.1494 153.244 -25.7118 153.317C-21.2625 154.119 -16.7403 154.119 -12.437 155.358C-10.3947 155.941 -8.42533 156.743 -6.45599 157.399C-4.63253 157.982 -2.6632 158.347 -0.766794 158.566C0.0355282 158.638 0.83786 158.711 1.56725 159.076C2.88014 159.732 3.53658 161.19 4.3389 162.502L16.2279 162.429H19.0725H21.6983C21.7712 159.805 17.6866 156.816 16.3738 155.504C15.9361 155.067 15.4985 154.702 14.9879 154.483C14.5503 154.265 13.9668 154.265 13.4562 154.265C4.3389 153.9 -4.70549 152.442 -13.4581 149.964C-14.771 149.599 -16.0839 149.162 -17.4697 149.089C-17.9074 149.089 -18.4179 149.089 -18.8555 149.089C-19.3661 149.308 -19.9496 149.599 -20.4602 149.818C-21.1896 150.182 -21.9919 150.547 -22.7213 150.911C-23.9612 151.422 -25.3471 152.151 -26.8058 152.807Z" fill="#C49FA4"/>
<path fill-rule="evenodd" clip-rule="evenodd" d="M-22.6485 150.839C-22.1379 150.911 -21.6273 150.984 -21.1168 151.057C-10.9054 152.588 -0.766911 154.556 9.37154 156.525C10.4656 156.743 11.7056 156.962 12.6538 157.618C13.529 158.201 14.1125 159.076 14.696 159.878C15.2795 160.68 15.7901 161.482 16.3007 162.356H19.1453C18.7806 161.919 18.4888 161.627 18.343 161.409C16.5924 159.222 14.696 156.962 12.0702 155.796C9.29856 154.556 6.0893 154.775 3.02588 154.556C0.691849 154.338 -1.64221 153.827 -3.97624 153.317C-9.44662 152.151 -14.917 150.911 -20.3874 149.745C-21.1168 150.11 -21.9191 150.474 -22.6485 150.839Z" fill="#C49FA4"/>
<path fill-rule="evenodd" clip-rule="evenodd" d="M25.1991 148.214L19.8017 148.943L17.0301 152.297L24.6886 149.235L25.1991 148.214Z" fill="#A75C59"/>
<path fill-rule="evenodd" clip-rule="evenodd" d="M117.102 155.841C117.102 155.841 49.0501 165.099 -15.5004 168.452C-80.051 171.732 -131.837 161.527 -131.837 161.527L-49.5627 161.818L53.7911 156.643L117.102 155.841Z" fill="url(#paint27_linear_272_5493)"/>
<path fill-rule="evenodd" clip-rule="evenodd" d="M69.6159 176.557C77.2706 176.669 84.8525 176.557 92.5072 176.295C93.6008 176.257 94.6943 176.22 95.5692 175.958C96.2982 175.771 96.8085 175.509 97.3917 175.21C97.6833 175.06 97.902 174.911 98.1936 174.761C101.985 172.741 107.598 171.844 112.993 171.507C118.461 171.17 123.928 171.32 129.396 170.946C130.198 170.909 131 170.796 131.51 170.535C132.604 169.974 132.02 168.926 132.968 168.29C133.478 167.954 134.353 167.804 135.155 167.655C148.496 165.485 161.838 163.316 175.543 162.007C184.51 161.146 193.623 160.66 202.809 160.772C204.631 160.81 206.527 160.847 208.349 160.922C205.725 160.623 202.955 160.361 200.257 160.174C190.853 159.463 171.971 158.827 163.952 158.566C156.516 159.089 149.08 159.65 141.789 160.473C122.251 162.643 103.37 166.645 83.3944 167.318C83.3944 168.253 83.1028 169.413 81.426 169.787C80.7699 169.936 80.0409 169.936 79.3848 170.123C78.0725 170.46 77.6351 171.357 77.708 172.143C77.7809 172.928 78.1454 173.714 77.708 174.462C77.5622 174.761 77.2706 174.986 76.9061 175.21C75.4481 176.183 72.2404 176.482 69.6159 176.557Z" fill="#C49FA4"/>
<path fill-rule="evenodd" clip-rule="evenodd" d="M103.462 152.224C97.1165 152.661 90.6979 153.098 84.644 154.921C80.3406 156.233 76.2561 158.201 72.6092 160.752C76.6937 160.461 80.0489 157.691 83.8417 156.16C87.4157 154.702 91.3543 154.41 95.2201 154.192C103.389 153.609 111.558 153.098 119.727 152.515C131.179 151.713 142.703 150.984 154.154 151.276C149.997 149.526 148.028 149.016 143.432 149.381C138.983 149.672 134.534 149.964 130.158 150.328C121.259 150.984 112.361 151.64 103.462 152.224Z" fill="#C49FA4"/>
<path fill-rule="evenodd" clip-rule="evenodd" d="M225.488 167.751L220.601 169.719L215.277 170.156L225.488 167.751Z" fill="#885C84"/>
<path fill-rule="evenodd" clip-rule="evenodd" d="M160.281 154.775H154.738L150.508 156.452L155.832 155.65L160.281 154.775Z" fill="#885C84"/>
<path fill-rule="evenodd" clip-rule="evenodd" d="M340.22 151.932H407.324L402.51 143.986L402.364 143.768L402.218 142.82L401.489 138.738L400.614 134.072L399.957 130.427L398.425 121.753L397.55 116.942L397.185 114.609L392.809 90.3342L390.986 89.3137L392.08 86.981L391.059 81.6595L390.037 76.0465L389.381 72.4016L389.162 71.2353L388.943 69.9232L383.254 63.1437L380.555 59.9363L379.607 58.8428L351.599 50.8971L347.587 58.4784L345.91 61.6858L343.794 65.768L344.013 70.9437L344.086 73.7867L344.597 87.5642L344.816 91.938L345.399 106.663L347.806 108.996L346.566 110.818L345.399 121.753L345.18 124.013L344.889 126.71L344.305 132.541L344.013 135.239L343.722 137.936L343.211 140.196L342.117 144.351L341.825 145.736L340.22 151.932Z" fill="url(#paint28_linear_272_5493)"/>
<path fill-rule="evenodd" clip-rule="evenodd" d="M388.943 69.9231L356.632 63.6539L355.902 82.2426L359.403 96.093L361.956 109.069L349.192 108.485L345.399 106.663L347.806 108.996L359.841 110.308L362.467 111.474L365.53 128.897L364.728 149.453L362.758 151.495L407.324 151.932L402.364 143.768L392.809 90.3342L390.986 89.3136L392.08 86.9809L388.943 69.9231Z" fill="url(#paint29_linear_272_5493)"/>
<path opacity="0.5" fill-rule="evenodd" clip-rule="evenodd" d="M344.013 135.239C348.535 135.312 353.131 135.312 357.653 135.385C361.008 135.385 364.363 135.457 367.718 135.166C371.73 134.801 375.742 134.072 379.753 133.635C386.682 132.833 393.757 132.979 400.686 134.072L400.03 130.428C399.884 130.428 399.738 130.428 399.592 130.428C395.727 129.99 391.788 129.99 387.849 130.209C379.972 130.646 372.24 131.958 364.436 132.542C357.726 133.052 351.015 133.052 344.305 132.469L344.013 135.239Z" fill="url(#paint30_linear_272_5493)"/>
<path fill-rule="evenodd" clip-rule="evenodd" d="M341.825 145.736C347.15 145.371 352.474 145.225 357.726 145.881C365.457 146.902 373.043 149.599 380.774 148.943C385.297 148.506 389.6 146.975 393.903 145.736C396.091 145.08 399.884 145.007 402.437 143.986L402.364 143.84L402.218 142.893C394.997 142.966 387.776 147.194 380.556 147.777C375.158 148.214 369.761 146.975 364.509 146.027C357.142 144.715 349.63 143.84 342.19 144.424L341.825 145.736Z" fill="#C49FA4"/>
<path fill-rule="evenodd" clip-rule="evenodd" d="M365.165 126.855L366.26 130.063L365.311 136.697L365.165 137.79L365.384 132.76L365.165 128.969V126.855Z" fill="#955B73"/>
<path opacity="0.4" fill-rule="evenodd" clip-rule="evenodd" d="M348.973 139.248C349.338 139.54 349.63 139.831 350.067 139.977C349.994 139.831 350.067 139.758 350.067 139.612C350.067 139.467 350.067 139.467 349.994 139.394C349.921 139.321 349.921 139.248 349.848 139.175C349.775 139.102 349.63 139.102 349.557 139.029C349.484 138.956 349.484 138.956 349.338 138.956C349.192 138.956 349.192 138.956 349.119 139.029C349.046 139.102 348.827 139.394 349.046 139.54L348.973 139.248Z" fill="#AD8D85"/>
<path opacity="0.4" fill-rule="evenodd" clip-rule="evenodd" d="M346.347 140.925C346.858 140.56 347.441 140.196 347.952 139.904C347.879 139.977 348.025 140.123 348.025 140.269C348.025 140.341 348.025 140.487 348.098 140.56C348.098 140.779 348.098 140.997 348.098 141.143C348.025 141.654 347.514 141.799 347.15 141.945C346.785 142.091 346.274 142.091 345.983 141.726C345.837 141.581 345.91 141.362 345.983 141.143C345.983 141.07 346.056 140.925 346.128 140.852C346.201 140.779 346.274 140.633 346.347 140.56V140.925Z" fill="#AD8D85"/>
<path opacity="0.4" fill-rule="evenodd" clip-rule="evenodd" d="M347.879 137.207C347.66 137.353 347.296 137.353 347.077 137.207C347.004 137.134 346.931 137.061 346.931 136.988C346.858 136.988 346.785 136.915 346.785 136.842C346.566 136.551 346.493 136.113 346.712 135.749C347.004 135.239 347.514 135.166 348.025 135.239C348.244 135.311 348.536 135.384 348.681 135.53C348.827 135.749 348.827 135.968 348.754 136.186C348.681 136.405 348.536 136.551 348.39 136.769C348.317 136.915 348.171 137.061 347.879 137.207Z" fill="#AD8D85"/>
<path opacity="0.4" fill-rule="evenodd" clip-rule="evenodd" d="M371.803 133.198C372.168 133.489 372.459 133.781 372.897 133.927C372.824 133.781 372.897 133.708 372.897 133.562C372.897 133.416 372.897 133.416 372.824 133.343C372.751 133.27 372.751 133.198 372.678 133.125C372.605 133.052 372.459 133.052 372.386 132.979C372.313 132.906 372.313 132.906 372.168 132.906C372.022 132.906 372.022 132.906 371.949 132.979C371.876 133.052 371.657 133.343 371.876 133.489L371.803 133.198Z" fill="#DACCC8"/>
<path opacity="0.4" fill-rule="evenodd" clip-rule="evenodd" d="M369.25 134.801C369.761 134.437 370.344 134.072 370.855 133.781C370.782 133.854 370.928 133.999 370.928 134.145C370.928 134.218 370.928 134.364 371.001 134.437C371.001 134.655 371.001 134.874 371.001 135.02C370.928 135.53 370.417 135.676 370.052 135.822C369.688 135.968 369.177 135.968 368.885 135.603C368.74 135.457 368.812 135.239 368.885 135.02C368.885 134.947 368.958 134.801 369.031 134.728C369.104 134.655 369.177 134.51 369.25 134.437V134.801Z" fill="#DACCC8"/>
<path fill-rule="evenodd" clip-rule="evenodd" d="M411.773 151.786L470.416 153.609L470.707 158.857V171.906L340.22 151.932L411.773 151.786Z" fill="url(#paint31_linear_272_5493)"/>
<defs>
<linearGradient id="paint0_linear_272_5493" x1="105.282" y1="190.845" x2="105.282" y2="118.131" gradientUnits="userSpaceOnUse">
<stop stop-color="#01002E"/>
<stop offset="0.2458" stop-color="#0A0339"/>
<stop offset="0.6788" stop-color="#210D57"/>
<stop offset="1" stop-color="#361571"/>
</linearGradient>
<linearGradient id="paint1_linear_272_5493" x1="156.31" y1="159.272" x2="156.31" y2="126.742" gradientUnits="userSpaceOnUse">
<stop stop-color="#000020"/>
<stop offset="1" stop-color="#1D0D43"/>
</linearGradient>
<linearGradient id="paint2_linear_272_5493" x1="215.784" y1="182.872" x2="215.784" y2="144.495" gradientUnits="userSpaceOnUse">
<stop stop-color="#090D4C"/>
<stop offset="1" stop-color="#330031"/>
</linearGradient>
<linearGradient id="paint3_linear_272_5493" x1="141.368" y1="190.845" x2="141.368" y2="112.117" gradientUnits="userSpaceOnUse">
<stop stop-color="#101472"/>
<stop offset="0.7486" stop-color="#611F73"/>
<stop offset="1" stop-color="#A7486A"/>
</linearGradient>
<linearGradient id="paint4_linear_272_5493" x1="397.036" y1="128.287" x2="213.444" y2="128.287" gradientUnits="userSpaceOnUse">
<stop/>
<stop offset="1" stop-color="#59000E"/>
</linearGradient>
<linearGradient id="paint5_linear_272_5493" x1="470.382" y1="131.354" x2="213.444" y2="131.354" gradientUnits="userSpaceOnUse">
<stop stop-color="#1E0748"/>
<stop offset="1" stop-color="#4A1E71"/>
</linearGradient>
<linearGradient id="paint6_linear_272_5493" x1="397.036" y1="161.92" x2="258.361" y2="161.92" gradientUnits="userSpaceOnUse">
<stop stop-color="#2E1E5D"/>
<stop offset="1" stop-color="#201348"/>
</linearGradient>
<linearGradient id="paint7_linear_272_5493" x1="207.274" y1="137.964" x2="176.1" y2="137.964" gradientUnits="userSpaceOnUse">
<stop stop-color="#482165"/>
<stop offset="1" stop-color="#201348"/>
</linearGradient>
<linearGradient id="paint8_linear_272_5493" x1="368.245" y1="184.125" x2="305.228" y2="184.125" gradientUnits="userSpaceOnUse">
<stop stop-color="#21144A"/>
<stop offset="1" stop-color="#360109"/>
</linearGradient>
<linearGradient id="paint9_linear_272_5493" x1="279.764" y1="169.669" x2="243.004" y2="169.669" gradientUnits="userSpaceOnUse">
<stop stop-color="#21144A"/>
<stop offset="1" stop-color="#360109"/>
</linearGradient>
<linearGradient id="paint10_linear_272_5493" x1="329.811" y1="139.779" x2="251.695" y2="139.779" gradientUnits="userSpaceOnUse">
<stop stop-color="#21144A"/>
<stop offset="1" stop-color="#360109"/>
</linearGradient>
<linearGradient id="paint11_linear_272_5493" x1="397.036" y1="172.667" x2="265.086" y2="172.667" gradientUnits="userSpaceOnUse">
<stop/>
<stop offset="1" stop-color="#3B240E"/>
</linearGradient>
<linearGradient id="paint12_linear_272_5493" x1="260.217" y1="168.631" x2="195.674" y2="168.631" gradientUnits="userSpaceOnUse">
<stop stop-color="#977CFF"/>
<stop offset="1" stop-color="#4513B6"/>
</linearGradient>
<linearGradient id="paint13_linear_272_5493" x1="382.327" y1="135.486" x2="238.7" y2="135.486" gradientUnits="userSpaceOnUse">
<stop stop-color="#977CFF"/>
<stop offset="1" stop-color="#4513B6"/>
</linearGradient>
<linearGradient id="paint14_linear_272_5493" x1="146.963" y1="153.594" x2="146.963" y2="138.755" gradientUnits="userSpaceOnUse">
<stop stop-color="#190031"/>
<stop offset="1" stop-color="#4D1351"/>
</linearGradient>
<linearGradient id="paint15_linear_272_5493" x1="62.4597" y1="190.845" x2="62.4597" y2="31.0609" gradientUnits="userSpaceOnUse">
<stop stop-color="#2B2784"/>
<stop offset="0.1234" stop-color="#302783"/>
<stop offset="0.261" stop-color="#3D2681"/>
<stop offset="0.3324" stop-color="#47257F"/>
<stop offset="0.4016" stop-color="#422278"/>
<stop offset="0.4892" stop-color="#361B68"/>
<stop offset="0.6557" stop-color="#431F6D"/>
<stop offset="0.9636" stop-color="#652B7B"/>
<stop offset="1" stop-color="#6A2C7D"/>
</linearGradient>
<linearGradient id="paint16_linear_272_5493" x1="160.259" y1="158.687" x2="21.5546" y2="158.687" gradientUnits="userSpaceOnUse">
<stop stop-color="#201348"/>
<stop offset="1" stop-color="#461E63"/>
</linearGradient>
<linearGradient id="paint17_linear_272_5493" x1="231.739" y1="179.284" x2="-187.233" y2="179.284" gradientUnits="userSpaceOnUse">
<stop stop-color="#201348"/>
<stop offset="1" stop-color="#2E1E5D"/>
</linearGradient>
<linearGradient id="paint18_linear_272_5493" x1="52.6509" y1="130.107" x2="52.6509" y2="57.5248" gradientUnits="userSpaceOnUse">
<stop stop-color="#7A36A2"/>
<stop offset="1" stop-color="#CD3654"/>
</linearGradient>
<linearGradient id="paint19_linear_272_5493" x1="52.6509" y1="130.107" x2="52.6509" y2="57.5248" gradientUnits="userSpaceOnUse">
<stop stop-color="#7A36A2"/>
<stop offset="1" stop-color="#CD3654"/>
</linearGradient>
<linearGradient id="paint20_linear_272_5493" x1="135.649" y1="179.388" x2="57.8245" y2="179.388" gradientUnits="userSpaceOnUse">
<stop stop-color="#21144A"/>
<stop offset="1" stop-color="#360109"/>
</linearGradient>
<linearGradient id="paint21_linear_272_5493" x1="225.516" y1="168.203" x2="22.8843" y2="168.203" gradientUnits="userSpaceOnUse">
<stop stop-color="#59000E"/>
<stop offset="1"/>
</linearGradient>
<linearGradient id="paint22_linear_272_5493" x1="57.4626" y1="125.05" x2="-34.2083" y2="125.05" gradientUnits="userSpaceOnUse">
<stop stop-color="#977CFF"/>
<stop offset="1" stop-color="#4513B6"/>
</linearGradient>
<linearGradient id="paint23_linear_272_5493" x1="-29.3877" y1="167.282" x2="-29.3877" y2="159.983" gradientUnits="userSpaceOnUse">
<stop stop-color="#B87CBD"/>
<stop offset="1" stop-color="#451391"/>
</linearGradient>
<linearGradient id="paint24_linear_272_5493" x1="-3.76106" y1="162.569" x2="-3.76106" y2="143.754" gradientUnits="userSpaceOnUse">
<stop stop-color="#5F176D"/>
<stop offset="1" stop-color="#813654"/>
</linearGradient>
<linearGradient id="paint25_linear_272_5493" x1="-3.76106" y1="162.567" x2="-3.76106" y2="148.216" gradientUnits="userSpaceOnUse">
<stop stop-color="#090D4C"/>
<stop offset="1" stop-color="#6F276A"/>
</linearGradient>
<linearGradient id="paint26_linear_272_5493" x1="-1.82964" y1="146.515" x2="-1.82964" y2="143.751" gradientUnits="userSpaceOnUse">
<stop stop-color="#090D4C"/>
<stop offset="1" stop-color="#6F276A"/>
</linearGradient>
<linearGradient id="paint27_linear_272_5493" x1="117.126" y1="162.454" x2="-131.782" y2="162.454" gradientUnits="userSpaceOnUse">
<stop stop-color="#B87CBD"/>
<stop offset="1" stop-color="#451391"/>
</linearGradient>
<linearGradient id="paint28_linear_272_5493" x1="373.79" y1="151.962" x2="373.79" y2="50.8836" gradientUnits="userSpaceOnUse">
<stop stop-color="#3A1D84"/>
<stop offset="0.1319" stop-color="#3F1E84"/>
<stop offset="0.2792" stop-color="#4C2182"/>
<stop offset="0.4333" stop-color="#622680"/>
<stop offset="0.5865" stop-color="#802C7D"/>
<stop offset="1" stop-color="#BA4D4C"/>
</linearGradient>
<linearGradient id="paint29_linear_272_5493" x1="376.355" y1="151.966" x2="376.355" y2="63.6528" gradientUnits="userSpaceOnUse">
<stop stop-color="#090D4C"/>
<stop offset="1" stop-color="#60184A"/>
</linearGradient>
<linearGradient id="paint30_linear_272_5493" x1="400.646" y1="132.735" x2="344.017" y2="132.735" gradientUnits="userSpaceOnUse">
<stop stop-color="#977CFF"/>
<stop offset="1" stop-color="#4513B6"/>
</linearGradient>
<linearGradient id="paint31_linear_272_5493" x1="470.735" y1="161.823" x2="340.239" y2="161.823" gradientUnits="userSpaceOnUse">
<stop stop-color="#B87CBD"/>
<stop offset="1" stop-color="#451391"/>
</linearGradient>
</defs>
</svg>
