<svg width="854" height="676" viewBox="0 0 854 676" fill="none" xmlns="http://www.w3.org/2000/svg">
<path fill-rule="evenodd" clip-rule="evenodd" d="M0.596497 277.108C0.596497 277.108 22.3854 304.596 49.9849 334.661C71.0475 356.995 95.0157 381.048 116.078 394.792L141.499 410.254L349.221 532.233L360.842 558.003L369.557 577.761L377.547 594.941L427.661 674.828C427.661 674.828 479.229 677.405 504.649 674.828L570.017 587.21L607.784 535.669L631.752 503.027L655.72 493.578L675.33 485.847L708.014 472.961L771.928 401.664L785.728 386.202L798.075 372.457L824.948 342.392L854 310.609C854 310.609 831.485 277.967 816.232 269.377L788.633 203.233C788.633 203.233 676.056 79.5358 617.226 46.8935C617.226 46.8935 420.398 -5.50611 193.792 0.506949L182.172 71.8047L142.951 66.6507L87.7526 148.256L49.2588 204.951L11.491 259.928L9.31219 263.363L0.596497 277.108Z" fill="url(#paint0_linear_119_13812)"/>
<path opacity="0.5" fill-rule="evenodd" clip-rule="evenodd" d="M658.625 76.9594L627.394 258.21L544.596 338.957L540.238 369.022L548.954 434.306L469.787 612.121L503.923 675.688L631.026 504.745L708.014 474.68L854 312.327L813.327 264.223L788.633 204.951C788.633 204.092 688.403 99.2936 658.625 76.9594Z" fill="url(#paint1_linear_119_13812)"/>
<path fill-rule="evenodd" clip-rule="evenodd" d="M721.813 338.957L627.394 258.21L296.2 208.387L316.537 247.043L545.322 338.957C545.322 338.957 647.73 352.701 721.813 338.957Z" fill="url(#paint2_linear_119_13812)"/>
<path fill-rule="evenodd" clip-rule="evenodd" d="M708.014 474.678L540.965 368.161L357.937 316.621L0.596558 277.107L116.079 394.791L349.221 532.232L549.68 433.446L623.763 504.744L708.014 474.678Z" fill="url(#paint3_linear_119_13812)"/>
<path fill-rule="evenodd" clip-rule="evenodd" d="M504.649 675.688L470.513 612.122L378.273 595.8C378.273 595.8 406.599 655.931 428.388 675.688H504.649Z" fill="url(#paint4_linear_119_13812)"/>
<path fill-rule="evenodd" clip-rule="evenodd" d="M316.538 247.043L182.172 72.6639L193.793 1.36621L296.201 208.387L316.538 247.043Z" fill="url(#paint5_linear_119_13812)"/>
<path fill-rule="evenodd" clip-rule="evenodd" d="M638.289 266.801L630.3 241.89L592.532 253.916L638.289 266.801Z" fill="#7B2C67"/>
<path fill-rule="evenodd" clip-rule="evenodd" d="M477.05 595.8L482.861 639.61L458.167 609.544L477.05 595.8Z" fill="#863D73"/>
<path opacity="0.5" fill-rule="evenodd" clip-rule="evenodd" d="M721.813 338.956L540.964 368.163L357.936 316.622L316.537 247.043L545.322 338.956H721.813Z" fill="url(#paint6_linear_119_13812)"/>
<path fill-rule="evenodd" clip-rule="evenodd" d="M48.5328 205.81C55.7958 202.374 63.7851 197.22 70.3218 192.066C110.268 159.424 154.573 135.371 201.782 120.768C213.403 117.332 225.024 113.896 235.192 106.165C239.55 102.729 243.908 99.2932 248.992 97.5751C254.802 95.8571 260.613 96.7162 267.149 98.4342C381.179 120.768 503.197 94.1391 609.963 146.539C622.31 152.552 634.658 160.283 644.826 170.591C663.71 189.489 673.877 217.836 691.309 238.452C705.835 256.492 724.719 268.518 740.697 283.121C762.486 302.878 784.275 331.225 795.17 361.29C795.896 363.867 797.349 369.021 798.801 374.176L825.674 344.11C785.001 298.583 736.34 262.505 700.751 210.105C679.688 180.04 661.531 146.539 633.931 125.922C610.69 107.883 583.09 101.011 555.491 95.8571C458.167 76.1 358.663 70.9459 259.886 65.7919C249.718 64.9329 238.824 64.9329 229.382 66.6509C221.392 68.369 213.403 71.8049 206.14 76.0999C164.741 95.8571 125.521 120.768 87.7532 149.116L48.5328 205.81Z" fill="#C49FA4"/>
<path fill-rule="evenodd" clip-rule="evenodd" d="M5.68073 272.812C75.4056 267.658 137.867 221.272 203.961 195.502C317.99 151.692 441.461 171.449 559.848 191.207C578.006 193.784 596.89 197.22 613.595 206.669C633.205 216.977 649.909 235.016 665.162 253.055C676.783 266.799 737.792 358.713 771.928 404.241L785.728 388.778C774.107 380.188 763.212 367.303 753.044 353.559C721.087 311.468 686.951 271.094 657.173 227.285C649.183 216.977 641.194 206.669 631.026 199.797C623.036 194.643 613.594 192.065 604.152 189.488C500.291 162.859 394.978 146.538 288.938 139.666C282.401 138.807 275.138 138.807 270.054 143.961C264.97 148.256 262.791 155.987 259.159 162C248.265 177.462 227.929 169.731 210.498 170.59C187.982 171.449 168.372 188.63 148.762 201.515C116.805 223.849 81.2159 239.311 44.1746 247.042C32.5538 249.619 18.7542 253.055 10.765 262.504L8.58569 265.94C7.85938 266.799 6.40704 269.376 5.68073 272.812Z" fill="#C49FA4"/>
<path fill-rule="evenodd" clip-rule="evenodd" d="M360.842 558.003L369.557 577.761C405.146 552.849 445.093 536.528 485.765 529.656C498.839 527.938 511.912 526.22 523.533 533.092C532.249 538.246 539.512 546.836 546.048 555.426C554.038 565.734 561.301 576.902 568.564 588.069L606.332 536.528C580.185 519.348 550.406 497.014 522.807 497.014C513.365 497.014 504.649 498.732 495.207 501.309C468.334 508.181 441.461 515.053 413.862 521.925C399.336 525.361 384.083 529.656 372.463 539.964C368.105 544.259 363.747 551.131 360.842 558.003Z" fill="#C49FA4"/>
<path opacity="0.5" fill-rule="evenodd" clip-rule="evenodd" d="M49.985 334.662C71.0478 356.997 95.016 381.049 116.079 394.793L141.499 410.255C170.551 383.626 213.403 383.626 251.171 386.203C292.57 388.78 333.969 392.216 375.368 394.793C433.472 399.088 492.303 403.383 548.228 423.14C590.353 437.743 625.216 461.795 655.72 494.438L675.331 486.707C652.089 467.808 620.131 450.628 610.69 444.615C579.459 423.14 547.501 400.806 512.639 388.78C453.809 367.305 390.62 374.177 329.611 369.882C235.918 363.009 143.678 331.226 49.985 334.662Z" fill="url(#paint7_linear_119_13812)"/>
<path fill-rule="evenodd" clip-rule="evenodd" d="M788.633 204.092L778.465 245.324L639.015 192.925L592.532 148.257L484.313 162.86L248.265 82.972L217.761 76.959L193.792 1.36621L182.172 72.6639L142.951 67.5098L227.929 93.2801L475.597 168.014L578.732 182.617L638.289 204.092L778.465 257.351L816.232 271.095L788.633 204.092Z" fill="url(#paint8_linear_119_13812)"/>
<path fill-rule="evenodd" clip-rule="evenodd" d="M182.171 72.6635L225.749 88.1257L437.103 153.41L475.597 168.013L578.732 182.617L638.288 204.092L785.727 257.35L816.232 271.094L835.116 289.133L652.814 219.554L638.288 208.387L576.553 190.348L509.007 176.603L464.703 184.335L391.346 146.538L222.118 98.4337L142.951 67.5094L182.171 72.6635Z" fill="#54238D"/>
<path fill-rule="evenodd" clip-rule="evenodd" d="M215.581 301.159L142.951 277.107L106.636 289.133L164.74 303.736L215.581 301.159Z" fill="url(#paint9_linear_119_13812)"/>
<defs>
<linearGradient id="paint0_linear_119_13812" x1="538.023" y1="782.869" x2="412.593" y2="3.27173" gradientUnits="userSpaceOnUse">
<stop stop-color="#3A176F"/>
<stop offset="1" stop-color="#A23F51"/>
</linearGradient>
<linearGradient id="paint1_linear_119_13812" x1="662.204" y1="675.314" x2="662.204" y2="77.3159" gradientUnits="userSpaceOnUse">
<stop stop-color="#BA7CA5"/>
<stop offset="1" stop-color="#7213B6"/>
</linearGradient>
<linearGradient id="paint2_linear_119_13812" x1="509.151" y1="344.887" x2="509.151" y2="208.231" gradientUnits="userSpaceOnUse">
<stop stop-color="#5F3993"/>
<stop offset="1" stop-color="#612F59"/>
</linearGradient>
<linearGradient id="paint3_linear_119_13812" x1="708.28" y1="404.725" x2="0.741095" y2="404.725" gradientUnits="userSpaceOnUse">
<stop stop-color="#3B1074"/>
<stop offset="1" stop-color="#612F59"/>
</linearGradient>
<linearGradient id="paint4_linear_119_13812" x1="441.098" y1="675.314" x2="441.098" y2="595.141" gradientUnits="userSpaceOnUse">
<stop stop-color="#090D4C"/>
<stop offset="1" stop-color="#451053"/>
</linearGradient>
<linearGradient id="paint5_linear_119_13812" x1="249.148" y1="171.13" x2="249.117" y2="1.35075" gradientUnits="userSpaceOnUse">
<stop stop-color="#A73D7E"/>
<stop offset="1" stop-color="#FF5C7A"/>
</linearGradient>
<linearGradient id="paint6_linear_119_13812" x1="722.048" y1="307.64" x2="316.379" y2="307.64" gradientUnits="userSpaceOnUse">
<stop stop-color="#B87CBD"/>
<stop offset="1" stop-color="#451391"/>
</linearGradient>
<linearGradient id="paint7_linear_119_13812" x1="675.293" y1="414.654" x2="50.2385" y2="414.654" gradientUnits="userSpaceOnUse">
<stop stop-color="#977CFF"/>
<stop offset="1" stop-color="#4513B6"/>
</linearGradient>
<linearGradient id="paint8_linear_119_13812" x1="816.341" y1="136.015" x2="142.696" y2="136.015" gradientUnits="userSpaceOnUse">
<stop stop-color="#3B1074"/>
<stop offset="1" stop-color="#612F59"/>
</linearGradient>
<linearGradient id="paint9_linear_119_13812" x1="161.378" y1="303.915" x2="161.378" y2="276.948" gradientUnits="userSpaceOnUse">
<stop stop-color="#6C41A5"/>
<stop offset="1" stop-color="#612F59"/>
</linearGradient>
</defs>
</svg>
