<svg width="368" height="280" viewBox="0 0 368 280" fill="none" xmlns="http://www.w3.org/2000/svg">
<g filter="url(#filter0_d_272_465)">
<path fill-rule="evenodd" clip-rule="evenodd" d="M302.481 176.613C302.481 176.613 293.995 180.189 283.646 183.687C275.799 186.224 266.984 188.815 259.859 189.487L251.354 190.054L182.154 193.924L176.694 198.243L172.563 201.576L168.855 204.429L147.936 216.271C147.936 216.271 133.104 211.172 126.115 207.823L114.952 181.629L108.579 166.296L104.529 156.58L98.5296 151.899L93.6212 148.068L85.4404 141.685L73.317 119.194L70.7052 114.323L68.3607 109.984L63.2708 100.509L57.7076 90.421C57.7076 90.421 66.8328 85.8058 71.8778 85.6149L85.2596 74.2852C85.2596 74.2852 127.564 59.787 146.982 59.157C146.982 59.157 207.175 69.3816 270.898 95.5542L268.199 112.307L279.749 115.492L288.535 139.264L294.681 155.796L300.765 171.874L301.094 172.859L302.481 176.613Z" fill="url(#paint0_linear_272_465)"/>
<path opacity="0.5" fill-rule="evenodd" clip-rule="evenodd" d="M132.722 61.1405L126.34 103.913L143.022 130.528L141.73 137.533L133.773 150.748L141.267 198.036L126.249 208.089L104.662 156.846L85.3682 141.871L57.6354 90.6075L73.2067 84.6284L85.1874 74.4717C85.2596 74.2852 122.404 62.721 132.722 61.1405Z" fill="url(#paint1_linear_272_465)"/>
<path fill-rule="evenodd" clip-rule="evenodd" d="M92.8644 110.894L126.413 103.727L224.472 129.256L215.459 135.416L142.888 130.262C142.888 130.262 112.707 122.007 92.8644 110.894Z" fill="url(#paint2_linear_272_465)"/>
<path fill-rule="evenodd" clip-rule="evenodd" d="M85.3683 141.871L141.669 137.08L198.011 146.243L302.481 176.613L259.859 189.487L182.226 193.738L133.917 150.375L106.721 157.643L85.3683 141.871Z" fill="url(#paint3_linear_272_465)"/>
<path fill-rule="evenodd" clip-rule="evenodd" d="M126.321 207.902L141.339 197.849L168.855 204.428C168.855 204.428 155.772 214.373 147.936 216.271L126.321 207.902Z" fill="url(#paint4_linear_272_465)"/>
<path fill-rule="evenodd" clip-rule="evenodd" d="M215.459 135.415L268.405 112.386L271.103 95.6337L224.472 129.256L215.459 135.415Z" fill="url(#paint5_linear_272_465)"/>
<path fill-rule="evenodd" clip-rule="evenodd" d="M122.808 104.476L126.96 99.8651L136.655 106.62L122.808 104.476Z" fill="#7B2C67"/>
<path fill-rule="evenodd" clip-rule="evenodd" d="M140.652 193.509L135.323 202.382L144.849 198.565L140.652 193.509Z" fill="#863D73"/>
<path opacity="0.5" fill-rule="evenodd" clip-rule="evenodd" d="M92.8644 110.894L141.669 137.08L198.011 146.243L215.459 135.416L142.888 130.262L92.8644 110.894Z" fill="url(#paint6_linear_272_465)"/>
<path fill-rule="evenodd" clip-rule="evenodd" d="M294.886 155.875C293.117 154.332 291.285 152.337 289.866 150.5C281.287 139.031 270.751 128.948 258.597 120.597C255.592 118.576 252.587 116.555 250.355 113.761C249.409 112.536 248.462 111.312 247.166 110.381C245.663 109.371 243.944 108.92 241.947 108.575C207.75 100.91 175.404 81.7396 140.738 81.3981C136.733 81.3485 132.584 81.6718 128.835 82.7936C121.895 84.8237 116.702 89.675 109.957 92.424C104.323 94.7459 97.9603 95.2842 92.204 96.7008C84.3677 98.5986 75.8094 102.361 70.1946 107.692C69.7721 108.172 68.9272 109.131 68.0823 110.091L62.9924 100.615C78.347 95.1954 95.1719 92.7037 109.663 85.2343C118.16 81.0191 126.122 75.7392 135.677 74.2926C143.781 72.9271 152.181 74.4641 160.437 76.374C189.683 82.7653 218.319 92.5657 246.749 102.286C249.703 103.216 252.791 104.411 255.251 106.007C257.371 107.257 259.347 108.879 261.044 110.609C271.118 119.441 280.141 129.152 288.463 139.45L294.886 155.875Z" fill="#C49FA4"/>
<path fill-rule="evenodd" clip-rule="evenodd" d="M301.401 175.123C282.071 166.352 268.266 149.428 251.699 136.581C223.061 114.558 186.404 105.297 151.188 96.5944C145.825 95.1613 140.184 93.8349 134.655 94.053C128.231 94.1387 121.98 96.2214 116.14 98.4636C111.692 100.172 86.6742 113.429 73.1724 119.566L70.5607 114.696C74.5764 114.106 78.7472 112.505 82.7844 110.637C95.3799 105.007 108.449 99.9884 120.571 93.7461C123.702 92.3852 126.832 91.0242 130.292 90.6483C132.99 90.4062 135.883 90.8829 138.775 91.3596C170.451 96.9765 201.673 104.99 232.378 114.949C234.231 115.666 236.362 116.277 237.37 117.953C238.45 119.444 238.417 121.361 238.941 123.065C240.73 127.617 247.144 128.17 252.012 130.27C258.321 132.927 262.436 138.808 266.911 143.757C274.092 152.113 282.879 159.375 292.728 165.118C295.806 166.952 299.428 169.213 300.898 172.141L301.227 173.126C301.495 173.658 301.484 174.297 301.401 175.123Z" fill="#C49FA4"/>
<path fill-rule="evenodd" clip-rule="evenodd" d="M176.766 198.057L172.635 201.389C164.642 192.076 154.691 184.149 143.741 178.194C140.18 176.387 136.618 174.579 132.747 174.796C129.844 174.958 127.063 176.026 124.488 177.173C121.358 178.534 118.36 180.161 115.363 181.788L108.99 166.455C117.845 165.595 128.163 164.015 135.985 167.044C138.661 168.08 140.987 169.409 143.447 171.005C150.486 175.445 157.525 179.886 164.771 184.407C168.599 186.747 172.561 189.353 174.988 192.866C175.863 194.276 176.52 196.246 176.766 198.057Z" fill="#C49FA4"/>
<path opacity="0.5" fill-rule="evenodd" clip-rule="evenodd" d="M283.646 183.687C275.798 186.224 266.984 188.815 259.859 189.487L251.354 190.054C245.358 181.085 233.212 176.382 222.29 172.797C210.34 168.814 198.317 165.017 186.366 161.033C169.537 155.589 152.501 150.065 134.989 148.217C121.822 146.765 109.919 148.16 98.5295 151.898L93.6211 148.068C101.797 146.516 112.299 146.294 115.48 146.025C126.137 144.79 137.072 143.449 147.964 144.664C166.444 146.458 183.776 154.884 201.429 160.646C228.563 169.436 257.584 172.739 283.646 183.687Z" fill="url(#paint7_linear_272_465)"/>
<path fill-rule="evenodd" clip-rule="evenodd" d="M85.26 74.2853L84.6045 84.5383L128.606 88.2799L145.535 83.6843L174.981 98.7301L248.528 107.478L257.679 109.52L271.104 95.634L268.405 112.387L279.955 115.572L253.497 111.761L177.018 100.805L146.559 92.6576L128.079 90.8635L83.8718 87.0421L71.806 85.8015L85.26 74.2853Z" fill="url(#paint8_linear_272_465)"/>
<path fill-rule="evenodd" clip-rule="evenodd" d="M268.405 112.386L254.754 110.961L189.155 101.859L177.017 100.805L146.558 92.6574L128.078 90.8632L81.6066 86.1652L71.8053 85.8012L64.9369 87.6449L122.662 92.6257L127.717 91.7956L146.526 94.5747L166.826 99.0035L178.939 105.623L202.702 105.389L254.711 113.517L279.954 115.571L268.405 112.386Z" fill="#FF8D85"/>
<path fill-rule="evenodd" clip-rule="evenodd" d="M239.526 158.242L262.133 160.991L271.415 167.587L253.719 164.381L239.526 158.242Z" fill="url(#paint9_linear_272_465)"/>
<path fill-rule="evenodd" clip-rule="evenodd" d="M239.526 158.242L255.47 162.915L271.415 167.587L253.286 165.5L239.526 158.242Z" fill="#D87785"/>
</g>
<g filter="url(#filter1_d_272_465)">
<path d="M135.016 115.272C135.175 113.839 135.215 113.587 135.108 113.44C135.028 113.331 134.807 113.296 133.452 113.052C131.967 112.819 131.84 112.799 131.332 112.526C130.613 112.154 130.273 111.842 129.798 111.152C129.008 109.992 128.717 108.748 128.886 107.252L128.946 106.873C129.124 105.734 129.57 104.541 130.283 103.292C131.043 101.954 131.683 101.179 132.853 100.326C133.803 99.6325 133.803 99.6325 134.973 99.8156L135.579 99.878L135.713 99.6399C135.848 99.4018 136.269 97.3301 136.447 96.1919C136.502 95.8442 136.541 95.5912 136.52 95.5231C136.503 95.4233 136.364 95.2721 136.248 95.1891C136.073 95.0645 135.762 94.9834 135.414 94.929C135.066 94.8746 134.714 94.8518 134.414 94.9021C134.183 94.9307 133.757 94.9612 133.463 94.9799C132.811 95.0074 132.165 95.198 131.486 95.6098C130.56 96.1451 129.212 97.1002 128.644 97.6266C126.329 99.7908 124.449 103.319 123.964 106.417C123.618 108.63 123.89 110.616 124.831 112.674C125.218 113.512 126.083 114.813 126.673 115.392C127.396 116.153 128.725 116.976 129.802 117.339C130.171 117.461 130.604 117.594 131.173 117.683C131.837 117.787 132.732 117.862 133.922 117.919C134.537 117.918 134.669 117.906 134.748 117.4L134.782 117.179C134.77 117.047 134.872 116.189 135.016 115.272ZM150.13 97.1996C149.606 96.826 149.156 96.5938 148.714 96.5245C148.555 96.4997 148.361 96.5017 148.198 96.5086C147.872 96.5223 147.745 96.5025 147.587 96.4778C147.429 96.453 147.271 96.4283 146.991 96.3522L146.739 96.3126C145.822 96.1691 144.762 96.5216 143.551 97.4332C140.35 99.8797 138.022 104.406 137.231 109.465C137.132 110.097 137.038 110.698 137.002 111.34C136.855 113.519 137.068 114.848 137.879 116.498C138.792 118.325 140.479 119.755 142.569 120.47C142.876 120.583 143.255 120.643 143.666 120.707C144.298 120.806 144.972 120.846 145.403 120.784C146.985 120.611 149.026 119.57 150.265 118.274C151.275 117.201 151.979 116.016 152.712 114.025C153.332 112.341 153.712 110.943 153.92 109.615C154.083 108.572 154.142 107.577 154.116 106.504C154.001 104.542 153.757 103.209 153.114 101.521C152.217 99.1781 151.539 98.1327 150.13 97.1996ZM147.127 114.317C146.749 114.873 145.94 115.492 145.326 115.687C145.121 115.752 144.895 115.749 144.674 115.715C144.389 115.67 144.11 115.594 143.813 115.418C143.184 115.093 142.956 114.895 142.694 114.498C142.294 113.949 142.109 113.273 142.116 112.399C142.105 111.847 142.232 110.83 142.39 109.819C142.548 108.807 142.738 107.8 142.912 107.309C143.418 105.736 144.237 104.018 144.865 103.113C145.197 102.646 145.197 102.646 145.879 102.429C146.456 102.26 146.655 102.227 147.103 102.264L147.356 102.304C147.577 102.339 147.767 102.368 147.888 102.42C148.126 102.554 148.18 102.627 148.438 103.251C148.811 104.184 148.897 104.456 149.01 105.186C149.191 106.51 149.193 107.742 149.005 108.943C148.931 109.417 148.862 109.86 148.724 110.324C148.201 112.218 147.672 113.528 147.127 114.317ZM171.858 99.855C171.158 99.7778 170.525 99.6788 170.178 99.6244L169.767 99.5601C169.45 99.5106 168.83 99.5431 168.72 99.6231C168.611 99.7031 168.544 99.9194 168.371 101.026C168.257 101.753 167.964 103.424 167.724 104.747C167.579 105.469 167.495 106.006 167.43 106.417C167.282 107.366 167.266 107.882 167.143 109.287C167.085 110.282 167.024 111.083 166.98 111.367L166.965 111.462C166.933 111.457 165.678 107.471 165.351 106.254C165.083 105.273 164.251 102.519 163.802 101.25C163.671 100.841 163.491 100.133 163.375 99.6287C163.253 98.9618 163.156 98.7523 163.035 98.7009C162.981 98.6278 162.891 98.5813 162.901 98.5181C162.916 98.4232 162.799 98.3402 162.547 98.3006C162.42 98.2808 162.262 98.2561 162.099 98.263C161.809 98.2501 161.167 98.2143 160.693 98.1401C159.839 98.0065 159.187 98.034 158.747 98.1594C158.61 98.2029 158.534 98.4824 158.376 99.4941L158.059 101.518C157.94 102.276 157.83 102.777 157.719 103.278C157.206 105.109 156.984 106.111 156.307 110.021C155.929 112.229 155.515 114.464 155.399 114.996C155.288 115.497 154.946 117.063 154.697 118.449C154.497 119.519 154.366 120.147 154.307 120.526C154.233 121 154.255 121.068 154.325 121.241C154.368 121.378 154.475 121.524 154.596 121.575C154.655 121.617 155.066 121.681 155.603 121.765C156.615 121.924 158.042 122.115 158.59 122.135C159.39 122.196 159.463 122.143 159.567 121.479C159.718 120.304 160.419 115.62 160.845 112.901L161.151 110.941L161.368 109.971L161.814 111.466C162.043 112.279 162.374 113.27 162.536 113.684C162.703 114.066 163.022 114.926 163.217 115.54C163.444 116.158 163.913 117.3 164.247 118.065C165.394 120.674 165.534 121.02 165.864 122.011C166.113 122.697 166.237 122.944 166.332 122.958L166.363 122.963C166.426 122.973 166.889 122.916 167.383 122.864C168.108 122.783 169.712 122.678 170.984 122.618C171.084 122.601 171.147 122.611 171.182 122.389C171.192 122.326 171.18 122.195 171.21 122.005C171.228 121.684 171.278 120.947 171.304 120.368C171.356 119.826 171.489 118.356 171.646 117.15C171.802 115.944 171.937 114.669 171.954 114.348C171.941 114.022 172.018 113.322 172.107 112.753C172.191 112.215 172.352 110.977 172.433 110.05C172.51 109.35 172.632 108.365 172.805 107.258C173.092 105.425 173.487 103.316 173.814 101.845C173.91 101.439 173.954 101.155 173.989 100.933C174.068 100.428 174.025 100.291 173.818 100.162C173.76 100.12 173.607 100.064 173.291 100.014C173.006 99.9699 172.527 99.9273 171.858 99.855ZM161.885 99.0069L161.89 98.9753C161.922 98.9802 161.922 98.9802 161.949 99.0168C162.002 99.0899 161.997 99.1215 161.992 99.1531L161.955 99.1798C161.892 99.1699 161.875 99.0701 161.885 99.0069ZM190.919 102.838C190.218 102.761 189.586 102.662 189.238 102.607L188.827 102.543C188.511 102.494 187.89 102.526 187.781 102.606C187.671 102.686 187.605 102.902 187.432 104.009C187.318 104.736 187.024 106.407 186.785 107.73C186.639 108.452 186.555 108.989 186.491 109.4C186.342 110.349 186.326 110.864 186.204 112.27C186.145 113.265 186.085 114.066 186.04 114.35L186.025 114.445C185.994 114.44 184.739 110.454 184.411 109.237C184.144 108.256 183.311 105.502 182.862 104.233C182.732 103.824 182.551 103.116 182.436 102.612C182.313 101.945 182.217 101.735 182.095 101.684C182.042 101.611 181.952 101.564 181.962 101.501C181.977 101.406 181.86 101.323 181.607 101.284C181.481 101.264 181.322 101.239 181.159 101.246C180.87 101.233 180.228 101.197 179.754 101.123C178.9 100.989 178.248 101.017 177.807 101.142C177.671 101.186 177.595 101.465 177.436 102.477L177.12 104.5C177.001 105.259 176.89 105.76 176.779 106.261C176.266 108.092 176.045 109.093 175.368 113.004C174.99 115.212 174.575 117.447 174.46 117.979C174.349 118.48 174.007 120.046 173.757 121.432C173.558 122.502 173.427 123.129 173.368 123.509C173.293 123.983 173.315 124.051 173.385 124.224C173.429 124.361 173.535 124.507 173.657 124.558C173.715 124.6 174.126 124.664 174.664 124.748C175.675 124.906 177.103 125.097 177.65 125.118C178.451 125.179 178.524 125.125 178.628 124.462C178.779 123.287 179.48 118.603 179.905 115.884L180.212 113.924L180.428 112.954L180.875 114.449C181.104 115.262 181.434 116.253 181.596 116.667C181.763 117.049 182.082 117.909 182.278 118.523C182.505 119.141 182.974 120.283 183.308 121.048C184.454 123.657 184.594 124.003 184.925 124.994C185.174 125.68 185.297 125.926 185.392 125.941L185.424 125.946C185.487 125.956 185.949 125.899 186.443 125.847C187.169 125.766 188.772 125.66 190.045 125.601C190.145 125.584 190.208 125.594 190.242 125.372C190.252 125.309 190.24 125.178 190.27 124.988C190.288 124.667 190.339 123.93 190.364 123.351C190.417 122.809 190.55 121.339 190.706 120.133C190.862 118.927 190.997 117.652 191.015 117.331C191.001 117.005 191.078 116.305 191.168 115.736C191.252 115.198 191.413 113.96 191.493 113.033C191.57 112.333 191.692 111.348 191.865 110.241C192.152 108.408 192.547 106.299 192.874 104.828C192.97 104.422 193.015 104.138 193.05 103.916C193.129 103.411 193.085 103.274 192.879 103.145C192.821 103.103 192.667 103.047 192.351 102.997C192.067 102.953 191.588 102.91 190.919 102.838ZM180.946 101.99L180.951 101.958C180.982 101.963 180.982 101.963 181.009 102C181.062 102.073 181.057 102.104 181.053 102.136L181.016 102.163C180.953 102.153 180.936 102.053 180.946 101.99ZM192.382 130.306C192.588 130.436 193.284 130.545 196.983 131.124C201.514 131.768 202.467 131.885 203.64 131.842C204.944 131.787 204.856 131.935 205.274 129.474L205.575 127.545L205.502 126.562C205.415 125.674 205.398 125.574 205.196 125.413C205.111 125.335 204.99 125.283 204.895 125.269L204.8 125.254C204.669 125.266 204.248 125.265 203.832 125.232C203.448 125.204 202.869 125.178 202.579 125.165C202.321 125.157 201.832 125.178 201.511 125.16C201.222 125.147 200.28 125.162 199.465 125.196C198.645 125.262 197.935 125.248 197.935 125.248C197.908 125.212 197.99 124.48 198.065 123.584C198.133 122.947 198.256 122.157 198.385 121.335C198.563 120.197 198.788 118.969 199.009 117.967L199.15 117.276L200.519 117.426L201.215 117.535C201.815 117.629 202.416 117.723 202.79 117.814C203.102 117.895 203.355 117.934 203.544 117.964C203.734 117.994 203.892 118.018 203.929 117.992C204.359 117.93 204.6 117.222 204.983 114.982L205.21 113.528L205.023 113.272L204.805 113.011L202.614 112.733C201.439 112.582 200.359 112.445 200.228 112.457L200.033 112.459L200.139 111.99C200.21 111.742 200.306 111.336 200.377 111.088L200.483 110.618L202.886 110.994C203.613 111.108 204.372 111.227 204.883 111.274C206.121 111.436 206.152 111.441 206.34 111.276C206.491 111.137 206.543 111.016 206.592 110.7C206.622 110.51 206.742 109.946 206.875 109.513C207.007 109.081 207.209 108.205 207.313 107.541L207.528 106.376L207.331 106.184C207.166 105.996 207.103 105.986 204.922 105.645C203.689 105.452 202.118 105.141 201.427 105.001C200.304 104.728 199.487 104.567 198.854 104.469C198.032 104.34 197.58 104.334 197.397 104.467C197.11 104.649 196.894 105.198 196.714 106.142C196.603 106.643 196.35 107.639 196.146 108.32C195.342 110.98 195.12 111.981 194.228 116.441C193.796 118.576 193.537 120.025 193.221 122.049L192.894 124.135C192.79 124.799 192.748 125.279 192.693 125.626C192.584 126.322 192.518 126.538 192.384 126.776C192.291 126.956 192.229 127.141 192.205 127.299C192.195 127.362 192.18 127.457 192.197 127.557C192.167 127.746 192.136 128.357 192.089 128.868C191.957 129.916 191.995 130.084 192.382 130.306ZM218.154 128.283C218.313 126.85 218.353 126.597 218.246 126.451C218.166 126.341 217.945 126.307 216.591 126.062C215.105 125.83 214.978 125.81 214.47 125.536C213.751 125.165 213.411 124.852 212.936 124.163C212.146 123.003 211.855 121.759 212.024 120.263L212.084 119.883C212.262 118.745 212.708 117.552 213.421 116.303C214.181 114.965 214.821 114.19 215.991 113.337C216.942 112.643 216.942 112.643 218.111 112.826L218.717 112.889L218.851 112.651C218.986 112.413 219.407 110.341 219.585 109.203C219.64 108.855 219.679 108.602 219.658 108.534C219.641 108.434 219.503 108.283 219.386 108.2C219.211 108.075 218.9 107.994 218.552 107.94C218.204 107.885 217.852 107.863 217.552 107.913C217.321 107.942 216.895 107.972 216.601 107.991C215.949 108.018 215.303 108.209 214.624 108.621C213.698 109.156 212.35 110.111 211.782 110.637C209.467 112.802 207.587 116.329 207.102 119.428C206.756 121.641 207.028 123.627 207.969 125.685C208.356 126.523 209.222 127.824 209.811 128.402C210.534 129.163 211.863 129.987 212.94 130.35C213.309 130.472 213.742 130.605 214.311 130.694C214.975 130.798 215.87 130.873 217.06 130.93C217.675 130.929 217.807 130.917 217.886 130.411L217.92 130.19C217.909 130.058 218.011 129.2 218.154 128.283ZM232.705 117.119C233.053 117.173 233.522 117.279 233.802 117.355C233.96 117.38 234.082 117.431 234.177 117.446C234.271 117.461 234.371 117.444 234.371 117.444C234.481 117.364 234.971 114.85 235.214 113.3C235.303 112.731 235.372 112.289 235.365 112.126C235.363 111.931 235.342 111.863 235.152 111.833C235.057 111.818 234.651 111.722 234.277 111.631C233.844 111.499 233.375 111.393 232.616 111.274C231.762 111.141 230.524 110.979 228.613 110.777C226.964 110.552 225.31 110.358 224.994 110.308C224.678 110.259 224.461 110.193 224.24 110.158C223.955 110.113 223.634 110.096 222.965 110.023C221.696 109.857 221.82 109.682 221.361 112.201C221.156 113.303 220.993 114.346 220.973 114.473C220.984 115.025 220.957 114.988 223.45 115.411C224.683 115.604 225.69 115.794 225.717 115.83C225.743 115.867 225.221 119.413 224.548 123.713C223.514 130.32 223.316 131.585 223.386 131.758C223.495 132.099 223.791 132.274 224.508 132.451C224.946 132.552 225.578 132.651 226.179 132.745C226.811 132.844 227.412 132.938 227.765 132.961C228.275 133.009 228.407 132.997 228.59 132.863C228.736 132.757 228.772 132.73 228.817 132.446L228.891 131.971C228.919 131.587 228.95 130.976 228.967 130.655C228.985 130.334 229.135 128.965 229.279 127.627C229.577 125.309 229.677 124.256 229.831 122.24C229.89 121.245 230.299 118.005 230.463 116.962L230.512 116.646L230.607 116.661C230.765 116.685 231.05 116.73 231.329 116.806C231.73 116.934 232.358 117.064 232.705 117.119ZM129.554 150.507C129.515 153.449 129.494 153.996 129.622 155.247C129.68 156.325 129.917 157.917 130.002 157.995L130.16 158.019C130.603 158.089 132.004 158.243 133.915 158.445L134.842 158.525L135.416 157.546C136.425 155.858 138.577 151.628 139.441 149.625L139.586 149.324L139.806 150.816C139.935 151.646 140.143 153.007 140.214 153.795C140.443 155.645 140.582 156.411 140.915 157.597C141.088 158.142 141.252 158.751 141.281 158.982C141.346 159.187 141.45 159.559 141.515 159.764C141.602 160.037 141.623 160.105 141.75 160.125L141.845 160.139C141.944 160.123 143.024 160.259 144.226 160.447L146.407 160.789L146.525 160.451C147.098 158.856 147.861 156.676 148.775 153.936C150.286 149.25 150.778 147.966 152.159 144.522C152.637 143.334 153.181 141.929 153.36 141.407C153.57 140.889 153.883 140.128 154.074 139.737C154.307 139.287 154.446 139.018 154.471 138.86C154.485 138.765 154.464 138.697 154.41 138.624C154.272 138.472 152.31 137.971 151.172 137.793L150.761 137.729C149.829 137.68 149.725 137.728 149.376 138.71C149.259 139.048 149.11 139.381 149.068 139.439C148.768 139.911 145.989 146.699 144.979 149.423L144.805 149.914L144.604 148.717C144.482 148.05 144.28 146.852 144.11 146.081C143.937 145.114 143.757 143.985 143.637 142.476C143.426 140.305 143.302 139.444 143.19 139.329L143.127 139.319C142.969 139.295 142.517 139.289 141.964 139.299C140.928 139.299 139.417 139.225 138.975 139.155C138.848 139.136 138.738 139.216 138.614 139.39C138.365 139.74 137.278 142.129 136.497 144.015C135.65 146.117 135.075 147.517 134.776 148.183L134.529 148.727L134.438 146.413C134.393 145.046 134.37 143.326 134.407 142.263C134.429 141.294 134.475 139.552 134.49 138.421C134.505 137.29 134.537 136.258 134.557 136.132C134.636 135.626 134.573 135.616 133.598 135.431C133.124 135.357 132.433 135.217 132.09 135.131C131.346 134.917 130.782 134.796 130.403 134.737C130.087 134.687 129.923 134.694 129.855 134.716C129.787 134.738 129.746 134.796 129.721 134.954C129.691 135.144 129.695 135.533 129.708 136.28C129.709 136.896 129.683 137.474 129.663 137.601C129.648 137.696 129.632 138.212 129.653 138.701C129.642 139.185 129.607 140.442 129.548 141.437C129.418 143.717 129.407 144.201 129.53 146.52C129.567 147.529 129.579 149.313 129.554 150.507ZM163.607 162.638C163.542 162.434 163.47 162.066 163.446 161.803C163.423 161.541 163.351 161.173 163.281 161C163.145 160.623 162.845 159.021 162.381 156.195C161.672 151.615 161.537 150.201 161.26 144.522C161.187 143.538 161.144 142.366 161.123 141.877C161.109 140.935 161.059 140.636 160.937 140.584C160.91 140.548 160.752 140.523 160.499 140.483C159.456 140.32 156.934 140.087 156.734 140.121C156.634 140.138 156.525 140.218 156.483 140.276C156.447 140.303 156.218 141.141 155.933 142.133C155.654 143.094 155.278 144.46 155.074 145.141C154.902 145.826 154.367 147.589 153.903 149.103C153.012 152.106 152.656 153.345 152.28 155.133C152.139 155.823 151.891 156.788 151.743 157.316C151.21 159.273 150.957 160.27 150.719 161.172C150.633 161.515 150.579 161.863 150.524 162.21C150.415 162.906 150.348 163.543 150.428 163.653C150.481 163.726 150.792 163.807 151.235 163.876C151.804 163.965 152.573 164.021 153.283 164.035C154.315 164.067 154.383 164.045 154.566 163.912C154.795 163.688 154.949 163.324 155.242 162.074C155.606 160.576 155.642 160.55 155.9 160.558C155.995 160.573 156.611 160.572 157.258 160.576C157.747 160.555 158.131 160.583 158.321 160.613L158.416 160.627C158.527 160.742 159.008 163.052 159.072 163.678C159.114 164.235 159.18 164.439 159.401 164.474C159.464 164.484 159.564 164.467 159.664 164.45C159.795 164.439 160.406 164.469 160.948 164.522C161.527 164.548 162.169 164.583 162.427 164.591C162.653 164.594 163.006 164.617 163.227 164.652C163.638 164.716 163.943 164.634 164.004 164.449L164.009 164.418C164.034 164.26 163.856 163.325 163.607 162.638ZM156.617 157.01L156.554 157C156.523 156.995 156.491 156.99 156.516 156.832C156.555 156.579 156.708 156.02 157.01 154.707C157.212 153.832 157.257 153.547 157.32 153.557C157.32 153.557 157.346 153.594 157.341 153.625C157.332 153.688 157.444 154.419 157.6 155.285C157.724 156.147 157.837 156.877 157.832 156.908C157.827 156.94 157.559 156.995 157.27 156.982C156.975 157.001 156.681 157.02 156.617 157.01ZM173.223 141.309C171.073 140.972 169.774 140.996 169.415 141.425C169.186 141.648 168.908 142.803 168.501 145.201C168.318 146.371 167.946 148.127 167.724 149.128C167.476 150.094 167.131 151.886 166.911 153.082C166.691 154.279 166.427 155.76 166.26 156.414C166.206 156.761 166.115 157.136 166.055 157.515C166.001 157.863 165.978 158.216 165.934 158.5C165.886 159.011 165.658 160.465 165.492 161.735C165.081 164.359 165.083 164.554 165.45 164.902C165.651 165.064 165.773 165.115 166.31 165.199C166.626 165.249 167.033 165.344 167.186 165.401C167.307 165.452 167.781 165.526 168.35 165.615L169.109 165.734C169.999 165.841 171.58 166.089 172.597 166.215C174.435 166.471 175.272 166.504 175.392 166.361C175.428 166.334 175.508 165.829 175.616 165.133L176.106 162.003L175.832 161.895C175.224 161.638 174.57 161.471 173.062 161.171L171.423 160.882L171.479 160.113C171.513 159.892 171.531 159.571 171.606 159.096C171.774 158.021 172.144 156.071 172.882 151.976C174.054 145.52 174.394 143.759 174.608 143.015C174.684 142.736 174.75 142.519 174.78 142.33C174.889 141.634 174.519 141.511 173.223 141.309ZM185.09 143.166C182.94 142.829 181.641 142.853 181.282 143.282C181.053 143.506 180.775 144.661 180.367 147.058C180.184 148.228 179.812 149.984 179.591 150.985C179.343 151.951 178.997 153.743 178.778 154.939C178.558 156.136 178.294 157.617 178.127 158.271C178.072 158.618 177.981 158.993 177.922 159.372C177.868 159.72 177.845 160.073 177.8 160.357C177.753 160.868 177.525 162.322 177.359 163.592C176.948 166.216 176.95 166.411 177.317 166.76C177.518 166.921 177.64 166.972 178.177 167.056C178.493 167.106 178.899 167.202 179.052 167.258C179.174 167.309 179.648 167.384 180.217 167.473L180.976 167.591C181.866 167.698 183.447 167.946 184.464 168.072C186.302 168.328 187.139 168.361 187.259 168.218C187.295 168.192 187.374 167.686 187.483 166.99L187.973 163.86L187.698 163.753C187.091 163.496 186.437 163.328 184.929 163.028L183.29 162.739L183.346 161.97C183.38 161.749 183.398 161.428 183.472 160.953C183.641 159.879 184.011 157.928 184.749 153.833C185.921 147.377 186.261 145.616 186.475 144.872C186.551 144.593 186.617 144.376 186.647 144.187C186.756 143.491 186.386 143.369 185.09 143.166ZM188.678 171.226C188.884 171.355 189.58 171.464 193.279 172.043C197.81 172.687 198.763 172.804 199.936 172.761C201.24 172.706 201.152 172.854 201.57 170.393L201.872 168.465L201.799 167.481C201.711 166.593 201.694 166.493 201.493 166.332C201.408 166.254 201.286 166.203 201.191 166.188L201.097 166.173C200.965 166.185 200.544 166.184 200.128 166.151C199.744 166.123 199.165 166.098 198.875 166.085C198.618 166.077 198.129 166.097 197.807 166.08C197.518 166.067 196.576 166.081 195.761 166.116C194.941 166.182 194.231 166.168 194.231 166.168C194.204 166.131 194.286 165.399 194.362 164.504C194.429 163.867 194.553 163.076 194.681 162.254C194.859 161.116 195.084 159.888 195.306 158.886L195.446 158.196L196.815 158.345L197.511 158.454C198.112 158.548 198.712 158.642 199.087 158.733C199.398 158.814 199.651 158.854 199.841 158.883C200.03 158.913 200.188 158.938 200.225 158.911C200.656 158.849 200.896 158.142 201.279 155.902L201.506 154.448L201.32 154.192L201.101 153.931L198.91 153.653C197.735 153.501 196.656 153.365 196.524 153.376L196.329 153.378L196.435 152.909C196.506 152.661 196.602 152.255 196.674 152.007L196.779 151.538L199.182 151.914C199.909 152.028 200.668 152.146 201.179 152.194C202.417 152.355 202.448 152.36 202.636 152.195C202.787 152.057 202.839 151.935 202.888 151.619C202.918 151.43 203.039 150.865 203.171 150.433C203.304 150 203.505 149.125 203.609 148.461L203.824 147.296L203.627 147.103C203.462 146.915 203.399 146.906 201.218 146.564C199.985 146.371 198.414 146.061 197.723 145.92C196.6 145.647 195.783 145.487 195.151 145.388C194.329 145.259 193.876 145.253 193.693 145.387C193.406 145.568 193.19 146.118 193.01 147.061C192.9 147.562 192.646 148.559 192.443 149.24C191.638 151.899 191.416 152.901 190.524 157.361C190.093 159.496 189.833 160.945 189.517 162.968L189.19 165.055C189.086 165.719 189.044 166.198 188.989 166.546C188.88 167.241 188.814 167.458 188.68 167.696C188.587 167.875 188.526 168.06 188.501 168.218C188.491 168.282 188.476 168.376 188.493 168.476C188.463 168.666 188.432 169.276 188.385 169.787C188.253 170.835 188.292 171.003 188.678 171.226ZM216.641 156.103C216.989 156.158 217.458 156.264 217.737 156.34C217.896 156.365 218.017 156.416 218.112 156.431C218.207 156.446 218.307 156.429 218.307 156.429C218.416 156.349 218.907 153.835 219.149 152.285C219.238 151.716 219.308 151.274 219.301 151.111C219.299 150.916 219.277 150.848 219.087 150.818C218.993 150.803 218.587 150.707 218.212 150.616C217.779 150.484 217.31 150.378 216.551 150.259C215.698 150.126 214.46 149.964 212.548 149.762C210.899 149.537 209.245 149.343 208.929 149.293C208.613 149.244 208.397 149.178 208.175 149.143C207.891 149.098 207.57 149.08 206.901 149.008C205.631 148.842 205.756 148.667 205.297 151.186C205.092 152.288 204.929 153.331 204.909 153.458C204.92 154.01 204.893 153.973 207.386 154.396C208.619 154.589 209.625 154.779 209.652 154.815C209.679 154.852 209.156 158.398 208.483 162.697C207.449 169.305 207.251 170.57 207.321 170.743C207.43 171.083 207.726 171.259 208.444 171.436C208.881 171.537 209.514 171.636 210.114 171.73C210.747 171.829 211.347 171.923 211.7 171.946C212.211 171.994 212.342 171.982 212.525 171.848C212.671 171.742 212.708 171.715 212.752 171.431L212.827 170.956C212.854 170.572 212.885 169.961 212.903 169.64C212.921 169.319 213.07 167.95 213.215 166.612C213.513 164.294 213.613 163.241 213.766 161.225C213.825 160.23 214.235 156.99 214.398 155.947L214.448 155.631L214.542 155.646C214.701 155.67 214.985 155.715 215.265 155.791C215.666 155.918 216.293 156.049 216.641 156.103Z" fill="white"/>
</g>
<defs>
<filter id="filter0_d_272_465" x="0.635437" y="0.156982" width="366.846" height="279.114" filterUnits="userSpaceOnUse" color-interpolation-filters="sRGB">
<feFlood flood-opacity="0" result="BackgroundImageFix"/>
<feColorMatrix in="SourceAlpha" type="matrix" values="0 0 0 0 0 0 0 0 0 0 0 0 0 0 0 0 0 0 127 0" result="hardAlpha"/>
<feOffset dx="4" dy="2"/>
<feGaussianBlur stdDeviation="30.5"/>
<feComposite in2="hardAlpha" operator="out"/>
<feColorMatrix type="matrix" values="0 0 0 0 0.917647 0 0 0 0 0.129412 0 0 0 0 0.529412 0 0 0 1 0"/>
<feBlend mode="normal" in2="BackgroundImageFix" result="effect1_dropShadow_272_465"/>
<feBlend mode="normal" in="SourceGraphic" in2="effect1_dropShadow_272_465" result="shape"/>
</filter>
<filter id="filter1_d_272_465" x="110.596" y="90.6011" width="132.172" height="96.4436" filterUnits="userSpaceOnUse" color-interpolation-filters="sRGB">
<feFlood flood-opacity="0" result="BackgroundImageFix"/>
<feColorMatrix in="SourceAlpha" type="matrix" values="0 0 0 0 0 0 0 0 0 0 0 0 0 0 0 0 0 0 127 0" result="hardAlpha"/>
<feOffset dx="1" dy="4"/>
<feGaussianBlur stdDeviation="3"/>
<feComposite in2="hardAlpha" operator="out"/>
<feColorMatrix type="matrix" values="0 0 0 0 0.952941 0 0 0 0 0.0470588 0 0 0 0 0.580392 0 0 0 1 0"/>
<feBlend mode="normal" in2="BackgroundImageFix" result="effect1_dropShadow_272_465"/>
<feBlend mode="normal" in="SourceGraphic" in2="effect1_dropShadow_272_465" result="shape"/>
</filter>
<linearGradient id="paint0_linear_272_465" x1="147.921" y1="216.479" x2="204.703" y2="69.819" gradientUnits="userSpaceOnUse">
<stop stop-color="#523184"/>
<stop offset="1" stop-color="#FF5C7A"/>
</linearGradient>
<linearGradient id="paint1_linear_272_465" x1="81.5191" y1="190.483" x2="131.779" y2="60.6696" gradientUnits="userSpaceOnUse">
<stop stop-color="#BA7CA5"/>
<stop offset="1" stop-color="#7213B6"/>
</linearGradient>
<linearGradient id="paint2_linear_272_465" x1="152.672" y1="135.55" x2="164.157" y2="105.884" gradientUnits="userSpaceOnUse">
<stop stop-color="#3B1074"/>
<stop offset="1" stop-color="#612F59"/>
</linearGradient>
<linearGradient id="paint3_linear_272_465" x1="91.202" y1="126.688" x2="291.744" y2="204.331" gradientUnits="userSpaceOnUse">
<stop stop-color="#3B1074"/>
<stop offset="1" stop-color="#612F59"/>
</linearGradient>
<linearGradient id="paint4_linear_272_465" x1="144.189" y1="214.746" x2="150.927" y2="197.342" gradientUnits="userSpaceOnUse">
<stop stop-color="#090D4C"/>
<stop offset="1" stop-color="#451053"/>
</linearGradient>
<linearGradient id="paint5_linear_272_465" x1="234.61" y1="142.81" x2="255.246" y2="89.51" gradientUnits="userSpaceOnUse">
<stop stop-color="#A73D7E"/>
<stop offset="1" stop-color="#FF5C7A"/>
</linearGradient>
<linearGradient id="paint6_linear_272_465" x1="95.4594" y1="104.101" x2="210.441" y2="148.619" gradientUnits="userSpaceOnUse">
<stop stop-color="#B87CBD"/>
<stop offset="1" stop-color="#451391"/>
</linearGradient>
<linearGradient id="paint7_linear_272_465" x1="99.717" y1="132.462" x2="276.88" y2="201.054" gradientUnits="userSpaceOnUse">
<stop stop-color="#977CFF"/>
<stop offset="1" stop-color="#4513B6"/>
</linearGradient>
<linearGradient id="paint8_linear_272_465" x1="83.158" y1="56.4976" x2="274.093" y2="130.422" gradientUnits="userSpaceOnUse">
<stop stop-color="#3B1074"/>
<stop offset="1" stop-color="#612F59"/>
</linearGradient>
<linearGradient id="paint9_linear_272_465" x1="254.687" y1="164.82" x2="256.953" y2="158.966" gradientUnits="userSpaceOnUse">
<stop stop-color="#3B1074"/>
<stop offset="1" stop-color="#612F59"/>
</linearGradient>
</defs>
</svg>
