<svg width="243" height="366" viewBox="0 0 243 366" fill="none" xmlns="http://www.w3.org/2000/svg">
<g opacity="0.71">
<path opacity="0.71" d="M230.558 187.743C229.705 216.053 222.335 243.784 209.021 268.781C208.499 269.801 207.924 270.82 207.349 271.84C195.931 292.402 180.607 310.535 162.237 325.22C156.718 329.675 150.931 333.787 144.908 337.533C132.121 345.556 118.391 351.966 104.03 356.616L100.999 357.583C74.9076 365.49 47.3798 367.465 20.4277 363.364C-6.52444 359.263 -32.2196 349.189 -54.779 333.88C-77.3385 318.57 -96.1921 298.411 -109.961 274.878C-123.73 251.344 -132.067 225.03 -134.362 197.86C-134.362 196.736 -134.519 195.585 -134.623 194.488C-136.298 168.479 -132.376 142.414 -123.123 118.05C-122.261 115.75 -121.32 113.476 -120.379 111.175C-115.424 99.5157 -109.294 88.3917 -102.083 77.9759C-98.6131 73.0781 -94.8878 68.3662 -90.923 63.8596C-90.2957 63.1015 -89.6684 62.3434 -88.9888 61.6114C-77.6864 48.8089 -64.6174 37.6828 -50.1759 28.5688C-49.1566 27.8892 -48.1634 27.2618 -47.1179 26.6867C-44.3474 24.9352 -41.4985 23.3406 -38.6235 21.7721C-37.7087 21.3016 -36.82 20.8049 -36.0098 20.3605C0.632431 1.44372 42.5942 -4.52241 83.0556 3.43177C123.517 11.386 160.099 32.7929 186.857 64.1733C187.877 65.3496 188.87 66.5521 189.811 67.7546C194.77 73.8507 199.319 80.2694 203.428 86.9684C204.212 88.2232 204.97 89.5826 205.702 90.7851C213.345 103.935 219.324 117.985 223.501 132.611C223.789 133.631 224.05 134.624 224.311 135.591C227.719 148.205 229.752 161.151 230.375 174.202C230.558 178.646 230.558 183.168 230.558 187.743Z" fill="url(#paint0_radial_162_9002)"/>
<g style="mix-blend-mode:multiply" opacity="0.5">
<path d="M226.454 221.413C226.454 221.413 142.451 227.896 125.227 197.311C108.003 166.725 90.4916 159.066 63.1004 162.308C35.7091 165.549 1.23489 187.586 -32.0371 178.672C-65.309 169.758 -128.586 134.99 -128.586 134.99C-134.022 151.825 -134.989 183.273 -134.989 183.273C-134.989 183.273 -120.144 235.974 -78.4558 239.189C-36.7678 242.405 57.1673 256.965 118.902 275.081C180.637 293.197 197.469 287.812 197.469 287.812C211.713 267.976 221.592 245.346 226.454 221.413ZM-73.9341 223.008C-78.2728 212.237 -50.4111 210.957 -45.1838 218.747C-39.9565 226.537 -64.7863 245.855 -73.9341 223.008ZM43.6808 173.784C69.6607 163.327 115.321 182.175 110.983 199.219C106.644 216.263 23.5295 182.044 43.6024 173.784H43.6808ZM95.9541 261.069C95.2223 245.907 113.675 255.841 117.987 263.684C122.3 271.526 96.4769 273.33 95.9019 261.069H95.9541ZM176.664 260.73C176.634 259.913 176.77 259.099 177.066 258.337C177.362 257.575 177.811 256.882 178.385 256.301C178.958 255.719 179.645 255.261 180.403 254.955C181.16 254.649 181.972 254.501 182.789 254.52C183.606 254.54 184.41 254.727 185.152 255.069C185.894 255.411 186.558 255.902 187.103 256.511C187.648 257.119 188.063 257.833 188.322 258.608C188.581 259.383 188.679 260.203 188.609 261.017C188.347 269.879 176.377 264.912 176.612 260.73H176.664Z" fill="#974D8B"/>
</g>
<g style="mix-blend-mode:soft-light" opacity="0.51">
<path d="M230.558 187.743C230.558 187.743 170.444 149.995 122.718 140.349C74.9926 130.703 22.4317 160.608 -38.4928 150.126C-70.0136 144.714 -99.4435 127.148 -120.379 111.254C-115.451 99.5893 -109.319 88.4713 -102.083 78.0803C-90.9752 89.2165 -60.2646 118.207 -31.5143 128.664C4.37135 141.734 37.4603 127.513 97.8883 130.99C149.639 133.97 213.151 165.209 230.297 174.123C230.558 178.646 230.558 183.168 230.558 187.743Z" fill="#5FCCCC"/>
</g>
<g style="mix-blend-mode:soft-light" opacity="0.51">
<path d="M-61.4409 279.29C-68.3932 284.126 -85.4343 278.872 -83.9706 275.499C-81.1479 269.121 -54.5146 274.48 -61.4409 279.29ZM-48.3725 269.356C-45.7589 265.618 -30.3382 268.363 -31.2269 270.768C-32.1155 273.173 -50.6203 272.755 -48.268 269.356H-48.3725ZM124.94 318.188C130.167 312.437 157.532 323.416 156.095 329.978C154.657 336.539 119.921 323.965 125.044 318.188H124.94ZM-2.31973 274.218C-71.216 260.599 -109.48 247.607 -125.397 241.359C-119.331 259.259 -110.513 276.104 -99.2606 291.289C-69.9875 291.733 -41.577 265.801 37.0682 290.112C74.6893 301.831 110.866 317.765 144.908 337.611C150.914 333.85 156.7 329.748 162.237 325.325C133.303 313.221 68.5107 288.178 -2.21516 274.218H-2.31973Z" fill="#5FCCCC"/>
</g>
<g style="mix-blend-mode:multiply" opacity="0.1">
<path d="M124.992 180.999C132.389 173.496 135.786 177.757 137.511 181.678C139.236 185.6 122.692 183.351 124.992 180.999Z" fill="#190024"/>
</g>
<g style="mix-blend-mode:multiply" opacity="0.1">
<path d="M127.919 119.514C135.316 112.012 138.714 116.247 140.413 120.168C142.112 124.089 125.619 121.919 127.919 119.514Z" fill="#190024"/>
</g>
<g style="mix-blend-mode:multiply" opacity="0.1">
<path d="M26.9011 317.247C34.2978 309.771 37.6955 314.005 39.4206 317.927C41.1456 321.848 24.6011 319.6 26.9011 317.247Z" fill="#190024"/>
</g>
<g style="mix-blend-mode:multiply" opacity="0.1">
<path d="M160.25 205.728C161.139 209.519 167.751 210.225 167.333 205.885C166.915 201.546 158.761 199.272 160.25 205.728Z" fill="#190024"/>
</g>
<g style="mix-blend-mode:multiply" opacity="0.1">
<path d="M22.8499 49.2204C23.7386 53.0108 30.3773 53.7167 29.9591 49.4033C29.5409 45.09 21.4647 42.7635 22.8499 49.2204Z" fill="#190024"/>
</g>
<g style="mix-blend-mode:soft-light" opacity="0.51">
<path d="M150.632 297.458C153.507 298.268 163.7 305.301 163.282 311.287C162.864 317.273 137.328 312.071 138.243 306.529C139.158 300.987 146.633 296.36 150.632 297.458Z" fill="#5FCCCC"/>
</g>
<g style="mix-blend-mode:soft-light" opacity="0.51">
<path d="M157.035 119.305C159.937 120.116 170.104 127.148 169.712 133.134C169.32 139.12 143.758 133.918 144.673 128.376C145.588 122.834 153.063 118.181 157.035 119.305Z" fill="#5FCCCC"/>
</g>
<g style="mix-blend-mode:soft-light" opacity="0.51">
<path d="M85.9177 45.4301C86.6234 48.3317 85.604 60.6966 80.0369 63.2323C74.4698 65.768 66.6811 40.8815 71.9607 39.0516C77.2403 37.2217 84.9245 41.4043 85.9177 45.4301Z" fill="#5FCCCC"/>
</g>
<g style="mix-blend-mode:soft-light" opacity="0.71">
<g style="mix-blend-mode:soft-light" opacity="0.71">
<path d="M126.011 90.5498C126.772 87.6995 126.871 84.7128 126.299 81.8186C126.233 81.3513 126.063 80.9047 125.802 80.5115C125.513 80.1514 125.132 79.8746 124.701 79.7093C124.269 79.544 123.802 79.4961 123.345 79.5705C122.229 79.6946 121.175 80.149 120.319 80.8755C119.462 81.6019 118.841 82.5674 118.536 83.6485C118.264 84.7371 118.257 85.8753 118.516 86.9671C118.776 88.0589 119.293 89.0724 120.026 89.9224C120.4 90.4133 120.867 90.8255 121.401 91.135C121.935 91.4446 122.525 91.6455 123.136 91.7261C123.754 91.7995 124.377 91.6503 124.895 91.3054C125.412 90.9604 125.789 90.4423 125.959 89.844C125.896 89.7693 125.814 89.7128 125.722 89.6803C125.63 89.6479 125.531 89.6406 125.435 89.6592C125.339 89.6779 125.25 89.7218 125.177 89.7864C125.103 89.8511 125.049 89.9341 125.018 90.027L126.011 90.5498Z" fill="#E9E9A8"/>
</g>
<g style="mix-blend-mode:soft-light" opacity="0.71">
<path d="M168.849 107.306C168.998 106.476 168.934 105.621 168.664 104.821C168.395 104.022 167.928 103.303 167.307 102.732C166.502 102.969 165.765 103.397 165.16 103.98C164.555 104.562 164.099 105.282 163.831 106.078C163.715 106.478 163.68 106.897 163.726 107.31C163.772 107.724 163.9 108.125 164.102 108.489C164.303 108.853 164.575 109.174 164.901 109.433C165.226 109.692 165.6 109.885 166 109.999C167.647 110.287 169.32 108.221 168.379 106.81L168.849 107.306Z" fill="#E9E9A8"/>
</g>
<g style="mix-blend-mode:soft-light" opacity="0.71">
<path d="M151.965 77.9498C151.656 76.9179 151.207 75.9329 150.632 75.022C150.632 75.022 150.475 74.7867 150.345 74.7606C150.219 74.7097 150.078 74.7097 149.952 74.7606C148.985 75.3095 148.855 77.061 147.731 77.1133C147.548 77.1133 147.313 77.1133 147.156 77.1133C146.999 77.1133 147.156 77.7668 147.287 78.0021C147.6 78.2968 147.974 78.5189 148.382 78.6528C148.79 78.7866 149.223 78.8288 149.65 78.7764C150.077 78.724 150.486 78.5783 150.85 78.3496C151.214 78.1209 151.524 77.8148 151.756 77.4531V77.9237L151.965 77.9498Z" fill="#E9E9A8"/>
</g>
<g style="mix-blend-mode:soft-light" opacity="0.71">
<path d="M180.898 70.8395C180.609 69.8127 180.169 68.8348 179.591 67.9378C179.524 67.8175 179.424 67.7181 179.304 67.6502C179.176 67.6101 179.039 67.6101 178.912 67.6502C177.945 68.1992 177.814 69.9245 176.69 69.9768C176.507 69.9768 176.272 69.9768 176.115 69.9768C175.959 69.9768 176.115 70.6042 176.246 70.8656C176.561 71.156 176.935 71.3744 177.343 71.5056C177.751 71.6368 178.182 71.6778 178.608 71.6255C179.033 71.5733 179.442 71.4292 179.806 71.2031C180.17 70.9771 180.48 70.6746 180.715 70.3166V70.7872L180.898 70.8395Z" fill="#E9E9A8"/>
</g>
<g style="mix-blend-mode:soft-light" opacity="0.71">
<path d="M167.124 82.7075C167.178 82.3222 167.144 81.9298 167.027 81.5589C166.909 81.1881 166.71 80.8482 166.445 80.564C166.158 80.7636 165.918 81.0221 165.739 81.3221C165.642 81.4648 165.591 81.6333 165.591 81.8057C165.591 81.9781 165.642 82.1465 165.739 82.2893C166.053 82.6552 166.602 82.5768 167.072 82.4723L166.863 82.8121L167.124 82.7075Z" fill="#E9E9A8"/>
</g>
<g style="mix-blend-mode:soft-light" opacity="0.71">
<path d="M161.949 80.3286C161.894 80.1157 161.775 79.9244 161.609 79.7796C161.414 79.7139 161.203 79.7139 161.008 79.7796C160.43 79.7794 159.852 79.7269 159.283 79.6228L161.113 81.871C161.135 81.93 161.135 81.9949 161.113 82.0539C161.113 82.3154 160.904 82.5245 160.825 82.7859C160.747 83.0473 161.061 83.4917 161.426 83.6747C163.962 84.8772 162.289 81.4788 161.949 80.3286Z" fill="#E9E9A8"/>
</g>
<g style="mix-blend-mode:soft-light" opacity="0.71">
<path d="M134.427 70.0291C134.372 69.8162 134.253 69.6249 134.088 69.4801C133.893 69.4144 133.681 69.4144 133.486 69.4801C132.908 69.4798 132.331 69.4273 131.761 69.3232C132.363 70.0552 132.964 70.8133 133.591 71.5453C133.6 71.6147 133.6 71.685 133.591 71.7544C133.591 72.0158 133.382 72.2249 133.303 72.4863C133.225 72.7477 133.539 73.1921 133.879 73.3751C136.466 74.5776 134.767 71.1793 134.427 70.0291Z" fill="#E9E9A8"/>
</g>
<g style="mix-blend-mode:soft-light" opacity="0.71">
<path d="M169.869 63.4153L169.372 62.7356C169.147 62.9029 168.98 63.1369 168.896 63.4045C168.811 63.672 168.813 63.9594 168.902 64.2256C168.958 64.3503 169.046 64.4585 169.156 64.5401C169.266 64.6217 169.395 64.6741 169.531 64.6924C169.666 64.7107 169.804 64.6942 169.932 64.6446C170.06 64.595 170.173 64.5138 170.261 64.4086C170.444 64.1211 170.574 63.5721 170.888 63.7551L169.869 63.4153Z" fill="#E9E9A8"/>
</g>
<g style="mix-blend-mode:soft-light" opacity="0.71">
<path d="M127.527 62.7879C127.505 62.9792 127.437 63.1624 127.33 63.3221C127.222 63.4818 127.078 63.6133 126.909 63.7056C126.74 63.7978 126.551 63.8481 126.358 63.8521C126.166 63.8562 125.975 63.814 125.802 63.7289C125.629 63.6289 125.486 63.4856 125.385 63.313C125.284 63.1405 125.23 62.9448 125.228 62.7451C125.226 62.5453 125.276 62.3485 125.374 62.174C125.471 61.9995 125.611 61.8533 125.782 61.7498C125.953 61.6463 126.148 61.589 126.347 61.5837C126.547 61.5783 126.745 61.625 126.921 61.7192C127.097 61.8134 127.245 61.9519 127.352 62.1209C127.458 62.2899 127.519 62.4838 127.527 62.6833V62.7879Z" fill="#E9E9A8"/>
</g>
<g style="mix-blend-mode:soft-light" opacity="0.71">
<path d="M137.616 71.127C138.113 71.5191 138.688 72.1465 138.374 72.6954C138.06 73.2444 137.276 73.1137 136.701 72.9307C136.126 72.7477 136.178 72.7216 136.126 72.4602C136.074 72.1988 137.276 71.7282 137.25 71.1008C137.407 71.1008 137.616 71.2838 137.485 71.3884L137.616 71.127Z" fill="#E9E9A8"/>
</g>
<g style="mix-blend-mode:soft-light" opacity="0.71">
<path d="M177.893 115.646C177.837 115.184 177.677 114.741 177.423 114.351C177.169 113.961 176.829 113.635 176.429 113.397C175.566 113.031 174.338 113.528 174.312 114.469C174.298 114.605 174.312 114.742 174.353 114.872C174.393 115.002 174.459 115.123 174.547 115.227C174.647 115.346 174.761 115.451 174.887 115.541C175.378 115.948 176 116.162 176.638 116.142C176.793 116.132 176.944 116.092 177.083 116.023C177.222 115.955 177.346 115.86 177.448 115.743C177.55 115.626 177.628 115.491 177.677 115.344C177.726 115.197 177.746 115.042 177.736 114.887L177.893 115.646Z" fill="#E9E9A8"/>
</g>
<g style="mix-blend-mode:soft-light" opacity="0.71">
<path d="M197.338 126.154C197.07 126.188 196.816 126.297 196.606 126.468C196.423 126.677 196.397 126.991 196.267 127.226C196.136 127.461 195.3 128.063 194.881 128.559C194.616 129.049 194.477 129.597 194.477 130.154C194.477 130.711 194.616 131.259 194.881 131.749C194.881 132.01 195.09 132.297 195.352 132.35C195.53 132.41 195.723 132.41 195.901 132.35C197.155 131.879 197.939 133.056 199.116 132.925C199.551 132.81 199.96 132.61 200.319 132.337C200.678 132.064 200.979 131.723 201.206 131.333C201.433 130.944 201.581 130.513 201.642 130.066C201.702 129.62 201.674 129.165 201.559 128.729C201.444 128.293 201.245 127.884 200.972 127.525C200.698 127.167 200.357 126.865 199.968 126.638C199.578 126.411 199.148 126.263 198.701 126.203C198.255 126.142 197.8 126.17 197.364 126.285L197.338 126.154Z" fill="#E9E9A8"/>
</g>
<g style="mix-blend-mode:soft-light" opacity="0.71">
<path d="M167.647 92.0661C167.814 92.2308 167.932 92.4391 167.987 92.6673C167.687 92.6337 167.399 92.5313 167.145 92.3681C166.891 92.2049 166.678 91.9852 166.523 91.7262C166.314 91.4648 166.105 91.0988 166.262 90.7851C166.419 90.4714 166.654 90.5237 166.837 90.3669C167.02 90.21 167.386 89.4258 167.856 89.4781C167.985 89.5081 168.1 89.5818 168.181 89.6865C168.262 89.7913 168.304 89.9208 168.3 90.0532C168.296 90.3196 168.224 90.5805 168.091 90.8113C167.83 91.3603 167.595 91.8831 167.333 92.4059L167.647 92.0661Z" fill="#E9E9A8"/>
</g>
<g style="mix-blend-mode:soft-light" opacity="0.71">
<path d="M161.113 98.6015C161.113 98.1048 160.303 98.0264 160.015 98.4446C159.917 98.6671 159.867 98.9074 159.867 99.1505C159.867 99.3935 159.917 99.6339 160.015 99.8563C160.354 99.8254 160.677 99.6947 160.942 99.4807C161.207 99.2667 161.403 98.979 161.505 98.6538L161.113 98.6015Z" fill="#E9E9A8"/>
</g>
<g style="mix-blend-mode:soft-light" opacity="0.71">
<path d="M159.649 91.4386C159.597 91.2042 159.499 90.9823 159.362 90.7851C159.302 90.6774 159.207 90.5931 159.093 90.5456C158.98 90.4982 158.853 90.4905 158.734 90.5237C158.368 90.6544 158.316 91.1772 158.029 91.4386C157.741 91.7001 157.245 91.7523 157.062 92.1183C156.879 92.4843 157.245 92.9026 157.637 92.981C158.028 93.0041 158.415 92.8934 158.734 92.6673C159.061 92.5296 159.336 92.2916 159.519 91.9876C159.618 91.8426 159.659 91.6658 159.635 91.4918C159.611 91.3178 159.523 91.159 159.388 91.0465L159.649 91.4386Z" fill="#E9E9A8"/>
</g>
<g style="mix-blend-mode:soft-light" opacity="0.71">
<path d="M158.578 88.4064C158.568 88.4617 158.548 88.5147 158.518 88.562C158.487 88.6093 158.448 88.65 158.401 88.6817C158.355 88.7134 158.303 88.7355 158.248 88.7466C158.193 88.7576 158.136 88.7575 158.081 88.7462C157.967 88.7225 157.86 88.6754 157.765 88.6079C157.671 88.5404 157.591 88.454 157.532 88.3541C157.453 88.2263 157.4 88.0841 157.375 87.9358C157.375 87.858 157.391 87.7811 157.421 87.7095C157.452 87.638 157.497 87.5734 157.553 87.5196C157.609 87.4659 157.676 87.4241 157.748 87.3967C157.821 87.3694 157.899 87.3572 157.976 87.3607C158.134 87.3803 158.277 87.4585 158.379 87.5797C158.481 87.7009 158.533 87.8561 158.525 88.0142C158.503 88.1701 158.429 88.3139 158.315 88.4229C158.201 88.5318 158.055 88.5996 157.898 88.6155L158.578 88.4064Z" fill="#E9E9A8"/>
</g>
<g style="mix-blend-mode:soft-light" opacity="0.71">
<path d="M126.011 94.7848C125.986 94.8918 125.92 94.9848 125.827 95.0435C125.734 95.1022 125.622 95.1219 125.515 95.0984C125.401 95.0748 125.293 95.0277 125.199 94.9602C125.104 94.8927 125.025 94.8062 124.966 94.7063C124.888 94.5897 124.843 94.4543 124.835 94.3142C124.835 94.2364 124.851 94.1595 124.881 94.0879C124.912 94.0164 124.956 93.9518 125.013 93.898C125.069 93.8443 125.135 93.8025 125.208 93.7752C125.281 93.7478 125.359 93.7356 125.436 93.7391C125.593 93.7587 125.737 93.8369 125.839 93.9581C125.941 94.0793 125.993 94.2346 125.985 94.3926C125.963 94.5485 125.889 94.6923 125.775 94.8013C125.661 94.9102 125.514 94.978 125.358 94.9939L126.011 94.7848Z" fill="#E9E9A8"/>
</g>
<g style="mix-blend-mode:soft-light" opacity="0.71">
<path d="M161.479 87.2823C161.595 87.2505 161.7 87.1896 161.786 87.1055C161.872 87.0214 161.934 86.9169 161.968 86.8017C162.003 86.6865 162.007 86.5646 161.98 86.4474C161.954 86.3303 161.898 86.2217 161.819 86.1321C161.563 86.1755 161.327 86.2938 161.139 86.4719C161.065 86.5746 161.025 86.6981 161.025 86.8248C161.025 86.9516 161.065 87.0751 161.139 87.1777C161.172 87.2319 161.217 87.2767 161.272 87.3078C161.327 87.3389 161.389 87.3552 161.453 87.3552C161.516 87.3552 161.578 87.3389 161.633 87.3078C161.688 87.2767 161.734 87.2319 161.766 87.1777L161.479 87.2823Z" fill="#E9E9A8"/>
</g>
<g style="mix-blend-mode:soft-light" opacity="0.71">
<path d="M128.416 51.5472C128.531 51.5196 128.638 51.4622 128.724 51.3807C128.811 51.2992 128.874 51.1965 128.909 51.0827C128.943 50.969 128.947 50.8483 128.92 50.7325C128.893 50.6168 128.836 50.5101 128.756 50.4231C128.5 50.4666 128.264 50.5848 128.076 50.7629C128.002 50.8656 127.962 50.9891 127.962 51.1158C127.962 51.2426 128.002 51.3661 128.076 51.4687C128.109 51.5229 128.155 51.5677 128.21 51.5988C128.265 51.6299 128.327 51.6462 128.39 51.6462C128.453 51.6462 128.515 51.6299 128.57 51.5988C128.625 51.5677 128.671 51.5229 128.703 51.4687L128.416 51.5472Z" fill="#E9E9A8"/>
</g>
<g style="mix-blend-mode:soft-light" opacity="0.71">
<path d="M118.17 74.4993C118.306 74.2319 118.376 73.9363 118.376 73.6366C118.376 73.3368 118.306 73.0413 118.17 72.7739L116.916 73.5059C116.71 73.6005 116.53 73.7441 116.393 73.9242C116.348 74.0264 116.324 74.1372 116.325 74.249C116.326 74.3609 116.351 74.4714 116.398 74.5729C116.445 74.6744 116.513 74.7647 116.598 74.8376C116.683 74.9106 116.782 74.9646 116.89 74.996C117.106 75.0429 117.332 75.0231 117.538 74.9391C117.743 74.8551 117.918 74.7109 118.04 74.5254L118.17 74.4993Z" fill="#E9E9A8"/>
</g>
<g style="mix-blend-mode:soft-light" opacity="0.71">
<path d="M131.5 79.4398L132.99 81.5834C132.755 81.9755 132.18 81.7141 131.84 81.4004C131.472 81.1351 131.197 80.7599 131.056 80.3286C131.024 80.2238 131.016 80.1136 131.03 80.0052C131.043 79.8967 131.08 79.7924 131.136 79.6988C131.193 79.6053 131.269 79.5246 131.358 79.462C131.448 79.3994 131.55 79.3562 131.657 79.3352L131.5 79.4398Z" fill="#E9E9A8"/>
</g>
<g style="mix-blend-mode:soft-light" opacity="0.71">
<path d="M192.372 100.719C192.476 100.602 192.548 100.461 192.581 100.309C192.615 100.157 192.609 99.9993 192.565 99.8501C192.52 99.7009 192.438 99.5656 192.327 99.4568C192.216 99.3481 192.078 99.2696 191.928 99.2287C191.611 99.1734 191.285 99.2324 191.007 99.3951C190.73 99.5579 190.519 99.8139 190.412 100.118C190.309 100.378 190.309 100.668 190.412 100.928C190.531 101.107 190.704 101.245 190.906 101.32C191.108 101.395 191.328 101.404 191.536 101.346C191.933 101.215 192.298 101.001 192.608 100.719H192.372Z" fill="#E9E9A8"/>
</g>
<g style="mix-blend-mode:soft-light" opacity="0.71">
<path d="M135.002 68.4606C135.218 68.2523 135.366 67.9835 135.427 67.6897C135.487 67.3958 135.458 67.0905 135.342 66.8137C134.908 66.8436 134.5 67.0293 134.192 67.3366C133.985 67.53 133.85 67.7892 133.812 68.0704C133.774 68.3515 133.834 68.6372 133.983 68.8789C134.349 69.2971 135.264 69.088 135.238 68.5391L135.002 68.4606Z" fill="#E9E9A8"/>
</g>
<g style="mix-blend-mode:soft-light" opacity="0.71">
<path d="M133.33 74.3162C133.328 74.5189 133.257 74.715 133.129 74.8719C133 75.0288 132.822 75.1371 132.624 75.1788L131.866 74.0809C131.961 73.9611 132.083 73.8643 132.221 73.7978C132.359 73.7313 132.51 73.6968 132.663 73.6968C132.816 73.6968 132.967 73.7313 133.105 73.7978C133.243 73.8643 133.365 73.9611 133.46 74.0809L133.33 74.3162Z" fill="#E9E9A8"/>
</g>
<g style="mix-blend-mode:soft-light" opacity="0.71">
<path d="M181.865 107.123L180.637 108.796C180.514 108.951 180.425 109.129 180.376 109.319C180.366 109.528 180.411 109.735 180.506 109.92C180.768 110.6 181.238 111.411 181.996 111.384C182.754 111.358 183.094 110.339 183.46 109.607C184.113 108.247 187.589 106.025 186.282 104.379C184.976 102.732 182.623 106.235 181.865 107.123Z" fill="#E9E9A8"/>
</g>
<g style="mix-blend-mode:soft-light" opacity="0.71">
<path d="M188.739 97.6081L189.131 97.9741C188.766 98.1655 188.366 98.2811 187.955 98.314C187.752 98.3255 187.55 98.2706 187.38 98.1574C187.21 98.0443 187.082 97.879 187.014 97.6866C187.014 97.2683 187.302 96.7978 187.694 96.9285C188.084 97.0678 188.427 97.3121 188.687 97.6343L188.739 97.6081Z" fill="#E9E9A8"/>
</g>
<g style="mix-blend-mode:soft-light" opacity="0.71">
<path d="M156.278 94.9154C156.251 95.0846 156.175 95.2421 156.058 95.3678C155.942 95.4935 155.791 95.5817 155.624 95.6212C155.458 95.6596 155.284 95.6506 155.122 95.5951C154.96 95.5397 154.817 95.44 154.709 95.3075C154.579 95.0984 154.553 94.7847 154.709 94.6801C154.804 94.6558 154.903 94.6558 154.997 94.6801H156.304V94.8893L156.278 94.9154Z" fill="#E9E9A8"/>
</g>
<g style="mix-blend-mode:soft-light" opacity="0.71">
<path d="M149.848 96.8237C149.43 96.6669 149.038 97.0067 148.75 97.3466C148.463 97.6864 148.149 98.0262 147.731 97.9739C147.67 97.9744 147.611 97.9574 147.56 97.9249C147.509 97.8925 147.469 97.8459 147.443 97.791C147.313 97.5295 147.652 97.2943 147.835 97.059C147.949 96.8528 148.037 96.6333 148.097 96.4055C148.22 96.1453 148.417 95.9271 148.663 95.7783C148.91 95.6296 149.195 95.5567 149.482 95.5689C149.609 95.6539 149.71 95.7718 149.774 95.9101C149.839 96.0483 149.864 96.2015 149.848 96.3532C149.819 96.5033 149.75 96.643 149.649 96.7578C149.548 96.8727 149.418 96.9586 149.273 97.0067L149.848 96.8237Z" fill="#E9E9A8"/>
</g>
<g style="mix-blend-mode:soft-light" opacity="0.71">
<path d="M148.698 92.7457L148.515 92.2751C148.38 92.2749 148.249 92.318 148.141 92.398C148.033 92.478 147.953 92.5908 147.914 92.7195C147.899 92.7833 147.897 92.8495 147.909 92.9139C147.921 92.9784 147.946 93.0396 147.983 93.0938C148.02 93.1479 148.067 93.1937 148.123 93.2283C148.179 93.2629 148.241 93.2855 148.306 93.2947C148.371 93.2957 148.436 93.2822 148.496 93.2551C148.556 93.228 148.609 93.1881 148.651 93.1381C148.694 93.0881 148.725 93.0294 148.742 92.966C148.759 92.9027 148.762 92.8364 148.75 92.7718L148.698 92.7457Z" fill="#E9E9A8"/>
</g>
<g style="mix-blend-mode:soft-light" opacity="0.71">
<path d="M137.276 91.8048L137.093 91.3604C136.96 91.3493 136.827 91.3851 136.718 91.4614C136.608 91.5377 136.528 91.6499 136.492 91.7786C136.477 91.8439 136.475 91.9117 136.487 91.9777C136.498 92.0438 136.523 92.1068 136.56 92.163C136.596 92.2192 136.644 92.2674 136.7 92.3047C136.756 92.3419 136.818 92.3675 136.884 92.3799C136.95 92.3809 137.015 92.3674 137.075 92.3403C137.134 92.3133 137.187 92.2733 137.23 92.2233C137.272 92.1734 137.303 92.1146 137.32 92.0513C137.337 91.9879 137.34 91.9216 137.328 91.8571L137.276 91.8048Z" fill="#E9E9A8"/>
</g>
<g style="mix-blend-mode:soft-light" opacity="0.71">
<path d="M164.667 85.6875C164.667 86.0012 165.059 86.1842 165.373 86.1058C165.687 86.0274 165.896 85.7398 166.183 85.6352C166.334 85.5632 166.5 85.5259 166.667 85.5259C166.834 85.5259 166.999 85.5632 167.15 85.6352C167.241 85.6649 167.322 85.7201 167.382 85.7942C167.442 85.8684 167.48 85.9585 167.49 86.0535C167.486 86.1862 167.441 86.3144 167.36 86.4195C167.079 86.9823 166.643 87.4537 166.105 87.7788C165.841 87.952 165.532 88.0443 165.216 88.0443C164.901 88.0443 164.592 87.952 164.328 87.7788C164.158 87.6376 164.029 87.4532 163.955 87.245C163.881 87.0368 163.865 86.8125 163.908 86.5958C163.951 86.3791 164.051 86.1779 164.198 86.0134C164.346 85.849 164.535 85.7274 164.746 85.6614L164.667 85.6875Z" fill="#E9E9A8"/>
</g>
<g style="mix-blend-mode:soft-light" opacity="0.71">
<path d="M121.908 33.8495C121.908 34.1631 122.3 34.3723 122.614 34.2677C122.927 34.1632 123.136 33.9279 123.424 33.7972C123.577 33.7317 123.741 33.698 123.907 33.698C124.074 33.698 124.238 33.7317 124.391 33.7972C124.574 33.7972 124.731 34.0324 124.731 34.2416C124.727 34.3664 124.681 34.4863 124.6 34.5814C124.313 35.1469 123.88 35.6253 123.345 35.9669C123.081 36.1401 122.772 36.2323 122.457 36.2323C122.141 36.2323 121.832 36.1401 121.568 35.9669C121.398 35.8257 121.269 35.6413 121.196 35.4331C121.122 35.2249 121.105 35.0006 121.148 34.7839C121.191 34.5672 121.291 34.366 121.439 34.2015C121.586 34.0371 121.775 33.9155 121.986 33.8495H121.908Z" fill="#E9E9A8"/>
</g>
<g style="mix-blend-mode:soft-light" opacity="0.71">
<path d="M167.83 77.8191C167.868 77.7249 167.886 77.624 167.884 77.5225C167.882 77.4211 167.859 77.3211 167.818 77.2284C167.777 77.1358 167.717 77.0524 167.643 76.9832C167.568 76.9141 167.481 76.8605 167.386 76.8257C167.196 76.7713 166.995 76.7667 166.803 76.8125C166.61 76.8583 166.433 76.9529 166.288 77.0872C166.217 77.1342 166.164 77.203 166.135 77.2832C166.107 77.3633 166.106 77.4505 166.131 77.5316C166.214 77.6184 166.325 77.6738 166.445 77.6884L167.882 77.9498L167.83 77.8191Z" fill="#E9E9A8"/>
</g>
<g style="mix-blend-mode:soft-light" opacity="0.71">
<path d="M121.594 50.0833C122.6 49.8177 123.462 49.1707 123.999 48.2795C124.059 48.1195 124.059 47.943 123.999 47.7829C123.999 47.3907 123.345 47.4953 122.953 47.4953C122.561 47.4953 121.725 46.8941 121.045 46.8679C120.493 46.917 119.976 47.1574 119.582 47.5476C118.954 48.0181 118.275 48.8285 118.693 49.482C118.83 49.6402 118.998 49.7684 119.187 49.8584C119.376 49.9483 119.582 49.9982 119.791 50.0049C120.656 50.1541 121.54 50.1541 122.404 50.0049L121.594 50.0833Z" fill="#E9E9A8"/>
</g>
<g style="mix-blend-mode:soft-light" opacity="0.71">
<path d="M150.501 61.4809C151.129 61.4809 151.39 60.749 151.442 60.1216C151.478 59.9328 151.47 59.7385 151.421 59.5529C151.371 59.3674 151.28 59.1954 151.155 59.0498C150.737 58.7099 150.135 59.0498 149.717 59.2851L148.567 60.0432C148.477 60.0915 148.397 60.1584 148.334 60.2395C148.271 60.3206 148.226 60.414 148.201 60.5137C148.201 60.6025 148.219 60.6903 148.255 60.7714C148.291 60.8525 148.344 60.9251 148.41 60.9842C148.995 61.6737 149.716 62.2345 150.528 62.6311L150.501 61.4809Z" fill="#E9E9A8"/>
</g>
<g style="mix-blend-mode:soft-light" opacity="0.71">
<path d="M143.732 80.564C149.09 82.0018 150.188 75.5972 146.032 73.3229C141.876 71.0486 139.08 79.3354 143.732 80.564Z" fill="#E9E9A8"/>
</g>
<g style="mix-blend-mode:soft-light" opacity="0.71">
<path d="M167.83 99.804C167.708 99.9614 167.551 100.089 167.372 100.176C167.193 100.264 166.997 100.31 166.798 100.31C166.598 100.31 166.402 100.264 166.223 100.176C166.044 100.089 165.887 99.9614 165.765 99.804C166.123 99.2831 166.621 98.8749 167.203 98.6276C167.348 98.5752 167.503 98.5535 167.658 98.5637C167.812 98.574 167.963 98.616 168.1 98.6872C168.237 98.7583 168.359 98.8571 168.456 98.9773C168.554 99.0975 168.625 99.2366 168.666 99.3857L168.065 100.301L167.83 99.804Z" fill="#E9E9A8"/>
</g>
<g style="mix-blend-mode:soft-light" opacity="0.71">
<path d="M153.037 110.025L152.514 109.293C151.709 109.996 150.765 110.521 149.743 110.836C149.228 110.938 148.727 111.105 148.254 111.332C148.014 111.449 147.808 111.626 147.657 111.846C147.506 112.066 147.414 112.321 147.391 112.587C147.391 113.58 148.62 114.077 149.613 113.999C150.24 113.989 150.857 113.838 151.418 113.558C151.979 113.277 152.47 112.874 152.854 112.378C153.223 111.869 153.423 111.256 153.423 110.626C153.423 109.997 153.223 109.384 152.854 108.875L151.834 109.555L153.037 110.025Z" fill="#E9E9A8"/>
</g>
<g style="mix-blend-mode:soft-light" opacity="0.71">
<path d="M147.156 103.281C147.391 102.941 147.156 102.758 146.685 102.889C146.244 103.064 145.83 103.301 145.457 103.594L142.843 105.477C142.321 105.843 141.746 106.287 141.641 106.653C141.537 107.019 141.955 107.071 142.399 106.94C142.879 106.773 143.336 106.544 143.758 106.261C145.274 105.372 147.025 104.117 147.365 103.019L146.502 103.202L147.156 103.281Z" fill="#E9E9A8"/>
</g>
<g style="mix-blend-mode:soft-light" opacity="0.71">
<path d="M144.307 97.9739C144.308 98.0199 144.298 98.0655 144.279 98.1074C144.26 98.1493 144.232 98.1866 144.197 98.2165C144.163 98.2464 144.122 98.2683 144.077 98.2806C144.033 98.2929 143.986 98.2953 143.941 98.2876C143.758 98.2441 143.593 98.1434 143.471 98.0001C143.354 97.9071 143.272 97.7786 143.235 97.6341C143.202 97.4916 143.217 97.3421 143.279 97.2094C143.34 97.0767 143.445 96.9685 143.575 96.9021C143.703 96.8312 143.847 96.7939 143.993 96.7939C144.14 96.7939 144.284 96.8312 144.412 96.9021C144.526 96.9856 144.609 97.1054 144.647 97.242C144.663 97.3147 144.65 97.3907 144.611 97.4541C144.572 97.5174 144.51 97.5632 144.438 97.5818L144.307 97.9739Z" fill="#E9E9A8"/>
</g>
<g style="mix-blend-mode:soft-light" opacity="0.71">
<path d="M154.762 71.3883C155.331 70.8059 155.839 70.1665 156.278 69.48C156.21 69.3915 156.123 69.3195 156.023 69.2697C155.924 69.2199 155.814 69.1934 155.703 69.1925C155.407 69.171 155.11 69.2104 154.83 69.3081C154.551 69.4059 154.294 69.5599 154.076 69.7608C153.858 69.9617 153.683 70.2051 153.563 70.476C153.443 70.7469 153.379 71.0396 153.376 71.336C153.372 71.4269 153.386 71.5176 153.418 71.6029C153.449 71.6883 153.497 71.7664 153.559 71.8327C153.654 71.9028 153.768 71.9406 153.886 71.9406C154.004 71.9406 154.118 71.9028 154.213 71.8327C154.417 71.7123 154.594 71.5523 154.735 71.3622L154.762 71.3883Z" fill="#E9E9A8"/>
</g>
<g style="mix-blend-mode:soft-light" opacity="0.71">
<path d="M158.212 84.1976L157.976 83.7271C157.723 83.7836 157.499 83.9327 157.349 84.1453C157.218 84.3806 157.349 84.7466 157.637 84.7204C157.737 84.6939 157.827 84.6395 157.898 84.5636L158.604 83.9362L158.212 84.1976Z" fill="#E9E9A8"/>
</g>
<g style="mix-blend-mode:soft-light" opacity="0.71">
<path d="M120.183 65.0361C120.186 64.6151 120.106 64.1976 119.948 63.8074C119.867 63.6131 119.728 63.4486 119.55 63.3362C119.373 63.2239 119.164 63.1694 118.954 63.18C118.747 63.202 118.553 63.2943 118.406 63.4414C118.187 63.6701 118.065 63.9745 118.065 64.291C118.065 64.6076 118.187 64.9119 118.406 65.1406C118.65 65.3381 118.961 65.4322 119.274 65.4029C119.586 65.3736 119.875 65.2232 120.078 64.9838L120.183 65.0361Z" fill="#E9E9A8"/>
</g>
<g style="mix-blend-mode:soft-light" opacity="0.71">
<path d="M134.663 49.1682C134.756 49.2808 134.819 49.416 134.844 49.5604C134.869 49.7048 134.856 49.8533 134.806 49.991C134.755 50.1286 134.67 50.2506 134.558 50.3448C134.445 50.439 134.31 50.502 134.166 50.5276C133.875 50.3581 133.625 50.1259 133.434 49.8479C133.672 49.5624 134.007 49.376 134.375 49.3251L134.663 49.1682Z" fill="#E9E9A8"/>
</g>
<g style="mix-blend-mode:soft-light" opacity="0.71">
<path d="M139.759 58.4746C139.942 58.1609 139.315 57.8734 139.106 58.1871C138.897 58.5008 139.106 58.919 139.367 59.1543C139.512 59.067 139.627 58.9378 139.697 58.7838C139.767 58.6298 139.789 58.4582 139.759 58.2916V58.4746Z" fill="#E9E9A8"/>
</g>
<g style="mix-blend-mode:soft-light" opacity="0.71">
<path d="M170.653 111.045L170.156 110.365C169.953 110.44 169.773 110.566 169.633 110.731C169.661 110.831 169.707 110.924 169.771 111.006C169.834 111.087 169.913 111.156 170.003 111.207C170.093 111.258 170.192 111.29 170.294 111.303C170.397 111.315 170.501 111.308 170.6 111.28L170.653 111.045Z" fill="#E9E9A8"/>
</g>
<g style="mix-blend-mode:soft-light" opacity="0.71">
<path d="M242.999 105.346L242.502 104.64C242.294 104.731 242.107 104.864 241.954 105.032C242.025 105.227 242.166 105.388 242.349 105.485C242.533 105.582 242.746 105.607 242.947 105.555L242.999 105.346Z" fill="#E9E9A8"/>
</g>
<g style="mix-blend-mode:soft-light" opacity="0.71">
<path d="M206.12 99.4379C206.49 99.7579 206.776 100.163 206.953 100.619C207.131 101.074 207.195 101.566 207.14 102.052C207.131 102.181 207.075 102.302 206.983 102.392C206.903 102.438 206.813 102.462 206.721 102.462C206.63 102.462 206.539 102.438 206.46 102.392C205.362 102.183 204.055 101.765 203.846 100.667C203.832 100.435 203.874 100.203 203.969 99.9906C204.063 99.7784 204.208 99.5924 204.391 99.4485C204.573 99.3046 204.788 99.2071 205.016 99.1643C205.244 99.1215 205.48 99.1346 205.702 99.2027L205.937 100.091L206.12 99.4379Z" fill="#E9E9A8"/>
</g>
<g style="mix-blend-mode:soft-light" opacity="0.71">
<path d="M189.471 188.58C189.627 187.749 189.567 186.892 189.297 186.091C189.027 185.29 188.556 184.572 187.929 184.005C187.124 184.242 186.387 184.67 185.782 185.253C185.177 185.835 184.721 186.555 184.453 187.351C184.227 188.162 184.331 189.029 184.743 189.764C185.154 190.499 185.839 191.041 186.648 191.272C188.295 191.56 189.942 189.495 189.027 188.083L189.471 188.58Z" fill="#E9E9A8"/>
</g>
<g style="mix-blend-mode:soft-light" opacity="0.71">
<path d="M184.505 173.444C184.351 172.896 184.113 172.376 183.799 171.902C183.799 171.902 183.799 171.902 183.643 171.771C183.575 171.747 183.501 171.747 183.434 171.771C182.911 172.058 182.859 172.973 182.257 173C182.153 172.987 182.048 172.987 181.944 173C181.944 173 181.944 173.339 181.944 173.47C182.113 173.621 182.312 173.735 182.528 173.803C182.745 173.871 182.973 173.892 183.198 173.865C183.423 173.837 183.64 173.763 183.834 173.645C184.028 173.527 184.194 173.37 184.322 173.182V173.418L184.505 173.444Z" fill="#E9E9A8"/>
</g>
<g style="mix-blend-mode:soft-light" opacity="0.71">
<path d="M201.572 152.113C201.274 151.085 200.825 150.107 200.239 149.211C200.18 149.085 200.078 148.983 199.952 148.923C199.826 148.875 199.686 148.875 199.56 148.923C198.593 149.472 198.462 151.198 197.364 151.25C197.155 151.25 196.92 151.25 196.763 151.25C196.606 151.25 196.763 151.877 196.894 152.113C197.205 152.409 197.578 152.632 197.985 152.768C198.392 152.904 198.825 152.949 199.251 152.899C199.678 152.849 200.088 152.706 200.453 152.48C200.818 152.253 201.129 151.95 201.363 151.59V152.06L201.572 152.113Z" fill="#E9E9A8"/>
</g>
<g style="mix-blend-mode:soft-light" opacity="0.71">
<path d="M187.746 163.746C187.935 163.693 188.107 163.591 188.244 163.451C188.382 163.311 188.481 163.138 188.53 162.948C188.58 162.758 188.579 162.559 188.528 162.369C188.477 162.18 188.377 162.007 188.238 161.868C188.099 161.73 187.926 161.629 187.737 161.578C187.548 161.527 187.348 161.526 187.158 161.576C186.968 161.625 186.795 161.724 186.655 161.862C186.515 161.999 186.414 162.171 186.361 162.36C186.264 162.503 186.213 162.671 186.213 162.844C186.213 163.016 186.264 163.185 186.361 163.327C186.674 163.693 187.249 163.615 187.72 163.51L187.511 163.85L187.746 163.746Z" fill="#E9E9A8"/>
</g>
<g style="mix-blend-mode:soft-light" opacity="0.71">
<path d="M182.571 161.602C182.559 161.493 182.524 161.388 182.469 161.294C182.414 161.2 182.34 161.118 182.251 161.054C182.162 160.99 182.061 160.945 181.954 160.922C181.848 160.9 181.737 160.9 181.63 160.922C181.052 160.922 180.474 160.869 179.905 160.765C180.532 161.497 181.134 162.255 181.735 162.987C181.788 163.051 181.831 163.121 181.865 163.197C181.865 163.458 181.656 163.667 181.578 163.928C181.499 164.19 181.813 164.634 182.153 164.817C184.584 166.151 182.911 162.752 182.571 161.602Z" fill="#E9E9A8"/>
</g>
<g style="mix-blend-mode:soft-light" opacity="0.71">
<path d="M190.517 144.688L190.02 144.009C189.79 144.173 189.618 144.405 189.529 144.673C189.44 144.941 189.438 145.23 189.523 145.499C189.759 146.022 190.621 146.178 190.883 145.682C191.144 145.185 191.222 144.845 191.51 145.028L190.517 144.688Z" fill="#E9E9A8"/>
</g>
<g style="mix-blend-mode:soft-light" opacity="0.71">
<path d="M198.514 196.919C198.465 196.455 198.307 196.01 198.052 195.619C197.798 195.228 197.455 194.903 197.051 194.671C196.188 194.305 194.96 194.671 194.934 195.742C194.92 196.015 195.003 196.284 195.169 196.5C195.272 196.626 195.396 196.732 195.535 196.814C195.769 197.023 196.041 197.184 196.337 197.287C196.633 197.39 196.947 197.434 197.26 197.415C197.57 197.389 197.857 197.243 198.061 197.009C198.266 196.775 198.372 196.471 198.358 196.161L198.514 196.919Z" fill="#E9E9A8"/>
</g>
<g style="mix-blend-mode:soft-light" opacity="0.71">
<path d="M188.269 173.339C188.445 173.497 188.565 173.708 188.609 173.94C188.309 173.907 188.021 173.805 187.767 173.641C187.513 173.478 187.3 173.258 187.145 172.999C186.936 172.712 186.727 172.346 186.91 172.058C187.093 171.771 187.276 171.797 187.459 171.64C187.642 171.483 188.007 170.699 188.478 170.751C188.607 170.785 188.723 170.858 188.807 170.962C188.892 171.065 188.941 171.193 188.948 171.326C188.934 171.595 188.853 171.855 188.713 172.084L187.981 173.679L188.269 173.339Z" fill="#E9E9A8"/>
</g>
<g style="mix-blend-mode:soft-light" opacity="0.71">
<path d="M182.101 168.529C182.216 168.502 182.322 168.444 182.409 168.363C182.495 168.281 182.559 168.179 182.593 168.065C182.628 167.951 182.632 167.83 182.605 167.715C182.578 167.599 182.521 167.492 182.44 167.405C182.193 167.449 181.965 167.568 181.787 167.745C181.704 167.844 181.659 167.969 181.659 168.098C181.659 168.227 181.704 168.352 181.787 168.451C181.819 168.505 181.865 168.55 181.92 168.581C181.975 168.612 182.037 168.628 182.101 168.628C182.164 168.628 182.226 168.612 182.281 168.581C182.336 168.55 182.382 168.505 182.414 168.451L182.101 168.529Z" fill="#E9E9A8"/>
</g>
<g style="mix-blend-mode:soft-light" opacity="0.71">
<path d="M213.02 182.044C213.117 181.924 213.182 181.781 213.21 181.629C213.238 181.478 213.229 181.321 213.182 181.174C213.136 181.027 213.054 180.893 212.943 180.785C212.833 180.677 212.698 180.598 212.55 180.554C212.232 180.493 211.904 180.55 211.625 180.714C211.346 180.877 211.136 181.136 211.034 181.443C210.931 181.703 210.931 181.993 211.034 182.254C211.146 182.434 211.314 182.573 211.512 182.648C211.71 182.724 211.928 182.732 212.132 182.672C212.537 182.541 212.911 182.327 213.229 182.044H213.02Z" fill="#E9E9A8"/>
</g>
<g style="mix-blend-mode:soft-light" opacity="0.71">
<path d="M202.513 188.397L201.259 190.07C201.136 190.224 201.047 190.402 200.997 190.593C200.988 190.801 201.033 191.008 201.128 191.194C201.416 191.874 201.886 192.684 202.618 192.632C203.35 192.579 203.742 191.612 204.082 190.88C204.735 189.521 208.211 187.299 206.93 185.652C205.65 184.005 203.271 187.273 202.513 188.397Z" fill="#E9E9A8"/>
</g>
<g style="mix-blend-mode:soft-light" opacity="0.71">
<path d="M209.387 178.881L209.779 179.221C209.422 179.435 209.019 179.561 208.603 179.587C208.397 179.593 208.195 179.532 208.026 179.415C207.856 179.297 207.729 179.129 207.662 178.934C207.662 178.542 207.95 178.071 208.342 178.202C208.739 178.34 209.091 178.584 209.361 178.908L209.387 178.881Z" fill="#E9E9A8"/>
</g>
<g style="mix-blend-mode:soft-light" opacity="0.71">
<path d="M185.289 166.961C185.289 167.275 185.681 167.458 185.995 167.353C186.309 167.248 186.544 167.013 186.831 166.909C186.978 166.837 187.139 166.8 187.302 166.8C187.465 166.8 187.626 166.837 187.772 166.909C187.863 166.938 187.944 166.993 188.004 167.068C188.064 167.142 188.102 167.232 188.112 167.327C188.15 167.446 188.15 167.574 188.112 167.693C187.822 168.258 187.378 168.729 186.831 169.052C186.567 169.225 186.258 169.318 185.943 169.318C185.627 169.318 185.318 169.225 185.054 169.052C184.89 168.903 184.768 168.714 184.699 168.503C184.63 168.292 184.618 168.067 184.662 167.85C184.708 167.637 184.809 167.44 184.956 167.279C185.103 167.118 185.29 166.999 185.498 166.935L185.289 166.961Z" fill="#E9E9A8"/>
</g>
<g style="mix-blend-mode:soft-light" opacity="0.71">
<path d="M188.556 159.092C188.619 158.901 188.608 158.694 188.526 158.51C188.444 158.326 188.296 158.18 188.112 158.099C187.92 158.039 187.716 158.029 187.519 158.07C187.323 158.111 187.14 158.202 186.988 158.334C186.857 158.334 186.753 158.648 186.831 158.805C186.915 158.892 187.025 158.947 187.145 158.962L188.609 159.223L188.556 159.092Z" fill="#E9E9A8"/>
</g>
<g style="mix-blend-mode:soft-light" opacity="0.71">
<path d="M188.556 181.077C188.437 181.234 188.283 181.362 188.106 181.449C187.929 181.537 187.734 181.583 187.537 181.583C187.34 181.583 187.145 181.537 186.968 181.449C186.791 181.362 186.637 181.234 186.518 181.077C186.865 180.557 187.355 180.149 187.929 179.901C188.53 179.718 189.34 180.032 189.393 180.659L188.792 181.574L188.556 181.077Z" fill="#E9E9A8"/>
</g>
<g style="mix-blend-mode:soft-light" opacity="0.71">
<path d="M191.353 192.318L190.83 191.638C190.635 191.727 190.458 191.851 190.308 192.004C190.368 192.208 190.506 192.379 190.692 192.482C190.878 192.584 191.096 192.61 191.301 192.553L191.353 192.318Z" fill="#E9E9A8"/>
</g>
<g style="mix-blend-mode:soft-light" opacity="0.71">
<path d="M226.768 180.711C227.133 181.034 227.414 181.44 227.587 181.896C227.76 182.351 227.82 182.842 227.761 183.325C227.751 183.449 227.705 183.566 227.631 183.665C227.546 183.711 227.452 183.735 227.356 183.735C227.26 183.735 227.166 183.711 227.082 183.665C225.984 183.456 224.677 183.038 224.468 181.94C224.454 181.708 224.496 181.476 224.591 181.264C224.685 181.052 224.83 180.866 225.013 180.722C225.195 180.578 225.41 180.48 225.638 180.437C225.866 180.395 226.102 180.408 226.324 180.476L226.585 181.365L226.768 180.711Z" fill="#E9E9A8"/>
</g>
<g style="mix-blend-mode:soft-light" opacity="0.71">
<path d="M169.712 152.217C170.077 152.54 170.358 152.946 170.531 153.402C170.704 153.857 170.764 154.348 170.705 154.831C170.712 154.894 170.704 154.958 170.682 155.017C170.659 155.077 170.622 155.129 170.574 155.171C170.49 155.217 170.396 155.241 170.3 155.241C170.204 155.241 170.11 155.217 170.026 155.171C168.954 154.962 167.621 154.544 167.412 153.446C167.393 153.215 167.43 152.983 167.522 152.771C167.613 152.558 167.756 152.371 167.937 152.226C168.117 152.082 168.331 151.984 168.558 151.941C168.786 151.898 169.021 151.913 169.241 151.982L169.503 152.871L169.712 152.217Z" fill="#E9E9A8"/>
</g>
</g>
<g style="mix-blend-mode:soft-light" opacity="0.51">
<g style="mix-blend-mode:soft-light" opacity="0.51">
<path d="M-43.485 31.5229L-50.2805 28.5689C-49.2612 27.8893 -48.268 27.2619 -47.2225 26.6868L-42.3088 28.8304L-38.6497 30.425C12.3718 52.7324 66.3865 67.4406 121.673 74.0809C127.736 74.8129 133.8 75.4664 139.968 76.0938C154.657 77.61 169.869 79.2046 184.61 82.1586C190.987 83.4368 197.294 85.0423 203.507 86.9686C204.291 88.2233 205.049 89.5827 205.78 90.7852C198.648 88.4287 191.377 86.5167 184.009 85.0602C169.398 82.1063 154.291 80.5117 139.576 79.0216C133.486 78.3681 127.397 77.7668 121.281 77.0349C65.6918 70.3248 11.3863 55.502 -39.9043 33.0391L-43.485 31.5229Z" fill="#5FCCCC"/>
</g>
<g style="mix-blend-mode:soft-light" opacity="0.51">
<path d="M224.311 135.461C209.832 134.494 195.901 129.501 182.362 124.612L174.233 121.737C137.642 109.006 102.175 103.176 68.6675 104.3C61.3753 104.562 53.9787 105.137 46.8173 105.712C35.5262 106.816 24.184 107.314 12.8396 107.202C-21.1772 106.153 -53.9658 94.2444 -80.7297 73.2183C-84.4462 70.3582 -87.9411 67.221 -91.1844 63.8336C-90.5571 63.0755 -89.9298 62.3174 -89.2503 61.5854C-86.0769 64.9519 -82.6518 68.0717 -79.0047 70.9179C-52.7298 91.5414 -20.5449 103.212 12.8396 104.222C24.0532 104.35 35.2652 103.862 46.4251 102.758C53.6127 102.183 61.0617 101.582 68.4061 101.346C102.384 100.17 138.139 106.104 175.07 118.913C177.683 119.854 180.454 120.822 183.198 121.841C196.267 126.494 209.622 131.33 223.344 132.454C223.789 133.5 224.05 134.494 224.311 135.461Z" fill="#5FCCCC"/>
</g>
</g>
<g style="mix-blend-mode:soft-light" opacity="0.51">
<g style="mix-blend-mode:soft-light" opacity="0.51">
<path d="M209.021 268.86C208.499 269.879 207.924 270.899 207.349 271.918C205.388 272.049 203.402 272.206 201.468 272.284C187.223 272.911 168.196 270.768 158.264 256.991C156.323 254.074 154.618 251.006 153.167 247.816C150.554 242.274 147.94 237.046 143.079 234.222C139.398 232.342 135.22 231.666 131.134 232.288C123.293 233.177 116.132 236.941 108.657 240.915C102.693 244.402 96.3304 247.158 89.7074 249.123C79.6187 251.737 68.7981 250.273 59.3367 249.123L58.265 248.966C36.6239 246.3 14.9741 243.59 -6.68449 240.836C-10.8667 240.582 -14.9471 239.441 -18.6551 237.49C-20.6721 236.376 -22.2875 234.656 -23.2726 232.573C-24.2577 230.49 -24.5625 228.149 -24.1439 225.883C-23.3075 223.461 -21.8789 221.286 -19.9881 219.557C-18.9066 218.513 -17.9505 217.346 -17.1392 216.08C-14.5255 211.636 -16.4335 205.624 -19.596 202.356C-23.503 198.671 -28.5031 196.359 -33.8405 195.769C-47.3532 193.468 -61.284 196.553 -74.7183 199.533C-86.5059 202.147 -98.6856 204.761 -110.944 204.081C-119.103 203.54 -127.085 201.455 -134.467 197.938C-134.467 196.814 -134.623 195.664 -134.728 194.566C-127.278 198.338 -119.145 200.57 -110.813 201.128C-98.9992 201.912 -87.0287 199.219 -75.424 196.683C-61.7022 193.625 -47.51 190.488 -33.4485 192.893C-27.4565 193.572 -21.8496 196.188 -17.479 200.343C-13.4539 204.552 -11.2061 211.819 -14.6039 217.623C-15.5404 219.05 -16.627 220.374 -17.8449 221.57C-19.3809 222.963 -20.5634 224.701 -21.2949 226.641C-21.536 228.296 -21.2645 229.985 -20.5168 231.481C-19.7691 232.976 -18.5812 234.207 -17.1131 235.007C-13.763 236.736 -10.0835 237.734 -6.31863 237.934C15.3225 240.732 36.9637 243.398 58.6572 246.091H59.7026C69.3993 247.293 79.4358 248.548 89.0018 246.091C95.3944 244.224 101.538 241.591 107.297 238.248C114.668 234.327 122.326 230.249 130.82 229.282C135.525 228.564 140.337 229.379 144.542 231.608C150.214 234.876 153.063 240.758 155.833 246.456C157.186 249.49 158.795 252.402 160.642 255.162C169.816 267.918 187.851 269.853 201.337 269.278C203.872 269.226 206.46 269.069 209.021 268.86Z" fill="#5FCCCC"/>
</g>
</g>
<g style="mix-blend-mode:soft-light" opacity="0.51">
<g style="mix-blend-mode:soft-light" opacity="0.51">
<path d="M104.004 356.694L100.972 357.661C98.2062 353.989 95.7413 350.098 93.6018 346.029L91.9029 343.022C80.6119 323.443 66.1845 309.039 50.0843 301.432C31.6057 292.674 10.3565 292.125 -9.84713 292.779C-33.6576 293.615 -60.709 296.517 -80.8865 311.757L-82.6377 309.457C-61.7284 293.772 -34.2065 290.714 -9.92553 289.851C10.644 289.145 32.3113 289.851 51.3388 298.791C67.9094 306.634 82.7029 321.456 94.3598 341.558L96.0847 344.591C98.3373 348.866 100.989 352.918 104.004 356.694Z" fill="#5FCCCC"/>
</g>
</g>
<g style="mix-blend-mode:soft-light" opacity="0.51">
<g style="mix-blend-mode:soft-light" opacity="0.51">
<path d="M189.811 67.7545L184.949 66.7873C163.903 62.456 142.452 60.4052 120.967 60.6702C118.405 60.8671 115.829 60.5562 113.387 59.7553C108.16 57.664 106.095 52.3311 104.24 47.1552C103.476 44.9083 102.541 42.7235 101.443 40.6198C96.7644 32.4115 86.6757 29.5882 78.8347 29.6928C70.9667 30.2073 63.2127 31.8447 55.8083 34.5551L52.0968 35.7053C31.3966 41.9792 14.6953 43.8614 -0.411709 41.6394C-15.0863 39.6865 -28.6146 32.6576 -38.6497 21.772C-37.7349 21.3014 -36.8462 20.8048 -36.036 20.3604C-26.5072 30.4274 -13.793 36.8918 -0.0458374 38.6592C14.643 40.8551 30.9523 38.9991 51.2082 32.8559L54.8935 31.7057C62.5672 28.9055 70.6038 27.224 78.7563 26.7127C87.4336 26.7127 98.6724 29.7973 103.978 39.1036C105.157 41.359 106.162 43.7011 106.984 46.1095C108.709 50.8934 110.408 55.3897 114.485 57.0104C116.528 57.6507 118.678 57.8817 120.81 57.6901C142.54 57.4209 164.236 59.4892 185.524 63.8594L186.857 64.147C187.877 65.3495 188.87 66.552 189.811 67.7545Z" fill="#5FCCCC"/>
</g>
</g>
</g>
<defs>
<radialGradient id="paint0_radial_162_9002" cx="0" cy="0" r="1" gradientUnits="userSpaceOnUse" gradientTransform="translate(15.4794 352.721) scale(357.184 357.247)">
<stop offset="0.59" stop-color="#42218E"/>
<stop offset="1" stop-color="#8657E8"/>
</radialGradient>
</defs>
</svg>
