<svg width="442" height="876" viewBox="0 0 442 876" fill="none" xmlns="http://www.w3.org/2000/svg">
<path d="M371.986 836.772C374.959 835.537 375.329 831.476 372.629 829.723L332.367 803.586C331.691 803.148 330.899 802.923 330.094 802.942L280.097 804.129C279.488 804.143 278.883 804.018 278.329 803.763L234.732 783.694C234.334 783.511 233.91 783.394 233.475 783.349L149.378 774.563C148.629 774.485 147.874 774.619 147.198 774.951L94.1451 801.023C93.483 801.348 92.9239 801.85 92.5294 802.474L71.6201 835.509C71.215 836.149 71 836.891 71 837.648V871.325C71 873.534 72.7909 875.325 75 875.325H278.373C278.9 875.325 279.421 875.221 279.908 875.019L371.986 836.772Z" fill="#7C94C4"/>
<path d="M148.232 774.443L183.056 794.403L234.131 783.417L148.232 774.443Z" fill="#A1B2D5"/>
<path d="M148.232 774.443L183.056 794.403L151.173 818.231L93.1328 801.521L148.232 774.443Z" fill="#7C94C4"/>
<path d="M183.056 794.403L151.173 818.231L187.854 838.345L209.368 813.434L183.056 794.403Z" fill="#6D83AD"/>
<path d="M183.056 794.403L151.173 818.231L187.854 838.345L177.794 818.231L183.056 794.403Z" fill="#5A6B8E"/>
<path d="M151.173 818.231L93.1327 801.52L71 836.488V875.325L94.6804 836.488L151.173 818.231Z" fill="#6D83AD"/>
<path d="M71 875.325L94.6804 836.489L176.711 850.259L201.32 875.325H71Z" fill="#5A6B8E"/>
<path d="M187.854 838.345L151.173 818.231L94.6802 836.489L176.71 850.259L201.319 875.325H279.171L187.854 838.345Z" fill="#A1B2D5"/>
<path d="M209.368 813.434L279.171 804.151L187.854 838.345L209.368 813.434Z" fill="#5A6B8E"/>
<path d="M279.171 804.151L331.33 802.913L327.151 818.231L278.088 836.489L187.854 838.345L279.171 804.151Z" fill="#A1B2D5"/>
<path d="M278.088 836.489L279.171 875.325L187.854 838.346L278.088 836.489Z" fill="#6D83AD"/>
<path d="M59.3267 553.499C53.7784 547.223 50.0676 539.539 48.6019 531.292C47.1363 523.045 47.9725 514.553 51.0187 506.75C60.7237 477.348 41.6813 488.521 53.5185 459.707C65.3556 430.893 50.8716 440.963 58.5915 412.002C66.3114 383.041 48.0042 383.849 54.2537 363.341C60.5031 342.833 47.3425 352.316 55.9447 338.938C64.5469 325.56 46.9749 317.915 54.5478 304.684C62.1206 291.453 43.2988 287.705 55.43 275.282C67.5613 262.86 51.9745 263.448 59.1797 256.024C66.3849 248.6 60.7237 242.866 70.3551 235.516C79.9866 228.165 66.9731 238.677 70.3551 248.453C73.7372 258.229 73.6637 261.39 69.8405 266.314C66.0173 271.239 77.1928 279.619 70.5022 288.734C63.8116 297.848 69.0317 302.185 73.149 308.212C77.2663 314.24 65.7967 330.264 78.1486 341.363C90.5004 352.463 70.7963 371.28 81.4571 385.466C92.1179 399.653 78.0015 416.265 86.5302 425.086C95.0588 433.906 74.693 453.238 84.7656 466.616C94.8382 479.994 61.4589 484.551 68.7377 497.268C76.0164 509.984 41.6813 533.359 59.3267 553.499Z" fill="#0E4581"/>
<g style="mix-blend-mode:overlay">
<g style="mix-blend-mode:overlay">
<path d="M55.7975 507.779C65.576 478.377 46.4601 489.476 58.2973 460.662C70.1344 431.848 55.724 441.918 63.4438 412.957C71.1637 383.996 52.7831 384.805 59.0325 364.297C65.2819 343.789 52.1949 353.271 60.7235 339.893C69.2521 326.515 51.7537 318.871 59.3266 305.493C66.8994 292.115 48.1511 288.513 60.2088 276.091C72.2666 263.668 56.7533 264.256 64.032 256.832C69.3257 251.466 67.6346 246.909 70.1344 242.131C71.6049 234.781 77.8543 229.782 70.1344 235.516C60.5029 242.866 66.2377 248.673 58.959 256.024C51.6802 263.374 67.267 262.86 55.2093 275.282C43.1516 287.704 61.8999 291.527 54.327 304.684C46.7542 317.842 64.3261 325.56 55.724 338.938C47.1218 352.316 60.2824 342.833 54.0329 363.341C47.7835 383.849 66.1642 383.041 58.3708 412.002C50.5774 440.963 65.1349 430.966 53.2977 459.707C41.4605 488.447 60.65 477.568 50.7979 506.75C47.7517 514.553 46.9155 523.045 48.3812 531.292C49.8468 539.539 53.5576 547.223 59.106 553.499C57.061 551.315 55.5619 548.678 54.7313 545.803C53.9007 542.929 53.7622 539.899 54.327 536.961C51.8854 527.305 52.3977 517.14 55.7975 507.779V507.779Z" fill="#0E4581"/>
</g>
</g>
<g style="mix-blend-mode:multiply" opacity="0.47">
<path d="M71.9723 477.495C81.0156 468.16 69.5461 454.929 74.7662 441.698C79.9863 428.467 73.5898 417.956 77.1924 405.533C80.7951 393.111 70.3548 370.912 73.5898 358.27C76.8248 345.627 66.2376 333.204 67.3404 318.062C68.4432 302.92 59.1794 298.142 64.473 285.352C68.8109 274.474 60.0616 275.356 69.9872 246.101C69.8041 244.858 69.8041 243.595 69.9872 242.352C59.2041 269.87 57.025 300.011 63.7378 328.794C77.413 386.054 69.8402 427.658 69.4726 452.944C69.4726 474.555 43.0044 524.024 56.1649 549.457C57.1691 550.882 58.2748 552.233 59.4735 553.499C57.2331 551.111 55.6493 548.184 54.8762 545.002C54.1032 541.821 54.1672 538.493 55.0621 535.344C54.3548 527.859 55.3864 520.312 58.0765 513.292C68.5903 483.743 62.8555 486.83 71.9723 477.495Z" fill="#0E4581"/>
</g>
<path d="M56.3855 554.749C56.3855 554.749 53.7387 531.962 71.6782 525.347C89.6178 518.731 84.9123 502.854 101.528 499.693C118.145 496.533 106.381 486.169 121.6 482.493C136.819 478.818 123.512 473.085 130.864 469.409C138.216 465.734 128.291 465.293 137.26 454.708C146.23 444.124 126.526 441.771 139.54 428.54C152.553 415.31 127.041 412.002 138.437 402.373C149.833 392.743 135.864 379.88 152.406 366.135C155.862 363.341 141.892 368.854 136.893 375.617C129.541 386.128 123.953 391.935 127.482 401.711C131.011 411.487 121.674 409.576 126.82 421.263C131.967 432.951 119.983 435.082 124.688 446.108C129.394 457.134 114.248 455.59 115.424 468.16C116.601 480.729 97.8523 477.495 93.3674 490.211C88.8826 502.928 73.0016 507.412 72.487 514.321C71.9723 521.231 45.063 526.376 56.3855 554.749Z" fill="#0E4581"/>
<g style="mix-blend-mode:overlay">
<path d="M74.6927 516.452C75.2809 509.543 91.0148 504.839 95.5732 492.343C100.132 479.847 118.953 482.861 117.63 470.291C116.307 457.722 131.599 459.265 126.894 448.24C122.188 437.214 134.246 435.009 128.953 423.395C123.659 411.781 133.217 413.619 129.688 403.842C126.159 394.066 131.452 388.259 139.099 377.748C141.838 374.528 145.186 371.88 148.951 369.957C150.06 368.69 151.264 367.511 152.553 366.428C156.009 363.635 142.04 369.148 137.04 375.911C129.688 386.422 124.1 392.229 127.629 402.005C131.158 411.781 121.821 409.87 126.967 421.557C132.114 433.245 120.13 435.376 124.835 446.402C129.541 457.428 114.395 455.884 115.571 468.454C116.748 481.023 97.9994 477.789 93.5145 490.505C89.0296 503.221 73.1487 507.705 72.6341 514.615C72.1194 521.524 44.9895 526.376 56.6061 554.749C56.4855 553.134 56.4855 551.512 56.6061 549.897C51.5331 527.405 74.2516 522.774 74.6927 516.452Z" fill="#0E4581"/>
</g>
<g style="mix-blend-mode:multiply" opacity="0.59">
<path d="M55.9445 543.429C55.2828 533.873 69.3256 521.378 77.1925 516.453C84.1813 512.361 90.2808 506.912 95.1321 500.429C98.8817 494.622 104.028 493.078 106.822 487.786C109.616 482.493 124.688 475.069 125.644 467.645C126.6 460.221 136.966 453.532 132.996 444.932C129.026 436.332 136.966 425.821 135.275 421.19C133.584 416.559 133.658 420.528 132.996 398.33C132.482 381.938 145.936 370.618 152.994 365.914H151.671C143.804 370.618 130.129 381.13 130.644 397.154C131.305 419.573 133.584 424.718 130.644 434.347C127.703 443.977 135.128 449.048 125.865 459.854C116.601 470.659 120.13 476.98 106.896 485.507C93.6616 494.034 94.985 502.34 81.1628 511.895C67.3405 521.451 49.0333 534.903 56.3856 554.161C56.2973 552.692 56.2973 551.219 56.3856 549.751C56.1313 547.652 55.9841 545.542 55.9445 543.429V543.429Z" fill="#0E4581"/>
</g>
<path d="M53.2975 553.72C53.2975 553.72 49.9154 538.063 37.3431 536.593C24.7707 535.123 41.7544 520.128 29.4761 515.718C17.1978 511.307 39.4017 505.868 22.7856 499.546C6.16943 493.225 8.08102 483.816 12.1983 475.51C16.3156 467.204 -6.84409 466.763 2.05216 453.459C10.9484 440.154 -6.55 444.417 4.03727 432.363C14.6245 420.308 -5.5942 412.957 8.15454 406.048C21.9033 399.138 8.15454 395.757 17.7125 391.347C27.2704 386.936 12.1248 385.834 20.5064 379.439C22.995 377.655 24.9523 375.229 26.1695 372.42C27.3867 369.61 27.818 366.523 27.4175 363.488C27.4175 362.68 33.5199 371.721 29.5497 377.601C25.5794 383.482 36.2402 384.952 26.8293 390.832C17.4184 396.713 28.5939 396.86 20.7269 402.593C12.86 408.326 27.2705 412.516 16.095 421.043C4.91955 429.569 25.7265 427.732 13.3011 438.758C0.875792 449.783 30.6525 440.228 19.5506 456.913C8.44863 473.599 39.9164 462.5 32.7111 484.037C25.5059 505.574 43.0043 491.387 38.5929 504.765C34.1816 518.143 48.0039 508.146 43.7395 520.495C39.4752 532.844 51.5329 533.726 53.2975 553.72Z" fill="#0E4581"/>
<g style="mix-blend-mode:overlay">
<path d="M32.7112 516.673C20.3594 512.189 42.6368 506.823 26.0207 500.502C9.40453 494.181 11.3161 484.772 15.4334 476.539C19.5507 468.307 -3.60899 467.719 5.28726 454.488C14.1835 441.257 -3.3149 445.52 7.19885 433.392C17.7126 421.263 -2.35911 413.986 11.3161 407.077C24.9913 400.167 11.3161 396.786 20.8741 392.376C30.432 387.966 15.2863 386.789 23.7415 380.394C27.2233 377.865 29.6146 374.108 30.432 369.883C30.0087 367.523 28.9688 365.317 27.4176 363.488C27.7361 366.453 27.2645 369.45 26.0508 372.173C24.837 374.897 22.9242 377.252 20.5065 378.998C12.1249 385.393 27.197 386.348 17.7126 390.906C8.22816 395.463 21.8299 398.771 8.15464 405.607C-5.52059 412.443 14.5511 419.867 4.03737 431.922C-6.47638 443.976 10.9485 439.272 2.05225 453.018C-6.844 466.763 16.7568 466.91 12.1984 475.069C7.63998 483.228 6.24305 492.857 22.7857 499.105C39.3283 505.353 17.1244 510.793 29.4762 515.277C41.8281 519.76 24.7708 534.755 37.3432 536.152C31.4613 532.918 43.5926 520.642 32.7112 516.673Z" fill="#0E4581"/>
</g>
<g style="mix-blend-mode:multiply" opacity="0.59">
<path d="M26.9763 374.367C20.8739 385.613 28.5938 385.54 21.3151 391.2C14.0363 396.86 22.3444 396.419 14.6245 405.092C6.90462 413.766 11.9042 419.793 9.91906 430.011C7.93395 440.228 4.40485 441.257 9.4044 450.518C14.4039 459.78 10.2132 466.102 18.6683 475.804C27.1234 485.507 22.712 493.74 30.5054 501.164C38.2988 508.588 30.5054 511.381 35.4314 517.482C40.3575 523.583 34.6962 529.169 41.0927 533.947C45.2372 537.42 48.5318 541.795 50.7242 546.737C48.6633 541.454 45.8394 536.501 42.3426 532.036C39.0341 529.463 39.3281 524.685 38.8135 520.201C38.2988 515.718 34.2551 514.321 35.5785 507.485C36.9019 500.649 26.9763 498.811 26.9763 489.256C26.9763 479.7 19.6241 478.377 16.4626 468.233C15.4183 461.613 13.5665 455.145 10.9484 448.975C7.34576 442.139 7.63985 440.816 9.69849 436.479C11.5352 430.986 12.4058 425.216 12.2718 419.426C12.0142 415.096 13.204 410.804 15.6538 407.224C17.9403 404.446 19.4835 401.132 20.1387 397.595C20.3427 396.17 20.8736 394.811 21.6899 393.625C22.5062 392.439 23.5857 391.458 24.8442 390.759C27.638 388.921 26.2411 382.673 26.5352 379.586C26.5352 378.189 29.2555 373.632 30.5054 369.222C30.1821 368.144 29.7891 367.088 29.3291 366.061C29.4574 369.01 28.6324 371.923 26.9763 374.367V374.367Z" fill="#0E4581"/>
</g>
<path d="M56.3854 554.749C56.3854 553.132 43.96 532.697 66.8991 508.808C89.8382 484.919 69.9135 486.316 85.7945 473.085C101.675 459.854 80.7214 453.238 90.5734 439.052C100.425 424.865 85.7945 413.692 93.1467 403.549C100.499 393.405 87.7796 384.437 94.3231 373.412C100.867 362.386 87.412 358.711 96.3082 347.905C105.204 337.1 105.866 336.806 101.675 327.397C97.4846 317.989 104.69 315.783 99.8373 306.522C94.9848 297.26 100.499 309.095 94.1025 315.416C87.706 321.737 94.1025 330.117 85.9415 335.189C77.7805 340.261 91.8968 348.126 79.3245 356.505C66.7521 364.885 86.6767 379.807 71.0899 389.656C55.5031 399.506 79.0304 413.178 63.2965 426.409C47.5626 439.64 76.8247 457.134 54.6943 470.512C32.564 483.89 62.0466 496.459 50.0624 505.206C38.0782 513.954 56.3854 554.749 56.3854 554.749Z" fill="#0E4581"/>
<g style="mix-blend-mode:overlay" opacity="0.64">
<g style="mix-blend-mode:overlay" opacity="0.64">
<path d="M53.8119 506.382C66.0167 497.635 36.3871 485.36 58.5174 471.688C80.6477 458.016 51.1651 440.522 67.1195 427.585C83.074 414.648 59.3997 400.608 74.913 390.832C90.4263 381.056 70.5751 366.134 83.1475 357.755C95.7199 349.375 81.53 341.584 89.7646 336.438C97.9991 331.293 91.5291 322.913 97.9256 316.665C99.5514 314.935 100.626 312.76 101.014 310.417C100.67 309.22 100.201 308.062 99.6166 306.963C94.7641 297.628 100.278 309.535 93.8818 315.857C87.4853 322.178 93.8818 330.558 85.7208 335.63C77.5598 340.702 91.6761 348.567 79.1038 356.946C66.5314 365.326 86.456 380.247 70.8692 390.097C55.2824 399.947 78.8097 413.619 63.0758 426.85C47.3419 440.081 76.604 457.575 54.4736 470.953C32.3433 484.331 61.8259 496.9 49.8417 505.647C37.8575 514.394 56.6793 554.822 56.6793 554.822C54.1851 549.082 53.0527 542.843 53.3708 536.593C49.6947 524.759 47.3419 511.307 53.8119 506.382Z" fill="#0E4581"/>
</g>
</g>
<g style="mix-blend-mode:multiply" opacity="0.42">
<path d="M59.9147 513.145C79.1777 492.343 61.6793 496.533 71.6784 483.743C81.6775 470.953 70.1344 467.939 77.5602 461.691C84.986 455.443 75.134 436.332 80.9422 430.525C86.7505 424.718 73.59 415.457 83.0009 402.593C92.4118 389.73 77.7808 375.984 86.3094 368.046C94.838 360.107 89.3238 342.098 93.6617 338.644C97.9995 335.189 94.6175 323.943 98.8818 316.592C100.332 313.36 100.643 309.733 99.7641 306.301L98.2936 303.508C98.5656 313.484 96.5537 323.39 92.4118 332.469C77.7072 370.839 80.6482 401.858 72.7077 426.041C64.7672 450.225 69.7668 480.656 60.0618 496.239C55.482 504.226 52.6604 513.099 51.7855 522.263C50.9107 531.428 52.0027 540.674 54.9887 549.383C54.2795 546.986 53.8116 544.523 53.5918 542.033C52.1233 537.075 51.9329 531.827 53.0384 526.776C54.1439 521.725 56.5094 517.036 59.9147 513.145Z" fill="#0E4581"/>
</g>
<path d="M56.7531 554.822C56.7531 554.822 41.681 528.948 54.3269 520.054C66.9728 511.16 46.9746 501.384 65.3553 494.768C83.736 488.153 61.8997 480.729 82.1185 471.982C102.337 463.235 88.662 448.754 98.7346 442.58C108.807 436.405 93.2204 426.629 101.161 420.528C109.101 414.427 96.3083 407.003 97.7788 395.61C99.2492 384.217 97.0436 395.61 106.16 399.285C115.277 402.96 117.189 410.164 114.689 415.897C112.189 421.631 127.408 416.853 120.644 432.51C113.88 448.166 129.173 440.522 117.115 454.561C105.058 468.601 110.351 473.158 109.763 482.934C109.175 492.71 105.719 491.093 91.9705 499.693C78.2218 508.293 88.662 516.747 67.561 524.097C46.4599 531.448 56.7531 554.822 56.7531 554.822Z" fill="#0E4581"/>
<g style="mix-blend-mode:overlay" opacity="0.7">
<g style="mix-blend-mode:overlay" opacity="0.7">
<path d="M59.1062 522.333C72.0462 513.439 51.7539 503.663 70.0611 497.047C88.3682 490.432 66.6055 483.008 86.8242 474.334C107.043 465.661 93.1472 451.033 103.44 445.153C113.734 439.272 97.9262 429.202 105.867 423.101C113.807 417 101.014 409.576 102.485 398.183C102.52 397.89 102.52 397.594 102.485 397.301C97.5586 392.67 98.9555 386.348 97.6321 395.904C96.1616 407.297 108.955 414.721 101.014 420.822C93.0737 426.923 108.734 436.847 98.5879 442.874C88.4417 448.901 102.19 463.382 81.9717 472.276C61.753 481.17 83.5157 488.374 65.2086 495.063C46.9014 501.752 67.1937 511.454 54.1802 520.349C41.1666 529.243 56.6064 555.116 56.6064 555.116C54.7575 550.449 54.0029 545.42 54.4007 540.415C53.1606 537.293 52.9482 533.856 53.7943 530.605C54.6405 527.353 56.5011 524.456 59.1062 522.333V522.333Z" fill="#0E4581"/>
</g>
</g>
<g style="mix-blend-mode:multiply" opacity="0.69">
<path d="M67.8552 515.571C85.7212 502.046 75.2074 497.341 90.7207 487.418C106.234 477.495 98.073 465.367 107.925 456.766C117.777 448.166 107.484 442.653 111.895 433.024C116.307 423.395 109.248 417.882 110.866 410.973C112.189 405.239 102.558 403.108 98.2936 392.082C98.2936 392.523 98.2936 393.184 98.2936 393.993C99.6005 399.019 101.928 403.723 105.131 407.812C113.807 418.691 110.572 454.267 95.8673 473.967C81.1628 493.666 73.8105 501.678 64.2526 514.615C56.9003 524.318 48.6657 540.489 56.9003 555.116C53.8668 548.215 53.6818 540.396 56.3856 533.359C57.9004 526.225 61.9817 519.895 67.8552 515.571V515.571Z" fill="#0E4581"/>
</g>
<path d="M55.4295 555.41C55.4295 555.41 31.3876 548.06 36.0195 532.477C40.6514 516.894 23.006 505.206 37.637 491.755C52.268 478.303 29.4025 465.66 44.3276 454.341C59.2527 443.021 49.8418 446.99 41.1661 431.554C32.4904 416.118 44.9157 423.542 48.9595 415.015C53.0032 406.489 24.1088 397.521 39.0339 389.509C53.959 381.497 46.7538 372.97 36.8283 362.312C26.9027 351.654 30.6523 350.037 33.5197 343.862C36.3871 337.688 12.7863 330.19 26.9027 315.783C41.019 301.376 17.4918 303.581 29.476 292.262C41.4602 280.942 38.4457 271.239 42.7101 267.784C46.9744 264.33 38.1517 280.648 43.7394 287.925C45.6864 290.846 46.7739 294.255 46.8778 297.764C46.9818 301.273 46.0982 304.74 44.3276 307.771C42.2689 311.667 54.1061 314.166 49.6947 334.601C45.2834 355.035 68.5165 339.378 59.9879 363.341C53.5179 381.497 61.5319 375.837 67.3402 382.673C73.1485 389.509 70.2076 397.889 63.9581 408.4C57.7087 418.911 81.6771 409.061 68.8106 434.2C55.9442 459.339 64.3993 454.341 67.9284 465.807C71.4574 477.274 49.033 484.919 56.3853 492.637C63.7376 500.355 66.8255 507.338 55.0619 517.776C43.2982 528.213 60.5026 556.145 55.4295 555.41Z" fill="#0E4581"/>
<g style="mix-blend-mode:overlay" opacity="0.7">
<g style="mix-blend-mode:overlay" opacity="0.7">
<path d="M41.6806 532.477C46.3125 517.041 28.6671 505.206 43.2981 491.755C57.9291 478.304 35.0636 465.661 49.9152 454.341C64.7667 443.021 55.5029 446.99 46.8272 431.554C38.1515 416.118 50.5769 423.542 54.6206 415.016C58.6644 406.489 29.7699 397.521 44.695 389.509C59.6201 381.497 52.4149 372.971 42.4894 362.312C32.5638 351.654 36.3134 350.037 39.1808 343.863C42.0482 337.688 18.4474 330.191 32.5638 315.784C46.6801 301.377 23.1529 303.582 35.1371 292.262C37.7988 289.71 40.011 286.728 41.6806 283.441C40.6513 275.576 45.9449 265.138 42.4158 267.932C38.8867 270.725 41.1659 281.163 29.1817 292.409C17.1975 303.655 40.7248 301.45 26.6084 315.931C12.4921 330.411 36.0929 337.982 33.2255 344.01C30.3581 350.037 26.6084 351.728 36.534 362.459C46.4596 373.191 53.5913 381.644 38.7397 389.656C23.8881 397.668 52.9296 406.563 49.0329 415.016C45.1362 423.469 32.5638 416.412 41.2395 431.554C49.9151 446.696 59.2525 443.095 44.4009 454.341C29.5494 465.587 52.2679 478.304 37.7104 491.755C23.1529 505.206 40.7248 517.041 36.0929 532.477C31.4609 547.913 55.4294 555.411 55.4294 555.411C55.4294 555.411 56.3851 555.411 56.3851 553.867C49.6211 550.706 38.225 543.576 41.6806 532.477Z" fill="#0E4581"/>
</g>
</g>
<g style="mix-blend-mode:multiply" opacity="0.48">
<path d="M48.5919 520.054C54.7679 502.634 48.5919 483.302 56.3854 470.953C64.1788 458.604 54.8414 451.915 61.1643 433.024C67.4873 414.133 57.6352 412.516 60.4291 396.933C63.223 381.35 53.665 382.232 54.2532 363.341C54.8414 344.451 43.3718 350.625 45.2099 333.351C47.048 316.078 40.2839 319.532 40.2839 298.51C40.2039 292.209 40.6713 285.913 41.6808 279.692C41.6808 273.297 44.9158 266.756 43.2248 267.344C26.5351 303.729 50.5771 346.656 54.8414 391.126C59.7674 438.243 52.5622 467.792 45.9451 508.735C41.3867 536.887 49.4742 550.118 55.0619 555.704C56.8265 555.704 55.9442 552.617 54.4738 547.839C51.4187 543.974 49.2982 539.455 48.278 534.636C47.2577 529.816 47.3651 524.826 48.5919 520.054V520.054Z" fill="#0E4581"/>
</g>
<g style="mix-blend-mode:color-burn" opacity="0.65">
<path d="M152.994 365.914H152.186C146.547 367.972 141.499 371.379 137.481 375.837C130.129 386.348 124.541 392.155 128.07 401.931C131.599 411.707 122.262 409.796 127.408 421.484C132.555 433.171 120.571 435.303 125.276 446.328C129.982 457.354 114.836 455.811 116.012 468.38C116.217 470.379 115.75 472.389 114.685 474.092C113.62 475.796 112.017 477.097 110.131 477.789C109.049 473.584 109.165 469.16 110.464 465.017C111.763 460.874 114.194 457.176 117.483 454.34C129.541 440.522 114.248 448.24 121.012 432.289C127.776 416.338 112.483 421.484 115.057 415.677C117.63 409.87 115.645 402.96 106.528 399.065C105.249 398.478 104.06 397.71 102.999 396.786C102.773 396.523 102.527 396.277 102.264 396.051V396.051C101.318 395.396 100.475 394.603 99.7639 393.699V393.699C99.3963 392.89 99.1758 392.229 99.0287 391.935V393.699V394.287C99.0588 394.605 99.0588 394.924 99.0287 395.242C97.5583 406.636 110.351 414.06 102.411 420.161C94.4703 426.261 110.131 436.185 99.9845 442.212C92.2646 446.769 98.5141 456.399 92.6322 464.264C94.9114 455.664 83.883 449.563 91.6029 438.169C100.499 424.791 85.7946 413.692 93.1469 403.548C100.499 393.405 87.7797 384.437 94.3233 373.411C100.867 362.386 87.4121 358.71 96.3084 347.905C105.205 337.1 105.866 336.806 101.676 327.397C97.4847 317.988 103.293 316.298 101.014 309.168V308.359V307.624L100.573 306.742L100.205 306.007V305.492C97.1171 299.906 101.308 310.417 95.4261 316.224C89.5443 322.031 95.4261 330.925 87.2651 335.997C79.1041 341.069 90.5001 347.243 83.8095 354.667C84.3235 352.157 84.0888 349.551 83.1347 347.173C82.1806 344.795 80.549 342.749 78.4424 341.289C66.3111 330.484 77.5601 314.093 73.4428 308.139C69.3255 302.185 63.7378 298.142 70.649 288.66C77.5601 279.178 66.1641 271.166 69.9872 266.241C73.8104 261.316 74.1045 258.155 70.5019 248.379C70.2608 247.637 70.0885 246.874 69.9872 246.1C69.9506 245.464 69.9506 244.826 69.9872 244.189C69.9872 244.189 69.9872 243.601 69.9872 243.307C69.9518 243.014 69.9518 242.718 69.9872 242.425V241.396C69.9554 241.226 69.9554 241.051 69.9872 240.881V240.881C69.9872 240.881 69.9872 240.881 69.9872 240.44C69.9596 240.221 69.9596 239.998 69.9872 239.779V239.779C69.9779 239.607 69.9779 239.436 69.9872 239.264V239.264V238.823V238.382C69.961 238.187 69.961 237.989 69.9872 237.794V237.794C69.9872 237.794 70.3549 237.059 70.5754 236.765H70.2078H69.7667L69.3255 237.133L68.8844 237.574L68.1492 238.162C58.5177 245.512 64.2525 251.319 56.9737 258.67C49.695 266.02 65.2818 265.506 53.2241 277.928C41.1663 290.35 59.9146 294.173 52.3418 307.33C44.769 320.488 62.3409 328.206 53.7387 341.584C51.1654 345.553 50.5772 347.537 50.7978 348.934C47.9304 347.39 45.9453 344.744 47.4893 337.32C51.9007 316.886 40.137 314.387 42.1221 310.491C43.8928 307.46 44.7764 303.992 44.6724 300.483C44.5684 296.975 43.481 293.566 41.534 290.644C41.0545 289.5 40.8199 288.268 40.8452 287.027C40.8705 285.787 41.1552 284.565 41.681 283.441V283.441C41.681 283.441 41.681 283 41.681 282.779C41.681 282.779 41.681 282.265 41.681 282.044C41.681 281.309 41.681 280.574 41.681 279.839C41.6445 279.497 41.6445 279.152 41.681 278.81V278.81C41.681 278.81 41.681 278.149 41.681 277.855C41.7119 277.512 41.7119 277.168 41.681 276.825V276.825C41.7164 276.483 41.7164 276.138 41.681 275.796C41.6456 275.454 41.6456 275.109 41.681 274.767L42.1221 272.856C42.1221 272.195 42.1221 271.607 42.4898 271.019V270.283C42.4898 270.283 42.4898 269.842 42.4898 269.622H41.681H41.3134C37.0491 273.077 40.0635 282.853 28.0793 294.099C16.0951 305.345 39.6224 303.14 25.506 317.621C11.3896 332.101 34.9904 339.672 32.1231 345.7C29.2557 351.727 25.506 353.418 35.4316 364.15C45.3571 374.881 52.4888 383.334 37.6373 391.347C22.7857 399.359 52.93 406.562 49.0333 415.015C45.1366 423.468 32.5642 416.412 41.2399 431.554C49.9155 446.696 59.2529 443.094 44.4013 454.34C29.5498 465.587 52.2683 478.303 37.7108 491.755C36.052 493.239 34.6377 494.975 33.52 496.9C31.1672 495.871 29.6233 493.225 32.7848 483.89C40.137 462.353 8.59578 473.452 19.6242 456.766C30.6526 440.08 1.02294 449.416 13.3748 438.61C25.7266 427.805 4.99317 429.349 16.1686 420.896C27.3441 412.443 12.9336 408.179 20.8005 402.446C28.6675 396.712 17.5655 396.418 26.9029 390.685C36.2403 384.952 25.5795 383.334 29.6233 377.454C30.3806 375.936 30.7749 374.263 30.7749 372.566C30.7749 370.869 30.3806 369.196 29.6233 367.678V367.678V367.09L28.5939 365.032V364.664V364.15C28.6681 367.116 27.9597 370.051 26.54 372.657C25.1204 375.263 23.0395 377.45 20.5065 378.998C12.1249 385.393 27.197 386.348 17.7126 390.905C8.22816 395.463 21.8299 398.771 8.15464 405.607C-5.52059 412.443 14.5511 419.867 4.03737 431.921C-6.47638 443.976 10.9485 439.272 2.05225 453.017C-6.84399 466.763 16.7568 466.91 12.1984 475.069C7.63998 483.228 6.24305 492.857 22.7857 499.105C39.3283 505.353 17.1244 510.792 29.4762 515.276L30.432 515.644L31.2408 516.085C31.2408 516.085 31.2408 516.085 31.2408 516.452C32.8583 520.936 28.741 527.258 30.1379 531.153H30.7261C30.7261 544.09 50.7243 550.632 50.7243 550.632H51.2389L51.6066 551.22C51.6066 551.22 51.6066 550.338 51.6066 549.236V547.031C52.359 548.099 53.1949 549.107 54.1063 550.044L53.2241 549.015L52.7094 548.354L52.2683 547.692C52.8843 542.476 55.1143 537.583 58.6468 533.695C62.1794 529.808 66.8381 527.12 71.9724 526.008C89.9119 519.613 85.2064 503.515 101.823 500.355C118.439 497.194 106.675 486.83 121.894 483.155C137.113 479.479 123.806 473.746 131.158 470.071C138.51 466.395 128.585 465.954 137.555 455.37C146.524 444.785 126.82 442.433 139.834 429.202C152.847 415.971 127.335 412.663 138.731 403.034C150.127 393.405 138.363 382.746 149.098 370.324C149.599 369.725 150.139 369.16 150.715 368.633L151.45 367.972L152.333 367.163C153.362 366.134 153.362 365.914 152.994 365.914Z" fill="#0E4581"/>
</g>
<path d="M60.6502 467.204C73.3696 437.361 33.5938 414.06 36.6083 417.588C36.8382 417.895 37.1105 418.167 37.417 418.397C45.5045 425.086 63.7382 451.18 44.7693 476.613C25.8004 502.046 48.1513 527.552 48.1513 527.552C53.64 536.104 56.3612 546.139 55.9448 556.292C55.9448 557.91 55.9448 558.865 55.9448 558.865C68.3701 530.639 40.2844 514.983 60.6502 467.204Z" fill="#0E4581"/>
<path d="M51.018 518.658C39.6955 501.311 44.8421 491.02 55.7235 462.647C63.958 441.11 45.7979 424.571 36.6076 417.809C36.8375 418.115 37.1098 418.387 37.4163 418.617C45.5038 425.306 63.7375 451.401 44.7686 476.833C25.7997 502.266 48.1506 527.772 48.1506 527.772C53.6393 536.325 56.3605 546.36 55.9441 556.513C57.341 545.34 58.0027 529.096 51.018 518.658Z" fill="#0E4581"/>
<path d="M60.6502 467.204C73.3696 437.361 33.5938 414.06 36.6083 417.588C45.7986 424.351 63.9587 440.889 55.7242 462.426C44.8428 490.799 39.6962 501.09 51.0187 518.437C58.0034 529.022 57.3417 545.267 55.7242 556.292C55.7242 557.91 55.7242 558.865 55.7242 558.865C68.3701 530.639 40.2844 514.983 60.6502 467.204Z" fill="#0E4581"/>
<g style="mix-blend-mode:multiply" opacity="0.56">
<path d="M51.0184 518.658C39.6959 501.311 44.8425 491.02 55.7239 462.647C62.635 444.638 51.0919 430.158 41.7545 421.925C50.1361 430.305 60.8704 445.373 53.8123 463.088C44.0337 487.786 34.9905 495.945 44.916 512.63C50.8527 522.834 54.3033 534.291 54.9886 546.075C55.5381 549.526 55.7841 553.019 55.7239 556.513C57.3414 545.34 58.0031 529.096 51.0184 518.658Z" fill="#0E4581"/>
</g>
<g style="mix-blend-mode:multiply" opacity="0.56">
<path d="M57.3409 529.757L56.3851 525.568L55.5028 522.995C48.5917 504.398 45.1361 492.711 53.2236 474.334C57.5737 465.998 59.1011 456.476 57.5765 447.198C56.0519 437.92 51.5576 429.387 44.7685 422.881C42.3803 420.792 39.737 419.013 36.9016 417.588C38.225 418.691 39.916 420.161 41.6806 421.925C51.018 430.158 62.561 444.638 55.6499 462.647C44.7685 491.02 39.6219 501.311 50.9444 518.658C57.9291 529.243 57.2674 545.487 55.6499 556.513V558.424C58.1145 549.076 58.6894 539.33 57.3409 529.757V529.757Z" fill="#0E4581"/>
</g>
<path d="M59.8408 557.175C59.793 558.42 59.9673 559.665 60.3555 560.85C60.115 559.635 59.9431 558.408 59.8408 557.175V557.175Z" fill="#0E4581"/>
<path d="M71.0902 510.866C86.1624 497.415 100.499 482.052 94.2499 454.194C92.6454 448.657 92.1765 442.854 92.8714 437.132C93.5663 431.41 95.4106 425.887 98.2937 420.896C81.3099 440.301 103.661 464.999 78.6631 488.594C56.6063 509.396 58.5178 545.634 59.8412 557.174C59.8412 556.439 59.8412 555.557 59.8412 554.675C57.7091 539.092 61.8264 519.025 71.0902 510.866Z" fill="#0E4581"/>
<path d="M99.1018 459.339C95.9524 452.649 94.5755 445.261 95.1034 437.886C95.6312 430.511 98.0461 423.394 102.116 417.221C100.738 418.332 99.4584 419.562 98.2931 420.896C95.4101 425.887 93.5658 431.41 92.8709 437.132C92.176 442.854 92.6449 448.657 94.2493 454.194C100.499 481.905 86.1618 497.415 71.0897 510.866C61.8258 519.025 57.7085 539.092 59.9142 554.969C61.6994 541.182 67.3591 528.183 76.2363 517.482C88.5881 503.075 110.057 482.64 99.1018 459.339Z" fill="#0E4581"/>
<g style="mix-blend-mode:multiply" opacity="0.57">
<g style="mix-blend-mode:multiply" opacity="0.57">
<path d="M59.8412 557.174C59.8412 556.439 59.8412 555.557 59.8412 554.675C57.6356 539.092 61.7528 519.025 71.0167 510.572C86.0889 497.121 100.426 481.758 94.1763 453.9C92.5719 448.363 92.103 442.56 92.7979 436.838C93.4928 431.116 95.3371 425.593 98.2201 420.602C95.1797 424.026 93.0774 428.179 92.1177 432.657C90.7942 440.874 91.1443 449.275 93.147 457.354C96.1615 471.32 89.1768 488.006 71.0902 507.338C66.7346 512.041 63.4046 517.598 61.3117 523.656C59.2127 534.7 58.7175 545.989 59.8412 557.174V557.174Z" fill="#0E4581"/>
</g>
<g style="mix-blend-mode:multiply" opacity="0.57">
<path d="M80.3537 505.427C93.0731 497.121 101.749 478.818 95.0582 452.503C93.7742 446.966 93.7742 441.208 95.0582 435.67C95.8857 429.076 98.2258 422.762 101.896 417.221C100.517 418.332 99.2379 419.562 98.0726 420.896C95.1896 425.887 93.3453 431.41 92.6504 437.132C91.9555 442.854 92.4244 448.657 94.0289 454.194C100.499 481.905 86.162 497.415 71.0898 510.866C61.8259 519.025 57.7087 539.092 59.9143 554.969C59.9143 554.234 59.9143 553.426 59.9143 552.544C59.6202 535.343 69.7664 512.336 80.3537 505.427Z" fill="#0E4581"/>
</g>
</g>
<path d="M78.0012 431.848C74.6299 422.202 73.9088 411.828 75.9133 401.808C77.9177 391.788 82.5742 382.49 89.3972 374.882C88.5483 375.385 87.7374 375.95 86.971 376.572C46.3129 407.15 82.1185 467.204 63.7378 496.606C45.7983 524.318 57.7825 556.292 59.4 560.188V560.556C55.1356 546.737 62.4879 519.319 75.7955 501.752C89.1031 484.184 89.8384 465.146 78.0012 431.848Z" fill="#0E4581"/>
<path d="M66.0905 506.162C78.1482 487.859 79.6922 480.435 71.2371 436.847C68.8597 426.274 69.0475 415.285 71.7846 404.8C74.5218 394.314 79.7289 384.635 86.9709 376.572C46.3129 407.15 82.1184 467.204 63.7377 496.606C45.7982 524.318 57.7824 556.292 59.3999 560.188C56.8315 551.195 56.1003 541.777 57.2497 532.495C58.3992 523.213 61.4058 514.257 66.0905 506.162V506.162Z" fill="#0E4581"/>
<path d="M78.0008 431.848C74.6295 422.202 73.9084 411.828 75.9129 401.808C77.9173 391.788 82.5738 382.49 89.3968 374.882C88.5479 375.385 87.737 375.95 86.9706 376.572C79.7029 384.622 74.4687 394.294 71.7058 404.78C68.9429 415.267 68.7317 426.262 71.0897 436.846C79.5448 480.435 78.0008 487.859 65.9431 506.162C61.1678 514.191 58.0561 523.099 56.793 532.355C55.53 541.611 56.1413 551.026 58.5908 560.041V560.409C54.3265 546.59 61.6788 519.172 74.9864 501.605C88.294 484.037 89.838 465.146 78.0008 431.848Z" fill="#0E4581"/>
<g style="mix-blend-mode:multiply" opacity="0.61">
<g style="mix-blend-mode:multiply" opacity="0.61">
<path d="M66.0908 506.162C78.1485 487.859 79.6925 480.435 71.2374 436.846C68.8601 426.273 69.0478 415.285 71.785 404.8C74.5221 394.314 79.7292 384.635 86.9713 376.572C85.1284 377.972 83.3613 379.469 81.6776 381.056C70.1355 398.497 65.8862 419.765 69.8405 440.301C76.0164 480.876 73.7372 489.476 62.4882 503.883C56.1652 512.189 53.886 528.801 54.4742 543.87C55.3288 549.402 56.7833 554.824 58.812 560.041C56.3517 551.031 55.7282 541.618 56.9786 532.363C58.229 523.107 61.3278 514.197 66.0908 506.162Z" fill="#0E4581"/>
</g>
<g style="mix-blend-mode:multiply" opacity="0.61">
<path d="M76.1634 444.123C72.4873 434.274 67.8554 398.477 86.6036 377.969C87.466 376.81 88.3991 375.705 89.3975 374.661C88.5486 375.165 87.7376 375.73 86.9713 376.352C79.6693 384.425 74.4152 394.135 71.6514 404.663C68.8876 415.191 68.6952 426.229 71.0904 436.846C79.5455 480.435 78.0015 487.859 65.9438 506.162C61.1684 514.191 58.0568 523.099 56.7937 532.355C55.5307 541.611 56.142 551.026 58.5915 560.041V560.409C56.8127 552.392 57.04 544.06 59.2532 536.152C60.351 526.054 63.5304 516.293 68.5906 507.485C89.9122 472.202 80.0601 454.708 76.1634 444.123Z" fill="#0E4581"/>
</g>
</g>
<path d="M106.602 496.606C105.646 500.649 102.852 506.162 78.4426 516.232C61.7529 523.142 59.7678 540.856 60.1354 551.368C60.2432 554.084 60.5628 556.787 61.0912 559.453C61.0912 559.453 57.6356 533.947 81.3835 528.875C99.176 525.126 104.984 506.824 106.381 499.473C106.896 497.047 106.822 495.871 106.602 496.606Z" fill="#0E4581"/>
<path d="M87.6329 517.114C95.5241 513.301 102.065 507.173 106.381 499.546C106.896 497.047 106.822 495.871 106.381 496.9C105.425 500.943 102.631 506.456 78.222 516.526C61.5323 523.436 59.5472 541.15 59.9148 551.662C60.8706 538.063 72.1931 525.347 87.6329 517.114Z" fill="#0E4581"/>
<path d="M87.6322 517.114C72.1924 525.347 60.8699 538.063 60.1347 551.662C60.2425 554.378 60.562 557.081 61.0905 559.747C61.0905 559.747 57.6349 534.241 81.3827 529.169C99.1752 525.42 104.984 507.118 106.38 499.767C102.029 507.311 95.492 513.36 87.6322 517.114V517.114Z" fill="#0E4581"/>
<g style="mix-blend-mode:multiply" opacity="0.5">
<g style="mix-blend-mode:multiply" opacity="0.5">
<path d="M60.1357 551.662C60.8709 538.063 72.1934 525.347 87.6332 517.114C95.5245 513.301 102.065 507.173 106.381 499.546C106.381 498.591 106.381 497.856 106.749 497.341C106.474 497.976 106.155 498.59 105.793 499.179C105.531 499.773 105.211 500.339 104.837 500.87C100.719 507.116 94.4768 511.66 87.2656 513.659C81.1637 515.853 75.6281 519.38 71.062 523.983C66.4959 528.586 63.0143 534.15 60.8709 540.268C60.2487 544.032 60.0025 547.849 60.1357 551.662V551.662Z" fill="#0E4581"/>
</g>
<g style="mix-blend-mode:multiply" opacity="0.5">
<path d="M77.7809 526.008C93.8824 517.849 101.749 510.499 105.352 503.957C105.777 502.532 106.121 501.084 106.381 499.62C102.065 507.246 95.5242 513.375 87.6329 517.188C72.1932 525.42 60.8707 538.137 60.1354 551.735C60.2432 554.451 60.5628 557.154 61.0912 559.821C61.0053 558.793 61.0053 557.761 61.0912 556.733C60.3548 550.515 61.5642 544.222 64.553 538.72C67.5419 533.217 72.1632 528.776 77.7809 526.008V526.008Z" fill="#0E4581"/>
</g>
</g>
<g style="mix-blend-mode:multiply" opacity="0.47">
<g style="mix-blend-mode:multiply" opacity="0.47">
<path d="M54.8499 551.99C55.1738 551.207 55.4655 550.411 55.7241 549.603V555.41V556.072V557.027C55.7436 557.297 55.7436 557.567 55.7241 557.836V558.351V558.792V559.159C55.4847 558.436 55.2883 557.7 55.1359 556.954V555.41V554.602V552.985V552.323L54.8499 551.99L54.2536 551.294C56.3718 548.037 57.9601 544.464 58.9591 540.709V542.106C58.9236 542.522 58.9236 542.94 58.9591 543.356V546.296C58.9932 546.687 58.9932 547.08 58.9591 547.472V548.06C58.9227 548.426 58.9227 548.796 58.9591 549.162V549.971V550.927V551.662C58.9918 551.972 58.9925 552.285 58.9613 552.596C59.067 555.047 59.3612 557.487 59.8413 559.894V557.542C59.2089 551.15 60.9497 544.75 64.7323 539.558C68.5149 534.367 74.0751 530.747 80.3542 529.39C86.4734 527.892 92.054 524.719 96.4696 520.226C100.885 515.734 103.961 510.1 105.352 503.957C105.352 503.148 105.793 502.413 105.94 501.678C105.969 501.409 105.969 501.138 105.94 500.869C105.976 500.577 105.976 500.28 105.94 499.987C105.975 499.719 105.975 499.447 105.94 499.179C115.425 495.063 107.778 486.536 121.233 483.302C136.378 479.7 123.144 473.893 130.497 470.218C137.849 466.543 127.923 466.102 136.893 455.517C145.863 444.932 126.159 442.58 139.172 429.349C152.186 416.118 126.673 412.81 138.07 403.181L139.025 402.299L139.54 401.711L139.981 401.196V400.755V400.241V399.8C140.019 399.63 140.019 399.455 139.981 399.285V398.844V398.33V397.889C140.023 397.695 140.023 397.494 139.981 397.301V396.713V395.978V395.022V386.863C140.018 386.545 140.018 386.225 139.981 385.907V384.952C140.119 383.538 140.365 382.138 140.716 380.762V380.027V379.586V378.851V378.41V377.748V377.234L141.157 376.572V376.058L141.599 375.323V374.808L142.113 374.146L142.481 373.632L143.069 372.97L143.951 371.941L144.392 371.5L143.951 371.794L143.29 372.309L142.628 372.823L141.819 373.558L141.305 374.146L140.643 374.955C133.291 385.466 127.703 391.273 131.232 401.049C134.761 410.826 125.424 408.914 130.57 420.602C135.717 432.289 123.733 434.421 128.438 445.447C133.143 456.472 117.998 454.929 119.174 467.498C119.211 467.84 119.211 468.185 119.174 468.527V469.189V469.85C119.216 470.118 119.216 470.391 119.174 470.659V471.247V471.688C119.195 471.834 119.195 471.983 119.174 472.129L118.66 472.643H118.292H117.851C117.289 473.03 116.699 473.373 116.086 473.673C116.086 472.055 115.645 470.512 115.498 468.968V466.763V465.881C115.534 465.662 115.534 465.439 115.498 465.219C115.534 465 115.534 464.777 115.498 464.558C115.533 464.29 115.533 464.018 115.498 463.749C115.464 463.53 115.464 463.307 115.498 463.088V462.5V461.838C115.498 461.324 116.013 460.736 116.233 460.148V459.486C116.383 459.282 116.507 459.06 116.601 458.825L117.042 458.016L117.704 457.06C117.857 456.762 118.055 456.489 118.292 456.252L118.88 455.517V455.149L119.542 454.341C119.838 453.931 120.157 453.538 120.498 453.165C132.555 439.346 117.263 447.064 124.027 431.113C130.791 415.162 115.498 420.308 118.071 414.501C120.645 408.694 118.66 401.784 109.543 397.889L108.587 397.448L107.925 397.007L107.263 396.566L106.528 395.978C106.302 395.714 106.056 395.469 105.793 395.242C103.68 395.289 101.595 394.756 99.7642 393.699C99.7642 393.258 99.3966 392.817 99.2495 392.449V392.964V393.405V393.699V394.581C99.2847 394.898 99.2847 395.219 99.2495 395.537C97.7791 406.93 110.572 414.354 102.632 420.455C94.6911 426.556 110.351 436.479 100.205 442.506L99.4701 443.021L98.9554 443.462L98.5143 443.976C98.3055 444.136 98.1305 444.336 97.9996 444.564C97.9755 444.735 97.9755 444.908 97.9996 445.079C97.9785 445.175 97.9714 445.274 97.9783 445.372C97.9853 445.421 97.9924 445.471 97.9996 445.52C97.9889 445.471 97.9818 445.422 97.9783 445.372C97.9714 445.274 97.9785 445.175 97.9996 445.079C97.9755 444.908 97.9755 444.735 97.9996 444.564C98.1305 444.336 98.3055 444.136 98.5143 443.976L98.9554 443.462L99.4701 443.021L100.205 442.506C110.351 436.479 94.6911 426.556 102.632 420.455C110.572 414.354 97.7791 406.93 99.2495 395.537C99.2847 395.219 99.2847 394.898 99.2495 394.581V393.699V393.405V392.964V392.449C99.3966 392.817 99.7642 393.258 99.7642 393.699C101.595 394.756 103.68 395.289 105.793 395.242C106.056 395.469 106.302 395.714 106.528 395.978L107.263 396.566L107.925 397.007L108.587 397.448L109.543 397.889C118.66 401.784 120.645 408.694 118.071 414.501C115.498 420.308 130.791 415.162 124.027 431.113C117.263 447.064 132.555 439.346 120.498 453.165C120.157 453.538 119.838 453.931 119.542 454.341L118.88 455.149V455.517L118.292 456.252C118.055 456.489 117.857 456.762 117.704 457.06L117.042 458.016L116.601 458.825C116.507 459.06 116.383 459.282 116.233 459.486V460.148C116.013 460.736 115.498 461.324 115.498 461.838V462.5V463.088C115.464 463.307 115.464 463.53 115.498 463.749C115.533 464.018 115.533 464.29 115.498 464.558C115.534 464.777 115.534 465 115.498 465.219C115.534 465.439 115.534 465.662 115.498 465.881V466.763V468.968C115.645 470.512 116.086 472.055 116.086 473.673C116.699 473.373 117.289 473.03 117.851 472.643H118.292H118.66L119.174 472.129C119.195 471.983 119.195 471.834 119.174 471.688V471.247V470.659C119.216 470.391 119.216 470.118 119.174 469.85V469.189V468.527C119.211 468.185 119.211 467.84 119.174 467.498C117.998 454.929 133.143 456.472 128.438 445.447C123.733 434.421 135.717 432.289 130.57 420.602C125.424 408.914 134.761 410.826 131.232 401.049C127.703 391.273 133.291 385.466 140.643 374.955L141.305 374.146L141.819 373.558L142.628 372.823L143.29 372.309L143.951 371.794L144.392 371.5L144.834 371.059C145.214 370.63 145.632 370.237 146.083 369.883H148.73L147.922 370.324H147.554H146.966H146.378L145.495 370.839L144.834 371.206L144.392 371.5L143.951 371.941L143.069 372.97L142.481 373.632L142.113 374.146L141.599 374.808V375.323L141.157 376.058V376.572L140.716 377.234V377.748V378.41V378.851V379.586V380.027V380.762C140.365 382.138 140.119 383.538 139.981 384.952V385.907C140.018 386.225 140.018 386.545 139.981 386.863V395.022V395.978V396.713V397.301C140.023 397.494 140.023 397.695 139.981 397.889V398.33V398.844V399.285C140.019 399.455 140.019 399.63 139.981 399.8V400.241V400.755V401.196L139.54 401.711L139.025 402.299L138.07 403.181C126.673 412.81 152.186 416.118 139.172 429.349C126.159 442.58 145.863 444.932 136.893 455.517C127.923 466.102 137.849 466.543 130.497 470.218C123.144 473.893 136.378 479.7 121.233 483.302C107.778 486.536 115.425 495.063 105.94 499.179C105.975 499.447 105.975 499.719 105.94 499.987C105.976 500.28 105.976 500.577 105.94 500.869C105.969 501.138 105.969 501.409 105.94 501.678C105.793 502.413 105.352 503.148 105.352 503.957C103.961 510.1 100.885 515.734 96.4696 520.226C92.054 524.719 86.4734 527.892 80.3542 529.39C74.0751 530.747 68.5149 534.367 64.7323 539.558C60.9497 544.75 59.2089 551.15 59.8413 557.542V559.894C59.3612 557.487 59.067 555.047 58.9613 552.596C58.9606 552.603 58.9598 552.61 58.9591 552.617V553.205V554.749V554.822V555.631C58.9197 555.338 58.9197 555.042 58.9591 554.749V553.205V552.617V552.544C58.9598 552.561 58.9605 552.578 58.9613 552.596C58.9925 552.285 58.9918 551.972 58.9591 551.662V550.927V549.971V549.162C58.9227 548.796 58.9227 548.426 58.9591 548.06V547.472C58.9932 547.08 58.9932 546.687 58.9591 546.296V543.356C58.9236 542.94 58.9236 542.522 58.9591 542.106V540.709C57.9601 544.464 56.3718 548.037 54.2536 551.294L54.8499 551.99Z" fill="#0E4581"/>
</g>
<g style="mix-blend-mode:multiply" opacity="0.47">
<path d="M59.8415 557.174C59.9438 558.408 60.1157 559.635 60.3562 560.85C59.968 559.665 59.7937 558.42 59.8415 557.174V557.174Z" fill="#0E4581"/>
</g>
</g>
<g style="mix-blend-mode:multiply" opacity="0.47">
<path d="M44.695 552.103C44.695 552.103 60.7965 564.525 65.2078 545.855C65.2078 545.855 61.6787 555.41 44.695 552.103Z" fill="#0E4581"/>
</g>
<path d="M164.905 793.861C164.905 793.861 126.379 749.243 146.304 677.502C166.229 605.761 126.159 631.562 150.421 560.997C174.684 490.432 144.613 514.247 160.2 442.947C175.787 371.647 137.261 372.529 149.833 322.105C162.406 271.68 135.129 294.32 152.921 261.757C170.714 229.194 133.438 208.98 149.171 176.638C164.905 144.296 125.13 133.711 150.348 103.721C175.566 73.7306 142.996 74.3187 157.7 56.2364C172.405 38.1541 160.494 23.7471 180.639 6.10584C200.784 -11.5354 173.287 13.4564 181.374 38.2276C189.462 62.9989 188.727 70.4229 180.566 82.3307C172.405 94.2386 197.108 115.996 182.477 138.048C167.846 160.099 179.757 171.346 188.506 186.414C197.255 201.483 174.022 241.469 200.049 268.74C226.076 296.01 185.345 342.245 207.99 378.998C230.635 415.75 201.446 455.149 219.68 477.568C237.913 499.987 195.197 546.516 216.812 580.476C238.428 614.435 168.067 623.403 183.727 655.451C199.387 687.499 127.188 743.216 164.905 793.861Z" fill="#0E4581"/>
<g style="mix-blend-mode:overlay">
<g style="mix-blend-mode:overlay">
<path d="M156.45 680.369C176.301 608.554 136.304 634.428 160.567 563.79C184.829 493.151 154.685 517.114 170.345 445.814C186.006 374.514 147.333 375.396 159.979 324.898C172.625 274.4 145.274 297.186 163.067 264.624C180.859 232.061 143.657 211.7 159.317 179.358C174.977 147.015 135.275 136.43 160.493 106.367C185.712 76.3032 153.141 76.9647 167.846 58.956C178.874 45.872 175.198 34.4787 180.418 22.2034C183.285 4.4886 196.372 -7.86028 180.418 5.8852C160.273 23.5265 172.551 38.154 157.479 56.0158C142.407 73.8775 175.051 73.4365 150.127 103.5C125.202 133.564 164.831 144.149 148.95 176.417C133.069 208.686 170.492 228.974 152.7 261.536C134.907 294.099 162.331 271.386 149.612 321.884C136.893 372.382 175.786 371.647 160.199 442.947C144.612 514.247 174.904 490.358 150.421 560.997C125.938 631.635 166.155 605.688 146.303 677.502C126.452 749.317 164.905 793.861 164.905 793.861C160.433 788.04 157.2 781.365 155.405 774.249C153.609 767.132 153.289 759.723 154.464 752.478C148.927 728.669 149.611 703.837 156.45 680.369V680.369Z" fill="#0E4581"/>
</g>
</g>
<g style="mix-blend-mode:multiply" opacity="0.47">
<path d="M189.756 606.35C208.651 583.784 184.242 550.265 194.902 517.629C205.563 484.993 191.888 458.825 199.24 428.246C206.593 397.668 183.948 341.951 190.418 310.638C196.888 279.325 174.904 248.085 176.448 210.671C177.992 173.257 158.803 161.129 169.611 129.08C178.58 102.471 160.126 104.015 180.345 32.1269C179.975 29.0754 179.975 25.9903 180.345 22.9388C157.995 91.9962 153.917 165.664 168.508 236.765C198.652 379.733 183.212 482.273 183.212 544.899C183.212 598.485 129.026 719.474 157.406 783.277C159.556 786.912 162.016 790.355 164.758 793.567C159.911 787.183 156.528 779.81 154.851 771.972C153.174 764.134 153.243 756.023 155.053 748.215C153.394 729.975 155.368 711.587 160.861 694.115C182.845 621.565 170.86 628.916 189.756 606.35Z" fill="#0E4581"/>
</g>
<path d="M159.318 796.728C159.318 796.728 153.142 740.202 190.785 725.575C228.429 710.947 218.209 670.74 253.132 664.124C288.056 657.509 262.985 630.753 294.967 622.815C326.949 614.876 299.011 599.513 314.303 590.913C329.596 582.313 308.863 580.476 327.464 555.484C346.065 530.492 304.598 522.553 331.728 490.579C358.858 458.604 304.966 448.901 328.787 425.747C352.609 402.593 322.832 369.81 357.461 336.879C364.814 330.117 335.404 342.833 324.964 358.931C309.01 384.437 297.981 398.477 305.701 423.027C313.421 447.578 293.57 442.212 304.672 471.394C315.774 500.575 290.556 505.206 300.775 532.844C310.995 560.482 278.718 555.704 281.806 586.723C284.894 617.743 245.045 608.775 235.561 639.574C226.076 670.372 193.064 680.957 192.109 698.378C191.153 715.799 134.246 725.722 159.318 796.728Z" fill="#0E4581"/>
<g style="mix-blend-mode:overlay">
<path d="M196.446 703.082C197.402 686.029 230.487 675.371 239.898 644.278C249.309 613.185 288.864 622.227 286.144 591.502C283.424 560.776 315.553 565.187 305.113 537.622C294.673 510.058 319.818 505.353 309.01 476.172C298.202 446.99 317.759 452.283 310.039 427.732C302.319 403.181 313.715 389.509 329.302 364.297C334.719 356.665 341.746 350.317 349.888 345.7C352.051 342.622 354.514 339.765 357.241 337.173C364.593 330.411 335.184 343.127 324.744 359.225C308.789 384.731 297.761 398.771 305.481 423.322C313.201 447.872 293.349 442.506 304.451 471.688C315.553 500.87 290.335 505.5 300.555 533.138C310.774 560.776 278.498 555.999 281.586 587.018C284.674 618.037 244.824 609.069 235.34 639.868C225.856 670.667 192.844 681.251 191.888 698.672C190.932 716.093 134.026 726.016 159.17 797.022C158.94 793.032 158.94 789.031 159.17 785.041C147.774 728.662 195.564 718.665 196.446 703.082Z" fill="#0E4581"/>
</g>
<g style="mix-blend-mode:multiply" opacity="0.59">
<path d="M157.479 768.575C155.861 744.833 185.27 715.431 201.592 703.156C216.634 693.057 229.385 679.909 239.016 664.566C246.809 650.379 257.617 647.512 263.425 633.987C269.233 620.462 300.701 603.63 302.539 585.327C304.377 567.024 326.213 551.147 317.244 529.463C308.274 507.779 325.184 482.346 321.508 470.659C317.832 458.971 318.199 468.968 316.214 413.913C315.185 373.338 343.124 346.288 357.828 334.895C356.916 334.97 356.022 335.194 355.181 335.556C338.786 346.876 310.186 371.647 311.509 411.708C313.421 467.351 318.42 480.288 311.509 503.957C304.598 527.625 321.287 540.709 302.098 566.877C282.909 593.045 290.334 608.922 262.616 629.062C234.898 649.203 237.913 670.078 209.018 692.939C181.962 714.402 142.333 747.038 158.949 795.331C158.949 793.347 158.949 789.451 158.949 784.453C158.949 779.454 157.846 774.603 157.479 768.575Z" fill="#0E4581"/>
</g>
<path d="M151.965 794.008C151.965 794.008 144.613 754.903 117.924 750.567C91.2354 746.23 126.894 709.992 100.867 698.157C74.8398 686.323 121.6 674.342 86.1623 657.656C50.7243 640.97 54.327 617.669 63.2967 597.382C72.2665 577.094 23.0063 574.375 41.2399 541.812C59.4736 509.249 23.0063 518.878 44.9161 489.697C66.8258 460.515 24.1827 440.889 53.0036 424.718C81.8245 408.547 53.0035 399.138 72.7812 388.774C92.5588 378.41 60.8705 374.734 78.5159 359.372C84.0069 354.562 88.218 348.465 90.7716 341.627C93.3251 334.789 94.1413 327.424 93.147 320.194C93.147 318.062 106.234 340.996 97.9259 355.329C89.6179 369.663 112.189 374.44 92.5588 387.965C72.9282 401.49 96.4555 402.666 80.0599 416.632C63.6643 430.598 94.0292 441.698 70.649 461.985C47.2688 482.273 91.0148 479.406 65.2083 506.088C39.4019 532.771 101.97 510.866 78.81 551.441C55.6504 592.016 121.821 566.657 107.043 619.58C92.2647 672.504 129.1 638.398 119.983 671.475C110.866 704.552 139.834 680.296 131.085 710.653C122.335 741.011 147.995 744.392 151.965 794.008Z" fill="#0E4581"/>
<g style="mix-blend-mode:overlay">
<path d="M107.852 700.804C81.8245 688.896 128.585 676.988 93.5146 660.302C58.4443 643.617 61.6058 620.316 70.6491 600.028C79.6924 579.741 30.2851 577.021 48.5923 544.458C66.8994 511.895 30.2851 521.525 52.1949 492.269C74.1047 463.014 31.535 443.536 60.2824 427.364C89.0298 411.193 60.2824 401.785 80.1335 391.42C99.9847 381.056 68.2228 377.307 85.7948 362.018C93.3888 355.428 98.349 346.319 99.7641 336.365C98.8659 330.528 96.5984 324.986 93.147 320.194C94.1659 327.347 93.4114 334.64 90.95 341.433C88.4885 348.226 84.3955 354.311 79.0307 359.152C61.3852 374.588 93.2941 378.263 73.2959 388.554C53.2977 398.844 82.2657 408.326 53.5183 424.498C24.7709 440.669 67.3406 460.221 45.4308 489.476C23.521 518.731 60.1353 509.029 41.7547 541.591C23.374 574.154 72.6342 576.947 63.8115 597.161C54.9887 617.375 51.6067 640.75 86.677 657.436C121.747 674.121 75.0605 686.029 101.382 697.937C127.703 709.845 91.8972 745.936 118.439 750.346C105.646 740.938 130.938 711.315 107.852 700.804Z" fill="#0E4581"/>
</g>
<g style="mix-blend-mode:multiply" opacity="0.59">
<path d="M93.1465 347.538C80.5006 375.176 96.6756 375.396 81.6035 388.921C66.5313 402.446 83.9562 401.932 67.8547 423.028C51.7533 444.124 62.3405 458.898 58.4438 484.405C54.5471 509.911 47.1213 511.895 57.7821 535.197C68.4429 558.498 59.8408 573.86 77.8538 598.411C95.8669 622.962 86.8971 643.249 103.366 662.14C119.835 681.031 104.396 687.646 114.174 703.009C123.953 718.372 112.924 731.97 126.452 744.245C135.512 753.446 142.549 764.437 147.112 776.514C147.112 776.514 136.084 746.304 129.099 739.762C122.114 733.22 122.482 720.797 121.306 710.36C120.129 699.922 111.527 695.659 113.953 678.605C116.38 661.552 94.8376 656.554 95.2787 631.709C95.7198 606.864 79.1772 604.292 72.7808 578.859C66.3843 553.426 68.4429 547.913 60.6495 530.713C52.8561 513.513 53.2972 510.205 57.6351 499.547C61.2461 486.189 62.7591 472.352 62.12 458.531C61.499 447.952 64.0597 437.431 69.4722 428.32C74.252 421.257 77.3228 413.179 78.442 404.725C78.777 401.406 79.8321 398.201 81.5337 395.331C83.2352 392.462 85.5423 389.999 88.294 388.113C94.1023 383.702 91.0144 368.046 91.5291 360.548C91.5291 356.947 97.1168 345.847 99.6901 335.115C99.0106 332.525 98.1255 329.994 97.0433 327.544C97.6545 334.443 96.3037 341.374 93.1465 347.538V347.538Z" fill="#0E4581"/>
</g>
<path d="M159.317 796.728C159.317 792.832 132.554 740.937 180.418 683.603C228.281 626.269 185.638 627.96 218.503 596.206C251.367 564.451 207.327 546.663 227.693 512.116C248.059 477.568 217.106 448.975 232.251 424.35C247.397 399.726 220.488 376.572 233.942 349.669C247.397 322.766 219.238 312.402 237.618 286.528C255.999 260.654 257.47 259.625 248.426 236.177C239.383 212.729 254.529 207.51 244.088 184.135C233.648 160.761 245.559 190.751 232.251 206.187C218.944 221.623 232.692 242.498 215.488 254.7C198.284 266.902 228.355 287.043 202.033 307.11C175.712 327.176 218.135 365.105 185.491 388.333C152.847 411.56 202.769 447.137 169.904 479.112C137.039 511.087 199.313 556.072 152.847 588.634C106.38 621.197 169.316 653.613 143.803 674.415C118.291 695.217 159.317 796.728 159.317 796.728Z" fill="#0E4581"/>
<g style="mix-blend-mode:overlay" opacity="0.64">
<g style="mix-blend-mode:overlay" opacity="0.64">
<path d="M151.965 676.621C177.477 655.892 114.615 623.403 161.008 590.914C207.401 558.424 145.201 513.145 178.065 481.317C210.93 449.49 161.302 413.84 193.652 390.612C226.002 367.384 184.241 329.088 210.783 309.021C237.325 288.954 206.813 268.74 224.017 256.685C241.221 244.631 227.473 223.241 240.78 208.099C244.317 203.746 246.513 198.46 247.103 192.883C246.435 189.872 245.449 186.939 244.162 184.136C233.722 160.835 245.633 190.751 232.325 206.187C219.017 221.623 232.766 242.499 215.562 254.701C198.358 266.903 228.428 287.043 202.107 307.11C175.786 327.177 218.135 365.106 185.491 388.333C152.847 411.561 202.769 447.137 169.904 479.112C137.04 511.087 199.313 556.072 152.847 588.635C106.381 621.198 169.316 653.614 143.804 674.416C118.291 695.218 159.317 796.728 159.317 796.728C153.879 782.248 151.38 766.831 151.965 751.376C144.024 721.9 138.584 687.72 151.965 676.621Z" fill="#0E4581"/>
</g>
</g>
<g style="mix-blend-mode:multiply" opacity="0.42">
<path d="M165.199 693.894C205.269 643.469 168.508 652.878 189.388 622.447C210.268 592.016 185.712 583.122 201.152 567.759C216.591 552.396 195.564 504.839 207.548 490.726C219.532 476.613 191.226 452.87 211.298 421.704C231.369 390.538 199.681 355.549 217.547 336.291C235.413 317.033 223.282 272.121 232.252 264.33C241.221 256.538 233.869 227.577 242.692 210.597C245.736 202.443 246.324 193.576 244.383 185.091C244.383 185.091 244.383 184.503 244.015 184.135C242.545 180.828 241.516 178.622 240.78 177.299C242.398 192 240.119 214.052 229.017 248.599C198.872 342.76 206.004 419.793 189.756 479.259C173.507 538.724 184.903 614.214 164.905 652.437C145.512 693.544 142.13 740.4 155.42 783.864C153.675 777.666 152.518 771.316 151.965 764.9C147.48 741.452 148.362 715.063 165.199 693.894Z" fill="#0E4581"/>
</g>
<path d="M159.317 797.022C159.317 797.022 126.305 731.676 153.509 710.58C180.712 689.484 137.702 663.904 176.154 648.615C214.606 633.326 168.581 613.627 210.783 593.339C252.985 573.052 224.091 536.079 245.265 521.966C266.44 507.853 233.428 481.905 249.971 467.204C266.513 452.503 239.457 433.465 242.618 405.239C245.78 377.013 241.001 404.578 260.337 414.869C279.674 425.159 283.791 442.654 278.571 456.767C273.351 470.88 305.186 459.854 291.658 498.591C278.13 537.328 309.451 518.658 284.306 552.397C259.161 586.136 270.484 598.044 270.189 622.374C269.895 646.704 261.734 642.22 232.987 662.655C204.24 683.089 226.37 704.7 182.036 721.459C137.702 738.218 159.317 797.022 159.317 797.022Z" fill="#0E4581"/>
<g style="mix-blend-mode:overlay" opacity="0.7">
<g style="mix-blend-mode:overlay" opacity="0.7">
<path d="M163.582 716.534C190.785 695.364 147.848 669.858 186.227 654.569C224.606 639.28 178.875 619.581 221.003 599.367C263.132 579.153 234.311 542.106 255.412 527.92C276.513 513.733 243.428 488.006 259.97 473.526C276.513 459.045 249.383 439.713 252.618 411.561V409.209C242.104 397.521 245.266 381.865 242.472 405.533C239.531 433.759 266.661 453.018 249.824 467.498C232.987 481.979 266.44 507.779 245.339 521.966C224.238 536.152 253.28 573.419 210.857 593.339C168.434 613.259 214.533 633.326 176.154 648.615C137.776 663.904 180.639 689.41 153.509 710.58C126.379 731.749 159.318 797.022 159.318 797.022C155.171 784.933 153.472 772.14 154.318 759.387C151.377 742.775 151.965 725.575 163.582 716.534Z" fill="#0E4581"/>
</g>
</g>
<g style="mix-blend-mode:multiply" opacity="0.69">
<path d="M182.035 700.436C219.311 667.947 197.255 655.745 229.531 632.003C261.807 608.261 244.236 577.094 265.116 557.322C285.996 537.549 263.793 522.186 272.468 498.517C281.144 474.849 266.586 460.883 269.821 443.609C272.468 429.569 252.176 423.542 242.986 395.904C242.986 397.007 242.986 398.624 242.471 400.608C245.32 412.962 250.296 424.727 257.176 435.376C275.777 462.867 269.601 551 239.089 597.97C208.577 644.94 193.578 665.668 174.021 696.834C159.317 720.43 141.745 759.902 159.317 796.728C158.361 794.008 148.877 765.929 158.214 743.878C160.798 727.047 169.232 711.666 182.035 700.436V700.436Z" fill="#0E4581"/>
</g>
<path d="M156.671 799.154C156.671 799.154 105.94 778.131 115.351 740.349C124.762 702.568 87.2651 671.769 117.703 639.427C148.142 607.084 99.911 574.154 130.938 547.178C161.964 520.201 142.554 528.801 123.585 490.505C104.616 452.209 130.938 470.806 139.54 450.077C148.142 429.349 86.8975 405.019 118.071 386.128C149.245 367.237 134.026 345.626 112.777 318.43C91.5294 291.233 99.5434 287.704 105.425 272.636C111.307 257.567 61.3116 237.353 90.7206 202.438C120.13 167.523 70.6489 171.566 95.5731 144.369C120.497 117.172 114.101 92.9156 122.997 84.6095C131.893 76.3034 113.66 116.217 125.57 134.593C129.779 142.066 132.129 150.44 132.424 159.011C132.718 167.582 130.947 176.098 127.261 183.842C122.997 193.324 147.995 200.233 139.172 250.658C130.349 301.082 178.948 263.815 161.229 322.619C147.995 367.237 164.611 353.639 177.183 371.059C189.756 388.48 183.653 408.914 170.64 434.641C157.626 460.368 207.989 437.508 181.521 498.958C155.053 560.409 173.507 548.06 181.374 577.462C189.241 606.864 141.084 623.476 157.626 643.102C174.169 662.728 179.683 679.855 155.421 705.361C131.158 730.867 167.405 800.55 156.671 799.154Z" fill="#0E4581"/>
<g style="mix-blend-mode:overlay" opacity="0.7">
<g style="mix-blend-mode:overlay" opacity="0.7">
<path d="M126.894 740.57C136.304 702.642 98.8814 671.99 129.32 639.648C159.758 607.305 111.527 574.375 142.554 547.399C173.58 520.422 154.097 529.022 135.202 490.726C116.306 452.43 142.554 470.953 151.156 450.225C159.758 429.496 98.7343 405.239 129.908 386.349C161.082 367.458 145.789 345.921 124.614 318.724C103.44 291.527 111.38 287.925 117.262 272.857C123.144 257.788 73.1484 237.648 102.558 202.733C131.967 167.818 82.4123 171.86 107.41 144.663C113.479 138.299 118.448 130.972 122.115 122.979C119.762 103.427 130.717 77.7737 123.364 84.5362C114.468 92.7687 120.938 117.172 95.9404 144.296C70.9427 171.419 120.497 167.524 91.0879 202.365C61.6789 237.206 111.601 257.494 105.792 272.563C99.9842 287.631 91.9702 291.233 113.145 318.356C134.319 345.48 149.906 367.09 118.438 386.055C86.9707 405.019 147.848 429.276 139.907 450.004C131.967 470.733 105.351 452.209 123.953 490.432C142.554 528.655 162.111 519.834 131.305 547.105C100.499 574.375 148.583 607.085 118.071 639.354C87.5589 671.622 125.423 702.348 115.718 740.276C106.013 778.205 157.038 799.08 157.038 799.08C158.802 799.08 159.317 797.61 159.023 794.45C144.612 786.29 120.203 767.767 126.894 740.57Z" fill="#0E4581"/>
</g>
</g>
<g style="mix-blend-mode:multiply" opacity="0.48">
<path d="M141.525 710.213C154.171 667.359 140.496 619.581 156.818 588.929C173.14 558.277 153.068 541.739 166.082 495.357C179.095 448.975 158.141 443.903 163.655 405.828C169.169 367.752 148.951 369.075 149.833 322.105C150.715 275.135 126.6 289.763 130.202 247.13C133.805 204.497 119.542 212.435 119.027 160.394C118.898 144.861 119.857 129.338 121.894 113.938C122.556 98.0612 128.438 81.9635 124.835 83.4336C90.5002 172.448 141.378 280.501 151.965 390.979C163.508 508.22 148.877 580.843 135.864 682.06C126.967 751.449 144.319 784.967 156.082 799.007C159.832 799.448 157.847 791.656 154.685 779.307C144.98 761.74 134.099 735.204 141.525 710.213Z" fill="#0E4581"/>
</g>
<g style="mix-blend-mode:color-burn" opacity="0.44">
<path d="M357.828 334.895C357.266 334.83 356.699 334.83 356.137 334.895H355.622C343.591 339.901 333.128 348.051 325.331 358.49C309.377 383.996 298.348 398.036 306.068 422.587C313.788 447.137 293.937 441.771 305.039 470.953C316.141 500.135 290.922 504.765 301.142 532.403C311.362 560.041 279.085 555.263 282.173 586.283C283.003 591.083 282.22 596.023 279.945 600.332C277.671 604.641 274.033 608.075 269.601 610.098C267.763 592.972 264.013 579.814 284.305 552.397C309.376 518.952 277.321 537.034 291.216 498.591C305.112 460.148 273.056 471.1 278.276 457.061C283.496 443.021 279.306 425.453 260.043 415.163C257.263 413.623 254.775 411.607 252.69 409.209V409.209L251.147 407.371V406.93L250.558 406.121V405.68L250.044 404.945V404.504L249.529 403.696C248.78 402.418 248.116 401.092 247.544 399.726V399.726L247.103 398.771C246.294 396.713 245.779 395.096 245.485 394.287V396.125C245.449 396.418 245.449 396.714 245.485 397.007V397.595C245.45 397.814 245.45 398.037 245.485 398.256C245.485 398.256 245.485 398.256 245.485 398.844V401.344C245.45 401.563 245.45 401.786 245.485 402.005V403.475V404.137V406.489C242.544 434.715 269.674 453.973 252.838 468.454C236.001 482.934 269.454 508.735 248.353 522.921C232.104 533.726 245.412 557.983 233.648 577.83C238.206 556.734 214.973 540.048 230.854 513.071C251.294 478.524 220.267 449.931 235.413 425.306C250.558 400.682 223.649 377.528 237.104 350.625C250.558 323.722 222.399 313.358 240.78 287.484C259.16 261.61 260.631 260.581 251.588 237.133C243.5 216.037 254.823 209.716 249.75 191.854C249.587 191.207 249.391 190.569 249.161 189.943V189.943L248.5 188.031C248.5 188.031 248.5 188.031 248.5 187.664L247.544 185.385L246.735 183.621V183.254C246.509 182.827 246.312 182.385 246.147 181.931C246.121 181.735 246.121 181.538 246.147 181.343V180.828C239.53 166.788 248.573 193.25 236.368 207.143C223.061 221.844 236.81 243.454 219.605 255.656C204.239 266.535 226.958 283.809 212.768 301.597C213.503 295.498 212.727 289.311 210.509 283.582C208.291 277.852 204.699 272.756 200.048 268.74C174.021 241.47 197.548 201.483 188.726 186.414C179.903 171.346 167.992 160.026 182.697 138.048C197.401 116.07 172.845 94.3124 180.785 82.331C188.726 70.3497 189.314 62.7051 181.594 38.2279C180.975 36.3413 180.556 34.395 180.344 32.421C180.234 30.8793 180.234 29.3318 180.344 27.7902V27.7902C180.344 26.9816 180.344 26.2465 180.344 25.5115C180.344 24.7764 180.344 24.0414 180.344 23.3063L181.373 20.5866C181.373 20.5866 181.373 20.1456 181.373 19.9251C181.346 19.5581 181.346 19.1895 181.373 18.8225V18.161V16.9114C181.342 16.7413 181.342 16.5669 181.373 16.3968C181.501 15.8208 181.673 15.2556 181.888 14.7062V14.1917L182.329 13.0156V12.4276C182.298 12.0852 182.298 11.7408 182.329 11.3985V10.8105L182.77 9.78138C182.939 9.32862 183.135 8.88674 183.359 8.45829V7.87025C183.359 7.87025 183.359 7.35571 183.726 7.13519V6.54715V5.95911C184.167 5.07705 184.535 4.19498 184.903 3.53344V2.87189V2.35736V1.91632H184.535H184.167L183.579 2.35736L182.697 3.09241L181.741 3.82746L182.844 4.12148H182.476L180.859 5.51808C160.714 23.1593 172.992 37.7869 157.92 55.6486C142.848 73.5104 175.492 73.0694 150.567 103.133C125.643 133.197 165.272 143.781 149.391 176.05C133.51 208.319 170.933 228.606 153.141 261.169C149.387 266.367 147.239 272.552 146.965 278.957C141.009 274.915 136.672 268.152 139.613 249.923C148.435 199.498 123.438 192.589 127.702 183.107C131.388 175.363 133.158 166.847 132.864 158.276C132.57 149.705 130.219 141.331 126.011 133.858C124.092 130.495 122.914 126.761 122.555 122.906V122.906C122.519 122.318 122.519 121.729 122.555 121.142V121.142C122.555 120.48 122.555 119.892 122.555 119.304C122.555 117.466 122.555 115.702 122.555 113.865V111.292V110.778V108.425V108.058C122.555 107.176 122.555 106.294 122.555 105.412V104.824C122.555 103.942 122.555 103.133 122.555 102.324L122.996 99.8253V99.3107C122.996 97.7671 123.585 96.2235 123.805 94.8269C124.026 93.4303 124.467 91.5927 124.687 90.1961C124.687 89.5345 124.687 88.9465 125.055 88.3584C125.085 87.8443 125.085 87.3289 125.055 86.8148V86.8148V86.3738C125.087 86.1299 125.087 85.8827 125.055 85.6387V85.6387V84.6832C125.055 84.6832 125.055 84.3157 125.055 84.2421H124.761H124.32L123.585 84.8302C114.688 93.0628 121.158 117.466 96.1606 144.59C71.1629 171.713 120.717 167.818 91.3081 202.659C61.899 237.5 111.821 257.788 106.013 272.856C100.204 287.925 92.1904 291.527 113.365 318.65C134.539 345.774 150.126 367.384 118.659 386.349C87.1908 405.313 148.068 429.57 140.127 450.298C132.187 471.026 105.572 452.503 124.173 490.726C142.774 528.949 162.331 520.128 131.525 547.398C100.719 574.669 148.803 607.379 118.291 639.647C114.759 643.358 111.832 647.599 109.615 652.217C104.616 649.424 101.381 642.882 107.777 619.875C122.482 566.951 56.3113 592.31 79.5445 551.735C102.778 511.16 40.1363 532.844 65.9428 506.383C91.7492 479.921 48.0768 482.861 71.3835 462.279C94.6902 441.698 63.7371 430.452 80.2062 416.78C96.6753 403.108 72.8539 401.638 92.7051 388.113C112.556 374.588 89.7641 369.81 98.0722 355.476C99.7971 351.677 100.726 347.565 100.802 343.394C100.878 339.222 100.099 335.079 98.5133 331.22V331.22C98.5133 330.705 98.1457 330.191 97.9987 329.75C97.3691 327.943 96.6326 326.176 95.793 324.457V324.457L95.3519 323.502L94.9107 322.62C94.6812 322.155 94.4105 321.712 94.102 321.296V321.296C95.1208 328.449 94.3664 335.743 91.9049 342.536C89.4435 349.329 85.3504 355.413 79.9856 360.254C62.3402 375.69 94.249 379.366 74.2508 389.656C54.2527 399.947 83.2206 409.429 54.4732 425.6C25.7259 441.771 68.2955 461.324 46.3857 490.579C24.476 519.834 61.0903 510.131 42.7096 542.694C24.3289 575.257 73.5891 578.05 64.7664 598.264C55.9437 618.478 52.5616 641.853 87.632 658.538C122.702 675.224 76.0154 687.132 102.337 699.04C103.027 699.323 103.692 699.667 104.322 700.069V700.069L105.939 701.245H106.38H106.748L107.263 701.686C107.471 701.846 107.646 702.046 107.777 702.274V702.274L108.218 702.788L108.659 703.45L109.101 704.259L109.468 704.994C109.456 705.238 109.456 705.484 109.468 705.729C109.5 706.022 109.5 706.318 109.468 706.611V706.611C112.997 717.857 104.395 733.293 107.41 742.334V742.996V743.657L107.777 744.245L108.145 744.76L108.586 745.274C108.738 745.464 108.911 745.636 109.101 745.789V745.789L109.615 746.23L110.277 746.598H110.939H111.674H112.115C112.115 778.646 154.611 796.287 154.611 796.287H155.346H155.714C155.714 796.287 155.714 796.287 155.714 795.846C155.755 795.504 155.755 795.159 155.714 794.817V794.817C155.75 794.573 155.75 794.326 155.714 794.082L156.523 795.699C156.439 794.058 156.439 792.415 156.523 790.774V790.774C156.523 790.774 156.523 790.186 156.523 789.892V785.408V784.6C158.154 787.162 159.946 789.617 161.89 791.95V791.95L162.258 792.465L160.419 789.819L159.978 789.157L158.875 787.393L158.508 786.731V786.29C158.143 785.793 157.846 785.249 157.626 784.673V784.232V783.571V783.056C158.14 765.562 162.993 734.69 189.387 724.252C227.031 709.551 216.811 669.417 251.735 662.802C286.658 656.186 261.587 629.43 293.569 621.492C325.551 613.553 299.01 599.514 314.303 590.914C329.595 582.313 308.862 580.476 327.463 555.484C346.064 530.492 304.598 522.554 331.727 490.579C358.857 458.604 304.965 448.901 328.786 425.747C350.843 404.651 327.61 375.396 349.887 345.333C350.917 344.01 352.02 342.613 353.27 341.216C353.745 340.618 354.261 340.054 354.814 339.526L355.255 339.011L357.24 337.1C358.784 335.556 358.784 334.895 357.828 334.895Z" fill="#0E4581"/>
</g>
<path d="M211.812 814.516C211.812 814.516 177.845 773.794 203.431 714.182C229.016 654.569 187.844 673.68 218.135 615.391C248.426 557.101 216.371 575.183 237.986 515.718C259.602 456.252 221.444 454.12 238.354 412.149C255.264 370.177 226.296 387.451 246.588 361.063C266.881 334.674 231.884 314.754 250.264 288.366C268.645 261.978 230.413 250.143 257.617 226.401C284.82 202.659 252.764 200.674 269.233 186.561C285.702 172.448 274.821 159.144 296.143 145.619C317.464 132.094 288.79 151.573 294.011 172.963C299.231 194.353 298.275 200.895 289.379 210.45C280.482 220.006 302.76 240.294 286.438 257.935C270.116 275.576 280.85 286.161 288.202 299.539C295.554 312.917 269.086 345.332 292.099 370.545C315.112 395.757 271.292 432.216 290.334 464.705C309.377 497.194 277.321 529.022 293.202 549.383C309.083 569.744 263.204 606.276 281.512 636.634C299.819 666.991 230.046 669.638 242.471 698.084C254.896 726.531 179.168 768.575 211.812 814.516Z" fill="#0E4581"/>
<g style="mix-blend-mode:overlay">
<g style="mix-blend-mode:overlay">
<path d="M213.356 717.122C239.089 657.582 197.622 676.62 227.546 618.331C257.47 560.041 225.855 578.27 247.544 518.658C269.233 459.045 231.075 457.134 247.912 415.089C264.749 373.044 235.854 390.391 256.146 363.635C276.439 336.879 241.442 317.327 259.896 291.012C278.35 264.697 239.971 252.716 267.248 229.047C294.525 205.378 262.396 203.32 278.791 189.207C290.776 178.843 288.202 168.92 294.378 159.07C298.716 144.369 312.612 134.666 295.996 145.178C274.674 158.703 285.482 172.081 269.086 186.12C252.691 200.16 284.82 202.218 257.47 225.96C230.119 249.702 268.204 261.61 250.118 287.925C232.031 314.24 266.734 334.233 246.441 360.621C226.149 387.01 254.897 370.177 238.06 412.149C221.223 454.12 259.234 456.252 237.692 515.717C216.15 575.183 247.544 557.101 218.135 615.391C188.726 673.68 229.311 654.569 203.431 714.181C177.551 773.794 211.665 814.516 211.665 814.516C207.825 809.461 205.22 803.578 204.058 797.337C202.897 791.096 203.21 784.67 204.975 778.572C201.614 757.711 204.531 736.322 213.356 717.122V717.122Z" fill="#0E4581"/>
</g>
</g>
<g style="mix-blend-mode:multiply" opacity="0.47">
<path d="M252.47 656.848C272.983 639.059 251.956 608.702 265.263 581.799C278.571 554.896 267.469 531.448 277.247 506.015C287.026 480.582 269.895 431.554 278.865 405.386C287.835 379.218 269.086 351.066 273.865 319.385C278.644 287.704 260.852 275.87 273.865 249.702C285.041 227.651 266.513 227.651 292.908 167.964C292.854 165.335 293.176 162.711 293.863 160.173C266.115 216.182 255.599 279.159 263.646 341.143C280.85 464.999 257.176 551.073 251.514 604.438C246.735 649.938 183.138 748.949 205.489 805.254C207.219 808.515 209.237 811.614 211.518 814.516C207.357 808.959 204.658 802.447 203.669 795.576C202.679 788.705 203.432 781.695 205.857 775.191C205.94 759.417 209.505 743.855 216.297 729.618C244.383 669.27 231.957 674.636 252.47 656.848Z" fill="#0E4581"/>
</g>
<path d="M206.078 816.574C206.078 816.574 204.975 767.987 242.839 758.358C280.703 748.729 274.527 713.667 309.451 710.58C344.374 707.493 322.023 682.942 354.079 678.458C386.135 673.974 359.887 658.906 375.768 652.731C391.649 646.557 371.357 643.543 391.796 623.329C412.235 603.115 372.533 593.927 401.942 568.715C431.351 543.502 379.297 531.301 404.736 513.365C430.175 495.43 403.78 465.293 440.615 439.86C447.968 434.641 418.558 443.388 406.795 456.619C388.855 477.127 376.798 488.3 382.238 509.69C387.679 531.08 368.71 525.2 377.018 550.78C385.326 576.359 360.255 578.564 367.901 602.748C375.548 626.931 344.595 620.609 344.521 646.851C344.448 673.092 306.363 663.242 294.599 688.749C282.835 714.255 249.236 720.871 246.809 735.278C244.383 749.685 187.624 754.389 206.078 816.574Z" fill="#0E4581"/>
<g style="mix-blend-mode:overlay">
<path d="M250.706 739.614C253.132 724.913 286.511 718.518 298.422 693.012C310.333 667.506 348.418 678.311 348.418 651.481C348.418 624.652 379.371 631.194 371.724 607.378C364.078 583.563 389.223 581.064 380.915 555.41C372.607 529.757 391.575 535.711 386.135 514.321C380.694 492.931 392.752 481.758 410.618 461.177C416.936 454.971 424.437 450.097 432.675 446.843C435.213 444.4 437.942 442.163 440.836 440.154C448.188 434.935 418.779 443.682 407.015 456.913C389.076 477.421 377.018 488.594 382.459 509.984C387.899 531.374 368.93 525.494 377.239 551.073C385.547 576.653 360.475 578.858 368.122 603.042C375.768 627.225 344.815 620.903 344.741 647.145C344.668 673.386 306.363 663.242 294.599 688.749C282.835 714.255 249.235 720.87 246.809 735.277C244.383 749.684 187.991 754.389 206.078 816.574C206.092 813.156 206.338 809.742 206.813 806.357C200.637 757.844 248.427 752.772 250.706 739.614Z" fill="#0E4581"/>
</g>
<g style="mix-blend-mode:multiply" opacity="0.59">
<path d="M206.666 792.538C207.181 772.251 238.648 749.317 255.779 740.129C271.035 732.892 284.666 722.64 295.849 709.992C304.745 698.525 315.627 696.834 322.538 685.808C329.449 674.783 361.799 662.728 365.181 647.218C368.563 631.709 391.429 619.874 384.812 600.836C378.195 581.799 396.722 561.291 394.075 551.22C391.429 541.15 390.987 549.53 394.075 502.56C396.208 467.792 426.131 446.843 441.498 438.243C440.602 438.297 439.715 438.445 438.851 438.684C421.72 446.917 391.429 466.248 389.296 500.134C386.356 547.619 390.105 558.939 381.944 578.638C373.783 598.337 388.341 610.76 367.24 631.488C346.139 652.217 352.094 666.33 323.126 681.545C294.158 696.761 295.334 714.623 265.043 731.896C236.59 748.214 194.829 773.059 206.887 815.325C206.887 813.634 206.887 810.326 207.695 806.137C208.504 801.947 206.519 797.977 206.666 792.538Z" fill="#0E4581"/>
</g>
<path d="M199.313 813.781C199.313 813.781 195.343 779.895 169.904 774.309C144.466 768.723 182.256 740.497 157.7 728.442C133.143 716.387 179.756 709.771 147.112 693.012C114.468 676.253 119.321 656.701 129.908 640.088C140.495 623.476 92.3379 617.596 113.218 591.208C134.099 564.819 97.264 570.406 121.379 547.104C145.495 523.803 104.984 503.957 134.613 492.417C164.243 480.876 136.672 470.365 157.185 463.014C177.698 455.664 146.745 450.225 165.42 438.39C170.923 435.072 175.427 430.328 178.456 424.661C181.484 418.994 182.924 412.613 182.624 406.195C182.624 404.431 193.726 424.939 184.315 436.479C174.904 448.019 196.667 453.826 176.154 463.897C155.641 473.967 178.727 476.907 161.449 487.345C144.171 497.782 173.066 509.396 148.362 525.273C123.659 541.151 166.816 541.518 139.172 562.026C111.527 582.534 174.536 568.715 148.509 601.572C122.482 634.429 189.461 617.669 170.566 661.626C151.671 705.582 190.417 679.193 178.801 706.611C167.184 734.028 197.475 715.652 186.153 740.864C174.83 766.076 199.534 771.222 199.313 813.781Z" fill="#0E4581"/>
<g style="mix-blend-mode:overlay">
<path d="M163.875 731.235C139.318 719.18 186.299 712.491 153.288 695.732C120.276 678.973 125.496 659.42 136.083 642.808C146.671 626.196 98.4398 620.316 119.394 593.927C140.348 567.539 103.439 573.125 127.481 549.824C151.523 526.523 111.38 506.824 141.083 495.21C170.786 483.596 143.142 473.158 163.654 465.808C184.167 458.457 153.214 453.018 171.815 441.183C179.578 436.521 185.28 429.086 187.77 420.381C187.306 415.311 185.532 410.448 182.623 406.268C182.924 412.687 181.484 419.067 178.455 424.734C175.427 430.402 170.923 435.145 165.419 438.464C146.744 450.298 177.771 455.737 157.184 463.088C136.598 470.438 164.537 480.582 134.613 492.49C104.689 504.398 145.127 523.877 121.085 547.178C97.0429 570.479 133.878 564.966 112.924 591.281C91.9698 617.596 140.201 623.476 129.908 640.088C119.614 656.701 114.1 676.253 147.112 693.012C180.124 709.771 133.216 716.46 157.699 728.442C182.182 740.423 144.244 768.649 169.904 774.309C158.214 765.194 185.638 741.82 163.875 731.235Z" fill="#0E4581"/>
</g>
<g style="mix-blend-mode:multiply" opacity="0.59">
<path d="M180.124 429.643C165.42 452.209 181.227 453.606 165.42 464.044C149.612 474.481 166.596 475.29 148.95 492.049C131.305 508.808 140.422 522.186 134.246 543.503C128.07 564.819 120.718 566.069 129.173 586.65C137.628 607.232 127.849 619.728 143.363 641.926C158.876 664.125 148.362 680.664 162.92 697.937C177.477 715.211 161.67 719.989 170.272 733.514C178.874 747.039 166.522 758.065 178.654 769.458C186.605 777.678 192.565 787.61 196.078 798.492C196.078 798.492 187.917 772.031 181.374 765.856C174.83 759.682 176.521 749.244 176.301 740.203C176.08 731.162 168.066 726.825 172.11 712.712C176.154 698.599 155.273 692.351 157.773 671.475C160.273 650.6 144.613 646.925 140.201 624.873C135.79 602.822 138.657 598.191 132.849 582.975C127.041 567.76 127.555 565.04 132.849 556.293C137.458 545.295 140.12 533.581 140.716 521.672C140.885 512.561 144.035 503.757 149.686 496.607C154.879 491.195 158.643 484.577 160.641 477.348C161.369 474.42 162.745 471.692 164.666 469.364C166.587 467.036 169.005 465.168 171.742 463.897C177.845 460.589 176.154 447.064 177.33 440.669C177.918 437.655 184.168 428.688 187.55 419.647C187.119 417.306 186.529 414.998 185.785 412.737C185.759 418.833 183.774 424.76 180.124 429.643Z" fill="#0E4581"/>
</g>
<path d="M206.077 816.575C206.077 813.267 184.682 767.106 236.663 721.9C288.643 676.694 246.662 674.93 281.659 650.306C316.656 625.682 274.968 607.379 298.054 579.447C321.141 551.515 293.128 524.98 310.112 505.133C327.096 485.287 302.76 463.676 318.273 441.698C333.786 419.72 306.951 408.988 327.39 388.26C347.829 367.531 349.447 366.87 342.094 346.215C334.742 325.56 350.55 322.326 342.094 301.671C333.639 281.016 342.903 307.404 328.493 319.312C314.082 331.22 325.846 350.258 307.906 359.372C289.967 368.487 317.685 387.819 290.114 402.961C262.543 418.103 300.481 453.679 266.66 471.1C232.84 488.521 278.497 522.554 243.501 547.178C208.504 571.802 265.557 614.803 217.179 639.133C168.801 663.463 227.693 695.585 200.857 711.389C174.022 727.192 206.077 816.575 206.077 816.575Z" fill="#0E4581"/>
<g style="mix-blend-mode:overlay" opacity="0.64">
<g style="mix-blend-mode:overlay" opacity="0.64">
<path d="M209.533 713.888C236.443 698.084 177.551 665.962 225.856 641.632C274.16 617.302 217.106 574.375 252.177 549.677C287.247 524.979 241.589 490.873 275.41 473.673C309.23 456.472 271.219 420.602 299.011 405.46C326.802 390.318 299.011 370.986 316.803 361.871C334.596 352.756 323.053 333.719 337.463 321.811C341.12 318.483 343.683 314.127 344.815 309.315C344.353 306.799 343.639 304.337 342.683 301.964C334.449 281.383 343.492 307.698 329.081 319.606C314.671 331.513 326.435 350.551 308.495 359.666C290.556 368.781 318.274 388.112 290.703 403.255C263.132 418.397 301.069 453.973 267.249 471.394C233.428 488.815 279.086 522.848 244.089 547.472C209.092 572.096 266.146 615.097 217.768 639.427C169.39 663.757 228.282 695.879 201.446 711.682C174.61 727.486 206.078 816.868 206.078 816.868C202.058 804.221 200.928 790.832 202.769 777.69C197.476 751.816 195.197 722.341 209.533 713.888Z" fill="#0E4581"/>
</g>
</g>
<g style="mix-blend-mode:multiply" opacity="0.42">
<path d="M220.782 729.544C264.896 689.557 227.62 694.85 250.706 670.74C273.792 646.63 250.706 637.001 267.028 625.02C283.35 613.038 267.028 571.14 280.042 560.041C293.055 548.942 267.322 526.596 289.747 501.604C312.171 476.613 284.085 444.27 303.275 429.422C322.464 414.574 314.45 375.249 324.082 369.222C333.713 363.194 328.861 338.202 338.786 324.236C342.689 317.724 344.221 310.064 343.124 302.552V301.67C341.948 298.73 341.139 296.819 340.551 295.569C340.551 307.992 336.654 326.809 322.758 355.403C284.968 433.245 285.262 499.326 263.94 548.795C242.619 598.264 247.25 663.463 224.311 694.262C213.241 710.278 205.662 728.443 202.064 747.576C198.467 766.71 198.933 786.386 203.431 805.328C202.343 799.909 201.85 794.388 201.96 788.863C199.931 778.19 200.588 767.181 203.874 756.826C207.16 746.471 212.97 737.095 220.782 729.544V729.544Z" fill="#0E4581"/>
</g>
<path d="M206.151 816.795C206.151 816.795 179.463 758.873 207.989 742.849C236.516 726.824 196.52 702.053 235.56 691.836C274.601 681.619 231.076 661.478 274.528 647.733C317.979 633.987 292.541 599.954 314.524 589.443C336.507 578.932 306.363 554.308 323.714 543.135C341.066 531.962 316.362 513.733 321.656 489.844C326.949 465.954 320.112 489.182 338.198 499.326C356.285 509.47 358.858 524.685 352.462 536.078C346.065 547.472 378.562 540.709 361.578 572.39C344.595 604.071 377.68 591.207 350.477 617.89C323.273 644.572 332.831 655.671 330.405 676.694C327.979 697.716 320.479 692.939 290.482 708.228C260.485 723.517 280.262 743.584 235.266 754.683C190.271 765.782 206.151 816.795 206.151 816.795Z" fill="#0E4581"/>
<g style="mix-blend-mode:overlay" opacity="0.7">
<g style="mix-blend-mode:overlay" opacity="0.7">
<path d="M217.253 748.656C245.78 732.632 205.783 707.86 244.824 697.643C283.864 687.426 240.339 667.285 283.791 653.54C327.243 639.794 301.804 605.762 323.787 595.25C345.771 584.739 315.479 560.482 332.978 549.309C350.476 538.137 325.625 519.907 330.919 496.018L331.36 494.107C322.023 483.375 326.14 470.218 321.655 490.211C316.288 514.027 341.286 532.403 323.714 543.503C306.142 554.602 336.507 579.006 314.523 589.443C292.54 599.881 317.905 633.546 274.527 647.733C231.149 661.919 274.527 681.986 235.56 691.836C196.593 701.686 236.516 726.825 207.989 742.849C179.462 758.873 206.151 816.795 206.151 816.795C203.158 806.277 202.605 795.216 204.533 784.453C202.989 770.046 205.048 755.492 217.253 748.656Z" fill="#0E4581"/>
</g>
</g>
<g style="mix-blend-mode:multiply" opacity="0.69">
<path d="M236.737 736.307C276.145 711.388 255.559 699.554 289.305 681.619C323.052 663.683 308.862 635.972 330.772 620.609C352.682 605.247 332.537 590.693 343.492 571.287C354.447 551.882 340.918 538.872 345.624 524.391C349.447 512.63 330.037 506.088 323.567 481.831C323.567 482.787 323.052 484.11 322.685 485.874C324.459 496.745 328.357 507.16 334.154 516.526C350.035 541.224 336.286 615.684 302.245 653.466C268.204 691.248 251.294 707.345 229.164 732.631C212.548 751.669 191.961 784.085 206.225 816.574C205.563 814.149 198.873 789.598 209.754 771.516C214.12 756.865 223.724 744.333 236.737 736.307V736.307Z" fill="#0E4581"/>
</g>
<path d="M203.431 818.412C203.431 818.412 155.347 796.875 167.919 765.268C180.492 733.661 146.304 704.92 179.021 679.634C211.739 654.348 167.184 622.815 200.049 602.16C232.913 581.505 213.062 587.459 198.064 553.426C183.065 519.393 207.254 537.181 217.253 520.128C227.252 503.075 169.39 478.009 201.666 464.19C233.943 450.371 220.856 430.893 202.401 406.268C183.947 381.644 192.108 379.145 199.166 366.723C206.225 354.3 159.023 333.498 190.932 306.007C222.841 278.516 174.022 278.296 200.637 256.979C227.252 235.663 223.282 214.42 232.84 208.098C242.398 201.777 220.929 234.34 231.002 250.805C234.487 257.361 236.085 264.755 235.617 272.165C235.15 279.575 232.636 286.71 228.355 292.776C223.355 300.568 247.324 308.286 234.31 350.551C221.297 392.817 272.175 364.591 250.044 413.325C233.134 450.077 250.706 440.007 261.514 455.737C272.322 471.467 264.528 488.374 249.53 509.323C234.531 530.272 286.291 514.468 254.676 564.819C223.061 615.17 241.663 606.35 246.736 630.974C251.809 655.598 203.137 667.212 217.327 685.074C231.516 702.935 236.001 718.077 209.974 737.85C183.947 757.623 213.65 820.397 203.431 818.412Z" fill="#0E4581"/>
<g style="mix-blend-mode:overlay" opacity="0.7">
<g style="mix-blend-mode:overlay" opacity="0.7">
<path d="M179.095 766.444C191.667 734.837 157.553 706.096 190.27 680.81C222.988 655.525 178.433 623.991 211.298 603.262C244.162 582.534 224.238 588.561 209.239 554.602C194.24 520.643 218.503 538.284 228.428 521.304C238.354 504.324 180.639 479.186 212.915 465.367C245.192 451.548 232.105 432.069 213.65 407.371C195.196 382.673 203.431 380.248 210.783 367.899C218.135 355.55 170.199 334.895 202.181 307.183C234.163 279.472 185.124 279.398 212.033 258.082C218.349 253.207 223.814 247.32 228.208 240.661C227.546 223.902 240.56 202.88 232.766 208.098C223.282 214.42 227.546 235.663 200.637 256.979C173.728 278.296 222.694 278.443 190.785 306.007C158.876 333.572 206.151 354.374 199.019 366.723C191.888 379.072 183.874 381.424 202.254 406.268C220.635 431.113 233.796 450.372 201.519 464.191C169.243 478.01 227.032 503.075 217.106 520.128C207.18 537.181 182.918 519.54 197.917 553.426C212.915 587.312 232.766 581.431 199.902 602.16C167.037 622.888 211.665 654.349 178.874 679.634C146.083 704.92 180.271 733.734 167.772 765.268C155.273 796.802 203.431 818.412 203.431 818.412C205.122 818.412 205.71 817.31 205.71 814.663C192.329 806.578 170.125 789.084 179.095 766.444Z" fill="#0E4581"/>
</g>
</g>
<g style="mix-blend-mode:multiply" opacity="0.48">
<path d="M196.078 741.672C212.253 706.169 202.989 664.492 221.664 639.647C240.339 614.802 222.105 599.219 238.868 560.702C255.631 522.186 235.56 516.599 244.383 484.331C253.205 452.062 233.134 451.915 238.06 412.148C242.986 372.382 218.135 382.967 225.487 346.949C232.839 310.932 218.135 316.665 222.032 272.415C223.265 259.141 225.576 245.989 228.943 233.09C231.001 219.638 238.133 206.334 234.457 207.363C192.99 280.868 233.575 376.425 234.457 470.879C235.56 571.434 214.826 632.591 193.284 717.342C178.58 775.705 192.622 805.548 202.989 818.265C206.592 819 205.342 811.87 202.989 801.432C194.975 785.702 186.667 762.401 196.078 741.672Z" fill="#0E4581"/>
</g>
</svg>
