<svg width="212" height="440" viewBox="0 0 212 440" fill="none" xmlns="http://www.w3.org/2000/svg">
<path d="M133.317 378.176C133.317 378.176 154.999 358.556 144.659 323.64C134.319 288.725 156.16 302.544 143.34 268.103C130.521 233.663 147.033 246.11 139.014 211.617C130.996 177.123 152.361 179.075 145.82 154.603C139.278 130.13 154.208 141.997 144.659 125.805C135.11 109.614 155.843 101.491 147.455 85.5105C139.067 69.5297 161.171 66.1015 147.455 50.8063C133.739 35.5112 151.939 37.0407 143.709 27.9163C135.48 18.792 142.443 12.3575 131.418 3.18035C120.392 -5.99675 135.216 7.08325 130.732 18.4228C126.248 29.7623 126.511 33.4542 130.732 39.5196C134.952 45.5849 121.289 54.8675 129.202 65.8905C137.115 76.9136 130.415 81.7131 125.404 88.6751C120.392 95.637 133 115.31 118.493 127.546C103.985 139.782 125.931 163.147 113.217 179.497C100.504 195.847 116.172 215.941 105.884 225.857C95.5974 235.772 118.809 259.612 106.57 274.801C94.3313 289.991 132.948 297.217 124.19 311.721C115.433 326.225 154.63 355.655 133.317 378.176Z" fill="#0E4581"/>
<g style="mix-blend-mode:overlay">
<g style="mix-blend-mode:overlay">
<path d="M139.014 324.537C128.464 289.622 150.515 303.44 137.696 269C124.876 234.559 141.388 247.007 133.37 212.513C125.351 178.02 146.717 179.971 140.175 155.499C133.633 131.027 148.563 142.894 139.014 126.702C129.466 110.51 150.198 102.388 141.81 86.4073C133.422 70.4265 155.527 66.9982 141.81 51.7031C128.094 36.4079 146.295 37.9374 138.065 28.8131C132.051 22.1676 134.161 16.8934 131.418 10.9863C129.993 2.44209 122.819 -3.93968 131.418 3.18048C142.444 12.3576 135.48 19.0031 143.71 27.9165C151.939 36.8298 133.792 35.5113 147.455 50.8065C161.119 66.1016 139.067 69.5299 147.455 85.5107C155.843 101.491 135.111 109.614 144.659 125.806C154.208 141.997 139.384 130.13 145.82 154.603C152.256 179.075 130.996 177.123 139.014 211.617C147.033 246.11 130.521 233.557 143.34 268.103C156.16 302.649 134.267 288.725 144.659 323.641C155.052 358.556 133.317 378.176 133.317 378.176C135.798 375.687 137.647 372.641 138.712 369.292C139.776 365.944 140.025 362.389 139.437 358.925C142.739 347.678 142.592 335.7 139.014 324.537V324.537Z" fill="#0E4581"/>
</g>
</g>
<g style="mix-blend-mode:multiply" opacity="0.47">
<path d="M121.183 288.092C110.949 276.595 124.77 261.721 119.126 245.899C113.481 230.076 121.289 217.998 117.543 203.231C113.797 188.463 126.775 162.83 123.452 147.693C120.128 132.556 132.578 118.633 132.051 100.753C131.523 82.8735 142.232 77.9157 136.587 62.4096C131.84 49.3823 141.863 50.8591 131.312 15.8912C131.523 14.4396 131.523 12.9651 131.312 11.5136C143.053 44.2967 144.689 79.8471 136.007 113.569C118.071 180.341 125.456 229.602 124.981 259.454C124.612 284.875 153.469 344.579 137.168 373.745C135.987 375.389 134.663 376.924 133.211 378.334C135.9 375.606 137.842 372.233 138.849 368.538C139.856 364.843 139.895 360.951 138.961 357.237C139.997 348.491 139.059 339.624 136.218 331.288C124.876 295.582 131.47 299.537 121.183 288.092Z" fill="#0E4581"/>
</g>
<path d="M136.324 379.811C136.324 379.811 140.228 353.44 119.548 344.737C98.8681 336.035 104.829 317.522 85.5212 313.092C66.2131 308.662 80.2458 296.847 62.784 291.995C45.3223 287.143 60.8321 280.761 52.2332 276.173C43.6342 271.584 55.2929 271.479 45.2168 258.821C35.1407 246.162 58.1944 244.106 43.4759 227.861C28.7574 211.616 58.6692 209.085 45.6388 197.112C32.6085 185.14 49.4371 170.741 30.6038 153.759C26.6999 150.225 42.7901 157.451 48.3821 165.731C56.981 178.495 62.9423 185.615 58.4582 196.954C53.9741 208.294 64.9997 206.553 58.4582 219.95C51.9166 233.346 65.9493 236.616 60.0936 249.327C54.2378 262.038 71.9106 261.088 70.1169 275.698C68.3233 290.307 90.2691 287.67 95.228 302.649C100.187 317.628 118.387 324.062 118.757 332.185C119.126 340.307 150.884 347.058 136.324 379.811Z" fill="#0E4581"/>
<g style="mix-blend-mode:overlay">
<path d="M116.646 333.767C116.224 325.645 98.0241 319.21 93.0651 304.231C88.1062 289.253 66.1603 291.89 67.954 277.28C69.7476 262.671 52.1276 263.62 57.9306 250.909C63.7336 238.198 49.9119 235.087 56.348 221.532C62.784 207.977 51.7056 209.823 56.348 198.537C60.9904 187.25 54.8709 180.077 46.2191 167.261C43.155 163.346 39.3559 160.068 35.0352 157.609C33.7764 156.064 32.4008 154.618 30.9203 153.284C27.0165 149.75 43.1066 156.976 48.6986 165.256C57.2975 178.02 63.2588 185.14 58.7747 196.48C54.2906 207.819 65.3163 206.079 58.7747 219.475C52.2331 232.872 66.2658 236.142 60.4101 248.852C54.5543 261.563 72.2271 260.614 70.4334 275.223C68.6398 289.833 90.5857 287.196 95.5446 302.174C100.504 317.153 118.704 323.588 119.073 331.71C119.442 339.832 150.726 347.058 136.324 379.811C136.544 377.92 136.632 376.017 136.588 374.114C143.551 347.902 117.174 341.203 116.646 333.767Z" fill="#0E4581"/>
</g>
<g style="mix-blend-mode:multiply" opacity="0.59">
<path d="M137.643 366.52C138.698 355.286 122.713 340.149 113.745 333.661C105.711 328.442 98.7902 321.684 93.3815 313.778C89.1612 306.763 83.1999 304.917 80.1402 298.272C77.0804 291.626 59.7242 282.449 59.0384 273.588C58.3525 264.728 46.219 256.394 51.1779 246.426C56.1368 236.458 47.2213 223.694 49.3843 218.367C51.5472 213.041 51.2307 217.735 52.7606 191.627C53.9212 172.324 38.6223 158.347 30.6036 152.387C31.1149 152.45 31.6133 152.593 32.0808 152.809C41.1018 158.769 56.7171 171.849 55.6093 190.678C54.0794 217.049 51.1779 223.009 54.6597 234.506C58.1415 246.004 48.5929 251.7 59.1438 264.675C69.6948 277.649 65.2634 285.139 80.2457 295.845C95.2279 306.552 93.5398 316.309 109.313 328.334C124.137 339.621 145.767 356.71 136.165 379.019C136.165 378.07 136.165 376.224 136.165 373.745C136.781 371.364 137.274 368.952 137.643 366.52V366.52Z" fill="#0E4581"/>
</g>
<path d="M140.333 378.809C140.333 378.809 144.818 360.507 159.536 359.505C174.255 358.503 154.946 339.885 169.454 335.297C183.961 330.708 158.217 323.166 177.789 316.626C197.361 310.086 195.778 298.905 190.978 288.936C186.177 278.968 213.504 279.601 203.586 263.409C193.668 247.217 214.137 253.23 202.056 238.462C189.975 223.695 213.926 216.1 198.152 207.239C182.379 198.378 198.469 195.108 187.601 189.36C176.734 183.611 194.301 183.189 184.7 175.119C181.857 172.9 179.665 169.955 178.356 166.595C177.047 163.235 176.669 159.584 177.262 156.027C177.262 155.025 169.77 165.415 174.255 172.588C178.739 179.761 166.183 181.079 176.945 188.41C187.707 195.741 174.624 195.372 183.645 202.545C192.666 209.718 175.679 213.832 188.393 224.486C201.107 235.14 176.998 231.87 191.03 245.583C205.063 259.295 170.825 246.374 183.117 266.679C195.409 286.985 159.167 271.953 166.869 297.955C174.571 323.957 154.63 305.972 159.272 322.058C163.915 338.145 148.194 325.487 152.783 340.254C157.373 355.022 143.077 355.338 140.333 378.809Z" fill="#0E4581"/>
<g style="mix-blend-mode:overlay">
<path d="M165.708 336.246C180.216 331.657 154.419 324.115 173.991 317.628C193.563 311.141 191.98 299.854 187.179 289.886C182.379 279.917 209.705 280.55 199.84 264.359C189.975 248.167 210.391 254.179 198.258 239.412C186.124 224.644 210.127 217.049 194.354 208.241C178.58 199.433 194.67 196.058 183.803 190.362C172.936 184.665 190.503 184.138 180.901 176.121C176.899 172.95 174.227 168.398 173.41 163.358C173.998 160.607 175.33 158.071 177.261 156.027C176.676 159.558 177.048 163.181 178.338 166.52C179.627 169.859 181.788 172.792 184.594 175.014C194.196 183.083 176.523 183.558 187.496 189.254C198.469 194.95 182.22 198.273 198.047 207.133C213.873 215.994 190.081 223.536 201.951 238.357C213.82 253.177 193.615 247.059 203.48 263.304C213.345 279.548 186.071 278.81 190.872 288.831C195.673 298.852 197.255 309.928 177.683 316.52C158.112 323.113 183.908 330.55 169.348 335.191C154.788 339.832 174.202 358.397 159.483 359.4C166.552 355.444 152.836 340.307 165.708 336.246Z" fill="#0E4581"/>
</g>
<g style="mix-blend-mode:multiply" opacity="0.59">
<path d="M176.945 169.001C183.697 182.608 174.729 182.081 183.011 189.096C191.294 196.11 181.587 195.214 190.291 205.868C198.996 216.521 193.035 223.167 194.934 235.456C196.833 247.745 201.001 248.958 194.934 259.559C188.867 270.16 193.457 277.86 183.275 288.831C173.093 299.801 178 309.928 168.557 318.05C159.114 326.172 167.765 330.128 162.226 337.037C156.687 343.946 162.648 350.855 155.104 356.182C150.169 360.045 146.212 365.013 143.551 370.686C143.551 370.686 149.934 356.762 154.102 353.862C158.269 350.961 157.9 345.159 158.639 340.201C159.377 335.244 163.914 333.503 162.859 325.381C161.804 317.259 173.41 315.571 173.41 303.862C173.41 292.153 182.589 291.468 186.335 279.654C190.08 267.839 189.025 265.15 193.457 257.238C197.888 249.327 197.624 247.797 195.409 242.576C193.547 236.195 192.832 229.534 193.298 222.903C193.771 217.769 192.508 212.625 189.711 208.294C187.178 204.901 185.528 200.932 184.911 196.743C184.687 195.062 184.098 193.451 183.187 192.021C182.276 190.59 181.064 189.376 179.635 188.463C176.47 186.142 178.316 178.811 178.105 175.225C178.105 173.537 175.098 168.052 173.779 162.83C174.12 161.569 174.598 160.349 175.204 159.191C174.712 162.563 175.323 166.004 176.945 169.001V169.001Z" fill="#0E4581"/>
</g>
<path d="M136.324 379.81C136.324 377.964 151.623 354.336 125.773 325.17C99.9232 296.003 123.399 298.799 105.462 282.08C87.5259 265.36 112.109 259.031 101.137 241.785C90.1636 224.538 107.52 212.197 99.3956 199.855C91.2714 187.513 106.306 177.651 99.3956 164.307C92.4848 150.963 107.942 147.218 97.9185 134.191C87.8951 121.164 87.3676 120.584 92.6431 109.772C97.9185 98.9596 89.5305 95.9533 95.4918 85.2467C101.453 74.5401 94.6477 88.3584 101.875 96.0588C109.102 103.759 101.295 113.305 110.685 119.793C120.075 126.28 103.299 134.666 117.701 145.214C132.103 155.763 108.417 172.271 126.142 184.665C143.868 197.06 116.066 211.986 134.003 228.388C151.939 244.791 117.121 263.831 142.496 281.13C167.871 298.43 132.789 311.351 146.716 322.269C160.644 333.187 136.324 379.81 136.324 379.81Z" fill="#0E4581"/>
<g style="mix-blend-mode:overlay" opacity="0.64">
<g style="mix-blend-mode:overlay" opacity="0.64">
<path d="M141.335 323.008C127.408 312.09 162.437 299.221 137.115 281.869C111.793 264.517 146.505 245.583 128.622 229.127C110.738 212.672 138.276 197.746 120.761 185.562C103.247 173.379 126.67 156.712 112.268 146.111C97.8657 135.51 114.747 127.177 105.304 120.69C95.861 114.202 103.721 104.867 96.4941 96.9557C94.6259 94.8387 93.432 92.2127 93.065 89.4136C93.4912 88.0157 94.0753 86.6709 94.8059 85.4052C100.82 74.8568 93.9618 88.517 101.189 96.2173C108.417 103.918 100.609 113.464 109.999 119.951C119.39 126.438 102.614 134.824 117.016 145.373C131.418 155.921 107.731 172.429 125.456 184.824C143.182 197.218 115.38 212.144 133.317 228.547C151.253 244.95 116.435 263.989 141.81 281.289C167.185 298.588 132.103 311.51 146.031 322.428C159.958 333.345 136.324 379.969 136.324 379.969C139.434 373.379 140.969 366.157 140.808 358.872C145.503 344.843 148.827 328.809 141.335 323.008Z" fill="#0E4581"/>
</g>
</g>
<g style="mix-blend-mode:multiply" opacity="0.42">
<path d="M134.002 330.655C112.268 305.075 132.525 311.035 121.236 295.74C109.946 280.445 123.61 277.175 115.222 269.369C106.834 261.563 118.862 239.728 112.32 232.45C105.779 225.171 121.711 215.098 110.896 199.486C100.081 183.874 117.912 168.421 108.206 158.664C98.4987 148.906 105.621 127.915 100.609 123.801C95.5972 119.687 100.029 106.344 95.3334 97.8522C93.7206 94.0089 93.4602 89.7321 94.5948 85.7215C94.575 85.5639 94.575 85.4045 94.5948 85.2469C95.4389 83.7701 96.0192 82.7153 96.4412 82.1351C95.4389 88.9388 96.4413 99.5927 102.297 116.47C118.123 162.408 113.586 198.8 122.027 227.703C130.468 256.605 123.557 292.154 134.319 310.982C139.406 320.577 142.403 331.14 143.112 341.976C143.821 352.812 142.227 363.675 138.434 373.851C139.408 370.96 140.062 367.971 140.386 364.937C142.229 359.14 142.611 352.976 141.498 346.995C140.384 341.014 137.809 335.401 134.002 330.655V330.655Z" fill="#0E4581"/>
</g>
<path d="M136.271 379.916C136.271 379.916 155.104 350.222 140.28 339.041C125.456 327.86 149.407 317.522 128.252 308.715C107.098 299.907 132.842 292.365 109.524 281.078C86.2069 269.791 102.666 253.335 91.113 245.741C79.5598 238.146 98.0766 227.228 89.0556 219.686C80.0346 212.144 95.2279 203.864 93.8563 190.52C92.4847 177.176 94.7531 190.52 83.9384 194.37C73.1237 198.22 70.697 206.659 73.3875 213.568C76.078 220.477 58.5108 213.99 65.8964 232.819C73.282 251.648 55.662 241.732 69.2199 258.662C82.7779 275.593 76.5 280.867 76.4473 292.417C76.3945 303.968 80.9314 302.227 96.6523 313.092C112.373 323.957 99.9758 333.345 124.348 343.155C148.721 352.965 136.271 379.916 136.271 379.916Z" fill="#0E4581"/>
<g style="mix-blend-mode:overlay" opacity="0.7">
<g style="mix-blend-mode:overlay" opacity="0.7">
<path d="M134.688 341.52C119.864 330.339 143.815 319.949 122.713 311.141C101.611 302.333 127.25 294.843 103.985 283.504C80.7204 272.164 97.1271 255.762 85.5211 248.167C73.9151 240.572 92.5374 229.707 83.5164 222.112C74.4954 214.517 89.6359 206.29 88.2643 192.999C88.2643 192.577 88.2643 192.208 88.2643 191.891C94.2255 186.617 92.8012 179.18 93.9618 190.52C95.3334 204.075 80.1401 212.144 89.1611 219.686C98.1822 227.228 79.6126 238.146 91.2186 245.741C102.825 253.336 86.3651 269.738 109.63 281.078C132.895 292.417 107.256 299.907 128.358 308.715C149.46 317.522 125.509 327.913 140.386 339.041C155.263 350.17 136.376 379.916 136.376 379.916C138.779 374.351 139.827 368.296 139.436 362.248C141.23 354.336 141.072 346.267 134.688 341.52Z" fill="#0E4581"/>
</g>
</g>
<g style="mix-blend-mode:multiply" opacity="0.69">
<path d="M124.665 333.239C104.302 316.309 116.594 311.351 98.9735 298.799C81.3535 286.246 91.1131 272.111 79.8764 261.88C68.6397 251.648 80.9315 245.266 76.1308 233.715C71.3301 222.165 79.7708 216.047 78.0827 207.766C76.7638 200.963 88.0533 198.906 93.3815 186.142C93.3815 186.669 93.3815 187.461 93.3815 188.41C91.6576 194.207 88.7674 199.592 84.888 204.233C74.3371 216.521 77.0276 258.662 93.4871 282.238C109.946 305.814 118.334 316.045 128.991 331.763C137.01 343.577 146.294 363.039 136.113 379.863C139.683 371.942 140.061 362.95 137.168 354.758C135.734 346.312 131.294 338.669 124.665 333.239V333.239Z" fill="#0E4581"/>
</g>
<path d="M137.801 381.024C137.801 381.024 166.077 373.112 161.224 354.653C156.371 336.193 177.367 323.007 160.749 306.605C144.132 290.202 171.3 276.278 154.26 262.196C137.221 248.114 148.035 253.019 158.692 235.825C169.348 218.631 154.63 226.12 150.198 215.941C145.767 205.762 179.794 196.69 162.648 186.459C145.503 176.227 154.208 166.575 166.183 154.497C178.158 142.419 173.78 140.415 170.667 133.031C167.555 125.647 195.356 118 179.371 100.278C163.387 82.5569 190.766 86.4071 177.156 72.4832C163.545 58.5593 167.396 47.2198 162.49 42.9477C157.584 38.6756 167.396 58.3484 160.644 66.6289C158.269 70.0039 156.886 73.9764 156.653 78.0965C156.42 82.2165 157.346 86.3195 159.325 89.9408C161.593 94.5821 147.666 96.9027 152.097 121.217C156.529 145.531 129.941 125.858 139.067 154.497C145.978 176.279 136.904 169.106 129.782 176.86C122.66 184.613 125.878 194.581 132.842 207.397C139.806 220.213 112.109 207.397 126.248 237.513C140.386 267.628 130.732 261.405 126.248 274.749C121.764 288.092 148.141 298.219 138.803 306.868C129.466 315.518 126.142 323.535 139.436 336.562C152.73 349.589 131.84 381.287 137.801 381.024Z" fill="#0E4581"/>
<g style="mix-blend-mode:overlay" opacity="0.7">
<g style="mix-blend-mode:overlay" opacity="0.7">
<path d="M154.788 354.336C149.935 335.93 170.931 322.691 154.366 306.289C137.801 289.886 164.917 276.015 147.824 261.933C130.732 247.85 141.599 252.703 152.256 235.298C162.912 217.893 148.194 225.593 143.762 215.414C139.331 205.235 173.358 196.111 156.265 185.879C139.173 175.647 147.772 165.995 159.747 153.917C171.722 141.839 167.344 139.835 164.231 132.451C161.118 125.067 188.92 117.472 172.936 99.6983C156.951 81.9243 184.33 85.8272 170.72 71.9033C167.546 68.6963 164.894 65.0125 162.859 60.9857C164.337 51.8086 158.533 39.2033 162.49 42.6843C167.396 46.9564 163.545 58.5069 177.156 72.2198C190.767 85.9327 163.387 82.2407 179.372 100.015C195.356 117.789 167.502 125.331 170.667 132.768C173.832 140.204 178.158 142.208 166.183 154.234C154.208 166.259 145.556 175.91 162.648 186.195C179.741 196.48 145.82 205.499 150.198 215.678C154.577 225.857 169.348 218.157 158.692 235.562C148.035 252.966 137.326 248.167 154.26 261.933C171.195 275.698 144.184 289.728 160.749 306.341C177.314 322.955 156.318 335.982 161.224 354.389C166.13 372.796 137.801 380.76 137.801 380.76C136.799 380.76 136.588 379.969 136.746 378.492C144.712 375.433 158.27 367.575 154.788 354.336Z" fill="#0E4581"/>
</g>
</g>
<g style="mix-blend-mode:multiply" opacity="0.48">
<path d="M146.98 339.358C140.386 318.261 148.352 296.373 139.594 281.341C130.837 266.31 142.074 259.084 135.269 236.511C128.463 213.937 140.122 212.513 137.379 194.317C134.635 176.121 145.872 177.334 145.819 155.077C145.767 132.82 158.955 140.679 157.373 120.267C155.79 99.8563 163.545 104.445 164.283 79.4979C164.501 72.0772 164.113 64.6511 163.123 57.2935C163.123 49.6987 159.747 41.8401 161.751 42.684C179.952 86.3543 150.884 135.668 143.867 187.724C136.482 242.945 143.867 278.071 150.198 326.699C154.524 360.032 144.659 375.222 138.012 381.446C135.954 381.446 137.115 377.701 138.961 372.163C144.606 363.724 150.884 351.541 146.98 339.358Z" fill="#0E4581"/>
</g>
<g style="mix-blend-mode:color-burn" opacity="0.65">
<path d="M30.4981 152.387C30.8129 152.341 31.1328 152.341 31.4477 152.387V152.387H31.7642C38.3462 155.229 44.1262 159.649 48.5929 165.256C57.1919 178.02 63.1532 185.14 58.669 196.48C54.1849 207.819 65.2106 206.079 58.669 219.475C52.1275 232.872 66.1601 236.142 60.3044 248.852C54.4486 261.563 72.1214 260.614 70.3278 275.223C70.0126 277.584 70.4822 279.983 71.6641 282.051C72.8461 284.119 74.6749 285.741 76.8693 286.668C78.0827 278.546 80.2456 272.481 69.1672 258.662C55.6092 241.732 73.1765 251.648 65.8436 232.819C58.5107 213.99 76.1308 220.477 73.3348 213.568C70.5388 206.659 73.3348 198.537 83.8857 194.37C85.4317 193.808 86.862 192.968 88.106 191.891L88.9501 191.047L89.2666 190.731V190.362L89.5304 189.992C89.9524 189.359 90.3217 188.779 90.6382 188.199C90.6483 188.059 90.6483 187.918 90.6382 187.777V187.777C91.113 186.881 91.3768 186.089 91.5878 185.72V189.412C91.5878 189.412 91.5878 189.834 91.5878 190.098V190.414C91.5618 190.783 91.5618 191.153 91.5878 191.522C92.9594 205.077 77.7661 213.146 86.7871 220.688C95.8082 228.23 77.2386 239.148 88.8446 246.743C97.7073 252.544 90.1107 263.515 96.5995 273.43C94.2255 263.198 107.15 256.236 98.7097 242.787C87.684 225.54 105.093 213.199 96.9688 200.857C88.8446 188.516 103.88 178.653 96.9688 165.309C90.0579 151.965 105.515 148.221 95.4916 135.194C85.4683 122.166 84.9407 121.586 90.2162 110.774C94.8586 101.122 88.6863 97.6412 91.6406 89.3607C91.7413 89.0702 91.8648 88.788 92.0099 88.5169V88.5169C92.1102 88.2091 92.2337 87.9094 92.3792 87.6203V87.6203C92.3792 87.3038 92.6957 86.9346 92.9067 86.5654L93.3815 85.7215C93.5239 85.5225 93.6475 85.3106 93.7507 85.0886V84.8249C97.4963 78.3904 92.2736 90.5738 99.0262 97.694C105.779 104.814 98.4459 114.941 107.836 121.428C116.277 127.229 103.721 134.508 111.213 143.579C110.761 140.896 111.01 138.142 111.934 135.583C112.858 133.024 114.426 130.746 116.488 128.97C131.048 116.945 118.44 97.0083 123.452 90.2046C128.463 83.4009 135.163 78.4959 127.25 67.4201C119.337 56.3443 133.106 47.0617 128.78 41.0491C124.454 35.0365 124.243 31.3973 128.78 19.9523C129.123 19.0854 129.371 18.1834 129.518 17.2625C129.57 16.525 129.57 15.7848 129.518 15.0473V15.0473C129.518 14.6781 129.518 14.3089 129.518 13.9925V12.9377C129.544 12.5161 129.544 12.0934 129.518 11.6718V11.3554V10.7225V10.406V9.82588C129.518 9.82588 129.518 9.82588 129.518 9.56217C129.548 9.28168 129.548 8.99878 129.518 8.7183V8.7183C129.504 8.52516 129.504 8.33127 129.518 8.13813V7.82168V7.34701V7.03055C129.509 6.85486 129.509 6.67883 129.518 6.50314V6.50314L129.202 5.81749V5.55378V5.18459V4.86813L128.569 3.65507C128.554 3.55013 128.554 3.44356 128.569 3.33862V3.33862V3.07491H128.885L129.36 3.49684L129.835 3.86604L130.415 4.28797L131.259 4.97362C142.285 14.1507 135.321 20.7962 143.551 29.7096C151.781 38.623 133.633 37.3044 147.297 52.5996C160.96 67.8948 138.909 71.323 147.297 87.3038C155.685 103.285 134.952 111.407 144.501 127.599C147.349 132.398 147.982 134.772 147.719 136.301C151.095 134.666 153.522 131.607 151.939 122.799C147.508 98.4851 161.435 96.4282 159.166 91.5232C157.187 87.9019 156.262 83.7989 156.495 79.6788C156.728 75.5588 158.11 71.5863 160.485 68.2112C161.68 66.6813 162.444 64.8607 162.701 62.937V62.937C162.727 62.6739 162.727 62.409 162.701 62.1459V62.1459C162.701 62.1459 162.701 61.5657 162.701 61.302C162.701 60.4582 162.701 59.5615 162.701 58.7177C162.701 57.8738 162.701 57.8738 162.701 57.5046V57.2409C162.701 56.8717 162.701 56.4498 162.701 56.0806V54.8148V53.6017C162.731 53.1979 162.731 52.7924 162.701 52.3886V52.1249C162.701 51.3865 162.384 50.6482 162.279 49.9625C162.173 49.2769 161.962 48.3802 161.804 47.7473V46.8507C161.833 46.6055 161.833 46.3576 161.804 46.1123V46.1123C161.829 46.0083 161.829 45.8999 161.804 45.7959V45.7959C161.804 45.7959 161.804 45.7959 161.804 45.5322H162.437L162.806 45.8486C167.713 50.1207 163.861 61.6712 177.472 75.3841C191.083 89.097 163.703 85.4051 179.688 103.179C195.673 120.953 167.818 128.495 170.983 135.932C174.149 143.369 178.475 145.373 166.499 157.398C154.524 169.423 145.872 179.075 162.965 189.359C180.057 199.644 146.136 208.663 150.515 218.842C154.893 229.021 169.664 221.321 159.008 238.726C148.352 256.131 137.642 251.331 154.577 265.097C171.511 278.863 144.501 292.892 161.066 309.506C162.982 311.33 164.571 313.471 165.761 315.835C168.609 314.674 170.456 311.668 167.08 300.54C159.377 274.749 195.672 289.464 183.328 269.264C170.983 249.063 205.327 261.88 191.241 248.167C177.156 234.454 201.37 237.618 188.603 227.07C175.837 216.522 192.824 212.249 183.855 205.129C174.887 198.009 187.918 198.167 177.156 190.994C166.394 183.822 178.949 182.398 174.465 175.172C173.553 173.383 173.077 171.404 173.077 169.397C173.077 167.389 173.553 165.41 174.465 163.621V163.621C174.465 163.358 174.465 163.147 174.465 162.936C174.887 162.039 175.309 161.195 175.678 160.51C175.754 160.362 175.843 160.221 175.942 160.088V160.088C175.958 159.948 175.958 159.806 175.942 159.666V159.666L176.364 159.086H176.628C176.638 162.175 177.363 165.22 178.744 167.983C180.126 170.746 182.128 173.152 184.594 175.014C194.195 183.083 176.523 183.558 187.496 189.254C198.468 194.95 182.22 198.273 198.046 207.134C213.873 215.994 190.081 223.536 201.95 238.357C213.82 253.177 193.615 247.059 203.48 263.304C213.345 279.548 186.071 278.81 190.872 288.831C195.672 298.852 197.255 309.928 177.683 316.52C158.111 323.113 183.908 330.55 169.348 335.191L168.24 335.56L167.343 336.035H167.08L166.763 336.299H166.499L164.653 338.514V338.83V339.199V339.621C162.595 344.895 167.238 352.49 165.497 356.657V356.973H165.18H164.864H164.495H164.125H163.703C163.703 372.216 139.753 378.861 139.753 378.861H139.12C139.091 378.687 139.091 378.509 139.12 378.334V377.965L138.698 378.703C138.758 377.931 138.758 377.155 138.698 376.382V376.382V373.851V373.534C137.762 374.734 136.758 375.879 135.691 376.963V376.963C136.007 376.593 136.376 376.224 136.693 375.802V375.486L137.273 374.747C137.288 374.643 137.288 374.536 137.273 374.431V374.431L137.801 373.693C137.801 365.359 135.269 350.486 120.761 344.579C100.029 336.14 106.043 317.364 86.7344 312.934C67.4263 308.504 81.4589 296.689 63.9972 291.837C46.5355 286.985 62.0453 280.603 53.4463 276.015C44.8473 271.426 56.506 271.32 46.4299 258.662C36.3538 246.004 59.4076 243.947 44.6891 227.703C29.9706 211.458 59.8823 208.927 46.852 196.954C34.9822 186.037 47.9598 173.062 35.9318 157.925C35.3515 157.24 34.7712 156.501 34.0854 155.816L33.2413 154.919C33.1544 154.937 33.0645 154.937 32.9776 154.919L31.9224 153.97C30.0233 152.598 30.0233 152.335 30.4981 152.387Z" fill="#0E4581"/>
</g>
<path d="M13.6651 418.423C10.5134 417.768 9.38673 413.849 11.7097 411.62L28.2403 395.763C28.8215 395.205 29.5574 394.836 30.3519 394.704L56.9583 390.27C57.5595 390.17 58.1298 389.934 58.6258 389.579L79.8656 374.408C80.2215 374.154 80.6168 373.959 81.0355 373.833L125.476 360.429C126.197 360.212 126.964 360.202 127.69 360.401L158.553 368.874C159.264 369.069 159.908 369.457 160.412 369.996L174.654 385.187C175.172 385.74 175.522 386.428 175.664 387.172L178.767 403.406C179.182 405.576 177.759 407.671 175.589 408.086L66.1168 429.008C65.5995 429.107 65.0679 429.103 64.5522 428.996L13.6651 418.423Z" fill="#7C94C4"/>
<path d="M126.58 360.097L109.57 374.695L80.4032 374.024L126.58 360.097Z" fill="#A1B2D5"/>
<path d="M126.579 360.096L109.57 374.695L129.557 384.423L159.641 369.172L126.579 360.096Z" fill="#7C94C4"/>
<path d="M109.57 374.695L129.557 384.423L111.545 399.301L97.1333 387.892L109.57 374.695Z" fill="#6D83AD"/>
<path d="M109.57 374.695L129.557 384.423L111.545 399.301L114.955 387.213L109.57 374.695Z" fill="#5A6B8E"/>
<path d="M129.557 384.423L159.641 369.173L175.446 386.033L179.518 407.335L162.457 388.515L129.557 384.423Z" fill="#6D83AD"/>
<path d="M179.518 407.335L162.458 388.515L118.907 404.668L108.036 420.997L179.518 407.335Z" fill="#5A6B8E"/>
<path d="M111.545 399.301L129.556 384.423L162.457 388.516L118.906 404.668L108.036 420.997L65.3331 429.158L111.545 399.301Z" fill="#A1B2D5"/>
<path d="M97.1331 387.893L57.872 390.118L111.545 399.301L97.1331 387.893Z" fill="#5A6B8E"/>
<path d="M57.8719 390.118L29.1323 394.907L33.0302 402.871L61.8561 407.742L111.545 399.301L57.8719 390.118Z" fill="#A1B2D5"/>
<path d="M61.8564 407.742L65.3334 429.158L111.545 399.301L61.8564 407.742Z" fill="#6D83AD"/>
<path d="M203.26 426.746C206.278 425.626 206.804 421.582 204.173 419.727L198.271 415.566C197.613 415.102 196.83 414.847 196.025 414.835L183.452 414.652C182.843 414.643 182.243 414.495 181.7 414.219L170.627 408.598C170.237 408.4 169.817 408.267 169.384 408.205L147.031 405C146.286 404.893 145.526 404.998 144.838 405.304L131.077 411.424C130.403 411.724 129.825 412.204 129.406 412.812L124.078 420.557C123.648 421.181 123.405 421.914 123.376 422.671L123.153 428.477C123.069 430.684 124.79 432.542 126.997 432.627L180.958 434.696C181.484 434.716 182.01 434.632 182.503 434.449L203.26 426.746Z" fill="#7C94C4"/>
<path d="M145.89 404.836L155.503 410.847L170.038 408.299L145.89 404.836Z" fill="#A1B2D5"/>
<path d="M145.891 404.836L155.504 410.846L146.247 417.227L130.046 411.882L145.891 404.836Z" fill="#7C94C4"/>
<path d="M155.504 410.846L146.247 417.227L156.382 423.301L162.724 416.503L155.504 410.846Z" fill="#6D83AD"/>
<path d="M155.504 410.846L146.247 417.227L156.382 423.301L153.76 417.515L155.504 410.846Z" fill="#5A6B8E"/>
<path d="M146.246 417.227L130.046 411.882L123.42 421.512L123 432.474L130.104 421.769L146.246 417.227Z" fill="#6D83AD"/>
<path d="M123.001 432.474L130.105 421.769L153.108 426.543L159.783 433.884L123.001 432.474Z" fill="#5A6B8E"/>
<path d="M156.382 423.301L146.246 417.227L130.104 421.768L153.108 426.543L159.782 433.884L181.755 434.727L156.382 423.301Z" fill="#A1B2D5"/>
<path d="M162.723 416.503L182.525 414.638L156.382 423.301L162.723 416.503Z" fill="#5A6B8E"/>
<path d="M182.526 414.638L197.261 414.853L195.915 419.131L181.87 423.754L156.382 423.301L182.526 414.638Z" fill="#A1B2D5"/>
<path d="M181.87 423.754L181.756 434.727L156.382 423.301L181.87 423.754Z" fill="#6D83AD"/>
</svg>
