<svg width="122" height="112" viewBox="0 0 122 112" fill="none" xmlns="http://www.w3.org/2000/svg">
<g filter="url(#filter0_d_162_9708)">
<path d="M19.5838 57.931L19.9074 57.4203L39.7234 26.6305C39.7898 26.5293 39.8823 26.4477 39.9913 26.3941C40.1003 26.3406 40.2217 26.3171 40.343 26.3261C40.4642 26.3351 40.5808 26.3763 40.6806 26.4454C40.7803 26.5145 40.8595 26.6089 40.91 26.7188C44.2095 34.0884 47.0775 43.2547 45.7323 48.9601C45.174 51.3052 43.6067 54.4825 41.8364 57.4203C41.6093 57.8501 41.3615 58.2687 41.094 58.6749C41.0299 58.7654 40.9442 58.8388 40.8445 58.8883C40.7448 58.9378 40.6343 58.962 40.5229 58.9585H20.1739C20.0525 58.9604 19.9328 58.9296 19.8275 58.8693C19.7223 58.809 19.6355 58.7215 19.5763 58.6161C19.5171 58.5107 19.4877 58.3914 19.4912 58.2708C19.4948 58.1501 19.5312 58.0327 19.5965 57.931H19.5838ZM107.871 68.522C107.872 68.6566 107.834 68.7887 107.761 68.9019C107.687 69.0151 107.582 69.1044 107.458 69.1588C105.916 69.8081 100.669 72.2163 98.4862 75.2234C92.9151 82.9272 88.6639 93.9469 79.1461 93.9469H39.4633C36.1128 93.942 32.7962 93.2811 29.7029 92.002C26.6096 90.723 23.8003 88.8508 21.4356 86.4926C19.0708 84.1343 17.197 81.3362 15.9212 78.2582C14.6454 75.1801 13.9926 71.8824 14.0001 68.5536V68.0997C14.0001 67.734 14.3046 67.4314 14.6853 67.4314H36.7983C37.2425 67.4314 37.5597 67.8286 37.528 68.2636C37.363 69.6883 37.6359 71.1572 38.3212 72.4874C39.6283 75.1352 42.3567 76.7869 45.2945 76.7869H56.2463V68.2951H45.4087C45.2817 68.2937 45.1575 68.258 45.0495 68.1917C44.9414 68.1254 44.8536 68.0311 44.7955 67.9189C44.7374 67.8067 44.7112 67.6809 44.7198 67.555C44.7283 67.4291 44.7713 67.3079 44.844 67.2044L45.2438 66.6371C46.259 65.1808 47.7247 62.9428 49.1841 60.3833C50.174 58.6559 51.1384 56.8151 51.9126 54.9617C52.0648 54.6339 52.1854 54.2871 52.325 53.953C52.5344 53.3604 52.7501 52.8056 52.9024 52.2572C53.0518 51.7921 53.1894 51.3233 53.3148 50.8513C53.6765 49.2753 53.8288 47.611 53.8288 45.8899C53.8288 45.2091 53.8034 44.4967 53.74 43.8284C53.7082 43.0908 53.6131 42.3469 53.5242 41.6093C53.4533 40.9494 53.3516 40.2931 53.2197 39.6424C53.0489 38.6517 52.8415 37.6676 52.5978 36.6921L52.509 36.3138C52.3186 35.6329 52.1537 34.9899 51.9379 34.3154C51.3337 32.2438 50.6393 30.1994 49.8567 28.1877C49.584 27.431 49.2835 26.6845 48.9557 25.9497C48.4988 24.8275 48.0293 23.8125 47.6042 22.8606C47.3926 22.4528 47.1937 22.0386 47.0077 21.6187C46.8013 21.1657 46.5834 20.7179 46.3542 20.2759C46.2019 19.9418 46.0179 19.6202 45.8973 19.3176L44.5585 16.8716C44.3745 16.5375 44.679 16.1277 45.0471 16.2349L53.4227 18.4855H53.4862L54.5839 18.8007L55.8022 19.1411L56.2463 19.2609V14.3247C56.2463 11.9354 58.1626 10 60.5547 10C61.1196 9.99851 61.6789 10.1105 62.199 10.3294C62.7192 10.5482 63.1894 10.8694 63.5813 11.2735C64.3915 12.0853 64.8474 13.1815 64.8504 14.3247V21.6628L65.7451 21.9087C65.8085 21.9402 65.8846 21.9717 65.9418 22.0158C66.1575 22.1671 66.4748 22.4067 66.8745 22.7093C67.1918 22.9489 67.5281 23.2515 67.9215 23.573C69.1744 24.5872 70.3893 25.647 71.5636 26.7503C72.9215 28.0048 74.4443 29.4737 75.9037 31.1065C76.3161 31.573 76.7095 32.0269 77.122 32.5313C77.5154 33.0293 77.9596 33.5147 78.3276 33.9939C78.8288 34.6495 79.3428 35.3304 79.8187 36.0364C80.0281 36.3705 80.2882 36.7173 80.4849 37.0514C81.0941 37.9466 81.6144 38.867 82.1156 39.7937C82.3314 40.2161 82.5408 40.6826 82.7248 41.1365C83.2895 42.3785 83.7337 43.633 84.0065 44.9064C84.0968 45.1767 84.1584 45.4556 84.1905 45.7386V45.8016C84.2794 46.161 84.3111 46.5582 84.3428 46.9616C84.5215 48.825 84.292 50.7046 83.6702 52.4715C83.4735 53.0011 83.2895 53.5432 83.0484 54.0728C82.5725 55.1445 82.0268 56.2351 81.3733 57.2375C81.1575 57.6157 80.8974 58.0066 80.6562 58.3849C80.3834 58.782 80.0915 59.1603 79.8504 59.5196C79.5015 59.997 79.1353 60.4617 78.7527 60.9129C78.4164 61.3668 78.0801 61.8207 77.6994 62.2304C77.1854 62.8482 76.6842 63.4282 76.1448 63.983C75.8402 64.3486 75.5103 64.7269 75.155 65.0547C74.825 65.433 74.4697 65.7671 74.1651 66.0697C73.6321 66.5993 73.2133 66.9964 72.8453 67.3431L71.976 68.1123C71.855 68.2329 71.6907 68.301 71.5192 68.3014H64.8504V76.7869H73.2387C75.1106 76.7869 76.8936 76.1312 78.3403 74.9082C78.8288 74.4858 80.9735 72.6387 83.5179 69.8522C83.6008 69.7574 83.7119 69.6911 83.8352 69.6631L106.995 62.9995C107.097 62.9703 107.204 62.9649 107.308 62.9837C107.412 63.0025 107.511 63.0451 107.595 63.108C107.68 63.1709 107.749 63.2524 107.797 63.3463C107.845 63.4401 107.87 63.5437 107.871 63.6489V68.522Z" fill="white"/>
</g>
<defs>
<filter id="filter0_d_162_9708" x="0" y="0" width="121.871" height="111.947" filterUnits="userSpaceOnUse" color-interpolation-filters="sRGB">
<feFlood flood-opacity="0" result="BackgroundImageFix"/>
<feColorMatrix in="SourceAlpha" type="matrix" values="0 0 0 0 0 0 0 0 0 0 0 0 0 0 0 0 0 0 127 0" result="hardAlpha"/>
<feOffset dy="4"/>
<feGaussianBlur stdDeviation="7"/>
<feComposite in2="hardAlpha" operator="out"/>
<feColorMatrix type="matrix" values="0 0 0 0 0.960784 0 0 0 0 0.0823529 0 0 0 0 0.635294 0 0 0 1 0"/>
<feBlend mode="normal" in2="BackgroundImageFix" result="effect1_dropShadow_162_9708"/>
<feBlend mode="normal" in="SourceGraphic" in2="effect1_dropShadow_162_9708" result="shape"/>
</filter>
</defs>
</svg>
