<svg width="375" height="2633" viewBox="0 0 375 2633" fill="none" xmlns="http://www.w3.org/2000/svg">
<path d="M380 49H-36V2609H380V49Z" fill="url(#paint0_linear_520_25644)"/>
<path d="M-335.466 176.594C-330.054 192.312 -311.903 238.561 -297.844 204.552C-280.418 237.031 -306.622 306.509 -271.97 327.095C-246.294 299.415 -275.666 218.392 -228.934 206.152C-223.72 213.037 -218.374 221.8 -216.328 230.494C-180.949 229.103 -202.929 370.424 -145.9 295.103C-130.917 275.282 -128.013 249.411 -115.208 229.311C-87.486 185.705 -97.0567 263.32 -77.5193 244.055C-73.955 252.749 -66.4965 286.897 -56.2657 287.314C-43.1968 287.801 -44.3188 248.367 -40.0285 237.448C-20.1611 240.439 -25.0454 267.076 -24.1874 282.654C12.9074 299.833 -1.87773 235.292 36.5371 243.012C41.8835 232.65 44.3917 208.725 56.6686 205.317C76.536 199.823 70.1996 227.503 69.0115 239.674C67.4934 255.67 57.7907 329.947 84.3906 317.985C107.558 307.552 88.2849 231.885 123.531 253.792C129.076 257.2 128.548 272.361 139.835 272.222C148.613 272.083 150.131 261.86 154.224 253.862C160.626 241.274 168.349 221.244 179.504 213.941C190.592 223.469 191.979 243.221 199.767 251.288C220.889 273.196 212.44 236.127 229.073 237.031C245.376 237.935 261.482 310.056 262.802 324.661C265.112 349.559 276.861 417.646 297.784 358.6C303.725 341.909 305.573 321.462 308.213 303.866C309.731 294.13 314.946 249.967 329.995 277.021C349.268 259.495 339.697 219.018 367.155 210.255C391.445 279.177 391.841 196.068 419.035 195.302C438.375 194.746 433.358 263.181 447.285 278.482C466.559 264.294 454.942 300.111 454.678 307.97C454.084 325.704 460.354 335.232 469.067 349.42C488.142 333.424 478.638 271.944 487.944 247.463C491.113 239.118 503.125 217.001 515.996 218.114C530.716 219.366 534.94 250.454 543.718 260.26C554.873 253.027 555.401 222.565 567.612 222.287C577.447 222.078 586.226 253.097 592.694 255.948C618.37 267.354 631.505 201.979 634.937 184.94C638.567 166.997 636.191 153.017 635.333 136.396C634.409 119.496 639.756 103.013 638.831 86.8081C637.247 59.1281 627.941 64.6224 605.235 61.3536C560.814 55.0248 517.647 38.8202 472.433 36.6642C395.472 33.1173 317.916 44.1754 242.736 60.3104C188.348 71.9944 139.241 66.9175 84.3906 63.9269C22.082 60.5191 -39.5665 54.9553 -101.743 49.8087C-142.468 46.4009 -185.767 39.3766 -226.492 45.6359C-251.376 49.461 -272.894 52.1038 -297.778 53.4948C-313.355 54.3293 -336.126 53.912 -349.195 64.3442C-367.017 78.5319 -357.05 97.1707 -357.248 116.088C-357.38 128.606 -373.023 152.878 -369.261 162.059C-365.3 171.726 -356.456 165.049 -349.327 168.318C-341.209 171.865 -343.453 173.256 -335.466 176.594Z" fill="url(#paint1_linear_520_25644)"/>
<path d="M-7.21053 242.307C-17.1075 252.524 1.03698 286.604 1.56482 302.226C2.35658 325.562 8.22879 349.226 7.76693 372.232C16.1464 343.953 7.96487 304.534 13.6391 278.496C16.7402 264.389 14.8268 245.866 14.8268 232.155C14.8268 211.655 11.5278 203.613 -9.91571 204.535C-13.3467 220.883 5.91948 228.727 -7.21053 242.307Z" fill="#065F65"/>
<path d="M200.759 2536C211.566 2532.41 213.998 2517.57 217.858 2508.1C222.374 2497.01 228.241 2485.69 234.609 2475.69C239.82 2467.5 245.069 2459.89 254.024 2457.14C265.912 2453.51 271.162 2459.19 278.65 2446.71C284.015 2437.75 289.766 2405.21 302.58 2403.71C311.458 2402.66 315.163 2416.07 327.013 2411.09C333.497 2408.34 337.203 2398.11 345.579 2400.31C367.348 2406.06 355.267 2447.1 370.011 2455.94C375.685 2459.34 379.776 2464.87 381.745 2471.21C382.98 2475.22 384.794 2479.09 386.917 2482.64C389.58 2487.12 391.857 2490.72 396.451 2493.42C400.349 2495.7 409.034 2494.54 411.543 2496.51C417.409 2501.07 414.785 2515.52 418.567 2522.09C425.168 2533.41 438.754 2536 432.308 2552.23C428.14 2562.77 411.581 2565.4 399.577 2568.18C374.874 2573.86 354.031 2572.28 328.943 2569.38C294.899 2565.44 262.014 2561.5 228.588 2556.63C215.117 2554.66 189.604 2557.06 197.478 2537.39C198.675 2537.04 199.639 2536.39 200.759 2536Z" fill="#14413C"/>
<path d="M293.306 2458.08C297.991 2449.74 296.133 2439.73 300.779 2431.93C306.431 2422.47 313.439 2426.99 322.925 2423.86C329.352 2421.74 336.437 2411.66 342.709 2407.41C344.142 2405.1 345.303 2402.74 346 2400.35C345.961 2400.35 345.923 2400.31 345.884 2400.31C337.482 2398.11 333.766 2408.34 327.261 2411.08C315.414 2416.06 311.697 2402.66 302.753 2403.71C289.899 2405.21 284.131 2437.73 278.749 2446.68C271.238 2459.16 265.934 2453.48 254.048 2457.11C248.627 2458.81 244.523 2462.29 241 2466.53C258.539 2459.58 280.414 2481.01 293.306 2458.08Z" fill="#1D6056"/>
<path d="M437 2549.78C429.7 2538.75 411.044 2535.64 405.636 2523.31C402.816 2516.85 407.104 2509.74 404.825 2503.63C402.894 2498.44 397.254 2495.1 392.696 2492.37C378.637 2483.84 377.555 2477.11 370.062 2462.2C365.234 2452.59 354.303 2441.52 355.693 2430.07C346.191 2425.15 343.526 2438.45 340.784 2444.87C335.299 2457.7 331.591 2453.59 319.656 2458.43C303.008 2465.2 303.974 2485.8 287.481 2493.06C278.713 2496.94 273.228 2498.17 265.194 2504.51C259.014 2509.39 252.679 2516.27 246.615 2520.69C241.864 2524.15 228.113 2527.92 226.259 2534.8C223.594 2544.87 242.173 2544.63 250.67 2546.4C287.287 2554.01 322.553 2566.69 360.521 2564.81C374.156 2564.12 386.632 2561.51 399.881 2558.97C409.151 2557.16 429.97 2555.47 437 2549.78Z" fill="#0F352F"/>
<path d="M272.802 2543.74C274.962 2535.03 283.794 2520.94 291.354 2515.19C298.992 2509.35 308.982 2508.93 316.464 2503.18C327.882 2494.35 340.109 2461.92 357.042 2482.99C363.83 2491.43 364.91 2494.66 373.743 2500.91C382.152 2506.86 380.994 2510.51 385.122 2520.68C388.246 2528.35 392.026 2534.22 399.162 2540.02C405.333 2545.04 416.712 2547.69 404.754 2556.21C397.233 2561.58 377.099 2560.59 367.957 2561.01C350.87 2561.78 333.783 2561.78 317.004 2560.97C302.694 2560.28 288.577 2564.35 275.077 2559.86C257.797 2554.06 269.986 2555.17 272.802 2543.74Z" fill="#0E3029"/>
<path d="M-103.829 2573.78C-81.693 2570.48 -59.2489 2569.1 -37.0362 2566.87C13.0966 2561.85 64.9648 2566.83 114.828 2561.46C114.751 2559.39 114.712 2557.36 114.828 2555.4C115.02 2551.64 115.059 2547.88 114.905 2544.12C112.591 2534.42 110.354 2524.68 108.31 2514.74C101.832 2502.43 91.1496 2499.36 75.7626 2494.14C69.4382 2491.99 65.5047 2487.39 61.8797 2482.86C60.7999 2481.79 59.7973 2480.64 58.8332 2479.14C54.2827 2473.77 49.2308 2469.59 39.5513 2471.32C30.7202 2472.93 25.437 2479.83 16.7601 2471.16C10.2043 2464.6 11.1684 2454.78 7.19635 2447.26C-3.75575 2426.39 -20.1453 2445.65 -30.9817 2457.54C-35.9565 2463.03 -42.4737 2469.4 -46.3687 2475.69C-50.5721 2482.48 -52.0375 2491.92 -57.3208 2497.9C-70.5481 2512.94 -90.3699 2509.56 -98.0826 2531.24C-105.371 2551.76 -130.438 2569.79 -154 2571.4C-153.923 2572.55 -153.807 2573.74 -153.73 2574.93C-151.918 2573.55 -149.951 2572.67 -147.868 2572.7C-149.989 2572.7 -151.956 2573.55 -153.73 2574.93C-153.653 2576.04 -153.537 2577.15 -153.46 2578.27C-138.42 2580.84 -118.676 2576 -103.829 2573.78Z" fill="#0F352F"/>
<path d="M-61 2568.98C-59.073 2560.59 -48.5514 2551.04 -44.5432 2542.42C-39.8412 2532.26 -35.2164 2523.95 -28.8572 2514.71C-20.147 2502.05 -16.1388 2472.72 4.05647 2483.23C11.3792 2487.04 13.5374 2494.43 23.4038 2492.81C32.114 2491.39 35.7368 2483.12 46.2584 2484.92C53.3113 2486.16 61.2892 2492.28 65.9526 2497.66C68.1494 2500.16 69.2286 2504.63 71.6181 2506.86C76.9752 2511.9 78.9022 2509.52 84.6833 2512.37C95.7059 2517.71 107.114 2538.46 103.221 2551.66C98.134 2568.86 67.9182 2563.28 53.1571 2565.44C13.9999 2571.17 -22.1897 2570.4 -61 2568.98Z" fill="#0E3029"/>
<path d="M-98.5066 2531.53C-90.8524 2509.68 -71.0439 2513.08 -57.851 2497.92C-52.62 2491.88 -51.12 2482.37 -46.9275 2475.52C-43.0427 2469.17 -36.5424 2462.75 -31.5807 2457.22C-20.7725 2445.23 -4.42569 2425.81 6.49784 2446.85C10.4211 2454.43 9.49797 2464.34 16.0367 2470.95C24.6909 2479.7 29.9604 2472.73 38.7684 2471.11C48.3842 2469.37 53.4613 2473.58 58 2479C57.6538 2478.46 57.3461 2477.88 56.9999 2477.26C56.0384 2475.4 54.6922 2467.24 53.9229 2466.47C47.2303 2459.81 39.9992 2468.32 31.6143 2464.49C23.4601 2460.74 24.0755 2453 21.2677 2445.89C17.9983 2437.68 11.9981 2429.91 9.11333 2421.2C5.53626 2410.37 -0.310135 2378.3 -15.6569 2394.47C-28.9267 2408.48 -26.6189 2427.05 -50.0045 2425.88C-70.6977 2424.84 -85.1214 2417.68 -91.5447 2442.13C-97.6604 2465.5 -117.854 2452.58 -131.931 2467.66C-140.316 2457.49 -159.932 2493.7 -160.778 2501.32C-162.163 2513.74 -156.624 2527.28 -156.163 2539.89C-155.74 2550.92 -155.047 2561.4 -154.24 2572C-130.777 2570.45 -105.776 2552.27 -98.5066 2531.53Z" fill="#14413C"/>
<path d="M114.085 2555.69C113.95 2557.73 113.995 2559.84 114.085 2562C115.709 2561.84 117.377 2561.68 119 2561.52C117.377 2555.65 115.754 2549.83 114.176 2544C114.356 2547.83 114.311 2551.74 114.085 2555.69Z" fill="#14413C"/>
<path d="M75.0532 2494.3C90.6288 2499.54 101.442 2502.62 108 2515C107.883 2514.34 107.727 2513.73 107.61 2513.07C104.292 2496.92 79.5033 2498.27 66.8945 2487.9C64.5914 2486.01 62.6786 2484.62 61 2483C64.6694 2487.51 68.6512 2492.14 75.0532 2494.3Z" fill="#14413C"/>
<path d="M-121.894 2486.6C-113.819 2479.63 -107.513 2479.25 -98.5533 2474.21C-88.0558 2468.32 -87.6713 2459.19 -85.5948 2449.03C-84.2105 2442.22 -84.0567 2431.82 -77.5198 2427.09C-67.6376 2419.93 -62.4849 2428.17 -54.4484 2431.21C-37.3371 2437.64 -19.8412 2429.17 -9.72821 2415.31C-6.45975 2410.85 -1.80702 2404.3 1 2397.57C-2.80679 2390.33 -8.11322 2386.44 -15.7268 2394.45C-28.9929 2408.38 -26.6857 2426.86 -50.0648 2425.7C-70.7522 2424.67 -85.1718 2417.54 -91.5934 2441.87C-97.7073 2465.12 -117.895 2452.27 -131.968 2467.28C-140.351 2457.15 -159.962 2493.18 -160.808 2500.77C-160.885 2501.5 -160.962 2502.27 -161 2503C-157.309 2502.27 -153.656 2501.69 -150.426 2501C-137.967 2498.3 -131.661 2494.99 -121.894 2486.6Z" fill="#1D6056"/>
<path d="M84.3698 53.9779C108.452 69.3369 129.764 97.6159 145.797 121.149C156.882 137.431 164.47 160.898 185.319 166.764C203.464 171.84 214.68 163.468 230.977 176.586C243.382 186.606 252.883 201.569 263.044 214.094C272.941 226.289 279.869 240.659 295.77 235.451C315.432 229.057 306.59 214.226 303.753 200.317C301.642 189.968 294.912 161.491 301.708 152.394C310.021 141.254 330.343 150.878 343.737 150.878C375.87 150.944 414.798 136.64 442.707 119.237C465.734 104.867 503.541 55.1645 458.543 50.0228C406.946 44.0902 352.051 42.0467 300.058 42.1126C248.99 42.1785 198.053 30.2473 147.711 30.2473C128.444 30.2473 98.0276 39.7396 84.3698 53.9779Z" fill="#094A46"/>
<path d="M323.877 73.7535C294.912 75.2696 263.242 87.6623 234.672 93.3972C226.425 95.0451 203.464 98.0115 197.657 105.79C187.233 119.83 204.123 128.861 215.472 138.485C226.491 147.846 238.631 155.756 248.66 166.632C260.075 179.025 261.262 191.484 268.784 203.81C277.163 217.521 287.654 225.234 294.12 210.139C299.597 197.416 292.603 174.675 294.12 160.7C297.419 130.311 313.848 135.98 339.646 136.969C362.739 137.892 385.766 133.41 400.612 115.282C444.753 61.2949 355.746 72.1055 323.877 73.7535Z" fill="#0F5952"/>
<path d="M313.98 105.394C268.454 111.327 252.289 107.57 252.619 135.058C252.817 151.867 271.357 209.941 284.289 220.356C308.57 195.307 263.506 147.187 307.976 131.037C317.279 127.675 352.974 132.223 357.131 120.819C363.861 102.098 323.349 104.142 313.98 105.394Z" fill="#146359"/>
<path d="M-192.812 32.2249C-201.126 48.4408 -161.406 96.9568 -147.748 109.877C-126.502 129.916 -94.2382 114.293 -75.4999 140.924C-67.1204 152.856 -69.5617 165.973 -56.1677 174.609C-43.6975 182.651 -32.3489 178.696 -20.5385 192.407C-2.45999 213.5 -19.6808 251.338 5.19369 267.751C24.6578 249.492 8.03083 201.569 19.0495 178.432C26.9011 161.952 43.1982 171.774 55.2065 163.271C66.1592 155.492 65.3675 143.034 79.949 136.574C93.7389 130.509 110.762 130.377 125.937 123.588C145.863 114.689 142.102 110.668 149.69 91.4855C157.739 71.1827 166.317 82.7843 181.36 69.7325C196.602 56.4829 189.212 40.4647 171.925 34.0706C158.135 28.9949 138.539 29.5223 123.958 28.0721C98.4894 25.6331 74.2088 18.6457 48.7405 14.8884C8.82259 8.95574 -30.0396 2.29798 -70.0235 0.518183C-104.267 -0.99794 -175.46 -1.39345 -192.812 32.2249Z" fill="#094A46"/>
<path d="M94.2668 75.731C64.1799 78.6315 37.5899 91.947 5.19375 81.6637C-13.0827 75.8629 -17.3714 70.8531 -35.9118 80.2135C-43.0377 83.7731 -43.9614 89.5739 -52.2749 91.5515C-60.3904 93.529 -67.9781 88.717 -76.0937 89.508C-95.5578 91.2219 -116.803 108.427 -135.872 117.457C-115.748 125.763 -91.0052 118.842 -75.4998 140.924C-67.1204 152.856 -69.5616 165.973 -56.1677 174.609C-43.6975 182.651 -32.3489 178.696 -20.5385 192.407C-2.45994 213.5 -19.6807 251.338 5.19375 267.751C24.6579 249.492 8.03089 201.569 19.0496 178.432C26.9012 161.952 43.1982 171.774 55.2066 163.271C66.1593 155.492 65.3675 143.034 79.9491 136.574C93.7389 130.509 110.762 130.377 125.937 123.588C145.863 114.689 142.102 110.668 149.69 91.4855C150.284 89.9694 150.878 88.651 151.471 87.4645C132.535 82.5866 112.675 73.9513 94.2668 75.731Z" fill="#094A46"/>
<path d="M181.36 69.7984C196.602 56.5488 189.212 40.5306 171.925 34.1366C158.135 29.0609 138.539 29.5882 123.958 28.138C98.4894 25.699 74.2088 18.7117 48.7405 14.9543C8.82257 9.02167 -30.0397 2.36391 -70.0236 0.584115C-104.267 -0.932007 -175.46 -1.39343 -192.746 32.2249C-201.126 48.4409 -161.406 96.9568 -147.748 109.877C-144.053 113.37 -140.094 115.744 -135.872 117.457C-116.803 108.427 -95.5578 91.2219 -76.0937 89.4421C-67.9122 88.717 -60.3905 93.529 -52.2749 91.4855C-44.0274 89.4421 -43.1037 83.7072 -35.9119 80.1476C-17.4375 70.8531 -13.0828 75.797 5.19367 81.5978C37.5899 91.8811 64.1798 78.5655 94.2667 75.6651C112.675 73.8853 132.535 82.5866 151.471 87.5304C159.059 72.8306 167.439 81.8615 181.36 69.7984Z" fill="#094A46"/>
<path d="M-143 2551.33C-143 2551.33 -71.328 2541.93 -8.904 2545.68C14.6013 2547.12 97.448 2528.77 122.88 2537.25C148.312 2545.68 214.204 2533.14 259.288 2537.25C281.291 2539.26 308.996 2537.25 336.74 2538.18C364.484 2539.1 417.66 2537.25 417.66 2537.25L435 2628.32L-140.727 2633L-143 2551.33Z" fill="#004C45"/>
<path d="M38.6055 2571.31C16.4366 2570.92 -5.73237 2570.49 -27.9013 2570.1C-51.9627 2569.67 -77.5304 2569.63 -98 2582.38C-74.8655 2591.23 -51.731 2600.04 -28.5579 2608.89C-18.2458 2612.82 -7.89518 2616.76 2.72583 2619.72C39.4166 2629.9 79.3902 2627.63 114.729 2613.45C129.715 2607.44 144.082 2599.26 159.994 2596.49C189.192 2591.38 219.163 2605.06 248.477 2600.58C262.419 2598.44 275.435 2592.32 288.18 2586.24C310.774 2575.48 333.406 2564.72 356 2554C295.248 2567.57 231.56 2581.13 171.542 2564.56C159.878 2561.33 148.214 2556.96 136.087 2557.16C122.183 2557.39 109.168 2563.63 95.6887 2567.18C77.1502 2572.01 57.7234 2571.66 38.6055 2571.31Z" fill="#03443C"/>
<path opacity="0.68" d="M49 2618.53C33.0656 2621.11 16.8611 2621.03 0.772367 2620.99C-36.498 2620.87 -73.7297 2620.75 -111 2620.63C-92.0948 2609.91 -72.4179 2598.9 -50.8505 2597.23C-36.6137 2596.12 -22.3769 2599.18 -8.48734 2602.52C10.8423 2607.24 30.0176 2612.57 49 2618.53Z" fill="#043830"/>
<path opacity="0.48" d="M306.024 2618.82C262.193 2622.48 218.092 2620.79 174.106 2619.09C167.481 2618.82 160.664 2618.55 154.655 2615.74C148.647 2612.93 143.601 2606.95 144.025 2600.32C144.526 2592.19 153.076 2586.49 161.242 2586.14C169.369 2585.8 177.11 2589.42 184.467 2592.89C208.732 2604.33 233.883 2615.47 260.691 2616.9C271.783 2617.47 283.3 2616.05 293.93 2612.5C312.533 2606.34 325.475 2589.84 328.133 2570.42C329.134 2563.02 332.986 2555.85 338.648 2550.88C348.084 2542.63 361.449 2539.94 373.928 2541.36C381.709 2542.25 390.105 2545.25 393.687 2552.19C395.035 2554.85 394.689 2557.2 393.495 2559.48C389.142 2567.68 389.913 2577.66 395.921 2584.76C396.576 2585.53 397.115 2586.41 397.423 2587.38C399.426 2593.23 395.96 2599.82 390.914 2603.37C385.868 2606.91 379.59 2608.11 373.505 2609.23C363.683 2611.04 353.823 2612.81 343.924 2614.35C331.329 2616.28 318.696 2617.78 306.024 2618.82Z" fill="#043830"/>
<path opacity="0.32" d="M102 2583.71C11.5595 2552.25 -88.6729 2550.79 -180 2579.55C-172.444 2581 -164.849 2582.46 -157.294 2583.87C-148.234 2585.6 -144.379 2583.4 -133.546 2599.82L-118.511 2601C-48.1173 2597.86 21.6984 2600.8 102 2583.71Z" fill="#00302C"/>
<path opacity="0.32" d="M349.19 2567.78C355.686 2566.26 363.061 2566.79 368.219 2571C370.779 2573.09 372.613 2575.91 374.371 2578.68C374.715 2579.21 375.059 2579.74 375.403 2580.27C378.268 2584.76 381.134 2589.24 384 2593.68C377.428 2591.33 370.206 2593.72 363.29 2594.71C356.374 2595.7 347.776 2594.33 345.063 2587.91C338.988 2588.82 332.951 2589.7 326.875 2590.61C322.405 2591.25 316.444 2591.03 315.183 2586.73C314.266 2583.62 316.941 2580.43 320.036 2579.44C323.131 2578.45 326.455 2579.17 329.626 2579.86C334.594 2573.85 341.586 2569.56 349.19 2567.78Z" fill="#00302C"/>
<path d="M104.164 91.5514C82.1923 95.5724 65.4334 110.206 40.8229 111.327C18.9835 112.316 -1.8662 110.8 -22.254 115.546C-23.5736 141.386 -14.4684 149.164 -6.22089 170.126C0.113189 186.21 3.94004 213.896 3.47818 231.694C21.8206 226.552 2.35652 182.387 7.17306 166.698C14.2329 143.561 39.3053 159.843 56.1962 142.572C65.3014 133.278 61.6066 126.093 76.4521 119.698C87.9326 114.689 99.0172 116.534 110.168 113.37C134.58 106.449 134.251 86.0801 104.164 91.5514Z" fill="#0F5952"/>
<path d="M38.8435 121.215C30.0022 120.951 8.16276 120.226 1.23485 125.631C-8.26627 133.014 -7.40855 150.548 3.28022 157.074C12.2535 148.769 11.0659 140.265 23.0083 134.992C33.3671 130.377 46.959 133.014 58.6375 127.213C68.1386 122.533 103.57 102.692 103.834 95.836C93.5409 94.5177 79.1573 103.944 68.9304 107.899C56.856 112.579 51.1818 121.61 38.8435 121.215Z" fill="#146359"/>
<path d="M341.692 42.1126C337.073 77.4448 365.907 117.655 395.598 132.619C427.4 148.571 460.72 154.24 459.928 192.472C459.268 226.354 477.083 252.59 478.27 287.395C478.798 303.017 477.017 321.606 486.716 334.329C500.836 352.918 511.392 343.096 512.052 322.991C512.514 307.632 511.26 288.384 507.566 273.552C504.069 259.643 489.025 245.009 492.126 229.98C494.634 217.653 509.875 208.227 515.417 196.427C523.467 179.421 522.147 168.742 543.525 164.655C577.109 158.129 617.62 181.134 640.185 143.1C654.173 119.567 673.439 35.5207 646.19 20.8209C627.847 10.9332 575.789 19.8322 555.269 22.2711C524.127 26.0285 494.502 26.6218 463.095 28.1379C417.833 30.3791 368.018 28.2697 325.857 44.0901" fill="#08443E"/>
<path d="M407.012 67.3593C381.544 67.3593 334.038 81.9932 374.88 109.811C396.455 124.511 428.324 134.266 452.538 145.341C489.157 162.15 467.978 191.286 474.444 223.915C477.281 238.286 480.778 253.974 483.813 267.949C485.99 278.232 486.782 303.215 493.644 311.125C497.999 316.201 500.506 318.245 507.764 316.663C511.063 287.131 476.291 259.445 478.402 231.892C479.788 213.5 493.182 212.446 503.739 199.723C514.691 186.54 509.413 169.994 518.452 157.206C538.18 129.125 585.158 164.984 607.591 143.034C629.167 121.94 620.391 71.3803 593.208 63.8656C527.69 45.804 457.289 72.3032 393.288 67.7548" fill="#094A46"/>
<path d="M462.435 89.5741C448.513 89.5741 366.5 75.138 367.292 99.5278C367.622 110.866 433.404 126.093 445.082 132.685C459.334 140.661 476.819 151.208 478.336 168.676C479.128 178.037 465.074 208.359 486.716 191.022C499.516 180.739 490.873 157.866 496.151 145.077C503.013 128.598 525.116 129.587 531.252 113.305C543.195 81.598 481.108 89.5741 462.435 89.5741Z" fill="#0F5952"/>
<path d="M325.137 2432.95C313.232 2432.67 301.057 2446.62 303.26 2458.73C310.681 2460.46 312.266 2453.5 317.291 2449.77C322.354 2445.99 327.224 2446.43 332.056 2443.56C347.091 2434.56 338.51 2422.73 325.137 2432.95Z" fill="#184C45"/>
<path d="M259.836 2483.04C247.728 2482.04 231.61 2499.95 234.297 2511.65C245.314 2514.26 249.091 2501.56 257.772 2497.15C266.337 2492.82 276.537 2494.85 283 2486.8C276.966 2482.16 267.466 2483.69 259.836 2483.04Z" fill="#184C45"/>
<path d="M34.5698 2370.28C34.5698 2374.32 33.4521 2377.55 33.4521 2377.55C33.4521 2377.55 32.3345 2374.28 32.3345 2370.28C32.3345 2366.27 33.4521 2363 33.4521 2363C33.4521 2363 34.5698 2366.27 34.5698 2370.28Z" fill="#FFFDFE"/>
<path d="M26.1296 2370.28C26.1296 2370.28 29.4055 2369.16 33.4136 2369.16C37.4602 2369.16 40.6976 2370.28 40.6976 2370.28" fill="#FFFDFE"/>
<path d="M40.736 2370.28C40.736 2370.28 37.4602 2371.39 33.4521 2371.39C29.4054 2371.39 26.1681 2370.28 26.1681 2370.28" fill="#FFFDFE"/>
<path d="M292.978 2453.57C292.978 2455.46 292.438 2457 292.438 2457C292.438 2457 291.899 2455.46 291.899 2453.57C291.899 2451.69 292.438 2450.15 292.438 2450.15C292.438 2450.15 292.978 2451.69 292.978 2453.57Z" fill="#FFFDFE"/>
<path d="M289.008 2453.57C289.008 2453.57 290.55 2453.04 292.438 2453.04C294.327 2453.04 295.868 2453.57 295.868 2453.57" fill="#FFFDFE"/>
<path d="M295.868 2453.57C295.868 2453.57 294.327 2454.11 292.438 2454.11C290.55 2454.11 289.008 2453.57 289.008 2453.57" fill="#FFFDFE"/>
<path d="M283.234 250.81C283.234 254.04 282.31 256.677 282.31 256.677C282.31 256.677 281.386 254.04 281.386 250.81C281.386 247.58 282.31 244.944 282.31 244.944C282.31 244.944 283.234 247.58 283.234 250.81Z" fill="#FFFDFE"/>
<path d="M276.438 250.81C276.438 250.81 279.077 249.887 282.31 249.887C285.543 249.887 288.182 250.81 288.182 250.81" fill="#FFFDFE"/>
<path d="M288.182 250.81C288.182 250.81 285.543 251.733 282.31 251.733C279.077 251.733 276.438 250.81 276.438 250.81" fill="#FFFDFE"/>
<path d="M17.9939 82.8055C17.9939 86.0355 17.0702 88.6722 17.0702 88.6722C17.0702 88.6722 16.1465 86.0355 16.1465 82.8055C16.1465 79.5755 17.0702 76.9387 17.0702 76.9387C17.0702 76.9387 17.9939 79.5755 17.9939 82.8055Z" fill="#FFFDFE"/>
<path d="M11.2639 82.8054C11.2639 82.8054 13.9031 81.8826 17.1361 81.8826C20.3692 81.8826 23.0084 82.8054 23.0084 82.8054" fill="#FFFDFE"/>
<path d="M23.0084 82.8054C23.0084 82.8054 20.3692 83.7283 17.1361 83.7283C13.9031 83.7283 11.2639 82.8054 11.2639 82.8054" fill="#FFFDFE"/>
<path d="M326.447 189.973C326.447 193.203 325.523 195.84 325.523 195.84C325.523 195.84 324.599 193.203 324.599 189.973C324.599 186.743 325.523 184.106 325.523 184.106C325.523 184.106 326.447 186.743 326.447 189.973Z" fill="#FFFDFE"/>
<path d="M319.651 189.973C319.651 189.973 322.29 189.05 325.523 189.05C328.756 189.05 331.395 189.973 331.395 189.973" fill="#FFFDFE"/>
<path d="M331.395 189.973C331.395 189.973 328.756 190.896 325.523 190.896C322.29 190.896 319.651 189.973 319.651 189.973" fill="#FFFDFE"/>
<path d="M104.581 188.776C104.581 193.324 103.28 197.037 103.28 197.037C103.28 197.037 101.979 193.324 101.979 188.776C101.979 184.227 103.28 180.514 103.28 180.514C103.28 180.514 104.581 184.227 104.581 188.776Z" fill="#FFFDFE"/>
<path d="M95.0106 188.776C95.0106 188.776 98.7271 187.476 103.28 187.476C107.833 187.476 111.549 188.776 111.549 188.776" fill="#FFFDFE"/>
<path d="M111.549 188.776C111.549 188.776 107.833 190.075 103.28 190.075C98.7271 190.075 95.0106 188.776 95.0106 188.776" fill="#FFFDFE"/>
<path d="M3.60654 155.965C3.60654 158.931 2.75845 161.352 2.75845 161.352C2.75845 161.352 1.9104 158.931 1.9104 155.965C1.9104 153 2.75845 150.579 2.75845 150.579C2.75845 150.579 3.60654 153 3.60654 155.965Z" fill="#FFFDFE"/>
<path d="M-2.63293 155.965C-2.63293 155.965 -0.209866 155.118 2.75842 155.118C5.72671 155.118 8.14981 155.965 8.14981 155.965" fill="#FFFDFE"/>
<path d="M8.14981 155.965C8.14981 155.965 5.72671 156.813 2.75842 156.813C-0.209866 156.813 -2.63293 155.965 -2.63293 155.965" fill="#FFFDFE"/>
<path d="M220.176 2513.91C220.176 2515.8 219.637 2517.34 219.637 2517.34C219.637 2517.34 219.097 2515.8 219.097 2513.91C219.097 2512.02 219.637 2510.48 219.637 2510.48C219.637 2510.48 220.176 2512.02 220.176 2513.91Z" fill="#FFFDFE"/>
<path d="M216.207 2513.91C216.207 2513.91 217.748 2513.37 219.637 2513.37C221.525 2513.37 223.067 2513.91 223.067 2513.91" fill="#FFFDFE"/>
<path d="M223.067 2513.91C223.067 2513.91 221.525 2514.45 219.637 2514.45C217.748 2514.45 216.207 2513.91 216.207 2513.91" fill="#FFFDFE"/>
<path d="M164.47 325.957C164.47 329.187 163.546 331.824 163.546 331.824C163.546 331.824 162.622 329.187 162.622 325.957C162.622 322.727 163.546 320.09 163.546 320.09C163.546 320.09 164.47 322.727 164.47 325.957Z" fill="#FFFDFE"/>
<path d="M157.674 325.957C157.674 325.957 160.313 325.034 163.546 325.034C166.779 325.034 169.418 325.957 169.418 325.957" fill="#FFFDFE"/>
<path d="M169.418 325.957C169.418 325.957 166.779 326.88 163.546 326.88C160.313 326.88 157.674 325.957 157.674 325.957" fill="#FFFDFE"/>
<path d="M326.516 370.386C326.516 372.43 325.923 374.078 325.923 374.078C325.923 374.078 325.329 372.43 325.329 370.386C325.329 368.343 325.923 366.695 325.923 366.695C325.923 366.695 326.516 368.343 326.516 370.386Z" fill="#FFFDFE"/>
<path d="M322.294 370.386C322.294 370.386 323.943 369.793 325.989 369.793C328.034 369.793 329.683 370.386 329.683 370.386" fill="#FFFDFE"/>
<path d="M329.617 370.386C329.617 370.386 327.968 370.979 325.923 370.979C323.877 370.979 322.228 370.386 322.228 370.386" fill="#FFFDFE"/>
<path d="M15.0234 130.103C15.0234 133.333 14.0998 135.97 14.0998 135.97C14.0998 135.97 13.176 133.333 13.176 130.103C13.176 126.873 14.0998 124.236 14.0998 124.236C14.0998 124.236 15.0234 126.873 15.0234 130.103Z" fill="#FFFDFE"/>
<path d="M8.22754 130.103C8.22754 130.103 10.8668 129.18 14.0998 129.18C17.3328 129.18 19.972 130.103 19.972 130.103" fill="#FFFDFE"/>
<path d="M19.8942 130.287C19.8942 130.287 17.255 131.21 14.022 131.21C10.789 131.21 8.14978 130.287 8.14978 130.287" fill="#FFFDFE"/>
<path d="M227.605 188.776C227.605 192.006 226.681 194.642 226.681 194.642C226.681 194.642 225.758 192.006 225.758 188.776C225.758 185.546 226.681 182.909 226.681 182.909C226.681 182.909 227.605 185.546 227.605 188.776Z" fill="#FFFDFE"/>
<path d="M220.809 188.776C220.809 188.776 223.448 187.853 226.681 187.853C229.914 187.853 232.554 188.776 232.554 188.776" fill="#FFFDFE"/>
<path d="M232.554 188.776C232.554 188.776 229.914 189.699 226.681 189.699C223.448 189.699 220.809 188.776 220.809 188.776" fill="#FFFDFE"/>
<path d="M257 2573C277.796 2573 297.282 2572.26 317 2569.23C312.571 2566.09 305.793 2567.29 299.94 2566.98C299.67 2561.78 299.747 2556.46 299.824 2551.22C298.399 2555.41 298.168 2559.96 298.669 2564.5C296.974 2558.01 295.588 2550.72 294.895 2544C293.354 2548.81 294.048 2556.5 292.892 2562.25C291.429 2557.43 290.505 2552.77 290.543 2547.73C289.85 2552.66 289.272 2557.47 287.924 2562.17C287.27 2559.37 286.076 2556.66 285.883 2553.55C286.307 2557.2 285.883 2561.2 285.614 2564.73C285.421 2563.49 284.574 2560.15 284.458 2557.94C284.343 2558.71 283.534 2561.86 283.341 2563.57C280.068 2559.8 278.797 2553.51 277.719 2548.31C277.796 2551.49 277.796 2561.2 277.796 2566.79C277.218 2561.16 276.795 2555.22 275.755 2549.94C275.177 2557.35 275.408 2565.04 275.562 2572.53C275.216 2570.4 273.675 2567.37 273.175 2565.16C272.789 2567.53 271.365 2571.37 271.134 2572.88C271.018 2569.82 269.94 2564.15 269.747 2563.49C269.362 2564.5 268.861 2565.7 268.515 2566.71C268.322 2563.06 267.282 2559.18 266.512 2555.84C266.705 2560.58 266.204 2565.93 264.895 2570.44C262.392 2571.1 257.154 2572.92 257 2573Z" fill="#043D33"/>
<path d="M227 2601C256.486 2601 286.279 2598.77 315 2597.54C305.248 2597.54 293.774 2600.12 284.519 2598.54C284.175 2597.62 283.219 2592.86 283.219 2593.93C283.219 2594.93 283.028 2596.24 283.219 2597.24C283.334 2592.82 283.525 2587.94 281.995 2584.41C282.225 2587.14 281.995 2589.9 282.11 2592.63C281.192 2589.06 280.312 2585.49 279.739 2581.8C280.159 2585.49 279.815 2590.21 278.936 2592.94C276.718 2587.52 274.576 2581.8 274.04 2576C274.04 2581.53 274.002 2587.1 274.079 2592.63C272.778 2587.94 271.363 2583.1 270.598 2578.23C270.598 2582.64 270.598 2587.06 270.675 2591.48C268.801 2586.83 267.845 2581.72 266.277 2577.15C265.894 2582.07 266.009 2591.36 266.009 2594.32C266.009 2589.75 266.009 2585.14 266.009 2580.57C266.162 2584.68 266.047 2588.86 265.741 2592.9C265.55 2592.01 264.326 2589.02 263.982 2587.56C263.6 2590.17 262.644 2592.51 262.338 2595.16C261.535 2593.43 258.934 2590.36 258.246 2588.44C258.399 2589.94 258.016 2592.17 257.978 2593.78C257.557 2592.78 257.251 2591.02 256.831 2589.94C256.219 2591.78 255.492 2593.32 254.459 2594.89C254.612 2592.74 254.192 2590.52 254.268 2588.48C253.886 2589.56 252.05 2592.17 251.4 2593.74C250.52 2592.09 247.346 2589.71 246.734 2588.48C246.428 2590.32 245.663 2591.98 245.395 2593.82C244.975 2592.17 243.522 2589.4 243.33 2588.48C243.177 2591.63 242.145 2594.24 241.648 2597.27C241.112 2594.63 239.2 2590.48 238.741 2588.48C238.588 2591.05 237.861 2593.9 237.594 2596.16C237.632 2593.36 236.676 2589.13 236.446 2587.33C236.293 2590.52 235.834 2594.01 236.179 2597.27C236.179 2594.7 235.605 2592.17 235.299 2590.17C235.184 2593.28 234.878 2596.43 235.031 2599.58C234.993 2597.31 234.343 2594.36 234.152 2593.09C234.228 2595.51 233.884 2598.2 233.96 2600.73C233.693 2599.46 232.89 2598.12 232.507 2596.81C231.819 2598.54 228.147 2599.85 227 2601Z" fill="#03352B"/>
<path d="M361.747 1604.46C361.747 1607.69 360.823 1610.33 360.823 1610.33C360.823 1610.33 359.9 1607.69 359.9 1604.46C359.9 1601.23 360.823 1598.6 360.823 1598.6C360.823 1598.6 361.747 1601.23 361.747 1604.46Z" fill="#FFFDFE"/>
<path d="M354.951 1604.46C354.951 1604.46 357.59 1603.54 360.823 1603.54C364.056 1603.54 366.696 1604.46 366.696 1604.46" fill="#FFFDFE"/>
<path d="M366.696 1604.46C366.696 1604.46 364.056 1605.39 360.823 1605.39C357.59 1605.39 354.951 1604.46 354.951 1604.46" fill="#FFFDFE"/>
<path d="M339.908 1874.47C339.908 1879.34 338.522 1883.3 338.522 1883.3C338.522 1883.3 337.136 1879.34 337.136 1874.47C337.136 1869.59 338.522 1865.63 338.522 1865.63C338.522 1865.63 339.908 1869.59 339.908 1874.47Z" fill="#FFFDFE"/>
<path d="M329.747 1874.47C329.747 1874.47 333.706 1873.08 338.588 1873.08C343.471 1873.08 347.429 1874.47 347.429 1874.47" fill="#FFFDFE"/>
<path d="M347.363 1874.47C347.363 1874.47 343.405 1875.85 338.522 1875.85C333.639 1875.85 329.681 1874.47 329.681 1874.47" fill="#FFFDFE"/>
<path d="M315.759 1433.87C315.759 1437.1 314.835 1439.73 314.835 1439.73C314.835 1439.73 313.912 1437.1 313.912 1433.87C313.912 1430.64 314.835 1428 314.835 1428C314.835 1428 315.759 1430.64 315.759 1433.87Z" fill="#FFFDFE"/>
<path d="M308.963 1433.87C308.963 1433.87 311.602 1432.94 314.835 1432.94C318.068 1432.94 320.708 1433.87 320.708 1433.87" fill="#FFFDFE"/>
<path d="M320.708 1433.87C320.708 1433.87 318.068 1434.79 314.835 1434.79C311.602 1434.79 308.963 1433.87 308.963 1433.87" fill="#FFFDFE"/>
<path d="M305.796 1781.06C305.796 1784.29 304.872 1786.93 304.872 1786.93C304.872 1786.93 303.948 1784.29 303.948 1781.06C303.948 1777.83 304.872 1775.19 304.872 1775.19C304.872 1775.19 305.796 1777.76 305.796 1781.06Z" fill="#FFFDFE"/>
<path d="M299 1781.06C299 1781.06 301.639 1780.14 304.872 1780.14C308.105 1780.14 310.744 1781.06 310.744 1781.06" fill="#FFFDFE"/>
<path d="M310.744 1781.06C310.744 1781.06 308.105 1781.98 304.872 1781.98C301.639 1781.98 299 1781.06 299 1781.06" fill="#FFFDFE"/>
<path d="M80.7471 1926.87C80.7471 1930.1 79.8234 1932.73 79.8234 1932.73C79.8234 1932.73 78.8997 1930.1 78.8997 1926.87C78.8997 1923.64 79.8234 1921 79.8234 1921C79.8234 1921 80.7471 1923.64 80.7471 1926.87Z" fill="#FFFDFE"/>
<path d="M73.9512 1926.87C73.9512 1926.87 76.5904 1925.94 79.8234 1925.94C83.0564 1925.94 85.6956 1926.87 85.6956 1926.87" fill="#FFFDFE"/>
<path d="M85.6956 1926.87C85.6956 1926.87 83.0564 1927.79 79.8234 1927.79C76.5904 1927.79 73.9512 1926.87 73.9512 1926.87" fill="#FFFDFE"/>
<path d="M58.9076 2196.87C58.9076 2201.75 57.5221 2205.7 57.5221 2205.7C57.5221 2205.7 56.1365 2201.75 56.1365 2196.87C56.1365 2191.99 57.5221 2188.04 57.5221 2188.04C57.5221 2188.04 58.9076 2191.99 58.9076 2196.87Z" fill="#FFFDFE"/>
<path d="M48.7467 2196.87C48.7467 2196.87 52.7055 2195.48 57.588 2195.48C62.4705 2195.48 66.4293 2196.87 66.4293 2196.87" fill="#FFFDFE"/>
<path d="M66.3633 2196.87C66.3633 2196.87 62.4045 2198.25 57.522 2198.25C52.6395 2198.25 48.6807 2196.87 48.6807 2196.87" fill="#FFFDFE"/>
<path d="M24.7959 2103.46C24.7959 2106.69 23.8722 2109.33 23.8722 2109.33C23.8722 2109.33 22.9485 2106.69 22.9485 2103.46C22.9485 2100.23 23.8722 2097.6 23.8722 2097.6C23.8722 2097.6 24.7959 2100.17 24.7959 2103.46Z" fill="#FFFDFE"/>
<path d="M18 2103.46C18 2103.46 20.6392 2102.54 23.8722 2102.54C27.1052 2102.54 29.7444 2103.46 29.7444 2103.46" fill="#FFFDFE"/>
<path d="M29.7444 2103.46C29.7444 2103.46 27.1052 2104.39 23.8722 2104.39C20.6392 2104.39 18 2103.46 18 2103.46" fill="#FFFDFE"/>
<path d="M82.5235 2470.79L74.5018 2467.15L81.8059 2472.09L73.9379 2476.09L82.3697 2473.48L80.6014 2482.11L83.8049 2473.88L89.4432 2480.65L85.0095 2473.04L93.8257 2472.83L85.112 2471.53L90.4427 2464.54L84.0099 2470.53L81.8572 2462L82.5235 2470.79Z" fill="#F4ECFF"/>
<path d="M57.0548 2580.3L52.0572 2500.41L24.7628 2481.2L8.61686 2510.02L47.4441 2584.53L57.0548 2580.3Z" fill="#F4ECFF"/>
<path d="M57.0548 2580.31L51.2884 2500.41L25.1473 2482.74L27.0951 2484.59L41.6777 2498.49L25.1473 2483.89L20.9186 2510.4L23.6096 2483.89L15.5366 2501.57L17.4587 2495.04L9.38572 2510.4L47.4441 2584.53L57.0548 2580.31Z" fill="#93F4F4"/>
<path d="M44.3688 2504.26L24.7886 2503.8L17.2794 2514.04L44.3688 2504.26Z" fill="#2F8787"/>
<path d="M57.0548 2580.31L44.3687 2504.26L18.2276 2513.48L48.5974 2585.3L57.0548 2580.31Z" fill="#4BA9A9"/>
<path d="M57.0548 2580.31L45.8039 2503.95L51.2884 2500.42L57.0548 2580.31Z" fill="#4BA9A9"/>
<path d="M9.38575 2510.4L17.0999 2513.35L48.5974 2585.3L47.4441 2584.53L9.38575 2510.4Z" fill="#4BA9A9"/>
<path d="M28.7353 2509.58L17.0999 2513.35L32.9896 2549.39L19.1502 2513.68L28.7353 2509.58Z" fill="#F4ECFF"/>
<path d="M21.8925 2486.89L9.38574 2510.4L16.0748 2513.17L21.8925 2486.89Z" fill="#2F8787"/>
<path d="M23.0971 2484.66L11.8205 2509.58L25.1473 2482.74L23.0971 2484.66Z" fill="#F4ECFF"/>
<path d="M57.0548 2580.31L40.8576 2515.4L26.1724 2520.52L48.5974 2585.3L57.0548 2580.31Z" fill="#4BD1D1"/>
<path d="M48.5974 2585.3L19.509 2521.37L17.2793 2522.9L47.4441 2584.53L48.5974 2585.3Z" fill="#5FCCCC"/>
<path d="M57.0548 2580.3L47.1878 2506.69L51.109 2506L57.0548 2580.3Z" fill="#5FCCCC"/>
<path d="M55.722 2580.79L40.3449 2518.81L35.0398 2541.35L48.5973 2585.3L55.722 2580.79Z" fill="#5FCCCC"/>
<path d="M54.8252 2590.55L132.71 2571.88L146.96 2541.7L115.796 2530.77L49.0076 2581.82L54.8252 2590.55Z" fill="#F4ECFF"/>
<path d="M54.8253 2590.55L132.582 2571.14L145.525 2542.35L144.038 2544.57L132.839 2561.33L144.371 2542.55L117.513 2542.96L144.115 2541.04L125.304 2536.12L132.07 2536.89L115.539 2531.59L49.0076 2581.82L54.8253 2590.55Z" fill="#93F4F4"/>
<path d="M127.61 2564.99L124.689 2545.62L113.31 2539.99L127.61 2564.99Z" fill="#2F8787"/>
<path d="M54.8253 2590.55L127.61 2564.99L114.027 2540.83L48.4438 2583.07L54.8253 2590.55Z" fill="#4BA9A9"/>
<path d="M54.8253 2590.55L128.149 2566.35L132.582 2571.14L54.8253 2590.55Z" fill="#4BA9A9"/>
<path d="M115.539 2531.59L113.95 2539.71L48.4437 2583.07L49.0075 2581.82L115.539 2531.59Z" fill="#4BA9A9"/>
<path d="M119.64 2550.49L113.95 2539.71L81.1715 2561.53L113.976 2541.78L119.64 2550.49Z" fill="#F4ECFF"/>
<path d="M140.86 2539.86L115.539 2531.59L113.95 2538.66L140.86 2539.86Z" fill="#2F8787"/>
<path d="M143.269 2540.65L116.744 2533.84L145.525 2542.35L143.269 2540.65Z" fill="#F4ECFF"/>
<path d="M54.8253 2590.55L116.026 2563.43L108.44 2549.85L48.4437 2583.07L54.8253 2590.55Z" fill="#4BD1D1"/>
<path d="M48.4438 2583.07L106.441 2543.42L104.545 2541.5L49.0076 2581.82L48.4438 2583.07Z" fill="#5FCCCC"/>
<path d="M54.8251 2590.55L125.688 2568.16L127.046 2571.9L54.8251 2590.55Z" fill="#5FCCCC"/>
<path d="M54.1076 2589.32L112.566 2563.5L89.4237 2562.17L48.4437 2583.07L54.1076 2589.32Z" fill="#5FCCCC"/>
<path d="M52.0571 2581.28L9.56501 2526.69L-19.2671 2526.26L-16.7555 2554.66L47.2646 2588.96L52.0571 2581.28Z" fill="#F4ECFF"/>
<path d="M52.0573 2581.28L9.02695 2527.05L-18.2418 2527.18L-15.9609 2527.54L1.23587 2530.36L-17.678 2528L-7.78537 2548.95L-18.78 2528.74L-15.9353 2545.26L-17.7293 2539.68L-16.0122 2554.56L47.2647 2588.96L52.0573 2581.28Z" fill="#93F4F4"/>
<path d="M5.95154 2533.17L-8.24668 2542.37L-8.60549 2553.33L5.95154 2533.17Z" fill="#2F8787"/>
<path d="M52.0573 2581.28L5.95155 2533.17L-8.19542 2552.46L48.4693 2588.94L52.0573 2581.28Z" fill="#4BA9A9"/>
<path d="M52.0573 2581.28L6.84853 2532.25L9.02696 2527.05L52.0573 2581.28Z" fill="#4BA9A9"/>
<path d="M-16.0123 2554.56L-9.06694 2552.92L48.4691 2588.94L47.2646 2588.96L-16.0123 2554.56Z" fill="#4BA9A9"/>
<path d="M-2.60843 2544.6L-9.06681 2552.92L19.8165 2570.9L-7.42661 2552.18L-2.60843 2544.6Z" fill="#F4ECFF"/>
<path d="M52.0573 2581.28L8.87318 2542.83L0.877071 2553.64L48.4693 2588.94L52.0573 2581.28Z" fill="#E5E5E5"/>
<path d="M48.4691 2588.94L-3.4543 2557.48L-4.27442 2559.66L47.2646 2588.96L48.4691 2588.94Z" fill="#5FCCCC"/>
<path d="M52.0573 2581.28L9.1551 2533.53L11.6154 2531.15L52.0573 2581.28Z" fill="#5FCCCC"/>
<path d="M51.3396 2582.25L10.1802 2545.52L17.3818 2564.17L48.4692 2588.94L51.3396 2582.25Z" fill="#308A8A"/>
<path d="M53.0568 2584.99L54.3895 2489.78L83.0935 2472.16L93.5243 2500.59L58.1825 2582.43L53.0568 2584.99Z" fill="#F4ECFF"/>
<path d="M58.1825 2582.43L80.3256 2500.87L93.473 2500.54L58.1825 2582.43Z" fill="#5FCCCC"/>
<path d="M78.2754 2499.85L59.3103 2493.7L53.0569 2584.99L58.1826 2582.43L78.2754 2499.85Z" fill="#4BA9A9"/>
<path d="M54.3895 2489.78L58.285 2493.55L53.1593 2581.66L54.3895 2489.78Z" fill="#5FCCCC"/>
<path d="M92.9604 2499.34L80.505 2499.85L82.9397 2473.57L83.0935 2472.16L92.9604 2499.34Z" fill="#5FCCCC"/>
<path d="M79.1212 2499.18L59.4897 2493.19L54.3896 2489.78L83.0936 2472.16L79.1212 2499.18Z" fill="#93F4F4"/>
<path d="M59.4897 2493.19L83.0936 2472.16L54.3896 2489.78L59.4897 2493.19Z" fill="#5FCCCC"/>
<path d="M83.0935 2472.16L88.0142 2485.51L83.7342 2475.77L81.0176 2490.63L82.3759 2474.93L64.2565 2489.09L83.0935 2472.16Z" fill="#F4ECFF"/>
<path d="M74.5079 2502.92L58.1826 2582.43L53.0569 2584.99L61.0273 2497.65L74.5079 2502.92Z" fill="#4BD1D1"/>
<path d="M58.1826 2582.43L81.3508 2504.46L90.7565 2503.28L58.1826 2582.43Z" fill="#4A9F9F"/>
<path d="M72.6371 2503.62L61.6937 2505.15L53.0569 2584.99L58.1826 2582.43L72.6371 2503.62Z" fill="#4A9F9F"/>
<path d="M54.3638 2493.37L57.2599 2496.96L53.1593 2584.04L54.3638 2493.37Z" fill="#4A9F9F"/>
<path d="M51.7755 2592.04L85.7076 2558.99L81.6327 2536.4L61.0017 2538.25L45.3427 2588.25L51.7755 2592.04Z" fill="#F4ECFF"/>
<path d="M51.7755 2592.04L85.3489 2558.56L81.1202 2537.2L81.1971 2538.99L81.7096 2552.44L80.6076 2537.63L66.5888 2545.29L79.8644 2536.76L68.0752 2538.94L71.9452 2537.53L61.1812 2538.84L45.3427 2588.25L51.7755 2592.04Z" fill="#93F4F4"/>
<path d="M80.3513 2556.13L71.407 2544.96L63.2315 2544.62L80.3513 2556.13Z" fill="#2F8787"/>
<path d="M51.7755 2592.04L80.3513 2556.12L63.9234 2544.96L45.5222 2589.19L51.7755 2592.04Z" fill="#4BA9A9"/>
<path d="M51.7755 2592.04L81.1714 2556.82L85.3489 2558.56L51.7755 2592.04Z" fill="#4BA9A9"/>
<path d="M61.1811 2538.84L63.462 2544.27L45.5221 2589.19L45.3427 2588.25L61.1811 2538.84Z" fill="#4BA9A9"/>
<path d="M70.5869 2549.36L63.4622 2544.27L54.5434 2566.83L64.2567 2545.55L70.5869 2549.36Z" fill="#F4ECFF"/>
<path d="M77.7117 2536.94L61.1813 2538.84L63.0521 2543.63L77.7117 2536.94Z" fill="#2F8787"/>
<path d="M79.2749 2536.76L62.6675 2539.89L81.1201 2537.2L79.2749 2536.76Z" fill="#F4ECFF"/>
<path d="M51.7754 2592.04L73.6365 2558.38L64.4358 2552.08L45.522 2589.19L51.7754 2592.04Z" fill="#E5E5E5"/>
<path d="M45.522 2589.19L60.9248 2548.65L59.1821 2547.98L45.3426 2588.25L45.522 2589.19Z" fill="#5FCCCC"/>
<path d="M51.7754 2592.04L80.5563 2558.64L82.7091 2560.56L51.7754 2592.04Z" fill="#5FCCCC"/>
<path d="M50.9298 2591.47L71.8427 2559.38L59.1309 2564.94L45.5222 2589.19L50.9298 2591.47Z" fill="#308A8A"/>
<path d="M24.6258 2587.61C21.1149 2588.98 17.9277 2591.07 14.7654 2593.16C13.371 2594.08 11.8272 2595.35 12.0513 2596.99C12.3003 2598.86 14.5911 2599.55 16.4337 2599.85C20.2683 2600.47 24.078 2601.1 27.9125 2601.72C33.5897 2602.64 39.491 2603.56 45.0188 2601.97C46.9112 2601.42 48.7787 2600.57 50.7458 2600.57C52.1153 2600.57 53.4848 2601 54.8294 2600.82C58.1411 2600.42 58.2407 2597.79 56.3732 2595.05C54.3314 2592.09 52.7876 2586.99 49.7 2585.77C45.5915 2584.15 43.973 2584.85 39.5657 2585.04C34.4861 2585.29 29.3318 2585.77 24.6258 2587.61Z" fill="#5F6362"/>
<path d="M51.0195 2591.27C51.0694 2591.24 51.1192 2591.19 51.1691 2591.17C51.1192 2591.22 51.0694 2591.24 51.0195 2591.27Z" fill="#5F6362"/>
<path d="M49.6247 2591.84C49.7992 2591.79 49.9737 2591.74 50.1482 2591.69C49.9986 2591.76 49.8241 2591.81 49.6247 2591.84Z" fill="#5F6362"/>
<path d="M50.4965 2591.56C50.5713 2591.54 50.6461 2591.49 50.6959 2591.46C50.6461 2591.49 50.5713 2591.54 50.4965 2591.56Z" fill="#5F6362"/>
<path d="M52.4141 2589.03C52.4141 2589.05 52.4141 2589.1 52.4141 2589.13C52.4141 2589.15 52.4141 2589.15 52.4141 2589.18C52.3892 2589.4 52.3394 2589.62 52.2398 2589.85V2589.87C52.2398 2589.9 52.2149 2589.9 52.2149 2589.92C52.19 2589.95 52.19 2589.97 52.1651 2590.02V2590.05C52.1402 2590.07 52.1402 2590.12 52.1153 2590.15C52.0904 2590.22 52.0406 2590.27 51.9908 2590.35C51.8663 2590.52 51.7418 2590.69 51.5924 2590.84C51.4679 2590.97 51.3185 2591.09 51.1691 2591.19C51.1193 2591.22 51.0695 2591.27 51.0197 2591.29C50.9201 2591.37 50.8205 2591.42 50.7209 2591.47C50.6462 2591.49 50.5964 2591.54 50.5217 2591.56C50.4221 2591.61 50.2976 2591.66 50.198 2591.69C50.0237 2591.76 49.8494 2591.81 49.6751 2591.84C49.5257 2591.86 49.3763 2591.89 49.2269 2591.91C47.6582 2592.06 46.1393 2591.42 44.72 2590.69C43.3256 2589.97 41.9312 2589.15 40.3625 2588.88C35.9304 2588.13 31.8468 2592.09 27.3399 2591.84C24.5013 2591.69 21.7374 2589.82 18.9984 2590.44C20.8161 2589.35 22.6836 2588.35 24.6507 2587.58C29.3817 2585.74 34.5359 2585.29 39.5906 2585.04C43.9979 2584.85 45.6164 2584.15 49.7249 2585.77C50.7458 2586.16 51.5924 2586.99 52.3394 2588.01C52.3643 2588.13 52.3892 2588.23 52.4141 2588.35C52.4141 2588.58 52.439 2588.8 52.4141 2589.03Z" fill="#707574"/>
<path d="M51.592 2590.82C51.7416 2590.67 51.8911 2590.49 51.9908 2590.32C51.8662 2590.49 51.7416 2590.67 51.592 2590.82Z" fill="#5F6362"/>
<path d="M52.414 2589.03C52.414 2588.8 52.3891 2588.58 52.3642 2588.38C52.4141 2588.58 52.439 2588.8 52.414 2589.03Z" fill="#5F6362"/>
<path d="M52.1155 2590.12C52.1404 2590.1 52.1403 2590.05 52.1652 2590.02C52.1403 2590.05 52.1155 2590.1 52.1155 2590.12Z" fill="#5F6362"/>
<path d="M52.1653 2590C52.1901 2589.97 52.1901 2589.95 52.215 2589.9C52.1901 2589.95 52.1901 2589.97 52.1653 2590Z" fill="#5F6362"/>
<path d="M53.9578 2596.77C51.7915 2597.04 49.6999 2597.79 47.5336 2598.01C44.5456 2598.31 41.458 2597.66 38.5447 2598.43C36.8018 2598.91 35.233 2599.85 33.49 2600.25C31.3486 2600.75 29.1077 2600.42 26.9912 2599.85C24.8747 2599.28 22.808 2598.46 20.6666 2598.01C19.82 2597.84 18.9485 2597.69 18.1019 2597.46C16.2095 2596.94 14.4665 2595.87 13.1468 2594.45C13.2713 2594.33 13.3958 2594.2 13.5203 2594.1C14.0681 2594.58 14.5412 2595.15 15.089 2595.65C16.0352 2596.49 17.2055 2597.06 18.4505 2597.29C19.9196 2597.54 21.4385 2597.31 22.8578 2597.74C23.804 2598.01 24.6257 2598.58 25.5221 2598.98C29.1077 2600.62 33.3158 2599.75 37.0009 2598.41C37.9969 2598.03 38.9929 2597.64 40.0387 2597.54C41.3833 2597.41 42.7279 2597.79 44.0974 2597.86C47.6083 2598.06 50.9698 2596.27 54.4807 2596.04C55.2277 2595.99 56.1241 2595.97 56.6719 2595.55C56.7466 2595.67 56.8213 2595.82 56.896 2595.94C56.7964 2596.02 56.6719 2596.12 56.5474 2596.17C55.7755 2596.59 54.8542 2596.64 53.9578 2596.77Z" fill="#515655"/>
<path d="M49.7996 2594.3C48.5795 2594.3 47.3594 2594.08 46.1144 2594.13C43.4003 2594.23 40.8356 2595.67 38.1464 2595.52C36.005 2595.4 33.9134 2594.3 31.8218 2594.68C31.1246 2594.8 30.4523 2595.07 29.7551 2595.25C29.0828 2595.4 28.3607 2595.42 27.6635 2595.45C26.5181 2595.5 25.3478 2595.52 24.2522 2595.25C23.5301 2595.07 22.8329 2594.75 22.1606 2594.43C20.7413 2593.75 19.2971 2593.08 17.8778 2592.44C17.5541 2592.29 17.2304 2592.11 17.0561 2591.81C17.0312 2591.79 17.0312 2591.76 17.0312 2591.74C17.2055 2591.64 17.3549 2591.54 17.5292 2591.42C17.8529 2592.09 18.4754 2592.59 19.1975 2592.78C19.7951 2592.93 20.4176 2592.88 21.0152 2593.06C21.4883 2593.21 21.8867 2593.53 22.31 2593.8C24.3518 2595.12 26.9165 2595.6 29.3069 2595.05C30.7013 2594.73 32.0708 2594.08 33.515 2594.1C34.5359 2594.13 35.507 2594.5 36.503 2594.73C38.0468 2595.07 39.6653 2595.05 41.2091 2594.63C42.5288 2594.28 43.7738 2593.66 45.1184 2593.41C46.9112 2593.08 48.7538 2593.51 50.5715 2593.53C52.0904 2593.56 53.7338 2593.21 54.8045 2592.21C54.9041 2592.41 55.0037 2592.59 55.1033 2592.76C55.0784 2592.78 55.0535 2592.81 55.0037 2592.81C53.3852 2593.78 51.5924 2594.3 49.7996 2594.3Z" fill="#515655"/>
<path d="M50.0736 2590.45C49.8993 2590.59 49.725 2590.72 49.5009 2590.77C49.2768 2590.82 49.0278 2590.79 48.8784 2590.64C48.6294 2590.42 48.6792 2590 48.9282 2589.77C49.1772 2589.55 49.5507 2589.52 49.8495 2589.62C50.0985 2589.7 50.3226 2589.92 50.2728 2590.15C50.2728 2590.27 50.1732 2590.37 50.0736 2590.45Z" fill="#5F6362"/>
<path d="M30.4771 2589.33C30.4023 2589.4 30.3026 2589.45 30.2029 2589.5C30.1032 2589.53 29.9786 2589.52 29.9038 2589.45C29.7791 2589.35 29.8041 2589.13 29.9287 2589.03C30.0533 2588.93 30.2278 2588.9 30.3774 2588.95C30.502 2589 30.6018 2589.1 30.5768 2589.2C30.5519 2589.25 30.5021 2589.28 30.4771 2589.33Z" fill="#5F6362"/>
<path d="M45.1929 2586.91C45.1182 2586.99 45.0185 2587.04 44.9187 2587.09C44.819 2587.11 44.6944 2587.11 44.6196 2587.04C44.495 2586.94 44.5199 2586.71 44.6445 2586.61C44.7692 2586.51 44.9437 2586.49 45.0932 2586.54C45.2179 2586.59 45.3176 2586.69 45.2927 2586.79C45.2677 2586.84 45.2428 2586.86 45.1929 2586.91Z" fill="#5F6362"/>
<path d="M29.6307 2586.56C29.9793 2586.51 30.3528 2586.46 30.7014 2586.51C31.0002 2586.56 31.3239 2586.76 31.2741 2587.06C31.2492 2587.28 31.0251 2587.41 30.8259 2587.51C30.054 2587.83 29.2074 2588.01 28.5351 2588.5C27.9624 2588.93 27.564 2589.57 26.9664 2590C26.3439 2590.42 25.572 2590.52 24.825 2590.44C24.078 2590.37 23.3808 2590.15 22.6836 2589.9C22.3101 2589.77 21.9117 2589.65 21.5382 2589.52C24.0282 2588.03 26.7921 2587.04 29.6307 2586.56Z" fill="#797C7C"/>
<path d="M34.561 2586.86C35.1088 2586.66 35.7064 2586.66 36.2542 2586.49C36.9016 2586.29 37.4992 2585.84 38.1715 2585.77C38.8189 2585.69 39.4414 2585.94 40.0141 2586.19C40.6615 2586.46 41.3089 2586.71 41.9065 2587.08C42.8278 2587.61 43.6495 2588.33 44.272 2589.2C43.5499 2589.32 42.8527 2589 42.1555 2588.75C40.0888 2588.03 37.7233 2588.06 35.7313 2588.98C34.8598 2589.37 33.9883 2589.97 33.0172 2589.92C32.7931 2589.9 32.569 2589.85 32.4196 2589.7C32.0461 2589.3 32.4445 2588.65 32.818 2588.23C33.3409 2587.68 33.8638 2587.13 34.561 2586.86Z" fill="#797C7C"/>
<path d="M47.7081 2589.05C47.4093 2589.18 47.1354 2589.37 46.8366 2589.47C46.5129 2589.55 46.1145 2589.47 45.99 2589.2C45.8157 2588.8 46.1892 2588.4 46.3635 2588.01C46.5876 2587.51 46.4631 2586.89 46.0896 2586.46C45.741 2586.04 45.1932 2585.82 44.6205 2585.79C44.496 2585.79 44.3715 2585.79 44.247 2585.74C44.1225 2585.69 44.0478 2585.57 44.0727 2585.44C44.8695 2584.8 46.0398 2585.04 47.0358 2585.32C47.5089 2585.44 47.9571 2585.59 48.4302 2585.72C49.6004 2586.04 50.9201 2586.49 51.4181 2587.58C51.5426 2587.86 51.6174 2588.18 51.4431 2588.43C51.3435 2588.58 51.1692 2588.7 50.9949 2588.75C49.9989 2589.18 48.7539 2588.6 47.7081 2589.05Z" fill="#797C7C"/>
<path d="M48.8283 2587.29C48.7285 2587.31 48.6039 2587.33 48.5042 2587.31C48.4045 2587.29 48.3048 2587.21 48.2549 2587.11C48.205 2586.96 48.3297 2586.79 48.4792 2586.74C48.6288 2586.69 48.8033 2586.76 48.928 2586.89C49.0027 2586.96 49.0775 2587.11 48.9778 2587.21C48.9529 2587.26 48.8781 2587.29 48.8283 2587.29Z" fill="#5F6362"/>
<path d="M37.2748 2586.17C37.1751 2586.22 37.1003 2586.29 36.9756 2586.29C36.8759 2586.32 36.7513 2586.29 36.6765 2586.19C36.5768 2586.07 36.6266 2585.87 36.7513 2585.77C36.8759 2585.67 37.0753 2585.67 37.2249 2585.74C37.3246 2585.79 37.4493 2585.92 37.3994 2586.02C37.3745 2586.09 37.3246 2586.12 37.2748 2586.17Z" fill="#5F6362"/>
<path d="M39.2668 2587.76C39.1671 2587.81 39.0923 2587.88 38.9677 2587.88C38.868 2587.91 38.7433 2587.88 38.6686 2587.78C38.5688 2587.66 38.6187 2587.46 38.7433 2587.36C38.868 2587.26 39.0674 2587.26 39.217 2587.33C39.3167 2587.38 39.4413 2587.51 39.3915 2587.61C39.3416 2587.68 39.2918 2587.73 39.2668 2587.76Z" fill="#5F6362"/>
<path d="M44.4459 2589.5C44.3462 2589.55 44.2714 2589.62 44.1468 2589.62C44.0471 2589.65 43.9224 2589.62 43.8477 2589.52C43.7479 2589.4 43.7978 2589.2 43.9224 2589.1C44.0471 2589 44.2465 2589 44.3961 2589.08C44.4958 2589.13 44.6204 2589.25 44.5706 2589.35C44.5456 2589.42 44.4958 2589.47 44.4459 2589.5Z" fill="#5F6362"/>
<path d="M27.763 2588.21C27.6633 2588.23 27.5387 2588.26 27.4389 2588.26C27.3392 2588.26 27.2146 2588.18 27.1897 2588.08C27.1149 2587.93 27.2395 2587.76 27.3891 2587.71C27.5387 2587.66 27.7132 2587.71 27.8378 2587.83C27.9375 2587.91 27.9874 2588.06 27.9126 2588.16C27.8627 2588.18 27.8129 2588.18 27.763 2588.21Z" fill="#5F6362"/>
<path d="M25.1238 2590.84C24.9246 2590.89 24.7254 2590.94 24.5262 2590.92C24.327 2590.89 24.1278 2590.77 24.0531 2590.59C23.9286 2590.32 24.1278 2589.97 24.4017 2589.9C24.6756 2589.8 24.9993 2589.9 25.2234 2590.1C25.3977 2590.25 25.5222 2590.52 25.3728 2590.69C25.323 2590.77 25.2234 2590.82 25.1238 2590.84Z" fill="#5F6362"/>
<path d="M33.0668 2588.75C32.8925 2588.78 32.7182 2588.83 32.5439 2588.85C32.3696 2588.88 32.1704 2588.9 32.0459 2588.8C31.8716 2588.68 31.8965 2588.35 32.0459 2588.18C32.1953 2588.01 32.4194 2587.93 32.6435 2587.86C32.8676 2587.78 33.1166 2587.71 33.3407 2587.78C33.5648 2587.83 33.7889 2588.06 33.7391 2588.3C33.6893 2588.6 33.3407 2588.7 33.0668 2588.75Z" fill="#6C706F"/>
<path d="M37.026 2588.83C36.8019 2588.9 36.5778 2589 36.3537 2589.08C36.1296 2589.15 35.8806 2589.23 35.6814 2589.13C35.4075 2589 35.3826 2588.6 35.532 2588.33C35.6814 2588.08 35.9802 2587.91 36.2292 2587.78C36.5031 2587.63 36.8268 2587.51 37.1256 2587.51C37.4493 2587.53 37.7729 2587.78 37.7729 2588.11C37.7729 2588.5 37.3746 2588.7 37.026 2588.83Z" fill="#6C706F"/>
<path d="M48.2808 2589.4C48.0567 2589.38 47.8077 2589.35 47.5836 2589.35C47.3595 2589.33 47.0856 2589.3 46.9611 2589.1C46.7868 2588.85 46.9113 2588.48 47.1603 2588.33C47.4093 2588.18 47.733 2588.16 48.0318 2588.13C48.3555 2588.13 48.6792 2588.13 48.9531 2588.28C49.227 2588.43 49.4262 2588.8 49.2768 2589.08C49.1025 2589.42 48.6543 2589.42 48.2808 2589.4Z" fill="#6C706F"/>
<path d="M24.825 2589.23C24.6009 2589.25 24.3519 2589.28 24.1278 2589.3C23.9037 2589.32 23.6298 2589.35 23.4555 2589.2C23.2314 2589 23.2812 2588.6 23.5053 2588.4C23.7294 2588.18 24.0282 2588.11 24.327 2588.06C24.6258 2587.98 24.9744 2587.93 25.2732 2588.03C25.572 2588.13 25.821 2588.45 25.7463 2588.75C25.6467 2589.08 25.1985 2589.2 24.825 2589.23Z" fill="#6C706F"/>
<path d="M52.7628 2591.22C52.9371 2591.12 53.1363 2591.02 53.3355 2591.07C53.5346 2591.12 53.684 2591.39 53.5346 2591.54C53.4599 2591.59 53.3853 2591.64 53.3106 2591.69C53.1612 2591.79 53.0118 2591.89 52.8126 2591.91C52.6383 2591.91 52.4391 2591.81 52.4142 2591.61C52.4391 2591.42 52.6134 2591.29 52.7628 2591.22Z" fill="#575B5A"/>
<path d="M42.2051 2591.79C42.4043 2591.76 42.6284 2591.76 42.8027 2591.91C42.9521 2592.04 42.977 2592.34 42.7778 2592.41C42.6782 2592.44 42.6035 2592.44 42.5039 2592.46C42.3296 2592.49 42.1304 2592.51 41.9561 2592.46C41.7818 2592.39 41.6573 2592.21 41.732 2592.04C41.8067 2591.86 42.0308 2591.81 42.2051 2591.79Z" fill="#575B5A"/>
<path d="M39.8639 2589.62C39.9637 2589.52 40.1631 2589.5 40.2628 2589.62C40.3625 2589.72 40.3874 2589.92 40.2877 2590.02C40.2628 2590.05 40.2129 2590.07 40.188 2590.1C40.0135 2590.2 39.7642 2590.17 39.6396 2590C39.5399 2589.82 39.6645 2589.55 39.8639 2589.57" fill="#575B5A"/>
<path d="M37.0751 2593.41C37.1748 2593.31 37.3743 2593.28 37.474 2593.41C37.5737 2593.51 37.5986 2593.71 37.4989 2593.8C37.474 2593.83 37.4241 2593.85 37.3992 2593.88C37.2247 2593.98 36.9754 2593.95 36.8508 2593.78C36.751 2593.61 36.8757 2593.33 37.0751 2593.36" fill="#575B5A"/>
<path d="M44.7693 2592.29C44.869 2592.19 45.0685 2592.16 45.1682 2592.29C45.2679 2592.39 45.2928 2592.59 45.1931 2592.69C45.1682 2592.71 45.1183 2592.74 45.0934 2592.76C44.9189 2592.86 44.6696 2592.84 44.545 2592.66C44.4453 2592.49 44.5699 2592.21 44.7693 2592.24" fill="#575B5A"/>
<path d="M44.7195 2595.32C44.8192 2595.22 45.0187 2595.2 45.1184 2595.32C45.2181 2595.42 45.243 2595.62 45.1433 2595.72C45.1184 2595.75 45.0685 2595.77 45.0436 2595.8C44.8691 2595.9 44.6198 2595.87 44.4952 2595.7C44.3955 2595.52 44.5201 2595.25 44.7195 2595.27" fill="#575B5A"/>
<path d="M53.4594 2594.9C53.5591 2594.8 53.7585 2594.77 53.8583 2594.9C53.958 2595 53.9829 2595.2 53.8832 2595.3C53.8582 2595.32 53.8084 2595.35 53.7835 2595.37C53.609 2595.47 53.3597 2595.45 53.235 2595.27C53.1353 2595.1 53.26 2594.82 53.4594 2594.85" fill="#575B5A"/>
<path d="M47.3092 2596.52C47.3839 2596.42 47.5584 2596.42 47.6332 2596.52C47.7329 2596.59 47.7329 2596.77 47.6332 2596.84C47.6083 2596.87 47.5834 2596.89 47.5335 2596.92C47.384 2596.99 47.1845 2596.97 47.0848 2596.84C46.9851 2596.72 47.1098 2596.47 47.2593 2596.49" fill="#575B5A"/>
<path d="M48.5542 2594.8C48.629 2594.7 48.8035 2594.7 48.8783 2594.8C48.9531 2594.9 48.978 2595.05 48.8783 2595.12C48.8534 2595.15 48.8285 2595.17 48.7786 2595.2C48.629 2595.27 48.4296 2595.25 48.3299 2595.12C48.2302 2594.97 48.3548 2594.75 48.5044 2594.77" fill="#575B5A"/>
<path d="M46.5871 2592.26C46.6619 2592.16 46.8364 2592.16 46.9112 2592.26C47.0109 2592.34 47.0109 2592.51 46.9112 2592.59C46.8862 2592.61 46.8613 2592.64 46.8115 2592.66C46.6619 2592.73 46.4625 2592.71 46.3628 2592.59C46.263 2592.44 46.3877 2592.21 46.5373 2592.24" fill="#575B5A"/>
<path d="M40.8353 2593.58C40.8852 2593.53 40.96 2593.53 41.0098 2593.58C41.0597 2593.63 41.0597 2593.7 41.0098 2593.75C40.9849 2593.78 40.9849 2593.78 40.96 2593.78C40.8852 2593.83 40.7606 2593.8 40.7107 2593.73C40.6858 2593.68 40.7356 2593.56 40.8353 2593.58Z" fill="#575B5A"/>
<path d="M41.6819 2590.15C41.7318 2590.1 41.8065 2590.1 41.8564 2590.15C41.9063 2590.2 41.9063 2590.27 41.8564 2590.32C41.8315 2590.35 41.8315 2590.35 41.8065 2590.35C41.7318 2590.4 41.6071 2590.37 41.5573 2590.3C41.5323 2590.25 41.5822 2590.12 41.6819 2590.15Z" fill="#575B5A"/>
<path d="M32.6433 2591.94C32.6932 2591.89 32.768 2591.89 32.8178 2591.94C32.8677 2591.99 32.8677 2592.06 32.8178 2592.11C32.7929 2592.14 32.7929 2592.14 32.768 2592.14C32.6932 2592.19 32.5685 2592.16 32.5187 2592.09C32.4937 2592.04 32.5685 2591.91 32.6433 2591.94Z" fill="#575B5A"/>
<path d="M36.1042 2591.76C36.179 2591.69 36.3286 2591.69 36.4034 2591.76C36.4782 2591.84 36.4782 2591.99 36.4034 2592.06C36.3785 2592.09 36.3535 2592.11 36.3286 2592.11C36.204 2592.19 36.0295 2592.16 35.9298 2592.04C35.855 2591.91 35.9547 2591.71 36.1042 2591.74" fill="#575B5A"/>
<path d="M33.7139 2593.33C33.7886 2593.26 33.9382 2593.26 34.013 2593.33C34.0878 2593.41 34.0878 2593.56 34.013 2593.63C33.9881 2593.66 33.9631 2593.68 33.9382 2593.68C33.8136 2593.76 33.6391 2593.73 33.5394 2593.61C33.4646 2593.48 33.5643 2593.28 33.7139 2593.31" fill="#575B5A"/>
<path d="M34.4608 2591.24C34.5356 2591.17 34.6852 2591.17 34.76 2591.24C34.8347 2591.32 34.8347 2591.47 34.76 2591.54C34.735 2591.57 34.7101 2591.59 34.6852 2591.59C34.5605 2591.66 34.386 2591.64 34.2863 2591.52C34.1866 2591.39 34.3112 2591.19 34.4608 2591.22" fill="#575B5A"/>
<path d="M27.1402 2593.26C27.215 2593.18 27.3646 2593.18 27.4394 2593.26C27.5142 2593.33 27.5142 2593.48 27.4394 2593.56C27.4145 2593.58 27.3895 2593.61 27.3646 2593.61C27.24 2593.68 27.0655 2593.66 26.9658 2593.53C26.866 2593.41 26.9907 2593.21 27.1402 2593.23" fill="#575B5A"/>
<path d="M38.4449 2592.04C38.5197 2591.96 38.6693 2591.96 38.7441 2592.04C38.8189 2592.11 38.8189 2592.26 38.7441 2592.34C38.7192 2592.36 38.6942 2592.39 38.6693 2592.39C38.5447 2592.46 38.3701 2592.44 38.2704 2592.31C38.1956 2592.19 38.2954 2591.99 38.4449 2592.01" fill="#575B5A"/>
<path d="M51.9156 2592.66C51.9904 2592.58 52.14 2592.58 52.2148 2592.66C52.2896 2592.73 52.2896 2592.88 52.2148 2592.96C52.1899 2592.98 52.1649 2593.01 52.14 2593.01C52.0154 2593.08 51.8409 2593.06 51.7412 2592.93C51.6664 2592.81 51.7661 2592.61 51.9156 2592.63" fill="#575B5A"/>
<path d="M54.8041 2594.03C54.8789 2593.95 55.0284 2593.95 55.1032 2594.03C55.178 2594.1 55.178 2594.25 55.1032 2594.33C55.0783 2594.35 55.0533 2594.38 55.0284 2594.38C54.9038 2594.45 54.7293 2594.43 54.6296 2594.3C54.5548 2594.18 54.6545 2593.98 54.8041 2594" fill="#575B5A"/>
<path d="M22.6582 2591.37C22.733 2591.29 22.8826 2591.29 22.9573 2591.37C23.0321 2591.44 23.0321 2591.59 22.9573 2591.66C22.9324 2591.69 22.9075 2591.71 22.8826 2591.71C22.7579 2591.79 22.5834 2591.76 22.4837 2591.64C22.4089 2591.52 22.5086 2591.32 22.6582 2591.34" fill="#575B5A"/>
<path d="M19.5957 2592.19C19.6456 2592.14 19.6955 2592.14 19.7453 2592.19C19.7952 2592.24 19.7952 2592.29 19.7453 2592.34C19.7453 2592.34 19.7204 2592.36 19.6955 2592.36C19.6207 2592.39 19.5459 2592.39 19.496 2592.34C19.4711 2592.26 19.521 2592.16 19.5957 2592.19Z" fill="#575B5A"/>
<path d="M23.53 2593.66C23.5798 2593.61 23.6297 2593.61 23.6795 2593.66C23.7294 2593.68 23.7294 2593.75 23.6795 2593.8C23.6795 2593.8 23.6546 2593.83 23.6297 2593.83C23.5549 2593.85 23.4801 2593.85 23.4302 2593.8C23.4053 2593.73 23.4552 2593.63 23.53 2593.66Z" fill="#575B5A"/>
<path d="M23.9284 2592.29C23.9783 2592.24 24.0281 2592.24 24.078 2592.29C24.1278 2592.31 24.1278 2592.39 24.078 2592.44C24.078 2592.44 24.053 2592.46 24.0281 2592.46C23.9533 2592.49 23.8785 2592.49 23.8287 2592.44C23.8037 2592.36 23.8536 2592.26 23.9284 2592.29Z" fill="#575B5A"/>
<path d="M21.538 2592.34C21.5879 2592.29 21.6377 2592.29 21.6876 2592.34C21.7374 2592.36 21.7374 2592.44 21.6876 2592.49C21.6876 2592.49 21.6627 2592.51 21.6377 2592.51C21.5629 2592.54 21.4882 2592.54 21.4383 2592.49C21.4134 2592.41 21.4632 2592.31 21.538 2592.34Z" fill="#575B5A"/>
<path d="M20.7911 2591.04C20.8409 2590.99 20.8908 2590.99 20.9406 2591.04C20.9905 2591.07 20.9905 2591.14 20.9406 2591.19C20.9406 2591.19 20.9157 2591.22 20.8908 2591.22C20.816 2591.24 20.7412 2591.24 20.6913 2591.19C20.6913 2591.12 20.7412 2591.02 20.7911 2591.04Z" fill="#575B5A"/>
<path d="M24.999 2593.43C25.0488 2593.38 25.1486 2593.38 25.2233 2593.43C25.2732 2593.48 25.2732 2593.58 25.2233 2593.66C25.1984 2593.68 25.1984 2593.68 25.1735 2593.71C25.0738 2593.76 24.9491 2593.73 24.8743 2593.66C24.7996 2593.56 24.8743 2593.41 24.999 2593.43Z" fill="#575B5A"/>
<path d="M30.0786 2597.49C30.1285 2597.44 30.2282 2597.44 30.3029 2597.49C30.3528 2597.54 30.3528 2597.64 30.3029 2597.71C30.278 2597.74 30.278 2597.74 30.2531 2597.76C30.1534 2597.81 30.0287 2597.79 29.954 2597.71C29.9041 2597.59 29.9789 2597.44 30.0786 2597.49Z" fill="#575B5A"/>
<path d="M32.9918 2597.81C33.0416 2597.76 33.1414 2597.76 33.2161 2597.81C33.266 2597.86 33.266 2597.96 33.2161 2598.04C33.1912 2598.06 33.1912 2598.06 33.1663 2598.09C33.0666 2598.14 32.9419 2598.11 32.8671 2598.04C32.7924 2597.91 32.8671 2597.76 32.9918 2597.81Z" fill="#575B5A"/>
<path d="M33.5147 2601.49C33.5646 2601.44 33.6643 2601.44 33.7391 2601.49C33.789 2601.54 33.789 2601.64 33.7391 2601.72C33.7142 2601.74 33.7142 2601.74 33.6892 2601.77C33.5895 2601.82 33.4649 2601.79 33.3901 2601.72C33.3153 2601.62 33.3901 2601.47 33.5147 2601.49Z" fill="#575B5A"/>
<path d="M49.6499 2599.33C49.6997 2599.28 49.7994 2599.28 49.8742 2599.33C49.9241 2599.38 49.9241 2599.48 49.8742 2599.55C49.8493 2599.58 49.8493 2599.58 49.8244 2599.6C49.7246 2599.65 49.6 2599.63 49.5252 2599.55C49.4753 2599.45 49.5501 2599.3 49.6499 2599.33Z" fill="#575B5A"/>
<path d="M54.5802 2597.76C54.63 2597.71 54.7297 2597.71 54.8045 2597.76C54.8544 2597.81 54.8544 2597.91 54.8045 2597.99C54.7796 2598.01 54.7796 2598.01 54.7547 2598.04C54.655 2598.09 54.5303 2598.06 54.4555 2597.99C54.4057 2597.86 54.4805 2597.71 54.5802 2597.76Z" fill="#575B5A"/>
<path d="M55.1279 2599.08C55.1777 2599.03 55.2775 2599.03 55.3523 2599.08C55.4021 2599.13 55.4021 2599.23 55.3523 2599.3C55.3273 2599.33 55.3273 2599.33 55.3024 2599.35C55.2027 2599.4 55.078 2599.38 55.0032 2599.3C54.9285 2599.2 55.0032 2599.06 55.1279 2599.08Z" fill="#575B5A"/>
<path d="M47.7077 2598.66C47.7576 2598.61 47.8573 2598.61 47.9321 2598.66C47.9819 2598.71 47.9819 2598.81 47.9321 2598.88C47.9072 2598.91 47.9072 2598.91 47.8822 2598.93C47.7825 2598.98 47.6579 2598.96 47.5831 2598.88C47.5083 2598.76 47.5831 2598.61 47.7077 2598.66Z" fill="#575B5A"/>
<path d="M44.3961 2599.65C44.446 2599.6 44.5457 2599.6 44.6204 2599.65C44.6703 2599.7 44.6703 2599.8 44.6204 2599.88C44.5955 2599.9 44.5955 2599.9 44.5706 2599.93C44.4709 2599.98 44.3462 2599.95 44.2715 2599.88C44.1967 2599.75 44.2715 2599.6 44.3961 2599.65Z" fill="#575B5A"/>
<path d="M51.4678 2599.43C51.6172 2599.28 51.8662 2599.28 52.0156 2599.4C52.165 2599.55 52.165 2599.8 52.0405 2599.95C51.9907 2600 51.9409 2600.03 51.8911 2600.05C51.6421 2600.17 51.3184 2600.15 51.169 2599.93C51.0196 2599.7 51.2188 2599.33 51.4678 2599.35" fill="#575B5A"/>
<path d="M54.8294 2600.82C53.4599 2601 52.1153 2600.57 50.7458 2600.57C48.7787 2600.57 46.9112 2601.42 45.0188 2601.97C39.491 2603.56 33.5897 2602.64 27.9125 2601.72C24.0779 2601.1 20.2682 2600.47 16.4336 2599.85C14.5662 2599.55 12.3003 2598.83 12.0513 2596.99C11.9766 2596.44 12.1011 2595.95 12.3501 2595.47C12.3999 2595.6 12.4497 2595.72 12.5244 2595.85C13.2714 2597.36 14.865 2598.33 16.5084 2598.78C18.1518 2599.23 19.8698 2599.28 21.563 2599.45C24.8498 2599.83 28.0619 2600.77 31.3487 2601.27C36.0299 2601.99 40.8356 2601.77 45.4421 2600.65C47.8325 2600.08 50.2727 2599.23 52.7129 2599.55C53.9828 2599.73 55.3772 2600.18 56.4479 2599.48C57.0704 2599.08 57.3941 2598.41 57.5684 2597.66C57.8173 2599.3 57.0455 2600.57 54.8294 2600.82Z" fill="#525655"/>
<path d="M-23.7066 2607.68C-20.252 2603.75 -16.8376 2599.81 -13.6641 2595.68C-8.68305 2589.21 0.0740471 2586.68 8.50975 2585.56C22.5693 2583.67 31.5673 2583.47 44.2209 2579.5C59.5658 2574.68 64.2256 2576.69 77.2005 2584.36C83.1858 2587.89 83.4269 2590.22 90.4566 2591.98C96.8437 2593.59 104.074 2591.26 110.1 2593.23C119.821 2596.44 130.305 2603.26 121.388 2613.26C111.988 2623.78 101.383 2616.59 90.4566 2616.07C77.2808 2615.43 61.3333 2620.85 48.6798 2619.28C36.5886 2617.8 36.1467 2620.05 22.971 2620.89C13.4507 2621.49 -0.367823 2616.51 -10.7719 2616.43C-19.9306 2616.35 -28.286 2612.9 -23.7066 2607.68Z" fill="#575B5A"/>
<path d="M11.8841 2617.08C3.68939 2615.95 -2.53695 2610.73 -10.2496 2609.09C-14.588 2608.16 -19.4887 2608.6 -23.7467 2607.76C-28.1654 2612.94 -19.8904 2616.35 -10.7316 2616.43C-0.327581 2616.51 13.4909 2621.53 23.0112 2620.89C36.187 2620.05 36.6288 2617.8 48.72 2619.28C49.6038 2619.4 50.5276 2619.48 51.4515 2619.52C47.7559 2617.6 43.2971 2617.2 39.1194 2616.95C29.9606 2616.31 20.8018 2618.28 11.8841 2617.08Z" fill="#575B5A"/>
<path d="M106.043 2613.3C96.2813 2612.38 86.1183 2612.1 75.9151 2612.1C65.9931 2612.1 54.866 2613.34 45.3056 2611.37C36.3075 2609.49 27.1487 2605.31 18.0703 2603.06C14.0131 2602.06 10.5986 2604.11 6.62181 2604.27C1.6809 2604.47 -1.61304 2603.1 -6.03175 2601.42C-7.95991 2600.7 -11.5752 2598.81 -14.3068 2596.56C-16.4358 2599.29 -18.6451 2601.94 -20.9348 2604.55C-16.4358 2606.68 -9.76754 2606.12 -5.30867 2607.76C2.44415 2610.65 10.1166 2612.66 18.1908 2614.39C26.4658 2616.15 34.7007 2611.58 42.1321 2613.34C46.1491 2614.31 53.8618 2616.11 58.1198 2619.4C68.7247 2618.64 80.4142 2615.59 90.4968 2616.07C100.821 2616.55 110.863 2623.02 119.901 2614.83C114.157 2614.55 107.971 2613.5 106.043 2613.3Z" fill="#575B5A"/>
<path d="M18.1906 2614.39C10.1566 2612.66 2.44391 2610.65 -5.3089 2607.76C-9.76777 2606.12 -16.436 2606.68 -20.935 2604.55C-21.859 2605.59 -22.7427 2606.64 -23.6666 2607.68C-23.7068 2607.72 -23.7068 2607.72 -23.7469 2607.76C-19.4889 2608.6 -14.5882 2608.16 -10.2498 2609.09C-2.53719 2610.73 3.68915 2615.95 11.8838 2617.08C20.8016 2618.28 29.9604 2616.31 39.1191 2616.95C43.2566 2617.24 47.7557 2617.6 51.4513 2619.52C53.6205 2619.64 55.87 2619.56 58.1196 2619.4C53.8615 2616.07 46.1489 2614.26 42.1319 2613.34C34.6603 2611.58 26.4254 2616.19 18.1906 2614.39Z" fill="#515655"/>
<path d="M98.812 2609.73C87.243 2607.32 77.6826 2610.45 66.2743 2609.73C61.2932 2609.41 56.8745 2607.84 51.8131 2607.32C46.591 2606.8 41.4492 2607.08 36.1468 2606.76C26.2248 2606.16 19.3155 2600.21 9.63456 2600.7C3.64923 2601.02 -10.1291 2601.62 -12.941 2594.87C-13.182 2595.16 -13.3829 2595.4 -13.6239 2595.72C-13.8649 2596 -14.1059 2596.32 -14.3068 2596.6C-11.5752 2598.89 -7.95991 2600.74 -6.03175 2601.46C-1.61305 2603.14 1.68089 2604.51 6.62181 2604.31C10.5986 2604.15 14.0131 2602.1 18.0703 2603.1C27.1487 2605.35 36.3476 2609.53 45.3056 2611.41C54.866 2613.42 65.9931 2612.14 75.9151 2612.14C86.1183 2612.14 96.3215 2612.38 106.043 2613.34C108.011 2613.54 114.157 2614.55 119.901 2614.87C120.423 2614.39 120.946 2613.9 121.428 2613.3C122.07 2612.58 122.593 2611.9 123.035 2611.21C114.88 2611.37 107.328 2611.5 98.812 2609.73Z" fill="#515655"/>
<path d="M5.37641 2593.47C15.0574 2593.27 23.2922 2585.64 33.6963 2588.05C42.9756 2590.22 48.1173 2599.85 58.4009 2601.34C69.2066 2602.86 74.9108 2596.76 84.8729 2601.34C94.3932 2605.67 105.56 2607.2 115.603 2604.35C118.495 2603.55 120.905 2602.34 122.793 2600.86C120.102 2597.44 115 2594.91 110.1 2593.31C104.074 2591.3 96.8436 2593.67 90.4566 2592.06C83.4268 2590.3 83.1858 2587.97 77.2004 2584.44C64.2255 2576.77 59.5658 2574.76 44.2208 2579.58C31.5673 2583.55 22.5692 2583.75 8.5097 2585.64C4.69354 2586.16 0.837209 2586.92 -2.69775 2588.25C-2.25588 2591.46 1.92179 2593.51 5.37641 2593.47Z" fill="#797C7C"/>
<path d="M72.2596 2585.64C68.2024 2581.91 62.4581 2578.09 56.5531 2578.98C50.8088 2579.86 42.6141 2585.76 50.6883 2589.7C53.5805 2591.1 57.1557 2589.78 60.2086 2590.42C62.7795 2590.94 65.511 2592.95 68.0417 2593.91C72.7416 2595.68 81.9406 2599.89 86.1584 2595.28C83.226 2590.66 76.1561 2589.21 72.2596 2585.64Z" fill="#838484"/>
<path d="M106.243 2600.05C104.878 2599.49 101.062 2599.09 101.303 2601.66C102.95 2602.26 109.778 2601.54 106.243 2600.05Z" fill="#5F6362"/>
<path d="M7.18414 2589.25C5.81836 2588.69 2.0022 2588.29 2.24322 2590.86C3.93035 2591.46 10.7593 2590.74 7.18414 2589.25Z" fill="#5F6362"/>
<path d="M62.1367 2595.4C61.0521 2594.35 57.6376 2592.63 56.9547 2595.12C58.2803 2596.28 64.9486 2598.09 62.1367 2595.4Z" fill="#5F6362"/>
<path d="M54.9061 2581.55C53.8215 2580.5 50.407 2578.78 49.7241 2581.26C51.0497 2582.43 57.718 2584.23 54.9061 2581.55Z" fill="#5F6362"/>
<path d="M43.4577 2588.17C42.3731 2587.13 38.9586 2585.4 38.2758 2587.89C39.6014 2589.05 46.2696 2590.86 43.4577 2588.17Z" fill="#5F6362"/>
<path d="M88.7693 2596.28C87.3634 2594.91 82.8242 2592.63 81.8601 2595.92C83.6678 2597.48 92.465 2599.85 88.7693 2596.28Z" fill="#5F6362"/>
<path d="M13.8122 2588.33C13.8122 2588.77 13.29 2589.17 12.6071 2589.17C11.9242 2589.17 11.402 2588.81 11.402 2588.33C11.402 2587.89 11.9242 2587.49 12.6071 2587.49C13.29 2587.49 13.8122 2587.89 13.8122 2588.33Z" fill="#5F6362"/>
<path d="M45.7474 2582.63C45.7474 2583.07 45.2251 2583.47 44.5423 2583.47C43.8594 2583.47 43.3372 2583.11 43.3372 2582.63C43.3372 2582.19 43.8594 2581.79 44.5423 2581.79C45.2251 2581.79 45.7474 2582.15 45.7474 2582.63Z" fill="#5F6362"/>
<path d="M25.8633 2586C25.8633 2586.44 25.3411 2586.84 24.6582 2586.84C23.9753 2586.84 23.4531 2586.48 23.4531 2586C23.4531 2585.56 23.9753 2585.16 24.6582 2585.16C25.3411 2585.16 25.8633 2585.56 25.8633 2586Z" fill="#5F6362"/>
<path d="M59.0035 2588.05C59.0035 2588.49 58.4813 2588.89 57.7984 2588.89C57.1155 2588.89 56.5933 2588.53 56.5933 2588.05C56.5933 2587.61 57.1155 2587.21 57.7984 2587.21C58.4813 2587.21 59.0035 2587.57 59.0035 2588.05Z" fill="#5F6362"/>
<path d="M66.8366 2582.63C66.8366 2583.07 66.3144 2583.47 65.6315 2583.47C64.9486 2583.47 64.4264 2583.11 64.4264 2582.63C64.4264 2582.19 64.9486 2581.79 65.6315 2581.79C66.3144 2581.79 66.8366 2582.15 66.8366 2582.63Z" fill="#5F6362"/>
<path d="M106.605 2597.08C106.605 2597.52 106.083 2597.93 105.4 2597.93C104.717 2597.93 104.195 2597.56 104.195 2597.08C104.195 2596.64 104.717 2596.24 105.4 2596.24C106.083 2596.24 106.605 2596.6 106.605 2597.08Z" fill="#5F6362"/>
<path d="M115.041 2599.49C115.041 2599.93 114.518 2600.33 113.836 2600.33C113.153 2600.33 112.63 2599.97 112.63 2599.49C112.63 2599.05 113.153 2598.65 113.836 2598.65C114.518 2598.65 115.041 2599.01 115.041 2599.49Z" fill="#5F6362"/>
<path d="M96.9641 2600.45C96.9641 2600.9 96.4419 2601.3 95.7591 2601.3C95.0762 2601.3 94.554 2600.94 94.554 2600.45C94.554 2600.01 95.0762 2599.61 95.7591 2599.61C96.4419 2599.61 96.9641 2600.01 96.9641 2600.45Z" fill="#5F6362"/>
<path d="M69.8494 2598.05C69.8494 2598.49 69.3272 2598.89 68.6443 2598.89C67.9614 2598.89 67.4392 2598.53 67.4392 2598.05C67.4392 2597.6 67.9614 2597.2 68.6443 2597.2C69.3272 2597.2 69.8494 2597.6 69.8494 2598.05Z" fill="#5F6362"/>
<path d="M51.1703 2593.23C51.1703 2593.67 50.6481 2594.07 49.9652 2594.07C49.2823 2594.07 48.7601 2593.71 48.7601 2593.23C48.7601 2592.79 49.2823 2592.39 49.9652 2592.39C50.6481 2592.39 51.1703 2592.79 51.1703 2593.23Z" fill="#5F6362"/>
<path d="M32.4913 2597.8C33.7337 2597.8 34.7408 2597.1 34.7408 2596.24C34.7408 2595.37 33.7337 2594.67 32.4913 2594.67C31.249 2594.67 30.2418 2595.37 30.2418 2596.24C30.2418 2597.1 31.249 2597.8 32.4913 2597.8Z" fill="#484C4B"/>
<path d="M42.0115 2602.5C42.0115 2603.18 41.2081 2603.75 40.1637 2603.75C39.1193 2603.75 38.3159 2603.18 38.3159 2602.5C38.3159 2601.82 39.1193 2601.26 40.1637 2601.26C41.2081 2601.26 42.0115 2601.78 42.0115 2602.5Z" fill="#484C4B"/>
<path d="M18.6325 2596.48C18.6325 2597.16 17.8291 2597.72 16.7847 2597.72C15.7804 2597.72 14.9369 2597.16 14.9369 2596.48C14.9369 2595.8 15.7403 2595.24 16.7847 2595.24C17.8291 2595.2 18.6325 2595.76 18.6325 2596.48Z" fill="#484C4B"/>
<path d="M3.60908 2607.36C3.60908 2608.04 2.80569 2608.6 1.76127 2608.6C0.716844 2608.6 -0.0865479 2608.04 -0.0865479 2607.36C-0.0865479 2606.68 0.716844 2606.12 1.76127 2606.12C2.80569 2606.12 3.60908 2606.68 3.60908 2607.36Z" fill="#484C4B"/>
<path d="M77.7227 2603.71C77.7227 2604.39 76.9193 2604.95 75.8749 2604.95C74.8707 2604.95 74.0271 2604.39 74.0271 2603.71C74.0271 2603.02 74.8305 2602.46 75.8749 2602.46C76.8792 2602.42 77.7227 2602.98 77.7227 2603.71Z" fill="#484C4B"/>
<path d="M11.2815 2606.96C11.2815 2608.04 9.9961 2608.93 8.42946 2608.93C6.86283 2608.93 5.57739 2608.04 5.57739 2606.96C5.57739 2605.87 6.86283 2604.99 8.42946 2604.99C9.9961 2604.99 11.2815 2605.87 11.2815 2606.96Z" fill="#484C4B"/>
<defs>
<linearGradient id="paint0_linear_520_25644" x1="172" y1="-35.4596" x2="172" y2="2684.16" gradientUnits="userSpaceOnUse">
<stop stop-color="#16E2EC"/>
<stop offset="0.508732" stop-color="#087781"/>
<stop offset="0.689451" stop-color="#1C5E74"/>
<stop offset="1" stop-color="#383C62"/>
</linearGradient>
<linearGradient id="paint1_linear_520_25644" x1="134.547" y1="36" x2="134.547" y2="382.05" gradientUnits="userSpaceOnUse">
<stop stop-color="#031226"/>
<stop offset="1" stop-color="#043D3A" stop-opacity="0"/>
</linearGradient>
</defs>
</svg>
