<svg width="24" height="19" viewBox="0 0 24 19" fill="none" xmlns="http://www.w3.org/2000/svg">
<path fill-rule="evenodd" clip-rule="evenodd" d="M24 2.25625C23.1168 2.62734 22.1574 2.89453 21.1675 2.99844C22.1878 2.40469 22.9645 1.46953 23.33 0.35625C22.3858 0.905469 21.3198 1.30625 20.2081 1.51406C19.3096 0.578906 18.0305 0 16.6142 0C13.8883 0 11.6954 2.15234 11.6954 4.79453C11.6954 5.16562 11.7411 5.53672 11.8173 5.89297C7.73604 5.68516 4.09645 3.78516 1.67513 0.875781C1.24873 1.58828 1.00508 2.40469 1.00508 3.29531C1.00508 4.95781 1.8731 6.42734 3.19797 7.28828C2.39086 7.25859 1.62944 7.03594 0.974619 6.67969C0.974619 6.69453 0.974619 6.72422 0.974619 6.73906C0.974619 9.06953 2.66497 10.9992 4.91878 11.4445C4.50761 11.5484 4.06599 11.6078 3.62437 11.6078C3.30457 11.6078 3 11.5781 2.69543 11.5336C3.3198 13.4336 5.13198 14.8141 7.29442 14.8586C5.60406 16.15 3.48731 16.907 1.18782 16.907C0.77665 16.907 0.395939 16.8922 0 16.8477C2.17766 18.2133 4.7665 19 7.5533 19C16.599 19 21.5482 11.6969 21.5482 5.35859C21.5482 5.15078 21.5482 4.94297 21.533 4.73516C22.4924 4.05234 23.3299 3.20625 24 2.25625Z" fill="#C2A6F1"/>
<path fill-rule="evenodd" clip-rule="evenodd" d="M24 2.25625C23.1168 2.62734 22.1574 2.89453 21.1675 2.99844C22.1878 2.40469 22.9645 1.46953 23.33 0.35625C22.3858 0.905469 21.3198 1.30625 20.2081 1.51406C19.3096 0.578906 18.0305 0 16.6142 0C13.8883 0 11.6954 2.15234 11.6954 4.79453C11.6954 5.16562 11.7411 5.53672 11.8173 5.89297C7.73604 5.68516 4.09645 3.78516 1.67513 0.875781C1.24873 1.58828 1.00508 2.40469 1.00508 3.29531C1.00508 4.95781 1.8731 6.42734 3.19797 7.28828C2.39086 7.25859 1.62944 7.03594 0.974619 6.67969C0.974619 6.69453 0.974619 6.72422 0.974619 6.73906C0.974619 9.06953 2.66497 10.9992 4.91878 11.4445C4.50761 11.5484 4.06599 11.6078 3.62437 11.6078C3.30457 11.6078 3 11.5781 2.69543 11.5336C3.3198 13.4336 5.13198 14.8141 7.29442 14.8586C5.60406 16.15 3.48731 16.907 1.18782 16.907C0.77665 16.907 0.395939 16.8922 0 16.8477C2.17766 18.2133 4.7665 19 7.5533 19C16.599 19 21.5482 11.6969 21.5482 5.35859C21.5482 5.15078 21.5482 4.94297 21.533 4.73516C22.4924 4.05234 23.3299 3.20625 24 2.25625Z" fill="url(#paint0_radial_322_5733)"/>
<path fill-rule="evenodd" clip-rule="evenodd" d="M24 2.25625C23.1168 2.62734 22.1574 2.89453 21.1675 2.99844C22.1878 2.40469 22.9645 1.46953 23.33 0.35625C22.3858 0.905469 21.3198 1.30625 20.2081 1.51406C19.3096 0.578906 18.0305 0 16.6142 0C13.8883 0 11.6954 2.15234 11.6954 4.79453C11.6954 5.16562 11.7411 5.53672 11.8173 5.89297C7.73604 5.68516 4.09645 3.78516 1.67513 0.875781C1.24873 1.58828 1.00508 2.40469 1.00508 3.29531C1.00508 4.95781 1.8731 6.42734 3.19797 7.28828C2.39086 7.25859 1.62944 7.03594 0.974619 6.67969C0.974619 6.69453 0.974619 6.72422 0.974619 6.73906C0.974619 9.06953 2.66497 10.9992 4.91878 11.4445C4.50761 11.5484 4.06599 11.6078 3.62437 11.6078C3.30457 11.6078 3 11.5781 2.69543 11.5336C3.3198 13.4336 5.13198 14.8141 7.29442 14.8586C5.60406 16.15 3.48731 16.907 1.18782 16.907C0.77665 16.907 0.395939 16.8922 0 16.8477C2.17766 18.2133 4.7665 19 7.5533 19C16.599 19 21.5482 11.6969 21.5482 5.35859C21.5482 5.15078 21.5482 4.94297 21.533 4.73516C22.4924 4.05234 23.3299 3.20625 24 2.25625Z" fill="url(#paint1_linear_322_5733)"/>
<path fill-rule="evenodd" clip-rule="evenodd" d="M24 2.25625C23.1168 2.62734 22.1574 2.89453 21.1675 2.99844C22.1878 2.40469 22.9645 1.46953 23.33 0.35625C22.3858 0.905469 21.3198 1.30625 20.2081 1.51406C19.3096 0.578906 18.0305 0 16.6142 0C13.8883 0 11.6954 2.15234 11.6954 4.79453C11.6954 5.16562 11.7411 5.53672 11.8173 5.89297C7.73604 5.68516 4.09645 3.78516 1.67513 0.875781C1.24873 1.58828 1.00508 2.40469 1.00508 3.29531C1.00508 4.95781 1.8731 6.42734 3.19797 7.28828C2.39086 7.25859 1.62944 7.03594 0.974619 6.67969C0.974619 6.69453 0.974619 6.72422 0.974619 6.73906C0.974619 9.06953 2.66497 10.9992 4.91878 11.4445C4.50761 11.5484 4.06599 11.6078 3.62437 11.6078C3.30457 11.6078 3 11.5781 2.69543 11.5336C3.3198 13.4336 5.13198 14.8141 7.29442 14.8586C5.60406 16.15 3.48731 16.907 1.18782 16.907C0.77665 16.907 0.395939 16.8922 0 16.8477C2.17766 18.2133 4.7665 19 7.5533 19C16.599 19 21.5482 11.6969 21.5482 5.35859C21.5482 5.15078 21.5482 4.94297 21.533 4.73516C22.4924 4.05234 23.3299 3.20625 24 2.25625Z" fill="url(#paint2_linear_322_5733)"/>
<path fill-rule="evenodd" clip-rule="evenodd" d="M24 2.25625C23.1168 2.62734 22.1574 2.89453 21.1675 2.99844C22.1878 2.40469 22.9645 1.46953 23.33 0.35625C22.3858 0.905469 21.3198 1.30625 20.2081 1.51406C19.3096 0.578906 18.0305 0 16.6142 0C13.8883 0 11.6954 2.15234 11.6954 4.79453C11.6954 5.16562 11.7411 5.53672 11.8173 5.89297C7.73604 5.68516 4.09645 3.78516 1.67513 0.875781C1.24873 1.58828 1.00508 2.40469 1.00508 3.29531C1.00508 4.95781 1.8731 6.42734 3.19797 7.28828C2.39086 7.25859 1.62944 7.03594 0.974619 6.67969C0.974619 6.69453 0.974619 6.72422 0.974619 6.73906C0.974619 9.06953 2.66497 10.9992 4.91878 11.4445C4.50761 11.5484 4.06599 11.6078 3.62437 11.6078C3.30457 11.6078 3 11.5781 2.69543 11.5336C3.3198 13.4336 5.13198 14.8141 7.29442 14.8586C5.60406 16.15 3.48731 16.907 1.18782 16.907C0.77665 16.907 0.395939 16.8922 0 16.8477C2.17766 18.2133 4.7665 19 7.5533 19C16.599 19 21.5482 11.6969 21.5482 5.35859C21.5482 5.15078 21.5482 4.94297 21.533 4.73516C22.4924 4.05234 23.3299 3.20625 24 2.25625Z" fill="url(#paint3_linear_322_5733)"/>
<path fill-rule="evenodd" clip-rule="evenodd" d="M24 2.25625C23.1168 2.62734 22.1574 2.89453 21.1675 2.99844C22.1878 2.40469 22.9645 1.46953 23.33 0.35625C22.3858 0.905469 21.3198 1.30625 20.2081 1.51406C19.3096 0.578906 18.0305 0 16.6142 0C13.8883 0 11.6954 2.15234 11.6954 4.79453C11.6954 5.16562 11.7411 5.53672 11.8173 5.89297C7.73604 5.68516 4.09645 3.78516 1.67513 0.875781C1.24873 1.58828 1.00508 2.40469 1.00508 3.29531C1.00508 4.95781 1.8731 6.42734 3.19797 7.28828C2.39086 7.25859 1.62944 7.03594 0.974619 6.67969C0.974619 6.69453 0.974619 6.72422 0.974619 6.73906C0.974619 9.06953 2.66497 10.9992 4.91878 11.4445C4.50761 11.5484 4.06599 11.6078 3.62437 11.6078C3.30457 11.6078 3 11.5781 2.69543 11.5336C3.3198 13.4336 5.13198 14.8141 7.29442 14.8586C5.60406 16.15 3.48731 16.907 1.18782 16.907C0.77665 16.907 0.395939 16.8922 0 16.8477C2.17766 18.2133 4.7665 19 7.5533 19C16.599 19 21.5482 11.6969 21.5482 5.35859C21.5482 5.15078 21.5482 4.94297 21.533 4.73516C22.4924 4.05234 23.3299 3.20625 24 2.25625Z" fill="url(#paint4_radial_322_5733)"/>
<path fill-rule="evenodd" clip-rule="evenodd" d="M24 2.25625C23.1168 2.62734 22.1574 2.89453 21.1675 2.99844C22.1878 2.40469 22.9645 1.46953 23.33 0.35625C22.3858 0.905469 21.3198 1.30625 20.2081 1.51406C19.3096 0.578906 18.0305 0 16.6142 0C13.8883 0 11.6954 2.15234 11.6954 4.79453C11.6954 5.16562 11.7411 5.53672 11.8173 5.89297C7.73604 5.68516 4.09645 3.78516 1.67513 0.875781C1.24873 1.58828 1.00508 2.40469 1.00508 3.29531C1.00508 4.95781 1.8731 6.42734 3.19797 7.28828C2.39086 7.25859 1.62944 7.03594 0.974619 6.67969C0.974619 6.69453 0.974619 6.72422 0.974619 6.73906C0.974619 9.06953 2.66497 10.9992 4.91878 11.4445C4.50761 11.5484 4.06599 11.6078 3.62437 11.6078C3.30457 11.6078 3 11.5781 2.69543 11.5336C3.3198 13.4336 5.13198 14.8141 7.29442 14.8586C5.60406 16.15 3.48731 16.907 1.18782 16.907C0.77665 16.907 0.395939 16.8922 0 16.8477C2.17766 18.2133 4.7665 19 7.5533 19C16.599 19 21.5482 11.6969 21.5482 5.35859C21.5482 5.15078 21.5482 4.94297 21.533 4.73516C22.4924 4.05234 23.3299 3.20625 24 2.25625Z" fill="url(#paint5_radial_322_5733)"/>
<path fill-rule="evenodd" clip-rule="evenodd" d="M24 2.25625C23.1168 2.62734 22.1574 2.89453 21.1675 2.99844C22.1878 2.40469 22.9645 1.46953 23.33 0.35625C22.3858 0.905469 21.3198 1.30625 20.2081 1.51406C19.3096 0.578906 18.0305 0 16.6142 0C13.8883 0 11.6954 2.15234 11.6954 4.79453C11.6954 5.16562 11.7411 5.53672 11.8173 5.89297C7.73604 5.68516 4.09645 3.78516 1.67513 0.875781C1.24873 1.58828 1.00508 2.40469 1.00508 3.29531C1.00508 4.95781 1.8731 6.42734 3.19797 7.28828C2.39086 7.25859 1.62944 7.03594 0.974619 6.67969C0.974619 6.69453 0.974619 6.72422 0.974619 6.73906C0.974619 9.06953 2.66497 10.9992 4.91878 11.4445C4.50761 11.5484 4.06599 11.6078 3.62437 11.6078C3.30457 11.6078 3 11.5781 2.69543 11.5336C3.3198 13.4336 5.13198 14.8141 7.29442 14.8586C5.60406 16.15 3.48731 16.907 1.18782 16.907C0.77665 16.907 0.395939 16.8922 0 16.8477C2.17766 18.2133 4.7665 19 7.5533 19C16.599 19 21.5482 11.6969 21.5482 5.35859C21.5482 5.15078 21.5482 4.94297 21.533 4.73516C22.4924 4.05234 23.3299 3.20625 24 2.25625Z" fill="url(#paint6_radial_322_5733)"/>
<path fill-rule="evenodd" clip-rule="evenodd" d="M24 2.25625C23.1168 2.62734 22.1574 2.89453 21.1675 2.99844C22.1878 2.40469 22.9645 1.46953 23.33 0.35625C22.3858 0.905469 21.3198 1.30625 20.2081 1.51406C19.3096 0.578906 18.0305 0 16.6142 0C13.8883 0 11.6954 2.15234 11.6954 4.79453C11.6954 5.16562 11.7411 5.53672 11.8173 5.89297C7.73604 5.68516 4.09645 3.78516 1.67513 0.875781C1.24873 1.58828 1.00508 2.40469 1.00508 3.29531C1.00508 4.95781 1.8731 6.42734 3.19797 7.28828C2.39086 7.25859 1.62944 7.03594 0.974619 6.67969C0.974619 6.69453 0.974619 6.72422 0.974619 6.73906C0.974619 9.06953 2.66497 10.9992 4.91878 11.4445C4.50761 11.5484 4.06599 11.6078 3.62437 11.6078C3.30457 11.6078 3 11.5781 2.69543 11.5336C3.3198 13.4336 5.13198 14.8141 7.29442 14.8586C5.60406 16.15 3.48731 16.907 1.18782 16.907C0.77665 16.907 0.395939 16.8922 0 16.8477C2.17766 18.2133 4.7665 19 7.5533 19C16.599 19 21.5482 11.6969 21.5482 5.35859C21.5482 5.15078 21.5482 4.94297 21.533 4.73516C22.4924 4.05234 23.3299 3.20625 24 2.25625Z" fill="url(#paint7_linear_322_5733)"/>
<defs>
<radialGradient id="paint0_radial_322_5733" cx="0" cy="0" r="1" gradientUnits="userSpaceOnUse" gradientTransform="translate(21.78 7.62852) rotate(109.551) scale(19.6329 10.8571)">
<stop stop-color="#FFFDB1"/>
<stop offset="0.344597" stop-color="#FEE4BF"/>
<stop offset="0.695017" stop-color="#F0BDD0"/>
<stop offset="1" stop-color="#FF8126" stop-opacity="0"/>
</radialGradient>
<linearGradient id="paint1_linear_322_5733" x1="13.635" y1="-1.2833" x2="18.2706" y2="3.37986" gradientUnits="userSpaceOnUse">
<stop stop-color="#C0A9F0" stop-opacity="0"/>
<stop offset="0.456382" stop-color="#C0A9F0"/>
<stop offset="1" stop-color="#C0A9F0" stop-opacity="0"/>
</linearGradient>
<linearGradient id="paint2_linear_322_5733" x1="25.71" y1="-4.45591" x2="20.8872" y2="3.79365" gradientUnits="userSpaceOnUse">
<stop stop-color="#C0A9F0" stop-opacity="0"/>
<stop offset="0.461891" stop-color="#C0A9F0"/>
<stop offset="1" stop-color="#C0A9F0" stop-opacity="0"/>
</linearGradient>
<linearGradient id="paint3_linear_322_5733" x1="6.105" y1="2.99437" x2="11.188" y2="9.32417" gradientUnits="userSpaceOnUse">
<stop stop-color="#CDF9E8"/>
<stop offset="1" stop-color="#CDF9E8" stop-opacity="0"/>
</linearGradient>
<radialGradient id="paint4_radial_322_5733" cx="0" cy="0" r="1" gradientUnits="userSpaceOnUse" gradientTransform="translate(10.935 8.48405) rotate(-123.169) scale(6.19627 13.7381)">
<stop stop-color="#CBADEB"/>
<stop offset="1" stop-color="#C2A6F1" stop-opacity="0"/>
</radialGradient>
<radialGradient id="paint5_radial_322_5733" cx="0" cy="0" r="1" gradientUnits="userSpaceOnUse" gradientTransform="translate(8.61 19) rotate(-131.596) scale(9.1282 12.829)">
<stop stop-color="#DC8DDC"/>
<stop offset="1" stop-color="#DC8DDC" stop-opacity="0"/>
</radialGradient>
<radialGradient id="paint6_radial_322_5733" cx="0" cy="0" r="1" gradientUnits="userSpaceOnUse" gradientTransform="translate(10.62 16.5225) rotate(-143.066) scale(8.27568 15.0864)">
<stop stop-color="#DC8DDC"/>
<stop offset="1" stop-color="#DC8DDC" stop-opacity="0"/>
</radialGradient>
<linearGradient id="paint7_linear_322_5733" x1="0" y1="0" x2="4.32873" y2="3.59872" gradientUnits="userSpaceOnUse">
<stop stop-color="#EBF3D0"/>
<stop offset="1" stop-color="#EBF3D0" stop-opacity="0"/>
</linearGradient>
</defs>
</svg>
